<svg xmlns="http://www.w3.org/2000/svg" aria-hidden="true" viewBox="0 0 1600 1600" width="16" height="16" fill="currentColor"><path d="M800 0C358.203 0 0 358.332 0 800c0 441.926 358.203 800 800 800s800-358.074 800-800c0-441.668-358.203-800-800-800zm0 354.839c74.826 0 135.484 60.658 135.484 135.484 0 74.825-60.658 135.483-135.484 135.483-74.826 0-135.484-60.658-135.484-135.483 0-74.826 60.658-135.484 135.484-135.484zm180.645 819.354c0 21.378-17.332 38.71-38.71 38.71h-283.87c-21.378 0-38.71-17.332-38.71-38.71v-77.419c0-21.377 17.332-38.71 38.71-38.71h38.71V851.613h-38.71c-21.378 0-38.71-17.332-38.71-38.71v-77.42c0-21.377 17.332-38.709 38.71-38.709h206.451c21.378 0 38.71 17.332 38.71 38.71v322.58h38.71c21.377 0 38.71 17.333 38.71 38.71z" fill="#000"/></svg>