<svg xmlns="http://www.w3.org/2000/svg" xmlns:xlink="http://www.w3.org/1999/xlink" width="32" height="32"><defs><radialGradient id="e" cx="-47.912" cy="209.082" r="90.325" fx="-47.912" fy="209.082" gradientTransform="matrix(.92883 .0068 -.00652 .89194 -305.027 21.278)" gradientUnits="userSpaceOnUse" xlink:href="#a"/><radialGradient id="f" cx="-102.916" cy="182.115" r="85.132" fx="-102.916" fy="182.115" gradientTransform="matrix(1.2527 -.00333 .00327 1.23153 -277.067 -40.627)" gradientUnits="userSpaceOnUse" xlink:href="#b"/><radialGradient id="g" cx="-238.114" cy="-175.242" r="136.906" fx="-238.114" fy="-175.242" gradientTransform="matrix(1.28495 .31483 -.20688 .84437 -150.337 282.302)" gradientUnits="userSpaceOnUse" xlink:href="#c"/><radialGradient id="h" cx="-805.388" cy="540.907" r="136.906" fx="-805.388" fy="540.907" gradientTransform="matrix(-.00738 1.52628 -2.05577 -.01007 695.969 1244.1)" gradientUnits="userSpaceOnUse" xlink:href="#d"/><linearGradient id="d"><stop offset="0" stop-color="#5adf72" stop-opacity="0"/><stop offset=".723" stop-color="#52da84" stop-opacity="0"/><stop offset="1" stop-color="#36c654"/></linearGradient><linearGradient id="a"><stop offset="0" stop-color="#0e569e"/><stop offset=".611" stop-color="#0d539b"/><stop offset="1" stop-color="#0e4781"/></linearGradient><linearGradient id="b"><stop offset="0" stop-color="#0c84da"/><stop offset=".769" stop-color="#0d83db"/><stop offset="1" stop-color="#0e6daa"/></linearGradient><linearGradient id="c"><stop offset="0" stop-color="#31c1e3"/><stop offset=".667" stop-color="#32c1ec"/><stop offset="1" stop-color="#5ee370"/></linearGradient></defs><g stroke-width="8.592"><path fill="url(#e)" d="M-344.951 276.818c-29.984-2.43-58.115-27.794-69.939-55.28-15.67-34.234-4.085-74.613 25.36-98.374 3.12-2.688 13.909-10.417 13.353-8.817-13.826 9.948-15.133 29.767-10.416 44.843 8.536 30.268 36.799 51.193 66.474 58.196 25.448 6.402 52.984 3.064 76.327-8.842 10.977-.68 1.746 12.16-1.998 16.044-19.372 25.155-48.573 45.15-79.91 51.171-4.907.69-13.565 1.197-19.251 1.06z" transform="matrix(.11638 0 0 .11638 57.281 -.438)"/><path fill="url(#f)" d="M-362.63 278.647c-49.005-2.426-95.247-33.417-115.95-77.926-10.16-22.11-15.724-47.174-12.154-71.468 5.118-28.273 30.26-48.787 56.91-56.226 29.786-8.969 64-2.541 88.183 17.066 12.366 10.753 22.941 26.42 24.087 42.543-5.055-18.3-26.303-29.996-44.302-23.25-30.53 11.951-52.056 42.918-53.263 75.626-2.123 31.577 14.66 63.49 42.082 79.374 15.124 9.83 33.783 11.515 51.336 11.373-12.043 2.618-24.527 3.239-36.929 2.888z" transform="matrix(.11638 0 0 .11638 57.281 -.438)"/><path fill="url(#g)" d="M-354.364 3.768c-39.803-.195-80.648 18.43-108.908 53.443-16.31 20.208-27.713 49.598-28.356 77.36-.023.976-.037 2.11.058 2.738.147-1.409.63-6.652.836-8.056 5.118-28.274 30.26-48.787 56.91-56.226 29.786-8.97 64-2.542 88.183 17.066 12.045 10.474 22.39 25.61 23.978 41.29a69.68 69.68 0 011.157 11.159c.132 6.143-2.853 12.042-5.454 17.61-1.562 3.341-5.63 5.623-6.008 9.292-.274 2.668 1.236 5.609 3.136 7.5 6.663 6.633 30.838 10.346 37.375 10.42 25.15.288 44.701-7.422 58.484-23.236 20.713-23.763 18.425-61.27 5.17-87.207C-248.3 36.818-288.309 10.043-342.06 4.435a124.45 124.45 0 00-12.304-.667z" style="font-variation-settings:normal" transform="matrix(.11638 0 0 .11638 57.281 -.438)"/><path fill="url(#h)" d="M-354.364 3.768c-39.803-.195-80.648 18.43-108.908 53.443-16.31 20.208-27.128 49.467-27.93 77.224.119-.362-.181-.595-.057-.961.146-1.409.319-2.817.525-4.221 5.118-28.274 30.26-48.787 56.91-56.226 29.786-8.97 64-2.542 88.183 17.066 12.045 10.474 22.39 25.61 23.978 41.29a69.68 69.68 0 011.157 11.159c.132 6.143-2.853 12.042-5.454 17.61-1.562 3.341-5.63 5.623-6.008 9.292-.274 2.668 1.236 5.609 3.136 7.5 6.663 6.633 30.838 10.346 37.375 10.42 25.15.288 44.701-7.422 58.484-23.236 20.713-23.763 18.425-61.27 5.17-87.207C-248.3 36.818-288.309 10.043-342.06 4.435a124.45 124.45 0 00-12.304-.667z" style="font-variation-settings:normal" transform="matrix(.11638 0 0 .11638 57.281 -.438)"/></g></svg>