<?xml version="1.0" encoding="UTF-8" standalone="no"?>
<svg
   xmlns:dc="http://purl.org/dc/elements/1.1/"
   xmlns:cc="http://creativecommons.org/ns#"
   xmlns:rdf="http://www.w3.org/1999/02/22-rdf-syntax-ns#"
   xmlns:svg="http://www.w3.org/2000/svg"
   xmlns="http://www.w3.org/2000/svg"
   id="svg16"
   viewBox="0 0 20 20"
   version="1.1">
  <metadata
     id="metadata2">
    <rdf:RDF>
      <cc:Work
         rdf:about="">
        <dc:format>image/svg+xml</dc:format>
        <dc:type
           rdf:resource="http://purl.org/dc/dcmitype/StillImage" />
        <dc:title></dc:title>
      </cc:Work>
    </rdf:RDF>
  </metadata>
  <defs
     id="defs9">
    <linearGradient
       gradientUnits="userSpaceOnUse"
       gradientTransform="matrix(.044643 0 0 .044643 -1.4286 -1.4286)"
       y2="480"
       y1="32"
       x2="32"
       x1="32"
       id="a">
      <stop
         id="stop4"
         offset="0"
         stop-color="#19d7ff" />
      <stop
         id="stop6"
         offset="1"
         stop-color="#1e64f0" />
    </linearGradient>
  </defs>
  <circle
     id="circle11"
     stroke-width=".044643"
     fill="url(#a)"
     r="10"
     cy="10"
     cx="10" />
  <path
     stroke-width=".044643"
     fill="red"
     d="m16.83 3.125-7.6786 6.0268 1.7857 1.7857z"
     id="path13" />
  <path
     stroke-width=".044643"
     fill="#fff"
     d="m3.125 16.83 6.0268-7.6786 1.7857 1.7857z"
     id="path15" />
  <path
     style="stroke-width:0.25;stroke-miterlimit:4;stroke-dasharray:none"
     stroke-width="3"
     stroke="#fff"
     d="m10 0.98214v1.4732m0 15.045v1.4732m1.5625-17.853-0.25446 1.4509m-2.6161 14.812-0.25446 1.4509m4.6384-17.308-0.50446 1.3839m-5.1429 14.134-0.50446 1.3839m1.5134-17.308 0.25446 1.4509m2.6161 14.812 0.25446 1.4509m-4.6384-17.308 0.50446 1.3839m5.1429 14.134 0.50446 1.3839m-7.5759-16.241 0.74107 1.2768m7.5223 13.027 0.73661 1.2768m-10.281-14.683 0.94643 1.1295m9.6696 11.527 0.94643 1.1295m-12.674-12.674 1.1295 0.94643m11.527 9.6696 1.1295 0.94643m-14.683-10.277 1.2768 0.73661m13.027 7.5223 1.2768 0.73661m-16.241-7.5759 1.3839 0.50446m14.134 5.1429 1.3839 0.50446m-17.308-4.6384 1.4509 0.25446m14.812 2.6161 1.4509 0.25447m-17.853-1.5625h1.4732m15.045 0h1.4732m-17.853 1.5625 1.4509-0.25447m14.812-2.6161 1.4509-0.25446m-17.308 4.6384 1.3839-0.50446m14.134-5.1429 1.3839-0.50446m-16.241 7.5759 1.2768-0.73661m13.027-7.5223 1.2768-0.73661m-14.683 10.277 1.1295-0.94643m11.527-9.6696 1.1295-0.94643m-12.674 12.674 0.94643-1.1295m9.6696-11.527 0.94643-1.1295m-10.281 14.683 0.74107-1.2768m7.5223-13.027 0.73661-1.2768m-5.2857-1.1696 0.07143 0.7991m1.4286 16.321 0.07143 0.79911m-3.1161-17.647 0.20982 0.77678m4.2411 15.821 0.20982 0.77679m-6.1339-16.839 0.33928 0.72768m6.9241 14.848 0.34375 0.72767m-8.9643-15.522 0.45982 0.66072m9.4018 13.42 0.45982 0.66071m-11.522-13.732 0.56696 0.56697m11.589 11.589 0.56696 0.56697m-13.732-11.522 0.66072 0.45983m13.42 9.4018 0.66072 0.45982m-15.522-8.9643 0.72768 0.33928m14.848 6.9241 0.72768 0.34375m-16.839-6.1339 0.77679 0.20982m15.821 4.2411 0.77679 0.20983m-17.647-3.1161 0.79911 0.0714m16.321 1.4286 0.79911 0.0714m-17.92 0 0.79911-0.0714m16.321-1.4286 0.79911-0.0714m-17.647 3.1161 0.77679-0.20983m15.821-4.2411 0.77679-0.20982m-16.839 6.1339 0.72768-0.33929m14.848-6.9286 0.72768-0.33928m-15.522 8.9643 0.66072-0.45982m13.42-9.4018 0.66072-0.45983m-12.531 12.531 0.45982-0.66071m9.3973-13.42 0.46428-0.66072m-8.9643 15.522 0.34375-0.72767m6.9196-14.848 0.34375-0.72768m-6.1339 16.839 0.20982-0.77679m4.2411-15.821 0.20982-0.77678m-3.1161 17.647 0.07143-0.79911m1.4286-16.321 0.07143-0.7991"
     id="path17" />
</svg>
