<svg width="20" height="20" version="1.1" viewBox="-3.3 -2.5 20 20" xmlns="http://www.w3.org/2000/svg" xmlns:cc="http://creativecommons.org/ns#" xmlns:dc="http://purl.org/dc/elements/1.1/" xmlns:rdf="http://www.w3.org/1999/02/22-rdf-syntax-ns#">
<metadata>
<rdf:RDF>
<cc:Work rdf:about="">
<dc:format>image/svg+xml</dc:format>
<dc:type rdf:resource="http://purl.org/dc/dcmitype/StillImage"/>
<dc:title/>
</cc:Work>
</rdf:RDF>
</metadata>
<path id="path2" d="m15.917 6.9c0-5.5333-3.8667-9.3333-9-9.4-5.1667 0.066667-8.7667 3.7667-9.4333 8.9333 1.8667-3.0667 5.5667-5.1333 8.8333-5.1333 2.6667 0 4.1 1.4333 4.1 4.2667h-7.1333c0.13333-1.2 0.66667-2.4333 1.4-3.1667-2.8667 1.1667-4.8667 3.7667-4.8667 7.2667 0 4.3333 3.3333 7.8333 8.2 7.8333 2.4667 0 4.4667-0.53333 6.2-1.4333v-4.2333c-1.5667 0.93333-3.4333 1.5-5.5 1.5-3.1 0-5.3333-1.5-5.3333-4.2333h12.533z" fill="#0078d7"/>
</svg>
