<svg width="20" height="20" version="1.1" viewBox="1 1 20 20" xmlns="http://www.w3.org/2000/svg" xmlns:cc="http://creativecommons.org/ns#" xmlns:dc="http://purl.org/dc/elements/1.1/" xmlns:rdf="http://www.w3.org/1999/02/22-rdf-syntax-ns#" xmlns:xlink="http://www.w3.org/1999/xlink">
<metadata>
<rdf:RDF>
<cc:Work rdf:about="">
<dc:format>image/svg+xml</dc:format>
<dc:type rdf:resource="http://purl.org/dc/dcmitype/StillImage"/>
<dc:title/>
</cc:Work>
</rdf:RDF>
</metadata>
<defs>
<linearGradient id="b" x1="29.34" x2="81.84" y1="75.02" y2="44.35" gradientUnits="userSpaceOnUse">
<stop stop-color="#a52714" stop-opacity=".6" offset="0"/>
<stop stop-color="#a52714" stop-opacity="0" offset=".66"/>
</linearGradient>
<linearGradient id="c" x1="110.87" x2="52.54" y1="164.5" y2="130.33" gradientUnits="userSpaceOnUse">
<stop stop-color="#055524" stop-opacity=".4" offset="0"/>
<stop stop-color="#055524" stop-opacity="0" offset=".33"/>
</linearGradient>
<linearGradient id="a" x1="121.86" x2="136.55" y1="49.8" y2="114.13" gradientUnits="userSpaceOnUse">
<stop stop-color="#ea6100" stop-opacity=".3" offset="0"/>
<stop stop-color="#ea6100" stop-opacity="0" offset=".66"/>
</linearGradient>
<linearGradient id="i" x1="121.86" x2="136.55" y1="49.8" y2="114.13" gradientUnits="userSpaceOnUse" xlink:href="#a"/>
<linearGradient id="l" x1="29.34" x2="81.84" y1="75.02" y2="44.35" gradientUnits="userSpaceOnUse" xlink:href="#b"/>
<radialGradient id="d" cx="668.18" cy="55.95" r="84.08" gradientTransform="translate(-576)" gradientUnits="userSpaceOnUse">
<stop stop-color="#3e2723" stop-opacity=".2" offset="0"/>
<stop stop-color="#3e2723" stop-opacity="0" offset="1"/>
</radialGradient>
<linearGradient id="o" x1="110.87" x2="52.54" y1="164.5" y2="130.33" gradientUnits="userSpaceOnUse" xlink:href="#c"/>
<radialGradient id="p" cx="597.88" cy="48.52" r="78.04" gradientTransform="translate(-576)" gradientUnits="userSpaceOnUse" xlink:href="#d"/>
<radialGradient id="q" cx="671.84" cy="96.14" r="87.87" gradientTransform="translate(-576)" gradientUnits="userSpaceOnUse">
<stop stop-color="#263238" stop-opacity=".2" offset="0"/>
<stop stop-color="#263238" stop-opacity="0" offset="1"/>
</radialGradient>
<radialGradient id="r" cx="34.29" cy="32.01" r="176.75" gradientUnits="userSpaceOnUse">
<stop stop-color="#fff" stop-opacity=".1" offset="0"/>
<stop stop-color="#fff" stop-opacity="0" offset="1"/>
</radialGradient>
<circle id="e" cx="96" cy="96" r="88"/>
<radialGradient id="radialGradient1571" cx="668.18" cy="55.95" r="84.08" gradientTransform="translate(-576)" gradientUnits="userSpaceOnUse" xlink:href="#d"/>
</defs>
<clipPath id="f">
<use width="100%" height="100%" overflow="visible" xlink:href="#e"/>
</clipPath>
<g transform="matrix(.11364 0 0 .11364 .090909 .090909)">
<g clip-path="url(#f)">
<path id="path42" d="m22 8v108h39.4l34.6-60h88v-48z" fill="#db4437"/>
<path id="path44" d="m22 8v108h39.4l34.6-60h88v-48z" fill="url(#l)"/>
</g>
<path id="path48" d="m62.3 115.7-39.8-68.3-0.6 1 39 67.8z" clip-path="url(#f)" fill="#3e2723" fill-opacity=".15"/>
<g clip-path="url(#f)">
<path id="path50" d="m8 184h83.8l39-39v-29h-69.6l-53.2-91.5z" fill="#0f9d58"/>
<path id="path52" d="m8 184h83.8l39-39v-29h-69.6l-53.2-91.5z" fill="url(#o)"/>
</g>
<path id="path56" d="m129.8 117.3-0.8-0.4-38.3 67h1l38.3-67z" clip-path="url(#f)" fill="#263238" fill-opacity=".15"/>
<g clip-path="url(#f)">
<defs>
<path id="g" d="m8 184h83.8l39-39v-29h-69.6l-53.2-91.5z"/>
</defs>
<clipPath id="h">
<use width="100%" height="100%" overflow="visible" xlink:href="#g"/>
</clipPath>
<g clip-path="url(#h)">
<path id="path64" d="m96 56 34.6 60-38.6 68h92v-128z" fill="#ffcd40"/>
<path id="path66" d="m96 56 34.6 60-38.6 68h92v-128z" fill="url(#i)"/>
</g>
</g>
<g clip-path="url(#f)">
<path id="path72" d="m96 56 34.6 60-38.6 68h92v-128z" fill="#ffcd40"/>
<path id="path74" d="m96 56 34.6 60-38.6 68h92v-128z" fill="url(#i)"/>
</g>
<g clip-path="url(#f)">
<defs>
<path id="j" d="m96 56 34.6 60-38.6 68h92v-128z"/>
</defs>
<clipPath id="k">
<use width="100%" height="100%" overflow="visible" xlink:href="#j"/>
</clipPath>
<g clip-path="url(#k)">
<path id="path84" d="m22 8v108h39.4l34.6-60h88v-48z" fill="#db4437"/>
<path id="path86" d="m22 8v108h39.4l34.6-60h88v-48z" fill="url(#l)"/>
</g>
</g>
<path id="path92" d="m96 56v21l78.4-21z" clip-path="url(#f)" fill="url(#radialGradient1571)"/>
<g clip-path="url(#f)">
<defs>
<path id="m" d="m22 8v40.3l39.4 67.7 34.6-60h88v-48z"/>
</defs>
<clipPath id="n">
<use width="100%" height="100%" overflow="visible" xlink:href="#m"/>
</clipPath>
<g clip-path="url(#n)">
<path id="path100" d="m8 184h83.8l39-39v-29h-69.6l-53.2-91.5z" fill="#0f9d58"/>
<path id="path102" d="m8 184h83.8l39-39v-29h-69.6l-53.2-91.5z" fill="url(#o)"/>
</g>
</g>
<path id="path108" d="m22 48.5 57.2 57.2-17.8 10.3z" clip-path="url(#f)" fill="url(#p)"/>
<path id="path110" d="m91.8 184 21-78.3 17.8 10.3z" clip-path="url(#f)" fill="url(#q)"/>
<g clip-path="url(#f)">
<circle cx="96" cy="96" r="40" fill="#f1f1f1"/>
<circle cx="96" cy="96" r="32" fill="#4285f4"/>
</g>
<g clip-path="url(#f)">
<path id="path118" d="m96 55c-22 0-40 18-40 40v1c0-22 18-40 40-40h88v-1z" fill="#3e2723" fill-opacity=".2"/>
<path id="path120" d="m130.6 116c-7 12-19.8 20-34.6 20s-27.7-8-34.6-20l-53.4-91.5v1l53.4 91.5c7 12 19.8 20 34.6 20s27.7-8 34.6-20z" fill="#fff" fill-opacity=".1"/>
<path id="path122" d="m97 56h-0.5c22 0.3 39.5 18 39.5 40s-17.6 39.7-39.5 40h0.5c22 0 40-18 40-40s-18-40-40-40z" fill="#3e2723" opacity=".1"/>
<path id="path124" d="m131 117.3c3.4-5.8 5.4-12.6 5.4-20 0-4-0.7-8.2-2-12 1 3.4 1.6 7 1.6 10.7 0 7.3-2 14-5.4 20l-38.6 68h1l38.2-66.5z" fill="#fff" fill-opacity=".2"/>
</g>
<g clip-path="url(#f)">
<path id="path128" d="m96 9c48.4 0 87.7 39 88 87.5v-0.5c0-48.6-39.4-88-88-88s-88 39.4-88 88v0.5c0.3-48.5 39.6-87.5 88-87.5z" fill="#fff" fill-opacity=".2"/>
<path id="path130" d="m96 183c48.4 0 87.7-39 88-87.5v0.5c0 48.6-39.4 88-88 88s-88-39.4-88-88v-0.5c0.3 48.5 39.6 87.5 88 87.5z" fill="#3e2723" fill-opacity=".15"/>
</g>
<circle cx="96" cy="96" r="88" fill="url(#r)"/>
</g>
</svg>
