<svg xmlns="http://www.w3.org/2000/svg" width="32" height="32"><defs><linearGradient id="a" x1="32" x2="32" y1="32" y2="480" gradientTransform="matrix(.07142 0 0 .07142 -2.286 -2.286)" gradientUnits="userSpaceOnUse"><stop offset="0" stop-color="#19d7ff"/><stop offset="1" stop-color="#1e64f0"/></linearGradient></defs><circle cx="16" cy="16" r="16" fill="url(#a)"/><path fill="red" d="M26.928 5l-12.286 9.643 2.857 2.858z"/><path fill="#fff" d="M5 26.928l9.643-12.286 2.858 2.857z"/><path stroke="#fff" stroke-width=".25" d="M16 1.571v2.357M16 28v2.358m2.5-28.566l-.407 2.32m-4.186 23.7l-.408 2.322m7.423-27.692l-.81 2.214M11.888 27.27l-.808 2.215M13.5 1.792l.407 2.322m4.186 23.699l.406 2.32m-7.42-27.69l.809 2.213m8.227 22.614l.808 2.215M8.8 3.499l1.186 2.043M22.02 26.386l1.179 2.041M6.75 4.934l1.514 1.808m15.472 18.444l1.514 1.808M4.97 6.712L6.78 8.227M25.222 23.7l1.808 1.514M3.536 8.77L5.579 9.95m20.843 12.037l2.044 1.177M2.48 11.042l2.214.808m22.615 8.228l2.214.807M1.83 13.464l2.32.406m23.701 4.186l2.32.408m-28.561-2.5h2.356m24.072 0h2.357m-28.566 2.5l2.32-.408m23.702-4.184l2.32-.406M2.48 20.885l2.214-.807M27.31 11.85l2.211-.81M3.536 23.163l2.042-1.177M26.42 9.949l2.043-1.178M4.971 25.214L6.78 23.7M25.222 8.227l1.808-1.513M6.75 26.992l1.515-1.808M23.736 6.742l1.514-1.808M8.8 28.427l1.184-2.041M22.021 5.542L23.2 3.5m-8.458-1.872l.114 1.28m2.286 26.112l.114 1.28M12.272 2.061l.336 1.243m6.786 25.314l.336 1.243M9.915 2.918l.544 1.167M21.536 27.84l.549 1.163M7.744 4.17l.736 1.057M23.523 26.7l.736 1.056M5.821 5.787l.907.907m18.544 18.543l.906.907M4.208 7.707l1.058.736m21.472 15.042l1.056.736M2.96 9.878l1.163.544M27.88 21.5l1.165.55M2.102 12.236l1.244.336m25.313 6.784l1.243.336M1.667 14.71l1.279.113m26.112 2.287l1.28.113m-28.672 0l1.28-.113m26.112-2.287l1.28-.113M2.099 19.693l1.243-.336m25.314-6.786l1.243-.336M2.955 22.05l1.165-.544M27.877 10.42l1.165-.544M4.208 24.222l1.056-.736M26.736 8.443l1.06-.736M7.743 27.758l.736-1.057M23.515 5.229l.743-1.056M9.917 29.003l.549-1.163M21.538 4.083l.55-1.165m-9.816 26.944l.336-1.243m6.784-25.313l.336-1.244m-4.98 28.236l.111-1.279m2.288-26.112l.114-1.28"/></svg>