<svg xmlns="http://www.w3.org/2000/svg" width="32" height="33.053"><defs><radialGradient id="b" cx="-7907.187" cy="-8515.121" r="80.797" gradientTransform="matrix(.40017 0 0 .40017 3190.797 3411.006)" gradientUnits="userSpaceOnUse"><stop offset=".129" stop-color="#ffbd4f"/><stop offset=".186" stop-color="#ffac31"/><stop offset=".247" stop-color="#ff9d17"/><stop offset=".283" stop-color="#ff980e"/><stop offset=".403" stop-color="#ff563b"/><stop offset=".467" stop-color="#ff3750"/><stop offset=".71" stop-color="#f5156c"/><stop offset=".782" stop-color="#eb0878"/><stop offset=".86" stop-color="#e50080"/></radialGradient><radialGradient id="c" cx="-7936.711" cy="-8482.089" r="80.797" gradientTransform="matrix(.40017 0 0 .40017 3190.797 3411.006)" gradientUnits="userSpaceOnUse"><stop offset=".3" stop-color="#960e18"/><stop offset=".351" stop-color="#b11927" stop-opacity=".74"/><stop offset=".435" stop-color="#db293d" stop-opacity=".343"/><stop offset=".497" stop-color="#f5334b" stop-opacity=".094"/><stop offset=".53" stop-color="#ff3750" stop-opacity="0"/></radialGradient><radialGradient id="d" cx="-7926.97" cy="-8533.457" r="58.534" gradientTransform="matrix(.40017 0 0 .40017 3190.797 3411.006)" gradientUnits="userSpaceOnUse"><stop offset=".132" stop-color="#fff44f"/><stop offset=".252" stop-color="#ffdc3e"/><stop offset=".506" stop-color="#ff9d12"/><stop offset=".526" stop-color="#ff980e"/></radialGradient><radialGradient id="e" cx="-7945.648" cy="-8460.984" r="38.471" gradientTransform="matrix(.40017 0 0 .40017 3190.797 3411.006)" gradientUnits="userSpaceOnUse"><stop offset=".353" stop-color="#3a8ee6"/><stop offset=".472" stop-color="#5c79f0"/><stop offset=".669" stop-color="#9059ff"/><stop offset="1" stop-color="#c139e6"/></radialGradient><radialGradient id="f" cx="-7935.62" cy="-8491.546" r="20.397" gradientTransform="matrix(.38896 -.09404 .11005 .45539 4037.668 3134.811)" gradientUnits="userSpaceOnUse"><stop offset=".206" stop-color="#9059ff" stop-opacity="0"/><stop offset=".278" stop-color="#8c4ff3" stop-opacity=".064"/><stop offset=".747" stop-color="#7716a8" stop-opacity=".45"/><stop offset=".975" stop-color="#6e008b" stop-opacity=".6"/></radialGradient><radialGradient id="g" cx="-7937.731" cy="-8518.427" r="27.676" gradientTransform="matrix(.40017 0 0 .40017 3190.797 3411.006)" gradientUnits="userSpaceOnUse"><stop offset="0" stop-color="#ffe226"/><stop offset=".121" stop-color="#ffdb27"/><stop offset=".295" stop-color="#ffc82a"/><stop offset=".502" stop-color="#ffa930"/><stop offset=".732" stop-color="#ff7e37"/><stop offset=".792" stop-color="#ff7139"/></radialGradient><radialGradient id="h" cx="-7915.977" cy="-8535.981" r="118.081" gradientTransform="matrix(.40017 0 0 .40017 3190.797 3411.006)" gradientUnits="userSpaceOnUse"><stop offset=".113" stop-color="#fff44f"/><stop offset=".456" stop-color="#ff980e"/><stop offset=".622" stop-color="#ff5634"/><stop offset=".716" stop-color="#ff3647"/><stop offset=".904" stop-color="#e31587"/></radialGradient><radialGradient id="i" cx="-7927.165" cy="-8522.859" r="86.499" gradientTransform="matrix(.04202 .39816 -.2613 .02761 -1874.896 3389.474)" gradientUnits="userSpaceOnUse"><stop offset="0" stop-color="#fff44f"/><stop offset=".06" stop-color="#ffe847"/><stop offset=".168" stop-color="#ffc830"/><stop offset=".304" stop-color="#ff980e"/><stop offset=".356" stop-color="#ff8b16"/><stop offset=".455" stop-color="#ff672a"/><stop offset=".57" stop-color="#ff3647"/><stop offset=".737" stop-color="#e31587"/></radialGradient><radialGradient id="j" cx="-7938.383" cy="-8508.176" r="73.72" gradientTransform="matrix(.40017 0 0 .40017 3190.797 3411.006)" gradientUnits="userSpaceOnUse"><stop offset=".137" stop-color="#fff44f"/><stop offset=".48" stop-color="#ff980e"/><stop offset=".592" stop-color="#ff5634"/><stop offset=".655" stop-color="#ff3647"/><stop offset=".904" stop-color="#e31587"/></radialGradient><radialGradient id="k" cx="-7918.923" cy="-8503.861" r="80.686" gradientTransform="matrix(.40017 0 0 .40017 3190.797 3411.006)" gradientUnits="userSpaceOnUse"><stop offset=".094" stop-color="#fff44f"/><stop offset=".231" stop-color="#ffe141"/><stop offset=".509" stop-color="#ffaf1e"/><stop offset=".626" stop-color="#ff980e"/></radialGradient><linearGradient id="a" x1="70.786" x2="6.447" y1="12.393" y2="74.468" gradientTransform="matrix(.40017 0 0 .40017 -.52 -.002)" gradientUnits="userSpaceOnUse"><stop offset=".048" stop-color="#fff44f"/><stop offset=".111" stop-color="#ffe847"/><stop offset=".225" stop-color="#ffc830"/><stop offset=".368" stop-color="#ff980e"/><stop offset=".401" stop-color="#ff8b16"/><stop offset=".462" stop-color="#ff672a"/><stop offset=".534" stop-color="#ff3647"/><stop offset=".705" stop-color="#e31587"/></linearGradient><linearGradient id="l" x1="70.013" x2="15.267" y1="12.061" y2="66.806" gradientTransform="matrix(.40017 0 0 .40017 -.52 -.002)" gradientUnits="userSpaceOnUse"><stop offset=".167" stop-color="#fff44f" stop-opacity=".8"/><stop offset=".266" stop-color="#fff44f" stop-opacity=".634"/><stop offset=".489" stop-color="#fff44f" stop-opacity=".217"/><stop offset=".6" stop-color="#fff44f" stop-opacity="0"/></linearGradient></defs><g stroke-width=".968"><path fill="url(#a)" d="M29.859 10.735c-.674-1.621-2.041-3.372-3.112-3.925a16.113 16.113 0 011.571 4.707l.003.026c-1.754-4.372-4.727-6.134-7.156-9.973A18.847 18.847 0 0120.8.976a4.898 4.898 0 01-.171-.32 2.822 2.822 0 01-.231-.614.04.04 0 00-.036-.04.055.055 0 00-.029 0l-.007.004-.012.006.006-.01c-3.895 2.28-5.217 6.503-5.339 8.616a7.758 7.758 0 00-4.268 1.644 4.637 4.637 0 00-.4-.303 7.19 7.19 0 01-.044-3.79 11.487 11.487 0 00-3.733 2.885H6.53c-.615-.78-.571-3.348-.536-3.885a2.772 2.772 0 00-.518.275A11.295 11.295 0 003.96 6.742a13.544 13.544 0 00-1.45 1.74v.002-.003a13.099 13.099 0 00-2.08 4.7l-.021.102a24.766 24.766 0 00-.153.968c0 .012-.002.023-.003.034A14.78 14.78 0 000 16.424v.08a15.51 15.51 0 0030.794 2.622c.026-.2.048-.398.07-.6a15.95 15.95 0 00-1.005-7.791zm-17.876 12.14c.073.035.14.072.215.106l.011.007q-.113-.054-.226-.113zm3.553-9.354zm12.786-1.974v-.015l.003.016z" transform="scale(1.03292)"/><path fill="url(#b)" d="M29.859 10.735c-.674-1.621-2.041-3.372-3.112-3.925a16.113 16.113 0 011.571 4.707v.015l.003.016a14.046 14.046 0 01-.483 10.468c-1.777 3.813-6.08 7.723-12.815 7.533C7.746 29.343 1.338 23.943.14 16.871c-.218-1.116 0-1.681.11-2.588a11.555 11.555 0 00-.25 2.14v.08a15.51 15.51 0 0030.794 2.623c.026-.2.048-.398.07-.6a15.95 15.95 0 00-1.005-7.791z" transform="scale(1.03292)"/><path fill="url(#c)" d="M29.859 10.735c-.674-1.621-2.041-3.372-3.112-3.925a16.113 16.113 0 011.571 4.707v.015l.003.016a14.046 14.046 0 01-.483 10.468c-1.777 3.813-6.08 7.723-12.815 7.533C7.746 29.343 1.338 23.943.14 16.871c-.218-1.116 0-1.681.11-2.588a11.555 11.555 0 00-.25 2.14v.08a15.51 15.51 0 0030.794 2.623c.026-.2.048-.398.07-.6a15.95 15.95 0 00-1.005-7.791z" transform="scale(1.03292)"/><path fill="url(#d)" d="M22.322 12.558l.096.071a8.443 8.443 0 00-1.44-1.879C16.158 5.93 19.715.297 20.314.01l.006-.008c-3.895 2.28-5.217 6.503-5.339 8.616.181-.013.36-.028.545-.028a7.827 7.827 0 016.796 3.968z" transform="scale(1.03292)"/><path fill="url(#e)" d="M15.536 13.521c-.025.386-1.388 1.716-1.865 1.716-4.41 0-5.126 2.668-5.126 2.668.195 2.247 1.76 4.097 3.653 5.076.087.045.174.085.262.125q.228.1.455.186a6.897 6.897 0 002.018.39c7.73.362 9.228-9.244 3.65-12.032a5.354 5.354 0 013.739.908 7.827 7.827 0 00-6.796-3.968c-.184 0-.364.015-.545.028a7.758 7.758 0 00-4.268 1.644c.237.2.504.468 1.066 1.022 1.052 1.037 3.751 2.111 3.757 2.237z" transform="scale(1.03292)"/><path fill="url(#f)" d="M15.536 13.521c-.025.386-1.388 1.716-1.865 1.716-4.41 0-5.126 2.668-5.126 2.668.195 2.247 1.76 4.097 3.653 5.076.087.045.174.085.262.125q.228.1.455.186a6.897 6.897 0 002.018.39c7.73.362 9.228-9.244 3.65-12.032a5.354 5.354 0 013.739.908 7.827 7.827 0 00-6.796-3.968c-.184 0-.364.015-.545.028a7.758 7.758 0 00-4.268 1.644c.237.2.504.468 1.066 1.022 1.052 1.037 3.751 2.111 3.757 2.237z" transform="scale(1.03292)"/><path fill="url(#g)" d="M9.99 9.747c.126.08.23.15.32.212a7.19 7.19 0 01-.043-3.79 11.487 11.487 0 00-3.734 2.885c.076-.002 2.326-.043 3.457.693z" transform="scale(1.03292)"/><path fill="url(#h)" d="M.142 16.87c1.197 7.073 7.606 12.473 14.883 12.679 6.735.19 11.038-3.72 12.815-7.533a14.046 14.046 0 00.483-10.468v-.014c0-.012-.003-.019 0-.015l.003.026c.55 3.592-1.277 7.072-4.134 9.426l-.008.02c-5.566 4.532-10.892 2.734-11.97 2q-.113-.054-.226-.112c-3.245-1.551-4.585-4.507-4.298-7.043a3.983 3.983 0 01-3.674-2.31 5.85 5.85 0 015.702-.23 7.723 7.723 0 005.823.23c-.006-.127-2.705-1.201-3.757-2.238-.563-.554-.83-.82-1.066-1.021a4.637 4.637 0 00-.4-.304c-.092-.063-.196-.13-.32-.212-1.132-.736-3.381-.695-3.456-.693h-.007C5.92 8.278 5.964 5.71 6 5.173a2.772 2.772 0 00-.518.275 11.295 11.295 0 00-1.516 1.298A13.544 13.544 0 002.51 8.482v.002-.003a13.099 13.099 0 00-2.08 4.7c-.008.031-.56 2.44-.287 3.69z" transform="scale(1.03292)"/><path fill="url(#i)" d="M20.979 10.75a8.443 8.443 0 011.44 1.881c.085.064.165.128.233.19 3.516 3.242 1.674 7.824 1.536 8.15 2.857-2.353 4.682-5.834 4.134-9.426-1.755-4.374-4.728-6.136-7.157-9.975A18.847 18.847 0 0120.8.976a4.898 4.898 0 01-.171-.32 2.822 2.822 0 01-.231-.614.04.04 0 00-.036-.04.055.055 0 00-.029 0l-.007.004-.012.006c-.6.284-4.157 5.917.665 10.738z" transform="scale(1.03292)"/><path fill="url(#j)" d="M22.65 12.82a3.235 3.235 0 00-.233-.19 3.167 3.167 0 00-.097-.072 5.354 5.354 0 00-3.74-.908c5.58 2.79 4.083 12.394-3.648 12.032a6.897 6.897 0 01-2.018-.39q-.228-.085-.456-.186c-.087-.04-.175-.08-.261-.125l.01.007c1.078.736 6.403 2.534 11.97-2.001l.009-.02c.139-.324 1.981-4.907-1.537-8.147z" transform="scale(1.03292)"/><path fill="url(#k)" d="M8.545 17.905s.716-2.668 5.126-2.668c.477 0 1.841-1.33 1.865-1.716a7.723 7.723 0 01-5.823-.229 5.85 5.85 0 00-5.702.23 3.983 3.983 0 003.674 2.31c-.287 2.536 1.053 5.492 4.298 7.043.073.035.14.072.215.106-1.894-.979-3.458-2.83-3.653-5.076z" transform="scale(1.03292)"/><path fill="url(#l)" d="M29.859 10.735c-.674-1.621-2.041-3.372-3.112-3.925a16.113 16.113 0 011.571 4.707l.003.026c-1.754-4.372-4.727-6.134-7.156-9.973A18.847 18.847 0 0120.8.976a4.898 4.898 0 01-.171-.32 2.822 2.822 0 01-.231-.614.04.04 0 00-.036-.04.055.055 0 00-.029 0l-.007.004-.012.006.006-.01c-3.895 2.28-5.217 6.503-5.339 8.616.181-.013.36-.028.545-.028a7.827 7.827 0 016.796 3.968 5.354 5.354 0 00-3.74-.908c5.579 2.79 4.082 12.394-3.649 12.032a6.897 6.897 0 01-2.018-.39q-.227-.085-.455-.186c-.088-.04-.175-.08-.262-.125l.011.007q-.113-.054-.226-.113c.073.035.14.072.215.106-1.894-.979-3.458-2.83-3.653-5.076 0 0 .716-2.668 5.126-2.668.477 0 1.841-1.33 1.865-1.716-.006-.126-2.705-1.2-3.757-2.237-.562-.554-.83-.82-1.066-1.021a4.637 4.637 0 00-.4-.304 7.19 7.19 0 01-.044-3.79 11.487 11.487 0 00-3.733 2.885H6.53c-.615-.78-.571-3.348-.536-3.885a2.772 2.772 0 00-.518.275A11.295 11.295 0 003.96 6.742a13.544 13.544 0 00-1.45 1.74v.002-.003a13.099 13.099 0 00-2.08 4.7l-.021.102c-.03.136-.16.83-.18.978 0 .012 0-.012 0 0A18.045 18.045 0 000 16.424v.08a15.51 15.51 0 0030.794 2.622c.026-.2.048-.398.07-.6a15.95 15.95 0 00-1.005-7.791zm-1.539.797l.003.016z" transform="scale(1.03292)"/></g></svg>