<svg width="20" height="20" version="1.1" viewBox="5.5 5.5 20 20" xmlns="http://www.w3.org/2000/svg" xmlns:cc="http://creativecommons.org/ns#" xmlns:dc="http://purl.org/dc/elements/1.1/" xmlns:rdf="http://www.w3.org/1999/02/22-rdf-syntax-ns#">
<metadata>
<rdf:RDF>
<cc:Work rdf:about="">
<dc:format>image/svg+xml</dc:format>
<dc:type rdf:resource="http://purl.org/dc/dcmitype/StillImage"/>
<dc:title/>
</cc:Work>
</rdf:RDF>
</metadata>
<linearGradient id="a" x2="1" gradientTransform="matrix(0 97.397 -97.397 0 51.62 11.39)" gradientUnits="userSpaceOnUse">
<stop stop-color="#ff1b2d" offset="0"/>
<stop stop-color="#ff1b2d" offset=".3"/>
<stop stop-color="#ff1b2d" offset=".61"/>
<stop stop-color="#a70014" offset="1"/>
</linearGradient>
<linearGradient id="b" x2="1" gradientTransform="matrix(0 86.142 -86.142 0 76.854 17.13)" gradientUnits="userSpaceOnUse">
<stop stop-color="#9c0000" offset="0"/>
<stop stop-color="#ff4b4b" offset=".7"/>
<stop stop-color="#ff4b4b" offset="1"/>
</linearGradient>
<g transform="matrix(.1791 0 0 .1791 4.7537 4.7537)">
<path id="path18" d="m60 9.75c-27.75 0-50.25 22.5-50.25 50.25 0 26.95 21.22 48.94 47.86 50.19 0.8 0.04 1.59 0.06 2.39 0.06 12.87 0 24.6-4.84 33.49-12.79-5.89 3.91-12.78 6.15-20.14 6.15-11.97 0-22.68-5.94-29.89-15.3-5.56-6.56-9.15-16.25-9.4-27.13v-2.37c0.25-10.88 3.84-20.58 9.4-27.13 7.21-9.36 17.93-15.3 29.89-15.3 7.36 0 14.25 2.25 20.14 6.16-8.84-7.91-20.51-12.74-33.3-12.79z" fill="url(#a)"/>
<path id="path20" d="m43.46 31.68c4.61-5.44 10.57-8.73 17.07-8.73 14.63 0 26.49 16.59 26.49 37.04 0 20.46-11.86 37.04-26.49 37.04-6.51 0-12.46-3.28-17.07-8.72 7.21 9.36 17.92 15.3 29.89 15.3 7.36 0 14.25-2.25 20.14-6.15 10.29-9.2 16.76-22.57 16.76-37.46 0-14.88-6.47-28.26-16.76-37.46-5.89-3.91-12.78-6.15-20.14-6.15-11.97 0-22.68 5.94-29.89 15.3" fill="url(#b)"/>
</g>
</svg>
