<svg version="1.1" viewBox="0 0 20 20" xmlns="http://www.w3.org/2000/svg" xmlns:cc="http://creativecommons.org/ns#" xmlns:dc="http://purl.org/dc/elements/1.1/" xmlns:rdf="http://www.w3.org/1999/02/22-rdf-syntax-ns#">
<metadata>
<rdf:RDF>
<cc:Work rdf:about="">
<dc:format>image/svg+xml</dc:format>
<dc:type rdf:resource="http://purl.org/dc/dcmitype/StillImage"/>
<dc:title/>
</cc:Work>
</rdf:RDF>
</metadata>
<path id="path4" d="m19.999 10.46c0-1.5803-0.40997-3.0655-1.1256-4.3569 3.0562-6.9155-3.2742-5.9027-3.6264-5.8328-1.3417 0.26088-2.581 0.68204-3.7252 1.2159-0.16772-9e-3 -0.33916-0.0149-0.50967-0.0149-4.2712 0-7.8454 2.977-8.7604 6.9695 2.2511-2.525 3.8258-3.5435 4.7706-3.9506-0.15188 0.13323-0.29816 0.2702-0.44445 0.40624-0.04659 0.0465-0.09317 0.0913-0.14163 0.13696-0.09504 0.0913-0.19101 0.18356-0.28418 0.27674l-0.16399 0.16771c-0.08199 0.0839-0.16492 0.16771-0.24505 0.25158-0.05777 0.0596-0.11367 0.12112-0.16958 0.17982-0.07454 0.081-0.15094 0.1612-0.22362 0.24226-0.05777 0.0625-0.11368 0.12579-0.16958 0.18915-0.06988 0.0783-0.13976 0.15654-0.20685 0.23573l-0.16772 0.19567c-0.06523 0.0745-0.12858 0.15095-0.19194 0.22735-0.05591 0.0671-0.11181 0.13416-0.16585 0.20219l-0.17424 0.21896c-0.05591 0.0699-0.11181 0.13976-0.16585 0.21057l-0.15374 0.20126-0.17051 0.22549-0.1174 0.16027c-0.35407 0.4845-0.68018 0.9597-0.97182 1.4163l-0.0019 3e-3c-0.07454 0.12113-0.14908 0.23853-0.22362 0.35593l-0.01119 0.0186-0.21244 0.34941-0.0075 0.0121c-0.18449 0.30749-0.35593 0.60564-0.5106 0.88517-0.81529 1.4759-1.2085 2.499-1.2253 2.5605-2.5558 9.1377 5.4209 5.2793 6.5344 4.7035 1.1992 0.59167 2.5483 0.92524 3.9758 0.92524 3.9078 0 7.2323-2.4934 8.4696-5.9772h-4.7221c-0.69882 1.1805-2.0433 1.98-3.5891 1.98-2.2642 0-4.0997-1.7144-4.0997-3.8314h12.854c0.04845-0.37923 0.07454-0.76405 0.07454-1.1572zm-1.679-8.8424c0.77336 0.52179 1.3948 1.3417 0.32891 4.1044-1.0231-1.6446-2.5623-2.935-4.3886-3.6432 0.82926-0.40066 2.8903-1.2514 4.0587-0.46215zm-16.445 16.885c-0.63173-0.64664-0.74261-2.2213 0.64757-5.0902 0.70254 2.0182 2.103 3.7084 3.9134 4.7827-0.90008 0.49569-3.291 1.6119-4.5619 0.30748zm5.1759-9.3427c0.07082-2.0564 1.8607-3.7037 4.0606-3.7037 2.1989 0 3.9879 1.6473 4.0606 3.7037h-8.1193z" fill="#2672ec"/>
</svg>
