<svg xmlns="http://www.w3.org/2000/svg" width="32" height="32"><linearGradient id="b" x1="98" x2="108" y1="112" y2="112" gradientTransform="matrix(.2623 0 0 .2623 -.787 -.787)" gradientUnits="userSpaceOnUse"><stop offset="0" stop-color="#16529c"/><stop offset="1" stop-color="#236ac0"/></linearGradient><linearGradient id="c" x1="1" x2="1" y1="215" y2="171" gradientTransform="scale(.2623) rotate(-90 -21 139)" gradientUnits="userSpaceOnUse"><stop offset="0" stop-color="#2166bb"/><stop offset="1" stop-color="#89eda9"/></linearGradient><filter id="a" width="1" height="1" x="0" y="0"><feColorMatrix in="SourceGraphic" values="0 0 0 0 1 0 0 0 0 1 0 0 0 0 1 0 0 0 1 0"/></filter><mask id="e"><g filter="url(#a)"><path fill-opacity=".5" d="M0 0h128v128H0z"/></g></mask><clipPath id="d"><path d="M0 0h192v152H0z"/></clipPath><mask id="g"><g filter="url(#a)"><path fill-opacity=".5" d="M0 0h128v128H0z"/></g></mask><clipPath id="f"><path d="M0 0h192v152H0z"/></clipPath><mask id="i"><g filter="url(#a)"><path fill-opacity=".5" d="M0 0h128v128H0z"/></g></mask><clipPath id="h"><path d="M0 0h192v152H0z"/></clipPath><path fill="url(#b)" d="M16 .525c8.692 0 15.738 7.046 15.738 15.737C31.738 24.954 24.692 32 16 32S.262 24.954.262 16.262C.262 7.571 7.308.525 16 .525zm0 0"/><path fill="url(#c)" d="M16 .525C7.308.525.262 7.57.262 16.262.262 24.954 7.308 32 16 32zm0 0"/><path fill="#40a1c8" d="M31.738 15.738c0 8.691-7.046 15.737-15.738 15.737S.262 24.43.262 15.738C.262 7.046 7.308 0 16 0s15.738 7.046 15.738 15.738zm0 0"/><path fill="#49bbb0" d="M6.558 16c.033 3.65.757 7.178 2.056 10.033-1.034.529-1.91 1.165-2.587 1.878A15.734 15.734 0 01.264 16zm0 0"/><path fill="#378bde" d="M16 24.393v7.082c-1.18 0-2.358-.133-3.508-.396-1.522-1.065-2.858-2.804-3.877-5.046 2.072-1.06 4.686-1.64 7.385-1.64zm0 0"/><path fill="#266ec6" d="M25.442 16c-.033 3.65-.757 7.178-2.057 10.033 1.035.529 1.91 1.165 2.587 1.878A15.739 15.739 0 0031.736 16zm0 0"/><path fill="#378bde" d="M16 16v15.475c1.18 0 2.358-.133 3.508-.396 3.534-2.474 5.873-8.42 5.934-15.079zm0 0"/><path fill="#266ec6" d="M16 24.393v7.082c1.18 0 2.358-.133 3.508-.396 1.522-1.065 2.858-2.804 3.877-5.046-2.072-1.06-4.686-1.64-7.385-1.64zm0 0"/><path fill="#1e62b5" d="M23.386 26.033c-1.02 2.242-2.356 3.98-3.877 5.046a15.74 15.74 0 006.464-3.168c-.677-.713-1.553-1.35-2.587-1.878zm0 0"/><path fill="#53d795" d="M16 0C7.308 0 .262 7.046.262 15.738L.264 16H16zm0 0"/><path fill="#72e99a" d="M12.492.396a15.751 15.751 0 00-6.465 3.168c.677.714 1.553 1.349 2.588 1.879C9.635 3.2 10.97 1.46 12.492.396zm0 0"/><path fill="#49bbb0" d="M16 0c-1.18 0-2.356.133-3.508.396-3.584 2.51-5.935 8.586-5.935 15.342l.001.262H16zm0 0"/><path fill="#53d795" d="M16 0c-1.18 0-2.356.133-3.508.396C10.972 1.46 9.635 3.2 8.615 5.443 10.689 6.503 13.3 7.082 16 7.082zm0 0"/><path fill="#378bde" d="M16 0c8.692 0 15.738 7.046 15.738 15.738l-.002.262H16zm0 0"/><path fill="#40a1c8" d="M19.508.396a15.751 15.751 0 016.465 3.168c-.677.714-1.553 1.349-2.587 1.878C22.365 3.2 21.03 1.46 19.508.396zm0 0"/><path fill="#40a1c8" d="M16 0c1.18 0 2.358.133 3.508.396 3.584 2.51 5.935 8.586 5.935 15.342l-.001.262H16zm0 0"/><path fill="#49bbb0" d="M16 0c1.18 0 2.358.133 3.508.396 1.52 1.065 2.857 2.804 3.877 5.046-2.074 1.06-4.686 1.64-7.385 1.64zm0 0"/><g stroke-width="3.813" clip-path="url(#d)" mask="url(#e)" transform="matrix(.2623 0 0 .2623 -2.885 -4.984)"><path fill="#2e3436" d="M169.5 24v1h13v-1zm0 0"/></g><g stroke-width="3.813" clip-path="url(#f)" mask="url(#g)" transform="matrix(.2623 0 0 .2623 -2.885 -4.984)"><path fill="#2e3436" d="M169.5 21v1h13v-1zm0 0"/></g><g stroke-width="3.813" clip-path="url(#h)" mask="url(#i)" transform="matrix(.2623 0 0 .2623 -2.885 -4.984)"><path fill="#2e3436" d="M169.5 27v1h13v-1zm0 0"/></g></svg>