<svg width="20" height="20" version="1.1" viewBox="0 0 19.999999 20.000001" xmlns="http://www.w3.org/2000/svg" xmlns:xlink="http://www.w3.org/1999/xlink">
<defs>
<linearGradient id="q" x1="7.51" x2="10.5" y1="12.4" y2="12.8" gradientUnits="userSpaceOnUse">
<stop stop-color="#de5e26" offset="0"/>
<stop stop-color="#b02228" offset="1"/>
</linearGradient>
<radialGradient id="a" cx="7.57" cy="1.39" r="9.06" gradientTransform="matrix(.677 1.17 -.822 .475 5.42 -6.77)" gradientUnits="userSpaceOnUse">
<stop stop-color="#53c4ff" offset="0"/>
<stop stop-color="#094d89" offset=".46"/>
<stop stop-color="#181b47" offset="1"/>
</radialGradient>
<linearGradient id="n" x1="7.24" x2="9.18" y1="7.13" y2="6.59" gradientUnits="userSpaceOnUse">
<stop stop-color="#e58153" offset="0"/>
<stop stop-color="#f9f7c9" offset="1"/>
</linearGradient>
<linearGradient id="m" x1="7.49" x2="9.45" y1="7.48" y2="6.79" gradientUnits="userSpaceOnUse">
<stop stop-color="#dd5b27" offset="0"/>
<stop stop-color="#efba8e" offset="1"/>
</linearGradient>
<radialGradient id="r" cx="187" cy="85.4" r="210" gradientTransform="matrix(.941 0 0 -.958 -1.46 284)" gradientUnits="userSpaceOnUse">
<stop stop-color="#00a9d4" stop-opacity="0" offset=".795"/>
<stop stop-color="#50b6e7" stop-opacity=".449" offset=".907"/>
<stop stop-color="#70caf2" offset=".981"/>
</radialGradient>
<clipPath id="t">
<path id="path340-4-8" d="m176 338c93.1 0 169-75.5 169-169s-75.5-169-169-169-169 75.6-169 169c0 93.2 75.5 169 169 169z"/>
</clipPath>
</defs>
<linearGradient id="b" x1="68.2" x2="52.7" y1="198" y2="238" gradientTransform="matrix(.0568 0 0 -.0568 -1.27 16.5)" gradientUnits="userSpaceOnUse">
<stop stop-color="#941f21" offset=".011"/>
<stop stop-color="#e36126" offset=".472"/>
<stop stop-color="#f0bb62" offset="1"/>
</linearGradient>
<linearGradient id="c" x2="0" y1="1.3e3" y2="1.13e3" gradientTransform="matrix(.0549 .0144 .0144 -.0549 -68.7 64.3)" gradientUnits="userSpaceOnUse">
<stop stop-color="#dc7327" offset=".056"/>
<stop stop-color="#eebc89" offset="1"/>
</linearGradient>
<linearGradient id="d" x1="42.5" x2="-12.4" y1="212" y2="122" gradientTransform="matrix(.0562 -.00455 -.00539 -.0666 .854 20.5)" gradientUnits="userSpaceOnUse">
<stop stop-color="#dc7327" offset=".056"/>
<stop stop-color="#edbd6b" offset="1"/>
</linearGradient>
<radialGradient id="e" cx="303" cy="260" r="63.9" gradientTransform="matrix(.0568 0 0 -.0568 -1.27 16.5)" gradientUnits="userSpaceOnUse">
<stop stop-color="#ffe300" offset=".257"/>
<stop stop-color="#fcd800" offset=".336"/>
<stop stop-color="#f8c91e" offset=".47"/>
<stop stop-color="#eda524" offset=".643"/>
<stop stop-color="#e37b28" offset=".847"/>
<stop stop-color="#dd5a26" offset="1"/>
</radialGradient>
<linearGradient id="f">
<stop stop-color="#941f21" offset=".126"/>
<stop stop-color="#9e2922" offset=".343"/>
<stop stop-color="#c24028" offset=".73"/>
<stop stop-color="#dc5726" offset="1"/>
</linearGradient>
<radialGradient id="g" cx="327" cy="211" r="33.4" gradientTransform="matrix(.0568 0 0 -.0568 -1.27 16.5)" gradientUnits="userSpaceOnUse" xlink:href="#f"/>
<radialGradient id="h" cx="284" cy="-32.1" r="29.7" gradientTransform="matrix(.0568 0 0 -.0568 -1.27 16.5)" gradientUnits="userSpaceOnUse">
<stop stop-color="#431413" offset="0"/>
<stop stop-color="#631e1c" offset=".164"/>
<stop stop-color="#832320" offset=".332"/>
<stop stop-color="#9c2222" offset=".484"/>
<stop stop-color="#ac2023" offset=".615"/>
<stop stop-color="#b21f24" offset=".708"/>
<stop stop-color="#aa1f24" offset=".999"/>
<stop stop-color="#a91f24" offset="1"/>
</radialGradient>
<radialGradient id="i" cx="342" cy="24.6" r="32.9" gradientTransform="matrix(.0568 0 0 -.0568 -1.27 16.5)" gradientUnits="userSpaceOnUse" xlink:href="#f"/>
<radialGradient id="j" cx="358" cy="121" r="29.7" gradientTransform="matrix(.0568 0 0 -.0568 -1.27 16.5)" gradientUnits="userSpaceOnUse" xlink:href="#f"/>
<radialGradient id="k" cx="349" cy="192" r="37.1" gradientTransform="matrix(.0568 0 0 -.0568 -1.27 16.5)" gradientUnits="userSpaceOnUse">
<stop stop-color="#941f21" offset="0"/>
<stop stop-color="#c13f28" offset=".638"/>
<stop stop-color="#dc5726" offset="1"/>
</radialGradient>
<radialGradient id="l" cx="188" cy="267" r="329" gradientTransform="matrix(.0534 0 0 -.0503 -.0774 14.9)" gradientUnits="userSpaceOnUse">
<stop stop-color="#52c4f1" offset="0"/>
<stop stop-color="#45bbec" offset=".077"/>
<stop stop-color="#00a9dc" offset=".182"/>
<stop stop-color="#035495" offset=".501"/>
<stop stop-color="#1d204e" offset=".75"/>
</radialGradient>
<linearGradient id="o" x1="178" x2="257" y1="119" y2="10.5" gradientTransform="matrix(.0568 0 0 -.0568 -1.27 16.5)" gradientUnits="userSpaceOnUse">
<stop stop-color="#1d406f" offset="0"/>
<stop stop-color="#141728" offset="1"/>
</linearGradient>
<radialGradient id="p" cx="279" cy="217" r="322" gradientTransform="matrix(.0568 0 0 -.0557 -1.27 16.1)" gradientUnits="userSpaceOnUse">
<stop stop-color="#fff" offset=".119"/>
<stop stop-color="#ffdf56" offset=".287"/>
<stop stop-color="#f0be1b" offset=".406"/>
<stop stop-color="#e57c27" offset=".548"/>
<stop stop-color="#dd5626" offset=".765"/>
<stop stop-color="#b02228" offset="1"/>
</radialGradient>
<radialGradient id="s" cx="179" cy="84.1" r="78.7" gradientTransform="matrix(.0568 0 0 -.0356 -1.27 8.54)" gradientUnits="userSpaceOnUse">
<stop stop-color="#e05a27" stop-opacity=".1" offset="0"/>
<stop stop-color="#de5926" stop-opacity=".845" offset=".306"/>
<stop stop-color="#b02228" offset=".556"/>
</radialGradient>
<radialGradient id="u" cx="243" cy="128" r="178" gradientTransform="matrix(.0568 0 0 -.0568 -1.27 16.5)" gradientUnits="userSpaceOnUse">
<stop stop-color="#f0b91c" offset=".463"/>
<stop stop-color="#e36024" offset=".722"/>
<stop stop-color="#db5825" offset=".782"/>
<stop stop-color="#c74127" offset=".876"/>
<stop stop-color="#b02228" offset=".97"/>
</radialGradient>
<radialGradient id="v" cx="304" cy="147" r="87.7" gradientTransform="matrix(.0568 0 0 -.0568 -1.27 16.5)" gradientUnits="userSpaceOnUse" xlink:href="#w">
<stop stop-color="#fff" offset=".09"/>
<stop stop-color="#fff7d0" offset=".193"/>
<stop stop-color="#ffdb00" offset=".418"/>
<stop stop-color="#f6c713" offset=".494"/>
<stop stop-color="#f0b91c" offset=".538"/>
<stop stop-color="#e36024" offset="1"/>
</radialGradient>
<radialGradient id="w" cx="321" cy="157" r="159" fr="0" gradientTransform="matrix(.0568 0 0 -.0568 -1.27 16.5)" gradientUnits="userSpaceOnUse">
<stop stop-color="#fff" offset=".09"/>
<stop stop-color="#fff7d0" offset=".193"/>
<stop stop-color="#ffec85" offset=".289"/>
<stop stop-color="#f0b91c" offset=".538"/>
<stop stop-color="#e27327" offset=".741"/>
<stop stop-color="#dd5a26" offset=".942"/>
</radialGradient>
<linearGradient id="x" x1="255" x2="232" y1="86.8" y2="-11.8" gradientTransform="matrix(.0567 -.00178 -.00178 -.0567 -1.17 18)" gradientUnits="userSpaceOnUse">
<stop stop-color="#fff038" offset="0"/>
<stop stop-color="#ffd92f" offset=".051"/>
<stop stop-color="#f69622" offset=".33"/>
<stop stop-color="#de5b26" stop-opacity=".059" offset=".82"/>
</linearGradient>
<linearGradient id="y" x1="67.7" x2="47.6" y1="196" y2="247" gradientTransform="matrix(.0568 0 0 -.0568 -1.27 16.5)" gradientUnits="userSpaceOnUse">
<stop stop-color="#b02228" offset=".169"/>
<stop stop-color="#bf3628" stop-opacity=".744" offset=".406"/>
<stop stop-color="#c84228" stop-opacity=".51" offset=".623"/>
<stop stop-color="#e05a27" stop-opacity="0" offset="1"/>
</linearGradient>
<radialGradient id="z" cx="175" cy="30.3" r="95.2" gradientTransform="matrix(.0568 0 0 -.0478 -1.27 14.2)" gradientUnits="userSpaceOnUse">
<stop stop-color="#e05a27" stop-opacity="0" offset=".5"/>
<stop stop-color="#de5926" stop-opacity=".775" offset=".75"/>
<stop stop-color="#b02228" offset=".95"/>
</radialGradient>
<radialGradient id="C" cx="263" cy="264" r="164" gradientTransform="matrix(.0567 -.00152 -.00149 -.0557 -.652 16.9)" gradientUnits="userSpaceOnUse">
<stop stop-color="#ffe000" stop-opacity="0" offset="0"/>
<stop stop-color="#fed700" stop-opacity=".515" offset=".355"/>
<stop stop-color="#fed208" stop-opacity=".7" offset=".483"/>
<stop stop-color="#fed208" stop-opacity="0" offset=".857"/>
</radialGradient>
<linearGradient id="F">
<stop stop-color="#fff" offset="0"/>
<stop stop-color="#fffbe8" stop-opacity=".963" offset=".027"/>
<stop stop-color="#fff2b6" stop-opacity=".857" offset=".102"/>
<stop stop-color="#ffed8c" stop-opacity=".756" offset=".174"/>
<stop stop-color="#ffe967" stop-opacity=".662" offset=".24"/>
<stop stop-color="#ffe645" stop-opacity=".578" offset=".3"/>
<stop stop-color="#ffe42c" stop-opacity=".506" offset=".352"/>
<stop stop-color="#ffe421" stop-opacity=".454" offset=".389"/>
<stop stop-color="#ffe300" stop-opacity="0" offset=".809"/>
</linearGradient>
<radialGradient id="G" cx="-1.4e3" cy="-1.21e3" r="53.9" gradientTransform="matrix(-.0156 .054 -.0365 -.0101 -54.7 75.1)" gradientUnits="userSpaceOnUse" xlink:href="#F"/>
<radialGradient id="H" cx="-1.47e3" cy="-1.16e3" r="56.2" gradientTransform="matrix(-.018 .047 -.0371 -.0135 -57.7 65.5)" gradientUnits="userSpaceOnUse" xlink:href="#F"/>
<radialGradient id="I" cx="-1.63e3" cy="-1.33e3" r="42.1" gradientTransform="matrix(-.0133 .0295 -.0305 -.0131 -50.8 42.6)" gradientUnits="userSpaceOnUse" xlink:href="#F"/>
<linearGradient id="J" x2="0" y1="156" y2="347" gradientTransform="matrix(.0568 0 0 .0568 .00568 .246)" gradientUnits="userSpaceOnUse">
<stop stop-color="#e57c27" offset="0"/>
<stop stop-color="#dd5626" offset=".5"/>
<stop stop-color="#c33a28" offset=".647"/>
<stop stop-color="#b02228" offset=".75"/>
<stop stop-color="#ab2026" offset=".813"/>
<stop stop-color="#9c1c21" offset=".913"/>
<stop stop-color="#8c161a" offset="1"/>
</linearGradient>
<radialGradient id="K" cx="2.91e3" cy="-4.63e3" r="112" gradientTransform="matrix(.00158 -.0567 .0567 .00158 264 190)" gradientUnits="userSpaceOnUse">
<stop stop-color="#ed6624" offset="0"/>
<stop stop-color="#f69622" offset="1"/>
</radialGradient>
<radialGradient id="L" cx="75.5" cy="84.1" r="43.9" gradientTransform="matrix(.0543 .0165 -.011 .0363 1.12 .724)" gradientUnits="userSpaceOnUse">
<stop stop-color="#e57c27" stop-opacity="0" offset=".487"/>
<stop stop-color="#f0be1b" offset=".853"/>
</radialGradient>
<clipPath id="M">
<path id="path340" d="m176 338c93.1 0 169-75.5 169-169s-75.5-169-169-169-169 75.6-169 169c0 93.2 75.5 169 169 169z"/>
</clipPath>
<radialGradient id="P" cx="368" cy="229" r="216" gradientTransform="matrix(.0568 0 0 -.0568 -1.27 16.5)" gradientUnits="userSpaceOnUse">
<stop stop-color="#ffe300" offset=".306"/>
<stop stop-color="#f8c91e" offset=".482"/>
<stop stop-color="#e36024" offset=".836"/>
<stop stop-color="#e36024" offset="1"/>
</radialGradient>
<radialGradient id="Q" cx="296" cy="116" r="135" gradientTransform="matrix(.0568 0 0 -.0568 -1.27 16.5)" gradientUnits="userSpaceOnUse">
<stop stop-color="#fff" offset=".09"/>
<stop stop-color="#ffdb00" offset=".319"/>
<stop stop-color="#e27327" offset=".632"/>
<stop stop-color="#dd5a26" offset=".948"/>
</radialGradient>
<path id="path425" d="m2.66 3.21c-0.0227-0.0341-0.0227 0.0851-0.0454 0.0454-0.153-0.272-0.278-0.738-0.295-1.07 0 0-0.25 0.142-0.409 0.653-0.0284 0.0908-0.0511 0.142-0.0681 0.193-0.00568 0.017 0.0114-0.165 0.00568-0.148-0.0284 0.0624-0.119 0.165-0.148 0.278-0.0227 0.0908-0.0568 0.142-0.0738 0.255-0.00568 0.0341-0.00568-0.136-0.0114-0.108-0.21 0.556-0.38 1.34-0.284 2.4 0.948-0.851 2.29-1.49 2.29-1.49-0.153-0.0965-0.63-0.471-0.965-1.01z" fill="url(#b)" stroke-width=".0568"/>
<path id="path427" d="m0.176 11.8c0.0114-0.159 0.397-3.37 1.88-4.46 1.28-0.937 0.284-0.596-0.21-0.556-0.522 0.0397-0.8 0.358-0.698 0.244 0.00568-0.00568 0.00568-0.00568 0.00568-0.0114-0.017-0.0227-1.23 0.993-0.982 4.78z" fill="url(#c)" stroke-width=".0568"/>
<path id="path429" d="m0.00568 9.29s0.874-2.78 2.65-2.75c1.18 0.017 0.244-0.993-0.114-1.15-0.369-0.159-0.46-0.153-0.545-0.0738-0.131 0.114-1.29 0.0681-1.99 3.97z" fill="url(#d)" stroke-width=".0568"/>
<path id="path431" d="m16.2 2.28s0.834 0.403 1.37 1.27c0.443 0.704 0.233 1.65-0.165 1.49-0.392-0.165-1.21-2.75-1.21-2.75z" fill="url(#e)" stroke-width=".0568"/>
<path id="path433" d="m17.7 5.13c0.233-1.79-1.44-2.85-1.44-2.85s0.108 0.613 0.238 1.98c0.159 1.56 1.1 1.71 1.2 0.874z" fill="url(#g)" stroke-width=".0568"/>
<path id="path435" d="m12.1 18.9c3.03 0.641 5.31-1.91 3.68-2.53-1.48-0.556-5.11 2.22-3.68 2.53z" fill="url(#h)" stroke-width=".0568"/>
<path id="path437" d="m16 16.5c3.02-0.658 4.05-3.93 2.32-3.81-1.58 0.102-3.75 4.13-2.32 3.81z" fill="url(#i)" stroke-width=".0568"/>
<path id="path439" d="m18.7 11.4c1.98-1.43 1.04-3.97 1.04-3.97s-0.437 1.31-0.834 2.86c-0.392 1.54-1.39 1.98-0.204 1.12z" fill="url(#j)" stroke-width=".0568"/>
<path id="path441" d="m19.3 6.95c-0.21-2.45-1.73-3.72-1.73-3.72s0.153 0.834 0.358 1.98c0.272 1.56 1.5 3.21 1.37 1.75z" fill="url(#k)" stroke-width=".0568"/>
<path id="path443" d="m9.97 19.5c5.29 0 9.58-4.29 9.58-9.58 0-5.29-4.29-9.58-9.58-9.58-5.29 0-9.58 4.29-9.58 9.58 0 5.29 4.29 9.58 9.58 9.58z" fill="url(#l)" stroke-width=".0568"/>
<path id="path5111" d="m12 12c-0.0776 0.102-0.21 0.163-0.375 0.127-0.363-0.0852-0.772 0.261-1.46 0.732-0.681 0.465-1.86 0.665-2.97 0.393 0.134 0.126 0.318 0.313 0.512 0.484 0.955 0.118 1.9-0.0641 2.48-0.461 0.693-0.471 1.1-0.818 1.46-0.732 0.337 0.0738 0.553-0.235 0.357-0.543zm-4.38-3.15c-0.0149 0.0937-0.0396 0.171-0.0566 0.248-0.102-0.0624-0.198-0.107-0.289-0.141h-0.00586c0.17 0.102 0.233 0.21 0.25 0.25 0.0397 0.0852 0 0.113 0 0.113s-0.0584-0.0906-0.234-0.176c-0.125-0.0681-0.379-0.159-0.492-0.199-0.0114 0.0056-0.0179 6e-3 -0.0293 0.0117 0.0397 0.0511 0.102 0.146 0.102 0.146s-0.0845-0.0446-0.221-0.0957c-0.255 0.142-0.391 0.443-0.391 0.67 0 0.0943 0.00528 0.215 0.0332 0.348 0.0223-0.217 0.143-0.474 0.375-0.604 0.136 0.0511 0.221 0.0977 0.221 0.0977s-0.0618-0.0974-0.102-0.148c0.0114-0.0057 0.016-0.0061 0.0273-0.0117 0.114 0.0397 0.369 0.131 0.494 0.199 0.176 0.0852 0.232 0.176 0.232 0.176s0.0397-0.0281 0-0.113c-0.017-0.0397-0.0797-0.148-0.25-0.25h0.00586c0.0908 0.0341 0.189 0.0801 0.291 0.143 0.0341-0.153 0.0964-0.314 0.0566-0.592-0.00779-0.0455-0.0129-0.0407-0.0176-0.0723zm0-0.32c0.00172 0.0139-0.00122 0.0218 0 0.0352 0.00678 4e-3 0.0104-3.6e-5 0.0176 0.0059-0.00477-0.0143-0.012-0.0273-0.0176-0.041zm8.11-0.561c0.0649 0.594 0.0936 1.04 0.113 1.46-0.0075-0.385-0.0434-0.883-0.0957-1.44-0.0054-5e-3 -0.0123-0.0148-0.0176-0.0195zm3.97-0.193c0.0801 0.308 0.127 0.616 0.152 0.918 0.0015-0.103 0.0046-0.207-2e-3 -0.312-0.0419-0.203-0.0807-0.409-0.15-0.605zm-0.504-0.277c0.0464 1.34-0.128 2.6-0.387 3.28 0.0591-0.0368 0.105-0.0825 0.158-0.123 0.198-0.803 0.315-1.94 0.229-3.16zm-9.55-1.3c-0.0197 0.101-0.0495 0.187-0.0859 0.254-0.0965 0.199-0.249 0.369-0.396 0.477-0.108 0.0795-1.55 0.834-1.6 1.08 0.0227 0.0511 0.0455 0.0974 0.0625 0.148-0.0624-0.0511-0.114-0.0292-0.0742 0.0332 0.0296 0.048 0.0375 0.133 0.0488 0.207 0.129-0.266 1.48-0.976 1.58-1.05 0.148-0.108 0.302-0.278 0.398-0.477 0.0681-0.125 0.119-0.301 0.107-0.562-0.00239-0.0394-0.0156-0.0731-0.0391-0.105zm4.86-2.18c0.735 0.549 1.9 2.03 2.1 4.26-0.0712-1.89-0.814-3.28-1.52-4.09-0.209-0.0896-0.412-0.158-0.588-0.172zm3.03-0.42c0.358 0.269 0.654 1.07 0.766 1.68 0.0108 0.0179 0.0245 0.0348 0.0352 0.0527 0.0054-0.272-0.0814-0.695-0.219-1.1-0.205-0.276-0.41-0.51-0.582-0.629zm-9.34-0.332c-0.0741-0.0127-0.174-0.0039-0.27 2e-3 -0.471 0.44-0.789 0.959-0.951 1.55 0.017 0.0454 0.0441 0.107 0.0781 0.17 0.00499 8e-3 0.0106 0.0174 0.0156 0.0254 0.199-0.571 0.539-1.08 1.05-1.5 0.0341-0.0284-0.138 0.0186-0.104-0.0098 0.0397-0.0341 0.285-0.155 0.33-0.178 0.0284-0.017-0.0386-0.046-0.146-0.0644zm5.25-1.34c1.34 0.883 2.06 1.67 2.53 2.38 0.155 0.119 0.298 0.243 0.42 0.367-0.334-0.713-0.838-1.5-1.9-2.38-0.332-0.142-0.675-0.271-1.04-0.373z" fill-opacity="0" opacity=".15"/>
<path id="path445" d="m9.26 0.4c-0.327 0.0255-0.797 0.0143-1.03 0.215 0.0299-0.0131 0.111-0.0192 0.156-0.0312-0.247 0.0608-0.494 0.197-0.479 0.105-0.0299-0.0103 0.0366-0.0633-0.205-0.0176-0.814 0.136-1.95 0.551-2.38 0.926 0.542-0.275-0.733 0.493-0.602 0.402 0.408-0.22-0.308 0.377-0.465 0.363 0.232-0.214 0.0456-0.125-0.229 0.154-0.425 0.34-0.283 0.155-0.486 0.352-0.238 0.198-0.46 0.418-0.672 0.648 0.24 0.306 0.432 0.485 0.547 0.566 0.515-0.164 1.11-0.221 1.79-0.125 0.0285-0.0312 0.0602-0.0644 0.186-0.131 0.574-0.233-0.459-0.0497 0.0625-0.438 0.382-0.0503-0.116-0.197 0.375-0.301 0.454-0.216 0.293-0.0409 0.789-0.244 0.27-0.401-0.0168-0.599-0.408-0.414-0.062-0.174-0.822 0.0954-0.285-0.232-0.179-0.139 0.878-0.365 0.506-0.676 0.112-0.43 1-0.207 1-0.426-0.378 0.0733 0.619-0.306 0.789-0.357 0.244-0.0971 0.53-0.208 0.557-0.238 0.321-0.0501 0.608-0.0885 0.477-0.102zm1.27 0.0176c-0.497 0.00576-0.942 0.0646-1.29 0.146 0.0483 0.194 0.865 0.076 1.11 0.084 0.424 0.0999 0.919-0.29 1.08-0.0508-0.645-0.0485 0.00468 0.221 0.109 0.301-0.0889-0.16 0.128-0.108 0.26-0.0332 0.281-0.0506 1.1 0.107 0.5-0.119-0.41-0.106 0.471 0.0779-0.17-0.16-0.553-0.128-1.1-0.174-1.6-0.168zm-1.31 0.191h0.00586-0.00586zm3.64 0.289c-0.072-0.00515-0.0561 0.0367 0.125 0.166-0.298-0.163-0.192 9.21e-4 -0.232-0.00586-0.0947 0.0867-0.428 0.0301-0.307 0.34-0.153 0.35 0.588 0.223 0.766 0.461 0.0427 0.477 0.443 1.05 0.693 1.48 0.587 0.188 0.184 0.766-0.279 0.336-0.22-0.364-0.958-0.637-0.494-0.041 0.158 0.277-0.514-0.526-0.357 0.176-0.0547-0.00241 0.00649 0.423-0.312 0.449 0.625 0.492 1.9-0.0543 2.04 0.812 0.383-0.184 0.865-0.0646 1.14-0.115-0.38-0.613-0.8-1.06-1.13-1.3 0.573 0.0454 1.41 0.567 1.91 1.07-0.431-0.92-1.12-1.95-2.96-3.17 2.07 0.569 3.53 1.82 4.5 3.2-1.08-1.8-2.95-3.17-4.86-3.86 0.223 0.0833 0.899 0.504 0.17 0.113-0.171-0.0576-0.33-0.108-0.402-0.113zm1.17 0.508c0.0568 0.0349 0.156 0.107 0.133 0.0605-0.0308-0.0443 0.0587-0.0101 0.16 0.0352 0.00214-0.00201-0.00528-0.00654 0-0.00781 0.0243 0.0133 0.0222 0.0143 0.0371 0.0234 0.162 0.0744 0.337 0.166 0.195 0.0684 0.18 0.163 0.568 0.27 0.631 0.465h-0.00195c-0.465-0.182-0.172-0.185-0.197 0.0566-0.13-0.0955-0.341-0.32-0.393-0.277 0.347 0.314-0.296-0.0316-0.438-0.268-0.198-0.19-0.184-0.191-0.127-0.156zm0.33 0.111c-0.0132-0.00608-0.0243-0.00993-0.0371-0.0156-0.0291 0.0273 0.177 0.101 0.0371 0.0156zm-6.42 0.145c-0.0419-0.0102-0.112 0.00476-0.084 0.0762 0.14-0.0304 0.126-0.0659 0.084-0.0762zm6.87 0.225l0.0156 0.0117-0.0156-0.0117zm-7.09 0.0703c-0.0623 0.0327-0.176 0.259 0.0312 0.0547 0.00446-0.0552-0.0105-0.0656-0.0312-0.0547zm-0.188 0.121c-0.025-0.00628-0.106 0.138-0.00195 0.0703 0.0135-0.0488 0.0103-0.0682 0.00195-0.0703zm-0.25 0.145c-0.0341 0.0197-0.0544 0.064-0.0312 0.146 0.369-0.0408 0.134-0.206 0.0312-0.146zm-0.115 0.164c0.0146 0.171 0.00399 0.0832 0 0zm-0.188 0.0918c-0.181-0.00316-0.0718 0.695 0.102 0.0781l-0.00586-0.0293c-0.0383-0.035-0.0699-0.0484-0.0957-0.0488zm6.43 0.418c-0.0612-0.00776-0.101 0.0441-0.0762 0.211 0.632 0.375 0.26-0.188 0.0762-0.211zm-0.324 0.043c-0.0763-0.00849-0.147 0.00757 0.0156 0.0762 0.142-0.0347 0.0607-0.0677-0.0156-0.0762zm-6.76 0.4c-0.102 0.0236-0.245 0.231-0.328 0.412 0.00321 0.0322 0.00391 0.0562 0.00391 0.0938 0.0608-0.142 0.239-0.296 0.396-0.412 0.00245-0.0164 0.0102-0.0325 0.0117-0.0488-0.0205-0.0408-0.0501-0.0527-0.084-0.0449zm-0.562 0.59c-0.0626 0.0181-0.211 0.0437-0.342 0.0664 0.0973 0.0182 0.19 0.0279 0.291 0.0527 0.00568 0 0.00586-0.00586 0.00586-0.00586 0.015-0.02 0.0332-0.0351 0.0488-0.0547-0.00217-0.0192 0.0017-0.0404-0.00391-0.0586zm6.81 2.25c-0.346 0.0555-0.384 0.534-0.479 0.527-0.538-0.082-0.74 1.22 0.146 0.992 0.452 0.285 0.832 0.756 0.512 1.07-0.349 0.522-0.383-0.833-1-0.393-0.934-0.104-0.52 1.09-0.301 1.52 0.542 0.353 1.26-1.02 0.967-0.0742-0.288 0.57 0.112 1.45 0.664 1.73 0.473 0.534 0.457-0.0868 0.697-0.232 0.219 0.585-0.0759 1.05 0.205 1.61-0.198 0.227-0.352 0.561-0.643 0.619 0.102 0.194-0.0496 0.464-0.0137 0.607 0.117-0.132 0.264-0.193 0.264-0.193 0.0285 0.0713 0.0157 0.178 0.00586 0.281 0.0384-0.00426 0.0697-0.0033 0.119-0.0137 0.154-0.0857 0.271-0.112 0.361-0.102 0.201-0.18 0.436-0.489 0.672-1.01 0.568-1.25 0.602-2.12 0.602-2.12 0.0681 0.153 0.193 0.413 0.232 0.754 0.152-0.602 0.338-1.17 0.248-2.83-0.174 0.0358-0.348 0.0756-0.424 0.223-0.422-0.472 0.208-1.4-0.715-1.31-0.521-0.245-0.691-1.27-1.24-0.965 0.385-0.788-0.774-0.156-0.715-0.682-0.063-0.012-0.119-0.0118-0.168-0.00391zm-1.06 0.48c-0.0568-0.0435-0.262 0.159-0.0156 0.143 0.0357-0.0865 0.0346-0.128 0.0156-0.143zm4.84 0.00391c-0.0337 0.0297-0.0626 0.0934-0.084 0.201-0.597 0.385-0.376 0.781-0.156 1.23 0.195 0.304 0.388 0.659 0.52 0.932 0.0477-0.889-0.0696-1.67-0.264-2.36-0.00483 0.00284-0.011-0.00409-0.0156 0zm-5.07 0.332c-0.0953 0.00801-0.189 0.0621 0.00391 0.137 0.189-0.107 0.0914-0.145-0.00391-0.137zm0.0293 0.162c-0.0449-0.00573-0.0863 0.0631-0.0996 0.27 0.407 0.427 0.234-0.252 0.0996-0.27zm-0.311 0.0703c-0.0203 0.0186-0.0173 0.0693 0.0352 0.17 0.289 0.00283 0.0257-0.226-0.0352-0.17zm1.19 2.51c-0.00744-0.0042-0.024 6.72e-5 -0.0547 0.0156-0.233 0.143-1.04 0.527-0.363 0.494 0.0197-0.0272 0.47-0.48 0.418-0.51zm-4.95 3.58c-0.00434 0.00198-0.00192 0.00385-0.00586 0.00586 0.00245 0.00232 0.00729 0.00545 0.00977 0.00781-0.00371-0.00658 5.88e-4 -0.0065-0.00391-0.0137zm0.174 0.0117c-0.0191 0.0248-0.0356 0.0705-0.0527 0.113 0.107 0.105 0.214 0.21 0.344 0.326 0.0326-0.148-0.0047-0.308-0.0703-0.408-0.0738-0.0103-0.147-0.017-0.221-0.0312zm4.12 0.643c-0.136 0.0367-0.302 0.113-0.449 0.0312-0.0062 0.226-0.348-0.195-0.51 0.217 0.0285 0.305 0.513 0.323 0.119 0.568-0.562-0.0265 0.0608 0.286 0.312 0.18 0.519 0.125 0.992-0.216 0.805-0.783-0.0346-0.246-0.141-0.25-0.277-0.213zm-1.09 0.666c-0.0909-0.0209-0.249 0.212 0.0488 0.127 0.00406-0.0842-0.0185-0.12-0.0488-0.127z" fill="url(#a)" opacity=".421" stroke-width=".0568"/>
<path id="path451-8-7" transform="matrix(.0568 0 0 .0568 .0114 .229)" d="m176 338c93 0 168-75.4 168-168s-75.3-168-168-168-168 75.5-168 168 75.3 168 168 168z" clip-path="url(#t)" fill="url(#r)"/>
<path id="path449" d="m10.1 11.9c-0.0568 0.0568 0.0057 0.221 0.0795 0.216 0.0738-0.0057 0.182-0.0397 0.182-0.0397s0.0568 0.108 0 0.142c-0.0568 0.0284-0.216 0.017-0.0057 0.0965 0.216 0.0795 0.272 0.0568 0.284 0.017 0.017-0.0397 0.0852-0.176 0.125-0.165 0.0341-0.0681-0.114-0.136-0.0341-0.182 0.0795-0.0454 0.017-0.221 0.017-0.221s-0.114 0.0057-0.159 0.0852c-0.0454 0.0795-0.114-0.0057-0.159-0.0057-0.0057 0.0454-0.0397 0.0852-0.0397 0.0852l-0.0341-0.0738c0.0057-0.0057-0.216-0.0114-0.255 0.0454z" fill="url(#o)" stroke-width=".0568"/>
<path id="path455" d="m10 0.348c3.71 0 6.92 2.11 8.5 5.2-1.57-3.13-4.8-5.28-8.54-5.28-5.28 0-9.55 4.28-9.55 9.56 0 1.57 0.38 3.05 1.05 4.36-0.647-1.29-1-2.74-1-4.27-0.00568-5.28 4.27-9.56 9.55-9.56z" fill="#8ed8f8" stroke-width=".0568"/>
<path id="path457" d="m17.2 15.6c0.551-1.03 1.29-1.64 1.7-2.36 0.534-0.954 1.55-3.63 0.783-5.79 0.352 1.35 0.238 2.72-0.874 3.42 0.363-0.954 0.585-3.04 0.216-4.93-0.244-1.23-1.01-2.32-1.5-2.66 0.46 0.346 0.829 1.58 0.817 2.15-0.959-1.62-2.53-3.17-4.9-3.82 1.84 1.21 2.53 2.25 2.96 3.17-0.494-0.505-1.33-1.03-1.91-1.07 0.851 0.636 2.28 2.52 2.13 5.38-0.221-0.46-0.619-1.18-0.903-1.43 0.307 2.8 0.0397 3.41-0.148 4.15-0.0397-0.341-0.165-0.602-0.233-0.755 0 0-0.0341 0.874-0.602 2.12-0.431 0.948-0.874 1.24-1.07 1.2-0.0511-0.0057-0.0795-0.0284-0.0795-0.0284 0.0114-0.125 0.0284-0.25-0.0057-0.335 0 0-0.182 0.0624-0.301 0.227-0.0454 0.0681-0.108 0.131-0.187 0.193-0.0114 0.0114 0.131-0.182 0.119-0.176-0.0681 0.0568-0.148 0.125-0.221 0.204-0.278 0.29-0.534 0.613-0.664 0.522 0.119-0.0397 0.221-0.193 0.244-0.346-0.108 0.0795-0.386 0.284-1.01 0.38-0.255 0.0397-1.34 0.238-2.79-0.488 0.21-0.0227 0.528-0.0965 0.766 0.0454-0.238-0.261-0.823-0.21-1.24-0.341-0.363-0.114-0.834-0.624-1.11-0.88 1.11 0.272 2.29 0.0738 2.97-0.392 0.693-0.471 1.1-0.817 1.46-0.732 0.363 0.0795 0.607-0.284 0.324-0.613-0.284-0.329-0.976-0.766-1.91-0.534-0.721 0.182-1.33 0.755-2.34 0.358-0.0624-0.0227-0.125-0.0511-0.187-0.0852-0.0624-0.0341 0.21 0.0397 0.142 0-0.193-0.0738-0.545-0.233-0.636-0.295-0.017-0.0114 0.148 0.0284 0.131 0.017-0.959-0.568-0.897-1.02-0.897-1.3 0-0.227 0.136-0.528 0.392-0.67 0.136 0.0511 0.221 0.0965 0.221 0.0965s-0.0624-0.0965-0.102-0.148c0.0114-0.00568 0.017-0.00568 0.0284-0.0114 0.114 0.0397 0.369 0.131 0.494 0.199 0.176 0.0851 0.233 0.176 0.233 0.176s0.0397-0.0284 0-0.114c-0.017-0.0397-0.0795-0.148-0.25-0.25h0.00568c0.0908 0.0341 0.187 0.0795 0.29 0.142 0.0341-0.153 0.0965-0.312 0.0568-0.59-0.0341-0.199-0.0284-0.244-0.0738-0.318-0.0397-0.0624 0.0114-0.0851 0.0738-0.0341-0.017-0.0511-0.0397-0.0965-0.0624-0.148 0.0511-0.244 1.49-0.999 1.6-1.08 0.148-0.108 0.301-0.278 0.397-0.477 0.0681-0.125 0.119-0.301 0.108-0.562-0.0114-0.187-0.119-0.301-1.66-0.284-0.42 0.00568-0.693-0.238-0.857-0.471-0.0341-0.0511-0.0624-0.0965-0.0908-0.142-0.0341-0.0624-0.0624-0.125-0.0795-0.17 0.182-0.664 0.551-1.24 1.12-1.71 0.0341-0.0284-0.136 0.017-0.102-0.0114 0.0397-0.0341 0.284-0.153 0.329-0.176 0.0568-0.0341-0.267-0.119-0.539-0.0624-0.278 0.0568-0.329 0.0908-0.477 0.165 0.0568-0.0624 0.244-0.153 0.199-0.148-0.301 0.0681-0.658 0.267-0.959 0.477 0-0.0284 0-0.0511 0.00568-0.0908-0.142 0.0738-0.488 0.341-0.573 0.539 0-0.0454 0-0.0681-0.00568-0.114-0.0965 0.0908-0.193 0.199-0.278 0.312 0 0 0 0.00568-0.00568 0.00568-0.897-0.221-1.66-0.17-2.3 0.0341-0.153-0.108-0.397-0.278-0.783-0.874-0.0227-0.0341-0.0227 0.0795-0.0454 0.0454-0.153-0.272-0.278-0.738-0.295-1.07 0 0-0.25 0.142-0.409 0.653-0.0284 0.0908-0.0511 0.142-0.0681 0.193-0.00568 0.017 0.0114-0.165 0.00568-0.148-0.0284 0.0624-0.119 0.165-0.148 0.278-0.0227 0.0851-0.0568 0.136-0.0681 0.244 0 0 0 0.00568-0.00568 0.00568 0-0.0284-0.00568-0.125-0.0114-0.108-0.0738 0.187-0.136 0.403-0.193 0.647-0.0795 0.386-0.159 0.914-0.108 1.58 0 0.0568 0.00568 0.108 0.00568 0.153-0.244 0.335-0.397 0.619-0.46 0.761-0.295 0.573-0.596 1.46-0.84 2.83 0 0 0.165-0.517 0.488-1.1-0.238 0.738-0.431 1.88-0.318 3.6 0.00568-0.0568 0.0568-0.494 0.182-1.08 0.0624 1.15 0.335 2.55 1.23 4.08 0.681 1.16 2.47 3.87 6.96 4.88-0.494-0.142-0.8-0.426-0.8-0.426s1.68 0.539 2.9 0.494c-0.386-0.0681-0.46-0.25-0.46-0.25s4.35 0.244 5.86-1.81c-0.517 0.602-1.82 0.772-2.31 0.778 0.749-0.687 2.41-0.676 4.21-2.44 0.988-0.971 1.09-1.71 1.2-2.4-0.142 0.897-1 1.44-1.9 1.94z" fill="url(#p)" stroke-width=".0568"/>
<path id="path463" d="m9.71 5.95c-0.0114-0.187-0.131-0.318-1.67-0.307-0.63 0.00568-0.925-0.545-1.03-0.778-0.165 0.596-0.193 1.21-0.0681 1.93 0.0795 0.477 0.42 0.88 0.607 1.16 0.0454 0.0454 0.0681 0.0568 0.0795 0.0284 0.0681-0.148 1.42-0.914 1.53-0.999 0.114-0.0738 0.579-0.471 0.551-1.04z" fill="url(#s)" stroke-width=".0568"/>
<path id="path465" d="m7.61 5.77s0.534 0.261 0.613 0.426c0.0227 0.0511-0.272-0.0908-0.255-0.0341 0.017 0.0568 0.386 0.244 0.397 0.335 0.0114 0.0681-0.204-0.0738-0.318-0.0908 0.0681 0.0568 0.159 0.142 0.108 0.199-0.0511 0.0568-0.238 0.0795-0.272 0.102-0.488 0.312 0.693 0.386 1.12 0.153 0.426-0.227 0.693-0.562 0.704-0.613 0.017-0.0511 0.153-0.5-0.738-0.346-0.562 0.102-0.914 0.0908-1.36-0.131z" fill="#e16629" opacity=".5" stroke-width=".0568"/>
<path id="path467" d="m14.9 17.5c-0.517 0.284-1.74 0.658-2.08 0.676 2.13-0.658 2.82-1.55 3.17-2.14 1.1-0.216 3.11-1.21 3.19-2.38-0.0852 1.59-1.4 2.69-2.34 3.33-1.11 0.755-2.05 0.817-2.86 1.33 0.244-0.17 0.562-0.392 0.92-0.812z" fill="url(#u)" stroke-width=".0568"/>
<path id="path469" d="m19.7 7.42c0.664 2.16-0.426 3.1-0.886 3.39 0.585-1.61 0.795-3.62 0.159-5.38-0.528-1.47-1.44-2.2-1.44-2.2 1.28 1.4 1.14 2.95 0.761 4.04 0.176 1.03-0.414 3.88 0.324 3.75-0.176 1.6-0.863 3.55-1.17 4.15 0.511-0.806 1.24-1.56 1.58-2.19 0.636-1.2 1.38-3.55 0.676-5.57z" fill="url(#P)" stroke-width=".0568"/>
<path id="path471" d="m17.1 7.93s-0.284 0.551-0.261 1.62c-0.363-1.4-1.1-1.96-1.1-1.96 0.0965 1.13 0.295 2.77-0.142 4.17 0.0511 0.409 0.153 1.41-0.238 2.5 0.641-0.738 1.49-1.33 1.62-1.93 0-0.017 0.0057-0.0397 0.0057-0.0568 0.216 0.0397 0.517-0.125 0.778-0.386 0.216-0.369 0.783-1.47 0.834-2.06-1.35-0.539-1.5-1.9-1.5-1.9z" fill="url(#v)" stroke-width=".0568"/>
<path id="path473" d="m16.9 11.6c1.75-2.45 1.14-5 0.954-5.78 2.51 4.12-0.0624 8.9-0.585 9.7-0.142 0.114-0.948 0.414-1.28 0.448 0.108-0.165 0.386-0.738 0.352-1.41-0.38 0.931-1.73 1.62-2.48 1.88 1.29-0.937 2.78-3.55 3.04-4.83z" fill="url(#w)" stroke-width=".0568"/>
<path id="path475" d="m16.6 9.77s0.142 2.13-0.931 3.83c0.29-1.61-0.272-2.62-0.272-2.62s-0.0795 0.869-0.42 1.71c-0.59 1.45-1.12 1.74-1.33 1.59-0.454 1.8-3.46 1.71-3.46 1.71 0.681 0.17 3.07 0.301 4.83-0.988-0.0965 0.227-0.636 1.31-1.93 1.87 1.28-0.0795 2.96-1.43 3.26-2.32 0.0227 0.67-0.193 1.14-0.335 1.4 2.13-2.38 0.59-6.19 0.59-6.19z" fill="url(#Q)" stroke-width=".0568"/>
<path id="path477" d="m9.8 17.2c1.11-0.102 2.02-0.352 2.63-1.16-1 0.17-1.8 0.0965-2.29-0.017 0 0 0.789 0.0341 1.79-0.221 1.16-0.29 2.59-0.965 3.42-2.51-0.0397 3.69-3.78 4.42-5.55 3.91z" fill="url(#x)" stroke-width=".0568"/>
<path id="path479" d="m2.66 3.21c-0.0227-0.0341-0.0227 0.0795-0.0454 0.0454-0.153-0.272-0.278-0.738-0.295-1.07 0 0-0.25 0.142-0.409 0.653-0.0284 0.0908-0.0511 0.142-0.0681 0.193-0.00568 0.017 0.0114-0.165 0.00568-0.148-0.0284 0.0624-0.119 0.165-0.148 0.278-0.0227 0.0908-0.0568 0.142-0.0738 0.255-0.00568 0.0341-0.00568-0.136-0.0114-0.108-0.397 0.999-0.352 2.46-0.301 2.4 0.942-1.23 2.13-1.62 2.13-1.62-0.142-0.0965-0.448-0.341-0.783-0.88z" fill="url(#y)" stroke-width=".0568"/>
<path id="path481" d="m9.26 6.9c0.0795-0.0624 0.358-0.318 0.426-0.619-0.0511 0.0227-0.0568-0.0397-0.114-0.0114-0.102 0.108-0.352 0.369-0.647 0.556 0.0795-0.0738 0.221-0.182 0.255-0.238-0.318 0.221-0.71 0.375-1.02 0.341-0.0454 0 0.227 0.0284 0.465-0.159-0.233 0.108-0.63 0.0965-0.67 0.0851-0.0341-0.0114 0.392-0.0568 0.352-0.0681-0.199-0.0681-0.46-0.0227-0.517 0.00568-0.108 0.0511-0.216 0.125-0.295 0.221 0.0454-0.0568 0.0624-0.108 0.114-0.193-0.148 0.142-0.352 0.295-0.38 0.301 0.0227-0.0454 0.358-0.301 0.295-0.278-0.0397 0.0397-0.182 0.119-0.278 0.193-0.0284 0.017 0.199-0.187 0.176-0.17-0.38 0.0965-0.341 0.307-0.352 0.312 0.00568 0.0114 0.00568 0.0397 0.017 0.0511 0.0454 0.136 0.21 0.369 0.363 0.59 0.114 0.136 0.148 0.29 0.153 0.238 0.0511-0.25 1.54-1.07 1.65-1.16z" fill="url(#n)" stroke-width=".0568"/>
<path id="path483" d="m9.61 6.35c-0.0114 0-0.0227-0.182-0.00568-0.136 0.0114 0.0397-0.017 0.409-0.352 0.624-0.0738 0.0454-0.00568-0.119-0.0851-0.0341-0.131 0.142-0.454 0.613-1.27 0.613-0.0284 0 0.318-0.153 0.278-0.142-0.0851 0.0227-0.182 0.0511-0.5 0.153-0.0284 0.0114 0.267-0.182 0.238-0.176-0.0397 0.0114-0.216 0.131-0.431 0.221 0.102-0.102 0.221-0.204 0.182-0.187-0.17 0.0965-0.295 0.204-0.369 0.312 0.0511 0.0851 0.114 0.136 0.159 0.221 0.114 0.136 0.125 0.278 0.153 0.238 0.301-0.363 1.49-0.914 1.75-1.2 0.272-0.295 0.165-0.25 0.244-0.511z" fill="url(#m)" stroke-width=".0568"/>
<path id="path485" d="m7.85 14.6c-1.53-0.477-3.27-1.18-3.41-3.18-0.182-2.63 2.24-2.34 2.24-2.34-0.0851 0.0341-0.272 0.227-0.335 0.448-0.0681 0.238-0.193 0.704 0.352 1.19 0.863 0.761-1.42 2.17 2.47 3.98 0.0965 0.0397-0.869 0.0568-1.32-0.0852z" fill="url(#z)" stroke-width=".0568"/>
<path id="path487" d="m9.74 6.39c0.0681-0.17 0.148-0.568-0.0795-0.653-0.187-0.0454-0.352-0.0795-0.658-0.0738 0.102 0.0227 0.397 0.0851 0.471 0.221 0.148 0.261 0.0284 0.772-0.0227 0.903 0.153-0.119 0.221-0.233 0.29-0.397z" fill="#723e3d" stroke-width=".0568"/>
<path id="path489" d="m7.24 13.3c1.07 0.255 2.27 0.0738 2.96-0.397 0.46-0.318 1.12-0.789 1.42-0.738-0.341-0.0965-0.602-0.136-0.903-0.119-0.0568 0-0.108 0.0057-0.165 0.0114-0.102 0.0114-0.21 0.0227-0.329 0.0454-0.182 0.0397-0.38 0.176-0.568 0.176-0.0114 0 0.176-0.0965 0.159-0.0965-0.0965 0.0284-0.204 0.0454-0.318 0.0738-0.0681 0.017-0.136 0.0284-0.204 0.0397-2.14 0.397-4.1-0.766-4.1-0.766-0.108 0.539 0.846 1.49 2.04 1.77z" fill="url(#q)" stroke-width=".0568"/>
<path id="path491" d="m16.4 4.7s0.817 0.88 1.2 1.72c0.386 0.84 0.505 1.79 0.505 1.79s0.0568-0.8-0.386-2.15c-0.477-1.46-1.42-2.71-2.35-3.39-0.624-0.471-1.88-1.1-1.88-1.1s2.16 1.28 2.91 3.12z" fill="url(#C)" stroke-width=".0568"/>
<path id="path493" d="m4.62 4.52c0.0114 0-0.403 0.0511-1.14 0.693-0.312 0.255-0.562 0.505-0.755 0.721-0.534 0.647-0.846 1.27-0.846 1.27s0.0454-0.386 0.29-0.92c-0.778 1.23-1.07 3.01-1.07 3.01s-0.0454-0.812 0.159-1.77c-0.0795 0.221-0.176 0.534-0.227 0.948-0.153 1.25 0 2.34 0 2.34s-0.0681-0.238-0.142-0.579c0.0284 0.25 0.0681 0.545 0.136 0.88 0.244 1.18 0.704 2.3 0.704 2.3s-0.568-0.766-0.942-1.94c0.0681 0.358 0.176 0.8 0.324 1.33 0.465 1.62 1.08 2.46 1.08 2.46s-0.477-0.42-1.1-1.98c-0.272-0.693-0.414-1.35-0.505-1.84-0.0511-0.358-0.0965-0.687-0.142-1.16-0.017-0.165-0.0397-0.358-0.0397-0.517-0.136 0.647-0.221 1.2-0.221 1.2s0.0341-1.29 0.244-2.46c0.0341-0.176 0.0738-0.341 0.125-0.5-0.199 0.38-0.352 0.698-0.352 0.698s0.261-0.727 0.511-1.33c-0.25 0.448-0.397 0.817-0.397 0.817s0.437-1.5 0.959-2.25c0.284-0.409 0.568-0.687 0.772-0.857 0.0681-0.0681 0.136-0.131 0.21-0.182 0.0738-0.0568 0.153-0.114 0.221-0.165 0.0341-0.0284 0.0738-0.0568 0.114-0.0851 0.704-0.522 1.46-0.647 1.71-0.619 0.00568 0-0.221 0.0114-0.71 0.272 0.238-0.0851 0.431-0.114 0.545-0.108 0.00568 0-0.17 0.0397-0.573 0.301 0.522-0.255 0.999-0.324 1.19-0.301 0.0114 0-0.369 0.0227-1.16 0.539-0.0227 0.017-0.0454 0.0284-0.0681 0.0454 0.477-0.21 0.908-0.267 1.08-0.261zm-2.24 4.48c-0.142 0.0681-0.307 0.613-0.176 1.84 0.108 1 0.528 1.54 0.528 1.54s-0.216-0.403-0.346-1.79c-0.114-1.19-0.017-1.58-0.00568-1.6zm0.392-0.948c-0.193 1.01 0.0681 2.44 0.0681 2.44s-0.0454-1.2 0.216-2.44c0.272-1.33 0.681-1.72 0.687-1.71-0.221 0.0227-0.778 0.704-0.971 1.71zm0.522-2.54c-0.119 0.125-0.221 0.261-0.307 0.403-0.318 0.312-0.681 0.931-0.863 1.79-0.341 1.66-0.0965 2.67-0.0965 2.67s-0.00568-1.54 0.358-2.86c0.0511-0.187 0.102-0.358 0.159-0.511-0.0908 0.375-0.114 0.653-0.114 0.653s0.295-1.21 1.34-2.25c0.658-0.658 1.11-0.789 1.11-0.783-0.488 0.0568-1.1 0.369-1.59 0.891zm-0.38 3.56c-0.0681 0.738 0.0624 1.5 0.0624 1.5s-0.0114-0.766 0.0851-1.63c0.0965-0.857 0.227-1.19 0.233-1.18-0.159 0.0851-0.329 0.778-0.38 1.31zm0.0795-2.5c-0.335 0.579-0.448 1.15-0.448 1.15s0.42-0.954 0.71-1.37c0.29-0.414 0.573-0.687 0.573-0.681-0.176 0.0738-0.551 0.335-0.834 0.897zm-1.49 2.15c-0.142 0.0568-0.346 0.596-0.29 1.83 0.0454 1 0.431 1.57 0.431 1.57s-0.187-0.414-0.233-1.81m5.98-7.27s-0.687 0.25-1.07 0.744c-0.386 0.494-0.46 1-0.46 1s0.426-1.14 1.53-1.75zm-0.483 0.63c-0.494 0.653-0.613 1.12-0.613 1.12s0.551-1.3 1.94-1.86c0 0.00568-0.829 0.0851-1.32 0.732zm-4.97-0.108c0.0851-0.761 0.301-1.21 0.301-1.21s-0.71 1.07-0.284 2.38c0 0.00568-0.102-0.414-0.017-1.18zm0.534 0.914s-0.159-0.352-0.221-0.999c-0.0624-0.653 0.0454-1.05 0.0454-1.05s-0.426 0.965 0.176 2.05z" fill="#e05925" opacity=".305" stroke-width=".0568"/>
<path id="path495" d="m11.8 11.5c-0.102-0.136-0.545-0.46-1.04-0.494-0.658-0.0454-1.19 0.238-1.19 0.238s0.363-0.21 1.2-0.136c0.579 0.0511 1.02 0.375 1.03 0.392z" fill="url(#G)" opacity=".5" stroke-width=".0568"/>
<path id="path497" d="m12.1 11.8c-0.102-0.142-0.477-0.471-1.08-0.59-0.766-0.148-1.33 0.176-1.33 0.176s0.437-0.182 1.32-0.0397c0.607 0.102 1.07 0.443 1.08 0.454z" fill="url(#H)" opacity=".5" stroke-width=".0568"/>
<path id="path499" d="m11.8 11.8c-0.0852-0.0795-0.278-0.216-0.613-0.312-0.539-0.153-0.903-0.0114-0.903-0.0114s0.216-0.0511 0.766 0.0568c0.341 0.0681 0.744 0.261 0.749 0.267z" fill="url(#I)" opacity=".5" stroke-width=".0568"/>
<path id="path501" d="m18.8 14.9c-0.108 0.204-0.25 0.426-0.437 0.653-0.46 0.568-1.04 1.02-1.52 1.34-0.193 0.131-0.38 0.244-0.568 0.341l-0.0057-0.0681h-0.0057c0.551-0.29 1.15-0.681 1.76-1.28 0.363-0.358 0.607-0.681 0.772-0.982zm-16.9-12c0.0227-0.0511 0.0397-0.102 0.0681-0.193 0.0341-0.102 0.0681-0.193 0.108-0.267-0.0511 0.0908-0.108 0.204-0.153 0.352-0.0114 0.0284-0.017 0.0511-0.0227 0.0738zm5.92 16.2s0.0795 0.0738 0.216 0.165c0.522 0.148 1.71 0.448 2.64 0.414-0.114-0.0227-0.204-0.0511-0.267-0.0852-1.18-0.0397-2.59-0.494-2.59-0.494zm-7.25-11.1c-0.0284 0.0454-0.0511 0.0965-0.0795 0.142 0.00568-0.00568 0.00568-0.0114 0.0114-0.017-0.238 0.738-0.42 1.88-0.307 3.58 0-0.0114 0.00568-0.0341 0.00568-0.0681 0 0.0227 0 0.0397 0.00568 0.0624 0-0.0227 0.0114-0.119 0.0341-0.267-0.0851-1.62 0.0965-2.72 0.329-3.43zm1.09 6.6c-0.891-1.53-1.16-2.93-1.23-4.08-0.0114 0.0624-0.0284 0.125-0.0397 0.182 0.0738 1.12 0.352 2.5 1.22 3.97 0.681 1.16 2.47 3.87 6.96 4.88-0.204-0.0568-0.38-0.142-0.511-0.221-4.08-1.09-5.75-3.62-6.4-4.73zm14.4 2.94c0.017-0.017 0.0454-0.0511 0.0511-0.0511-1.5 2.05-5.86 1.81-5.86 1.81s0.017 0.0397 0.0738 0.0908c0.619 0.017 3.56 0.0397 5.18-1.24 0.403-0.301 0.664-0.653 0.749-0.971 0 0-0.0057 0.0057-0.0227 0.0114-0.0397 0.136-0.114 0.261-0.176 0.352zm-15.1-11.4c-0.329 0.562-0.676 1.49-0.954 3.04 0 0 0.00568-0.0227 0.0227-0.0624-0.00568 0.017-0.00568 0.0397-0.0114 0.0568 0 0 0.0227-0.0624 0.0624-0.176 0.238-1.32 0.534-2.18 0.823-2.74 0.0114-0.0284 0.0341-0.0681 0.0568-0.114zm0.715-2.93c0.0114-0.108 0.0511-0.159 0.0681-0.244 0.00568-0.0227 0.017-0.0511 0.0284-0.0738-0.0284 0.0454-0.0568 0.0965-0.0681 0.153-0.0114 0.0341-0.0227 0.0681-0.0341 0.0965 0 0.0227 0 0.0568 0.00568 0.0681-0.00568 0.00568 0 0.00568 0 0zm-0.312 2.29c0-0.0511-0.00568-0.102-0.00568-0.153-0.0454-0.676 0.0341-1.2 0.108-1.59 0.0454-0.199 0.0965-0.38 0.153-0.545 0-0.0114 0-0.0227-0.00568-0.0227h-0.00568c-0.0114 0.0284-0.0227 0.0624-0.0341 0.0908 0 0.00568-0.00568 0.0114-0.00568 0.017-0.00568 0.017-0.0114 0.0284-0.017 0.0454-0.017 0.0511-0.0341 0.102-0.0511 0.159-0.0227 0.0851-0.0454 0.17-0.0681 0.261 0 0.0114-0.00568 0.0227-0.00568 0.0341-0.00568 0.0114-0.00568 0.0284-0.0114 0.0397 0 0.00568 0 0.0114-0.00568 0.0227-0.0397 0.176-0.0681 0.369-0.0908 0.579-0.0681 0.579-0.0511 1.07-0.0227 1.14 0.0284-0.0284 0.0454-0.0511 0.0681-0.0795zm14.9 11.6c-0.0341 0.017-0.318 0.165-0.783 0.358-0.874 0.363-1.48 0.641-1.53 0.738 0 0 0.227-0.153 1-0.465 0.812-0.324 1.2-0.511 1.29-0.556 0.017-0.0057 0.0227-0.0114 0.0227-0.0114z" fill="url(#J)" stroke-width=".0568"/>
<path id="path503" d="m8.77 18.5s-0.00568 0 0 0m0-0.0511c0.0568 0.142 0.596 0.346 1.83 0.29 1-0.0454 1.57-0.431 1.57-0.431s-0.414 0.187-1.81 0.238c-1.2 0.0341-1.58-0.0852-1.6-0.0965zm-0.761-0.392c1 0.221 2.25 0.0284 2.25 0.0284s-1.2 0.0114-2.44-0.284c-1.32-0.312-1.7-0.732-1.69-0.738 0.0227 0.227 0.869 0.772 1.87 0.993zm0.846-0.0852c0.732 0.0908 1.5-0.017 1.5-0.017s-0.766-0.0114-1.63-0.131c-0.851-0.119-1.18-0.255-1.18-0.267 0.0851 0.159 0.772 0.346 1.31 0.414zm-2.49-0.142c0.596 0.295 1.18 0.375 1.18 0.375s-0.976-0.358-1.41-0.619c-0.431-0.261-0.783-0.488-0.795-0.511 0.0965 0.17 0.46 0.505 1.03 0.755zm2.09 1.54" fill="url(#K)" opacity=".1" stroke-width=".0568"/>
<path id="path505" d="m5.73 4.05s-0.153 0.182-0.267 0.363c-0.131 0.199-0.238 0.409-0.238 0.409s-0.647-0.477-1.23-0.573c-0.579-0.0965-0.749-0.0795-0.749-0.0795s0.965-0.5 2.48-0.119z" fill="url(#L)" stroke-width=".0568"/>
</svg>
