<svg version="1.1" viewBox="0 0 364 64" xmlns="http://www.w3.org/2000/svg">
<g transform="translate(7.7458 79.073)">
<g transform="matrix(.99454 0 0 .99454 -1513.9 -281.93)" fill="#ededed" stroke-width="1.3687">
<g stroke-width="1.3687">
<path id="path6019-8-6-5-4-5-4" d="m1546.8 203.97c-17.743 0-32.176 14.433-32.176 32.176 0 17.743 14.433 32.176 32.176 32.176s32.176-14.433 32.176-32.176c0-17.743-14.433-32.176-32.176-32.176zm0 4.8218c15.139 0 27.367 12.215 27.367 27.354s-12.228 27.354-27.367 27.354c-15.139 0-27.354-12.215-27.354-27.354s12.215-27.354 27.354-27.354z" color="#000000" style="text-decoration-line:none;text-indent:0;text-transform:none"/>
<path transform="matrix(.73464 0 0 .73464 1507.3 196.63)" d="m68.422 35.85c-1.7875-0.06697-4.4958 1.3376-6.9316 3.7598l-5.25 5.2207-15.734-5.2832-3.0684 3.168 11.863 9.0156-2.6523 2.6387c-0.94054 0.9353-1.7127 1.9132-2.332 2.8711l-7.1484-0.5332-1.7441 1.7676 7.1094 5.2637 5.1973 7.0957 1.752-1.7559-0.52734-7.2188c0.90045-0.5899 1.8193-1.3222 2.7051-2.2031l2.793-2.7773 9.1035 11.955 3.168-3.0684-5.3086-15.811 5.0859-5.0566c3.2477-3.2297 4.7436-7.0098 3.3555-8.4746-0.34704-0.36621-0.83971-0.55189-1.4355-0.57422z"/>
</g>
<path id="path7897-3-6-3-9" transform="matrix(.73464 0 0 .73464 1507.3 196.63)" d="m229.85 25.346c-2.6013 0-4.9793 0.29603-7.209 0.89062-12.115 3.3446-18.061 15.013-17.764 26.385 0.37162 11.595 7.1355 22.893 20.439 25.123 1.5608 0.29728 3.2709 0.44542 5.0547 0.37109 1.8581 0.07432 3.6422-0.14815 5.3516-0.37109 14.344-2.4527 21.553-14.569 21.33-26.609-0.22296-11.149-6.9127-22.148-20.291-25.047-2.1554-0.44594-4.4595-0.74219-6.9121-0.74219zm-56.74 0.37109c-10.926-0.37163-21.554 5.6492-26.459 16.129-6.5405 14.047-1.412 27.871 12.338 34.932 6.1689 3.2702 21.927 3.9396 30.994-4.459l-4.4609-4.9805c-6.5405 4.9797-15.012 7.0599-22.816 3.3438-10.257-4.8311-14.642-15.755-9.8106-26.012 3.6418-7.6554 12.114-12.784 20.141-12.486 2.8986 0.07432 9.0681 1.7081 10.555 3.7148l5.2031-4.6816c-1.8581-1.7094-2.2311-2.0062-4.6094-3.1211h-0.0742c-3.4933-1.6351-7.3581-2.2303-11-2.3789zm128.04 0c-10.926-0.37163-21.554 5.6492-26.459 16.129-6.5405 14.047-1.4122 27.871 12.338 34.932 6.1689 3.2702 21.925 3.9396 30.992-4.459l-4.459-4.9805c-6.5406 4.9797-15.012 7.0599-22.816 3.3438-10.257-4.8311-14.644-15.755-9.8125-26.012 3.6418-7.6554 12.115-12.784 20.143-12.486 2.8986 0.07432 9.0682 1.7081 10.555 3.7148l5.2012-4.6816c-1.8581-1.7094-2.2291-2.0062-4.6074-3.1211h-0.0742c-3.4932-1.6351-7.3582-2.2303-11-2.3789zm145.98 0.51953 0.0762 51.582h6.6894l-0.0762-51.582zm-51.055 0.22266v51.359l6.9121-0.15039v-22.223l7.8047-0.07422c20.29 0.14866 20.068-29.21 0.66992-28.838zm77.93 0.44727v5.9453l13.527 0.07422-0.22461 44.893v0.14844l6.9141-0.07422 0.22266-44.967 13.525-0.07422v-5.9453zm-137.52 0.07422v51.135h6.9121v-26.758l24.525 26.758h8.5488l-25.121-27.129 20.66-24.006h-8.3984l-20.215 24.08v-24.08zm-107.15 4.3105c2.0067 0 3.8648 0.22224 5.5 0.51953 9.7364 2.1554 14.642 10.258 15.014 18.582 0.37161 9.5135-4.9792 19.398-15.607 21.182-1.1893 0.22295-2.4533 0.37109-3.7168 0.37109-1.5608 0-2.9727-0.14804-4.2363-0.44531-8.9932-2.0068-13.825-10.183-14.42-18.656-0.59458-8.9189 3.4193-18.061 12.189-20.736 1.5608-0.52027 3.345-0.81641 5.2774-0.81641zm173.66 1.2637 8.3984 0.07422c10.331 0.22298 9.5139 16.648-0.3711 16.648h-8.0273z"/>
</g>
</g>
</svg>
