<svg xmlns="http://www.w3.org/2000/svg" viewBox="0 0 364 64"><g fill="#fff" stroke-width="1.369"><path d="M32.2 0C14.554 0 .2 14.353.2 32s14.354 32 32 32 32-14.354 32-32-14.354-32-32-32zm0 4.795c15.057 0 27.218 12.148 27.218 27.204S47.257 59.204 32.2 59.204C17.144 59.204 4.996 47.056 4.996 32S17.144 4.795 32.2 4.795z" color="#000" style="text-decoration-line:none;text-indent:0;text-transform:none"/><path d="M42.907 18.892c-1.306-.048-3.285.978-5.064 2.747l-3.836 3.815-11.496-3.86-2.242 2.314 8.668 6.587-1.938 1.928a12.659 12.659 0 0 0-1.704 2.098l-5.223-.39-1.274 1.292 5.194 3.846 3.798 5.184 1.28-1.283-.386-5.274c.658-.431 1.33-.966 1.977-1.61l2.04-2.029 6.652 8.735 2.314-2.242-3.878-11.552 3.716-3.695c2.372-2.36 3.465-5.121 2.451-6.191-.253-.268-.613-.404-1.049-.42zM160.851 11.218c-1.9 0-3.638.216-5.267.65-8.852 2.444-13.196 10.97-12.979 19.278.272 8.472 5.213 16.727 14.933 18.356 1.14.217 2.39.325 3.693.271 1.358.054 2.662-.108 3.91-.271 10.48-1.792 15.748-10.645 15.585-19.441-.163-8.146-5.05-16.182-14.825-18.3a24.82 24.82 0 0 0-5.05-.543zm-41.456.271c-7.983-.271-15.748 4.128-19.332 11.784-4.778 10.264-1.031 20.364 9.015 25.523 4.507 2.389 16.02 2.878 22.645-3.258l-3.26-3.64c-4.778 3.64-10.967 5.16-16.67 2.444-7.493-3.53-10.697-11.511-7.167-19.005 2.66-5.593 8.85-9.34 14.715-9.123 2.118.055 6.626 1.248 7.712 2.714l3.802-3.42c-1.358-1.25-1.63-1.466-3.368-2.28h-.054c-2.553-1.195-5.376-1.63-8.037-1.739zm93.55 0c-7.983-.271-15.748 4.128-19.332 11.784-4.779 10.264-1.032 20.364 9.015 25.523 4.507 2.389 16.019 2.878 22.643-3.258l-3.258-3.64c-4.778 3.64-10.968 5.16-16.67 2.444-7.494-3.53-10.699-11.511-7.169-19.005 2.66-5.593 8.852-9.34 14.717-9.123 2.118.055 6.626 1.248 7.712 2.714l3.8-3.42c-1.358-1.25-1.629-1.466-3.366-2.28h-.054c-2.553-1.195-5.377-1.63-8.037-1.739zm106.657.38l.056 37.687h4.887l-.056-37.687zm-37.302.162v37.525l5.05-.11V33.209l5.702-.054c14.825.108 14.663-21.342.49-21.07zm56.938.327v4.344l9.883.054-.164 32.8v.109l5.051-.055.163-32.854 9.882-.054v-4.344zm-100.476.054v37.361h5.05v-19.55l17.918 19.55h6.246l-18.354-19.821 15.095-17.54h-6.136l-14.77 17.594V12.412zm-78.287 3.15c1.466 0 2.823.162 4.018.38 7.114 1.574 10.698 7.494 10.97 13.576.271 6.95-3.638 14.173-11.403 15.476-.869.163-1.793.271-2.716.271-1.14 0-2.172-.108-3.095-.325-6.57-1.466-10.1-7.44-10.536-13.63-.434-6.517 2.499-13.197 8.906-15.151 1.14-.38 2.444-.597 3.856-.597zm126.88.923l6.137.054c7.548.163 6.951 12.164-.271 12.164h-5.865z"/></g></svg>