<svg xmlns="http://www.w3.org/2000/svg" viewBox="0 0 498 86"><g fill="#fff"><path d="M160.861 16.15c-3.768 0-7.312.696-10.634 2.084-3.273 1.389-6.124 3.297-8.553 5.727-2.43 2.38-4.338 5.23-5.727 8.553-1.388 3.272-2.082 6.767-2.082 10.486 0 3.719.694 7.239 2.082 10.56 1.389 3.273 3.297 6.124 5.727 8.553 2.43 2.38 5.28 4.264 8.553 5.653 3.322 1.388 6.866 2.084 10.634 2.084 3.917 0 7.66-.745 11.23-2.233 3.57-1.537 6.645-3.645 9.223-6.322l-3.718-3.867c-1.984 2.23-4.438 3.992-7.364 5.281a23.4 23.4 0 0 1-9.222 1.86c-3.025 0-5.85-.547-8.479-1.637-2.578-1.14-4.834-2.653-6.767-4.537-1.884-1.934-3.372-4.214-4.463-6.842-1.091-2.678-1.635-5.528-1.635-8.553 0-3.025.544-5.85 1.635-8.479 1.09-2.677 2.579-4.957 4.463-6.841 1.884-1.934 4.115-3.447 6.693-4.537 2.628-1.14 5.43-1.711 8.404-1.711 3.174 0 6.248.644 9.223 1.933 3.024 1.29 5.553 3.075 7.586 5.356l3.793-4.016c-2.529-2.677-5.603-4.76-9.223-6.248-3.57-1.537-7.363-2.307-11.379-2.307zm57.55 0c-3.72 0-7.24.696-10.561 2.084-3.273 1.389-6.124 3.297-8.553 5.727-2.38 2.38-4.264 5.23-5.652 8.553-1.389 3.272-2.083 6.767-2.083 10.486 0 3.719.694 7.239 2.083 10.56 1.388 3.273 3.272 6.124 5.652 8.553 2.43 2.38 5.28 4.264 8.553 5.653 3.322 1.388 6.842 2.084 10.56 2.084 3.719 0 7.214-.696 10.486-2.084 3.273-1.389 6.1-3.273 8.479-5.653 2.43-2.43 4.338-5.28 5.727-8.552 1.388-3.322 2.084-6.842 2.084-10.561 0-3.719-.696-7.214-2.084-10.486-1.389-3.322-3.297-6.173-5.727-8.553-2.38-2.43-5.206-4.338-8.479-5.727-3.272-1.388-6.767-2.084-10.486-2.084zm64.316 0c-3.769 0-7.313.696-10.635 2.084-3.273 1.389-6.123 3.297-8.553 5.727-2.43 2.38-4.338 5.23-5.726 8.553-1.389 3.272-2.084 6.767-2.084 10.486 0 3.719.695 7.239 2.084 10.56 1.388 3.273 3.297 6.124 5.726 8.553 2.43 2.38 5.28 4.264 8.553 5.653 3.322 1.388 6.866 2.084 10.635 2.084 3.917 0 7.66-.745 11.23-2.233 3.57-1.537 6.644-3.645 9.223-6.322l-3.72-3.867c-1.982 2.23-4.437 3.992-7.362 5.281a23.4 23.4 0 0 1-9.223 1.86c-3.025 0-5.85-.547-8.479-1.637-2.578-1.14-4.833-2.653-6.767-4.537-1.884-1.934-3.372-4.214-4.463-6.842-1.09-2.678-1.635-5.528-1.635-8.553 0-3.025.544-5.85 1.635-8.479 1.09-2.677 2.579-4.957 4.463-6.841 1.884-1.934 4.115-3.447 6.693-4.537 2.628-1.14 5.43-1.711 8.405-1.711 3.173 0 6.247.644 9.222 1.933 3.025 1.29 5.553 3.075 7.586 5.356l3.793-4.016c-2.529-2.677-5.603-4.76-9.223-6.248-3.57-1.537-7.362-2.307-11.378-2.307zm38.154.819V69.03h5.726v-24.99l26.998 24.99h8.032L332.78 42.48l28.262-25.51h-7.512l-26.924 24.693V16.97Zm54.889 0V69.03h5.726V47.09h16.883c5.008 0 9.049-1.388 12.123-4.164 3.124-2.777 4.685-6.422 4.685-10.934s-1.537-8.13-4.61-10.857c-3.075-2.777-7.14-4.166-12.198-4.166zm57.119 0V69.03h5.726V16.97zm21.716 0v5.133h18.817v46.93h5.728v-46.93h18.817v-5.133ZM218.41 21.432c2.925 0 5.678.57 8.256 1.71 2.578 1.091 4.785 2.604 6.62 4.538 1.883 1.884 3.371 4.164 4.462 6.841 1.09 2.628 1.635 5.454 1.635 8.479 0 3.025-.544 5.85-1.635 8.479-1.09 2.627-2.579 4.908-4.463 6.841-1.834 1.934-4.04 3.471-6.619 4.612-2.578 1.09-5.33 1.636-8.256 1.636-2.975 0-5.752-.546-8.33-1.636-2.578-1.14-4.81-2.678-6.693-4.612-1.835-1.933-3.298-4.214-4.389-6.841-1.09-2.628-1.635-5.454-1.635-8.479 0-3.025.544-5.85 1.635-8.479 1.09-2.677 2.554-4.957 4.389-6.841 1.884-1.934 4.115-3.447 6.693-4.537 2.578-1.14 5.355-1.711 8.33-1.711zm163.086.67h16.436c3.52 0 6.321.892 8.404 2.677 2.082 1.785 3.125 4.213 3.125 7.287s-1.043 5.53-3.125 7.364c-2.083 1.785-4.884 2.677-8.404 2.677h-16.436z" font-family="Red Hat Display" font-size="74.373" letter-spacing="8" style="line-height:1.25;-inkscape-font-specification:'Red Hat Display, Normal'" word-spacing="0"/><path d="M85.667 49.972c-2.191.135-5.308 1.847-8.084 4.64l-6.116 6.116L52.57 54.38l-3.684 3.807 14.262 10.86-3.166 3.167c-1.128 1.12-2.075 2.296-2.8 3.443l-8.587-.64-.035.035-2.105 2.105 6.586 4.824 1.959 1.45 1.45 1.959 4.825 6.588 2.106-2.106.035-.035-.643-8.59c1.147-.726 2.323-1.673 3.444-2.8l3.166-3.167 10.86 14.264 3.806-3.684-6.346-18.9 6.113-6.113c3.726-3.703 5.531-8.01 4.233-9.92a2.849 2.849 0 0 0-.245-.303c-.09-.091-.3-.242-.3-.242-.478-.324-1.106-.455-1.836-.41z" style="font-variation-settings:normal;-inkscape-stroke:none" transform="translate(-25.696 -26.717)"/><path d="M97.885-42.29c-23.714 0-43 19.287-43 43 0 23.715 19.286 43 43 43s43-19.285 43-43c0-23.713-19.286-43-43-43zm0 5.802c20.58 0 37.199 16.62 37.199 37.199 0 20.58-16.62 37.2-37.2 37.2-20.579 0-37.2-16.62-37.2-37.2 0-20.58 16.621-37.2 37.2-37.2z" color="#000" style="-inkscape-stroke:none" transform="rotate(45 19.403 -44.376)"/></g></svg>