<svg xmlns="http://www.w3.org/2000/svg" viewBox="0 0 492.169 74.437"><g fill="#fff"><path d="M160.861 16.15q-5.651.001-10.634 2.084-4.91 2.083-8.553 5.727-3.644 3.57-5.727 8.553-2.082 4.908-2.082 10.486t2.082 10.56q2.083 4.91 5.727 8.553 3.644 3.57 8.553 5.653 4.982 2.083 10.634 2.084 5.875 0 11.23-2.233 5.356-2.306 9.223-6.322l-3.718-3.867q-2.975 3.346-7.364 5.281a23.4 23.4 0 0 1-9.222 1.86q-4.536-.001-8.479-1.637-3.867-1.71-6.767-4.537-2.826-2.9-4.463-6.842-1.636-4.016-1.635-8.553t1.635-8.479q1.636-4.015 4.463-6.841 2.826-2.901 6.693-4.537 3.943-1.71 8.404-1.711 4.76 0 9.223 1.933 4.536 1.935 7.586 5.356l3.793-4.016q-3.793-4.016-9.223-6.248-5.355-2.306-11.379-2.307m57.55 0q-5.58.001-10.561 2.084-4.91 2.083-8.553 5.727-3.57 3.57-5.652 8.553-2.083 4.908-2.083 10.486t2.083 10.56q2.082 4.91 5.652 8.553 3.644 3.57 8.553 5.653 4.983 2.083 10.56 2.084 5.578-.001 10.486-2.084 4.91-2.083 8.479-5.653 3.644-3.644 5.727-8.552 2.083-4.983 2.084-10.561-.001-5.578-2.084-10.486-2.083-4.983-5.727-8.553-3.57-3.644-8.479-5.727T218.41 16.15zm64.316 0q-5.653.001-10.635 2.084-4.909 2.083-8.553 5.727-3.644 3.57-5.726 8.553-2.084 4.908-2.084 10.486t2.084 10.56q2.082 4.91 5.726 8.553 3.644 3.57 8.553 5.653 4.982 2.083 10.635 2.084 5.875 0 11.23-2.233 5.355-2.306 9.223-6.322l-3.72-3.867q-2.974 3.346-7.362 5.281a23.4 23.4 0 0 1-9.223 1.86q-4.536-.001-8.479-1.637-3.866-1.71-6.767-4.537-2.826-2.9-4.463-6.842-1.635-4.016-1.635-8.553t1.635-8.479q1.636-4.015 4.463-6.841 2.826-2.901 6.693-4.537 3.942-1.71 8.405-1.711 4.76 0 9.222 1.933 4.537 1.935 7.586 5.356l3.793-4.016q-3.793-4.016-9.223-6.248-5.355-2.306-11.378-2.307m38.154.819V69.03h5.726V44.04l26.998 24.99h8.032L332.78 42.48l28.262-25.51h-7.512l-26.924 24.693V16.97Zm54.889 0V69.03h5.726V47.09h16.883q7.512 0 12.123-4.164 4.686-4.166 4.685-10.934 0-6.767-4.61-10.857-4.612-4.166-12.198-4.166zm57.119 0V69.03h5.726V16.97Zm21.716 0v5.133h18.817v46.93h5.728v-46.93h18.817v-5.133ZM218.41 21.432q4.388 0 8.256 1.71 3.867 1.637 6.62 4.538 2.825 2.826 4.462 6.841 1.635 3.942 1.635 8.479t-1.635 8.479q-1.636 3.941-4.463 6.841-2.75 2.9-6.619 4.612-3.867 1.636-8.256 1.636-4.463 0-8.33-1.636-3.868-1.71-6.693-4.612-2.752-2.9-4.389-6.841-1.635-3.942-1.635-8.479t1.635-8.479q1.636-4.015 4.389-6.841 2.826-2.901 6.693-4.537 3.867-1.71 8.33-1.711m163.086.67h16.436q5.28 0 8.404 2.677t3.125 7.287q-.001 4.612-3.125 7.364-3.124 2.677-8.404 2.677h-16.436z" font-family="'Red Hat Display'" font-size="74.373" letter-spacing="8" style="line-height:1.25;-inkscape-font-specification:&quot;Red Hat Display, Normal&quot;;fill:#2a7ae2;fill-opacity:1" transform="translate(-5.798 -5.781)" word-spacing="0"/><path d="M97.885-36.488c20.58 0 37.199 16.62 37.199 37.199 0 20.58-16.62 37.2-37.2 37.2-20.579 0-37.2-16.62-37.2-37.2s16.621-37.2 37.2-37.2z" color="#000" style="fill:#2a7ae2;fill-opacity:1;-inkscape-stroke:none" transform="rotate(45 23.483 -54.265)"/><path d="M85.667 49.972c-2.191.135-5.308 1.847-8.084 4.64l-6.116 6.116L52.57 54.38l-3.684 3.807 14.262 10.86-3.166 3.167c-1.128 1.12-2.075 2.296-2.8 3.443l-8.587-.64-.035.035-2.105 2.105 6.586 4.824L55 83.431l1.45 1.959 4.825 6.588 2.106-2.106.035-.035-.643-8.59c1.147-.726 2.323-1.673 3.444-2.8l3.166-3.167 10.86 14.264 3.806-3.684-6.346-18.9 6.113-6.113c3.726-3.703 5.531-8.01 4.233-9.92a3 3 0 0 0-.245-.303c-.09-.091-.3-.242-.3-.242-.478-.324-1.106-.455-1.836-.41z" style="font-variation-settings:normal;-inkscape-stroke:none" transform="translate(-31.494 -32.498)"/></g></svg>
