<svg xmlns="http://www.w3.org/2000/svg" viewBox="0 0 74.437 74.437"><g fill="#fff"><path d="M97.885-36.488c20.58 0 37.199 16.62 37.199 37.199 0 20.58-16.62 37.2-37.2 37.2-20.579 0-37.2-16.62-37.2-37.2s16.621-37.2 37.2-37.2z" color="#000" style="fill:#2a7ae2;fill-opacity:1;-inkscape-stroke:none" transform="rotate(45 23.483 -54.265)"/><path d="M85.667 49.972c-2.191.135-5.308 1.847-8.084 4.64l-6.116 6.116L52.57 54.38l-3.684 3.807 14.262 10.86-3.166 3.167c-1.128 1.12-2.075 2.296-2.8 3.443l-8.587-.64-.035.035-2.105 2.105 6.586 4.824L55 83.431l1.45 1.959 4.825 6.588 2.106-2.106.035-.035-.643-8.59c1.147-.726 2.323-1.673 3.444-2.8l3.166-3.167 10.86 14.264 3.806-3.684-6.346-18.9 6.113-6.113c3.726-3.703 5.531-8.01 4.233-9.92a3 3 0 0 0-.245-.303c-.09-.091-.3-.242-.3-.242-.478-.324-1.106-.455-1.836-.41z" style="font-variation-settings:normal;-inkscape-stroke:none" transform="translate(-31.494 -32.498)"/></g></svg>
