<svg xmlns="http://www.w3.org/2000/svg" aria-hidden="true" viewBox="0 64 1024 1024" fill="currentColor" style="vertical-align:-.375em"><path d="M763.431 502.263c.002 10.286-3.422 18.855-10.281 25.714l-205.835 204.24-58.288 58.29c-6.857 6.857-15.431 10.286-25.714 10.286-10.286 0-18.857-3.429-25.714-10.286L266.372 619.318c-6.857-6.862-10.283-15.433-10.283-25.719s3.426-18.857 10.283-25.714l50.206-50.206c6.857-6.857 15.429-10.286 25.714-10.281 10.29 0 18.857 3.424 25.717 10.286L461.7 611.33l188.203-186.608c6.857-6.857 15.429-10.286 25.719-10.286 10.283-.002 18.855 3.429 25.714 10.286l51.817 51.822c6.855 6.862 10.283 15.433 10.279 25.719zm-251.372 594.88C229.721 1097.143 0 867.47 0 585.118 0 302.883 229.721 73.143 512.059 73.143 794.34 73.143 1024 302.878 1024 585.118c.005 282.352-229.659 512.025-511.941 512.025zm0-899.666c-213.826 0-387.728 173.856-387.728 387.643 0 213.888 173.904 387.691 387.728 387.691 213.717 0 387.671-173.803 387.671-387.691.005-213.785-173.957-387.643-387.671-387.643z" fill="#81d400"/></svg>