<svg xmlns="http://www.w3.org/2000/svg" width="16" height="16" fill="currentColor" aria-hidden="true" viewBox="0 64 16 16"><path fill="#81d400" d="M11.929 70.705c0 .16-.054.295-.161.402l-3.216 3.191-.911.91a.545.545 0 01-.402.162.545.545 0 01-.402-.161l-2.675-2.675a.545.545 0 01-.16-.402c0-.16.053-.295.16-.402l.785-.784a.545.545 0 01.401-.16c.161 0 .295.053.402.16l1.464 1.463 2.94-2.916a.545.545 0 01.403-.16c.16 0 .294.053.401.16l.81.81c.107.107.16.241.16.402zM8 80C3.589 80 0 76.411 0 72c0-4.41 3.59-8 8-8 4.412 0 8 3.59 8 8 0 4.411-3.588 8-8 8zm0-14.057A6.064 6.064 0 001.943 72 6.063 6.063 0 008 78.057 6.064 6.064 0 0014.058 72a6.064 6.064 0 00-6.057-6.057z"/></svg>