<svg xmlns="http://www.w3.org/2000/svg" aria-hidden="true" viewBox="0 64 1024 1024" fill="currentColor" style="vertical-align:-.375em"><path d="M511.488 74.679c6.656 0 13.093.878 19.456 2.487s12.142 4.169 17.481 7.461c5.998 3.365 11.118 7.314 15.506 11.995s8.119 10.021 11.483 15.945l437.979 842.24c6.656 11.995 9.801 23.918 9.509 35.913s-3.877 23.918-10.459 35.913c-3.365 5.998-7.168 11.118-11.483 15.506s-9.509 8.192-15.506 11.483c-5.339 2.706-10.971 4.827-16.969 6.51s-12.288 2.487-18.944 2.487H73.509c-6.656 0-12.946-.805-18.944-2.487s-11.63-3.803-16.969-6.51c-5.998-3.291-11.118-7.095-15.506-11.483s-8.192-9.509-11.483-15.506C3.951 1014.638.513 1002.715.148 990.72s2.779-23.918 9.509-35.913l437.979-842.24c3.291-5.998 7.095-11.264 11.483-15.945s9.509-8.631 15.506-11.995c5.339-3.291 11.118-5.778 17.481-7.461s12.8-2.487 19.456-2.487zM132.974 950.711H892.27L511.488 209.116 132.974 950.711zm450.413-83.237c-2.121 5.632-7.534 9.509-13.97 9.509h-106.13c-11.045 0-24.576-.585-24.576-14.994v-44.544c0-8.558 6.437-14.994 14.994-14.994H569.49c8.485 0 14.994 6.437 14.994 14.994v44.544c0 1.975-.366 3.803-1.024 5.486zm.439-145.408c-2.121 5.632-7.534 9.509-13.97 9.509h-106.13c-11.045 0-24.576-.585-24.576-14.994V491.447c0-8.558 6.437-14.994 14.994-14.994h115.785c8.485 0 14.994 6.437 14.994 14.994v225.134c0 1.975-.366 3.803-1.024 5.486z" fill="#f0af00"/></svg>