<svg version="1.1" viewBox="0 0 240 80" xmlns="http://www.w3.org/2000/svg" xmlns:cc="http://creativecommons.org/ns#" xmlns:dc="http://purl.org/dc/elements/1.1/" xmlns:rdf="http://www.w3.org/1999/02/22-rdf-syntax-ns#">
<metadata>
<rdf:RDF>
<cc:Work rdf:about="">
<dc:format>image/svg+xml</dc:format>
<dc:type rdf:resource="http://purl.org/dc/dcmitype/StillImage"/>
<dc:title/>
</cc:Work>
</rdf:RDF>
</metadata>
<g transform="matrix(.48102 0 0 .48102 .0051906 -77.422)" stroke-width="2.0789">
<g fill="#111">
<path id="path7" d="m232.46 274.8h-9.086l-1.557-10.398h-11.051l-1.559 10.398h-8.266l9.17-57.299h13.18zm-20.549-18.174h8.676l-4.339-28.976z"/>
<path id="path9" d="m246.62 217.5h27.83v8.184h-9.41v49.116h-9.011v-49.116h-9.409z"/>
<path id="path11" d="m293.36 231.26c0-9.169 4.83-14.405 13.671-14.405s13.669 5.236 13.669 14.405v29.792c0 9.172-4.828 14.408-13.669 14.408s-13.671-5.236-13.671-14.408zm9.006 30.371c0 4.088 1.803 5.645 4.665 5.645 2.866 0 4.665-1.557 4.665-5.645v-30.945c0-4.094-1.799-5.646-4.665-5.646-2.862 0-4.665 1.552-4.665 5.646z"/>
<path id="path13" d="m361.3 258.18 6.143-40.68h12.522v57.299h-8.515v-41.094l-6.22 41.094h-8.513l-6.711-40.52v40.52h-7.857v-57.299h12.523z"/>
<path id="path15" d="m402.23 217.5h9.004v57.299h-9.004z"/>
<path id="path17" d="m459.61 253.44v7.612c0 9.172-4.582 14.408-13.424 14.408s-13.426-5.236-13.426-14.408v-29.792c0-9.169 4.584-14.405 13.426-14.405s13.424 5.236 13.424 14.405v5.565h-8.513v-6.14c0-4.094-1.802-5.646-4.666-5.646s-4.663 1.552-4.663 5.646v30.945c0 4.088 1.799 5.564 4.663 5.564s4.666-1.477 4.666-5.564v-8.19z"/>
</g>
<g fill="#46d200">
<path id="path21" d="m259.07 195.26c-0.089-0.295-0.236-0.553-0.432-0.756-0.195-0.221-0.461-0.398-0.812-0.544-0.294-0.117-0.648-0.208-1.086-0.267-0.414-0.057-0.904-0.088-1.458-0.094l-7.243-0.077-0.109 10.112 2.488 0.025 0.039-3.449 4.014 0.043c0.707 6e-3 1.281-0.014 1.76-0.062 0.5-0.053 0.934-0.137 1.283-0.254 0.391-0.131 0.709-0.308 0.941-0.523 0.238-0.221 0.422-0.49 0.541-0.801 0.096-0.27 0.156-0.562 0.178-0.877 0.018-0.261 0.023-0.548 0.027-0.852 2e-3 -0.291 2e-3 -0.562-4e-3 -0.805-6e-3 -0.297-0.05-0.57-0.127-0.819zm-2.357 1.598c0 0.248-6e-3 0.463-0.018 0.651-6e-3 0.138-0.033 0.218-0.07 0.284 0 0-0.055 0.036-0.234 0.072-0.178 0.035-0.414 0.061-0.713 0.072-0.338 0.014-0.738 0.016-1.182 0.011l-4.018-0.044 0.025-2.047 4.011 0.043c0.478 6e-3 0.878 0.02 1.201 0.028 0.29 0.013 0.528 0.038 0.71 0.072 0.186 0.04 0.252 0.08 0.25 0.066 0.01 0.017 0.029 0.073 0.035 0.199 6e-3 0.165 9e-3 0.366 3e-3 0.593z"/>
<path id="path23" d="m284.96 195.5c-0.11-0.298-0.296-0.556-0.533-0.763-0.224-0.21-0.532-0.375-0.931-0.51-0.342-0.111-0.758-0.197-1.268-0.256-0.498-0.055-1.088-0.087-1.756-0.096l-6.861-0.072-0.109 10.11 2.488 0.027 0.036-3.449 4.198 0.046c0.435 3e-3 0.832 0.017 1.191 0.037 0.271 0.014 0.516 0.047 0.701 0.087 0.182 0.039 0.234 0.079 0.254 0.099 0.012 0.035 0.035 0.121 0.043 0.266 8e-3 0.186 8e-3 0.399 6e-3 0.654l-0.027 2.332 2.488 0.027 0.025-2.331c0-0.36-0.01-0.667-0.041-0.944-0.043-0.332-0.129-0.632-0.266-0.897-0.061-0.113-0.131-0.22-0.213-0.317 0.104-0.105 0.201-0.227 0.289-0.352 0.172-0.27 0.293-0.586 0.363-0.952 0.062-0.317 0.096-0.681 0.1-1.077 2e-3 -0.294 0-0.57-0.013-0.818-0.011-0.309-0.069-0.595-0.164-0.851zm-4.533 2.733-4.374-0.047 0.021-2.048 4.375 0.048c0.478 4e-3 0.877 0.018 1.205 0.026 0.288 0.015 0.525 0.038 0.707 0.075 0.189 0.038 0.254 0.07 0.25 0.064 6e-3 0.015 0.029 0.07 0.029 0.195 0.012 0.167 0.014 0.364 0.011 0.596-3e-3 0.249-0.011 0.465-0.021 0.649-0.01 0.14-0.033 0.22-0.068 0.286 0 0-0.059 0.037-0.236 0.07-0.178 0.037-0.417 0.061-0.711 0.074-0.339 0.016-0.736 0.016-1.188 0.012z"/>
<path id="path25" d="m312.02 196.57c-0.088-0.412-0.232-0.787-0.43-1.109-0.219-0.348-0.531-0.637-0.92-0.86-0.363-0.208-0.801-0.36-1.336-0.464-0.5-0.097-1.09-0.146-1.807-0.155l-3.281-0.033c-0.717-9e-3 -1.307 0.028-1.805 0.114-0.539 0.09-0.982 0.234-1.346 0.431-0.398 0.22-0.717 0.5-0.941 0.842-0.209 0.32-0.363 0.688-0.461 1.107-0.088 0.378-0.135 0.796-0.156 1.266-0.014 0.431-0.025 0.905-0.031 1.429-5e-3 0.521-5e-3 0.994 2e-3 1.427 8e-3 0.464 0.051 0.894 0.131 1.269 0.086 0.418 0.234 0.793 0.432 1.109 0.217 0.348 0.525 0.642 0.928 0.873 0.361 0.202 0.811 0.356 1.332 0.453 0.5 0.1 1.092 0.146 1.804 0.154l3.28 0.036c0.715 7e-3 1.307-0.027 1.804-0.112 0.524-0.089 0.976-0.234 1.35-0.43 0.399-0.219 0.717-0.506 0.94-0.848 0.205-0.316 0.357-0.684 0.453-1.102 0.086-0.375 0.143-0.801 0.16-1.268 0.016-0.431 0.027-0.906 0.038-1.425 5e-3 -0.525 1e-3 -0.999-7e-3 -1.431-0.01-0.47-0.053-0.888-0.133-1.273zm-4.58 5.578-3.279-0.035c-0.455-5e-3 -0.848-0.019-1.159-0.05-0.268-0.024-0.472-0.069-0.614-0.13-0.092-0.038-0.154-0.082-0.189-0.129-0.043-0.062-0.092-0.174-0.133-0.385-0.041-0.229-0.066-0.523-0.072-0.872-2e-3 -0.384-6e-3 -0.847 0-1.385 6e-3 -0.54 0.018-1.002 0.029-1.394 0.01-0.346 0.035-0.634 0.084-0.863 0.035-0.166 0.086-0.296 0.139-0.371 0.04-0.055 0.109-0.098 0.195-0.134 0.148-0.058 0.359-0.097 0.619-0.118 0.314-0.025 0.705-0.034 1.166-0.028l3.276 0.035c0.46 4e-3 0.853 0.022 1.163 0.054 0.262 0.024 0.467 0.068 0.613 0.131 0.088 0.039 0.15 0.082 0.186 0.133 0.057 0.081 0.102 0.215 0.137 0.38 0.041 0.228 0.064 0.519 0.07 0.869 6e-3 0.39 4e-3 0.852 0 1.392-8e-3 0.537-0.016 0.998-0.029 1.382-0.014 0.353-0.045 0.647-0.09 0.87-0.047 0.21-0.104 0.322-0.139 0.373-0.039 0.053-0.105 0.095-0.205 0.135-0.143 0.057-0.348 0.098-0.607 0.117-0.322 0.023-0.712 0.029-1.161 0.023z"/>
<path id="path27" d="m333.41 201.3c-2e-3 0.223-0.023 0.411-0.066 0.559-0.021 0.088-0.055 0.154-0.098 0.193-0.053 0.051-0.139 0.096-0.252 0.123-0.121 0.03-0.344 0.069-0.711 0.064l-2.543-0.027c-0.223-2e-3 -0.406-0.02-0.537-0.048-0.037-9e-3 -0.043-0.019-0.059-0.03 0-6e-3 -0.053-0.071-0.088-0.289-0.037-0.217-0.06-0.534-0.055-0.939l0.011-1.061-2.485-0.026-0.012 1.062c-4e-3 0.589 0.021 1.074 0.084 1.49 0.074 0.487 0.24 0.898 0.496 1.228 0.27 0.338 0.646 0.589 1.107 0.729 0.4 0.122 0.896 0.186 1.514 0.193l2.539 0.027c0.609 6e-3 1.117-0.043 1.549-0.148 0.482-0.115 0.887-0.316 1.197-0.594 0.324-0.285 0.559-0.656 0.699-1.092 0.125-0.389 0.191-0.849 0.195-1.369l0.076-6.871-2.49-0.027z"/>
<polygon id="polygon29" points="360.71 198.55 353.45 198.47 353.46 196.97 361.09 197.05 361.11 194.74 351 194.64 350.89 204.75 361 204.86 361.03 202.55 353.4 202.47 353.42 200.78 360.68 200.86"/>
<path id="path31" d="m386.64 196.48c-0.156-0.302-0.367-0.566-0.623-0.779-0.256-0.215-0.569-0.392-0.941-0.524-0.338-0.126-0.744-0.219-1.195-0.28-0.439-0.062-0.951-0.096-1.514-0.102l-2.553-0.029c-0.713-7e-3 -1.307 0.03-1.801 0.116-0.543 0.091-0.984 0.233-1.349 0.433-0.397 0.215-0.712 0.498-0.942 0.842-0.208 0.313-0.361 0.688-0.461 1.105-0.086 0.381-0.137 0.807-0.154 1.268-0.016 0.429-0.029 0.901-0.034 1.428-8e-3 0.52 0 0.993 3e-3 1.42 8e-3 0.465 0.049 0.894 0.133 1.275 0.082 0.419 0.232 0.791 0.432 1.109 0.219 0.351 0.529 0.644 0.928 0.873 0.361 0.199 0.812 0.356 1.331 0.452 0.491 0.095 1.1 0.147 1.804 0.155l2.549 0.027c0.588 6e-3 1.082-0.014 1.516-0.063 0.473-0.056 0.867-0.142 1.211-0.265 0.375-0.131 0.697-0.312 0.954-0.528 0.263-0.22 0.478-0.489 0.641-0.8 0.151-0.289 0.261-0.62 0.317-0.992 0.053-0.324 0.082-0.689 0.088-1.086l6e-3 -0.699-2.485-0.027-7e-3 0.697c-2e-3 0.277-0.02 0.514-0.044 0.707-0.024 0.199-0.066 0.311-0.093 0.371-0.031 0.062-0.066 0.109-0.113 0.145-0.041 0.031-0.123 0.075-0.285 0.121-0.164 0.045-0.377 0.078-0.642 0.092-0.274 0.017-0.614 0.022-1.038 0.019l-2.551-0.026c-0.449-6e-3 -0.845-0.021-1.156-0.049-0.266-0.028-0.473-0.072-0.617-0.133-0.135-0.056-0.176-0.114-0.184-0.131-0.045-0.056-0.1-0.171-0.138-0.383-0.042-0.225-0.069-0.521-0.071-0.871-4e-3 -0.385-4e-3 -0.848 2e-3 -1.383 6e-3 -0.543 0.016-1.007 0.027-1.393 9e-3 -0.35 0.039-0.643 0.086-0.866 0.035-0.163 0.084-0.296 0.139-0.372 0.043-0.056 0.105-0.098 0.195-0.135 0.148-0.057 0.359-0.095 0.619-0.117 0.314-0.023 0.705-0.033 1.162-0.029l2.551 0.029c0.521 6e-3 0.955 0.027 1.29 0.068 0.334 0.035 0.513 0.115 0.608 0.172 0.061 0.037 0.135 0.096 0.189 0.249 0.045 0.126 0.103 0.374 0.098 0.829l-0.01 0.703 2.486 0.028 6e-3 -0.702c5e-3 -0.364-0.016-0.707-0.062-1.024-0.058-0.353-0.162-0.668-0.308-0.945z"/>
<polygon id="polygon33" points="412.6 197.61 412.62 195.3 401.42 195.18 401.4 197.49 405.76 197.54 405.67 205.34 408.16 205.37 408.24 197.56"/>
</g>
<path id="path35" d="m104.69 245.28c-4.828 0-12.182-0.432-12.182-0.432-0.77-0.045-1.031-0.592-0.576-1.216 0 0 4.562-6.282 7.871-10.217 1.635-1.936 3.947-4.497 3.947-4.497 0.518-0.574 1.361-0.574 1.881 0 0 0 2.308 2.562 3.943 4.497 3.312 3.935 7.875 10.217 7.875 10.217 0.454 0.624 0.195 1.171-0.574 1.216 1e-3 0-7.358 0.432-12.185 0.432z" fill="#46d200"/>
<path id="path37" d="m176.13 239.59c-0.027-6.996-16.971-13.006-41.387-15.742-1.461-0.064-2.223 1.014-2.244 2.05-0.041 0.825 0.529 1.841 1.566 2.009 0.193 0.033 0.361 0.072 0.578 0.105 19.672 2.055 33.066 6.089 33.088 10.747 0.021 4.542-12.664 8.519-31.514 10.667-4.926-8.047-10.936-16.685-17.799-25.404-3.235-4.115-6.5-8.031-9.74-11.734 16.715-18.591 31.447-29.887 35.706-26.554 3.294 2.578-0.46 13.478-8.872 27.784-0.264 0.462-0.48 1.818 0.562 2.524 0.982 0.666 2.309 0.298 2.887-0.636 0.082-0.143 0.234-0.362 0.318-0.506 10.367-18.119 14.562-32.391 9.586-36.285-6.082-4.758-23.951 7.378-43.375 28.363v-6e-3c-0.268 0.287-0.533 0.57-0.801 0.861-0.266-0.291-0.533-0.574-0.799-0.861v6e-3c-19.425-20.985-37.295-33.122-43.375-28.363-4.977 3.895-0.782 18.166 9.588 36.285 0.082 0.144 0.234 0.363 0.316 0.506 0.578 0.934 1.904 1.302 2.889 0.636 1.041-0.706 0.824-2.062 0.561-2.524-8.414-14.307-12.166-25.206-8.873-27.784 4.26-3.333 18.99 7.963 35.707 26.554-3.24 3.703-6.506 7.619-9.74 11.734-6.864 8.72-12.873 17.357-17.799 25.404-18.85-2.148-31.537-6.125-31.513-10.667 0.021-4.658 13.414-8.692 33.087-10.747 0.219-0.033 0.385-0.072 0.578-0.105 1.037-0.168 1.607-1.184 1.565-2.009-0.021-1.036-0.782-2.114-2.243-2.05-24.417 2.736-41.357 8.746-41.387 15.742-0.029 6.554 14.783 12.279 36.685 15.287-10.263 17.997-14.376 32.144-9.421 36.022 5.365 4.197 19.92-4.764 36.615-21.354 0.557-0.508 0.902-1.854-0.109-2.84-0.65-0.635-1.812-0.766-2.617-0.174-0.314 0.23-0.613 0.527-0.832 0.734-13.022 13.066-23.684 20.307-27.199 17.557-3.42-2.67 0.744-14.119 9.826-29.185 8.496 0.915 17.855 1.433 27.691 1.472v2e-3c0.139 0 0.273 0 0.412 2e-3 0.105 0 0.211 2e-3 0.317 2e-3h0.069 0.071c0.106 0 0.212-2e-3 0.318-2e-3 0.136-2e-3 0.272-2e-3 0.411-2e-3v-2e-3c9.834-0.039 19.195-0.557 27.692-1.472 9.081 15.065 13.243 26.515 9.825 29.185-3.516 2.75-14.178-4.49-27.199-17.557-0.219-0.207-0.52-0.504-0.832-0.734-0.805-0.592-1.967-0.461-2.617 0.174-1.012 0.986-0.666 2.332-0.109 2.84 16.697 16.59 31.25 25.551 36.615 21.354 4.955-3.879 0.84-18.025-9.421-36.022 21.905-3.008 36.717-8.733 36.688-15.287zm-71.212 11.508c-0.075 0-0.151 2e-3 -0.228 2e-3 -0.074 0-0.149-2e-3 -0.227-2e-3 -8.807-0.014-17.186-0.381-24.793-1.028 4.523-7.011 9.94-14.61 16.037-22.352 2.736-3.478 5.473-6.798 8.184-9.97v8e-3c0.266-0.312 0.533-0.63 0.799-0.938 0.268 0.309 0.533 0.626 0.801 0.938v-8e-3c2.71 3.172 5.446 6.492 8.184 9.97 6.098 7.741 11.514 15.341 16.037 22.352-7.608 0.646-15.986 1.014-24.794 1.028z" fill="#111"/>
</g>
</svg>
