<svg xmlns="http://www.w3.org/2000/svg" viewBox="0 0 240 80"><g stroke-width="3.021"><path fill="#4d4d4d" d="M59.176 33.981c-2.671-.004-4.889.544-5.746.843l-.884 4.766c0 .018 4.396-1.172 6.332-1.102 3.204.115 3.502 1.225 3.446 2.724.053.088-.828-1.354-3.601-1.403-3.502-.06-8.437 1.24-8.43 6.521-.097 5.943 4.435 7.69 7.523 7.72 2.774-.05 4.078-1.05 4.79-1.586.936-.98 2.009-1.962 3.028-3.145-.967 1.759-1.804 2.973-2.678 3.9v.788l4.22-.712.03-11.466c-.043-1.623.93-7.833-8.03-7.848zm-.606 9.983c1.751.024 3.757.886 3.757 2.96.01 1.888-2.363 2.902-3.905 2.886-1.543-.016-3.592-1.213-3.602-3.053.03-1.644 1.933-2.835 3.75-2.793zm11.417-8.923l-.03 18.99 4.915-.948.007-10.766c.003-1.603 2.294-3.476 5.163-3.446.613-1.104 1.758-3.923 2.036-4.565-6.418-.015-6.497 1.845-7.616 2.76-.01-1.745-.004-2.793-.004-2.793l-4.471.769zm27.655 2.493c-.047-.022-2.562-2.943-7.62-2.965-4.737-.08-10.05 1.757-10.135 9.7.043 6.984 5.104 9.715 10.162 9.768 5.415.056 7.566-3.386 7.695-3.472-.645-.56-3.065-2.957-3.065-2.957s-1.51 2.152-4.442 2.18c-2.932.027-5.481-2.267-5.518-5.468-.036-3.202 2.344-4.936 5.541-5.076 2.768 0 4.363 1.786 4.363 1.786zm6.196-9.14l-4.64 1.091.032 24.734 4.572-.824.053-11.64c.01-1.22 1.764-3.095 4.696-3.036 2.804.03 3.43 1.869 3.423 2.1l.08 13.476 4.508-.798.016-14.287c.03-1.375-3.012-4.279-7.9-4.3-2.321.005-3.609.53-4.264.918-1.119.865-2.4 1.694-3.658 2.753 1.162-1.494 2.139-2.527 3.092-3.295l-.01-6.89z"/><path fill="#1793d1" d="M120.487 29.039l2.112-.524-.255 24.936-2.145.36zm5.617 7.441l1.857-.816-.238 17.88-1.787.367zm-.347-6.447l1.506-1.207 1.215 1.366-1.506 1.24zm5.667 6.122l2.111-.427-.043 3.738c-.003.16 1.215-4.176 6.79-4.08 5.414.03 6.242 4.196 6.199 5.13l-.123 13.143-1.85.398.175-12.982c.027-.38-.794-3.585-4.62-3.597-3.823-.011-6.514 2.761-6.534 4.532l-.133 11.438-2.145.556.173-17.85zm33.308 17.597l-2.112.427.043-3.737c.004-.159-1.214 4.177-6.788 4.081-5.416-.033-6.24-4.197-6.2-5.13l.122-13.145 2.245-.449-.153 12.983c-.003.355.378 3.636 4.204 3.65 3.823.01 6.537-2.291 6.603-5.755l.12-10.244 2.092-.528zm4.38-17.745l-1.494 1.149 5.555 7.363-6.157 8.508 1.55 1.155 5.788-7.901 5.743 8.087 1.466-1.149-6.156-8.646 5.107-6.993-1.52-1.294-4.656 6.47zM27.491 16.993c-2.448 6.002-3.924 9.929-6.65 15.753 1.671 1.772 3.723 3.834 7.054 6.165-3.581-1.474-6.024-2.954-7.85-4.49-3.489 7.28-8.955 17.65-20.046 37.58 8.718-5.032 15.475-8.137 21.773-9.319a15.991 15.991 0 0 1-.414-3.733l.01-.282c.139-5.584 3.044-9.878 6.486-9.587 3.442.292 6.116 5.06 5.977 10.643a15.41 15.41 0 0 1-.35 3C39.71 63.94 46.396 67.034 54.995 72c-1.694-3.121-3.21-5.935-4.654-8.616-2.277-1.764-4.65-4.061-9.496-6.547 3.33.867 5.713 1.864 7.573 2.979-14.696-27.363-15.885-30.998-20.926-42.821v-.002zm156.789 35.665v-1.542h-.576v-.206h1.387v.206h-.58v1.542zm1.053 0V50.91h.347l.414 1.238c.04.116.066.202.083.259.02-.063.053-.156.096-.278l.417-1.219h.31v1.748h-.221v-1.463l-.51 1.463h-.208l-.507-1.49v1.49zM55.27 67.093v-1.506h-.562v-.202h1.353v.202h-.566v1.506zm1.026 0v-1.708h.341l.404 1.212c.04.112.066.195.083.251.02-.063.05-.152.093-.275l.407-1.188h.304v1.708h-.218v-1.43l-.497 1.43h-.202l-.496-1.453v1.453z"/></g></svg>