<svg xmlns="http://www.w3.org/2000/svg" width="205.087" height="55.001"><path fill="#111" d="M95.824 46.762h-4.371l-.749-5.001h-5.316l-.75 5h-3.976L85.073 19.2h6.34zm-9.885-8.742h4.173l-2.087-13.938zm16.696-18.82h13.387v3.937h-4.527v23.625h-4.334V23.137h-4.526zm22.483 6.619c0-4.41 2.323-6.93 6.576-6.93 4.252 0 6.575 2.52 6.575 6.93v14.33c0 4.412-2.323 6.93-6.575 6.93-4.253 0-6.576-2.518-6.576-6.93zm4.332 14.609c0 1.966.867 2.715 2.244 2.715 1.378 0 2.244-.75 2.244-2.715V25.543c0-1.97-.866-2.716-2.244-2.716-1.377 0-2.244.746-2.244 2.716zm28.348-1.66l2.955-19.568h6.023v27.562h-4.095V26.995l-2.992 19.767h-4.095l-3.228-19.491v19.49h-3.78V19.2h6.024zM177.486 19.2h4.331v27.562h-4.33zm27.601 17.288v3.66c0 4.413-2.204 6.93-6.457 6.93s-6.458-2.517-6.458-6.93V25.82c0-4.41 2.205-6.93 6.458-6.93s6.457 2.52 6.457 6.93v2.677h-4.095v-2.954c0-1.97-.866-2.716-2.244-2.716-1.378 0-2.243.747-2.243 2.716v14.885c0 1.967.865 2.677 2.243 2.677s2.244-.71 2.244-2.677v-3.94z"/><path fill="#46d200" d="M108.623 8.502a.89.89 0 00-.207-.364 1.036 1.036 0 00-.39-.261 2.203 2.203 0 00-.523-.13 5.691 5.691 0 00-.702-.044l-3.484-.037-.052 4.864 1.197.012.018-1.66 1.931.02c.34.005.616-.005.847-.03.24-.024.45-.064.617-.12.188-.063.341-.148.453-.252.114-.106.203-.236.26-.385.046-.13.075-.27.086-.422a12.588 12.588 0 00.011-.797 1.426 1.426 0 00-.062-.394zm-1.133.769c0 .119-.003.222-.009.313a.287.287 0 01-.034.136s-.026.018-.112.035c-.086.017-.2.03-.343.035a12.72 12.72 0 01-.569.005l-1.932-.021.012-.985 1.929.02c.23.004.422.01.578.014.14.007.254.019.341.035.09.02.121.038.12.032a.245.245 0 01.017.095c.003.08.005.176.002.286zm13.587-.654a.903.903 0 00-.256-.367 1.211 1.211 0 00-.448-.245 3.168 3.168 0 00-.61-.123 8.941 8.941 0 00-.845-.046l-3.3-.035-.052 4.863 1.196.013.018-1.66 2.019.023c.21.002.4.008.573.018.13.007.248.023.337.042.088.019.113.038.122.048a.495.495 0 01.02.128c.005.089.005.19.004.314l-.013 1.122 1.197.013.012-1.121c0-.174-.005-.321-.02-.455a1.294 1.294 0 00-.128-.431.89.89 0 00-.103-.152c.05-.051.097-.11.14-.17.082-.13.14-.282.174-.458.03-.152.046-.327.048-.518a7.01 7.01 0 00-.006-.393 1.309 1.309 0 00-.079-.41zm-2.18 1.315l-2.104-.023.01-.985 2.104.023c.23.002.422.009.58.013.138.007.252.018.34.036.09.018.122.034.12.03.003.008.014.034.014.095.006.08.007.175.005.286a7.39 7.39 0 01-.01.312.329.329 0 01-.032.138s-.029.018-.114.034c-.086.017-.2.029-.342.035-.163.008-.354.008-.571.006zm15.196-.8a1.69 1.69 0 00-.206-.533 1.244 1.244 0 00-.443-.414 2.078 2.078 0 00-.643-.223 4.938 4.938 0 00-.869-.075l-1.578-.016a4.801 4.801 0 00-.868.055c-.26.043-.473.113-.648.208-.191.105-.345.24-.452.405-.1.153-.175.33-.222.532a3.355 3.355 0 00-.075.609 32.631 32.631 0 00-.014 1.374c.004.223.024.43.063.61.041.2.113.382.208.534.104.167.252.308.446.42.174.097.39.17.64.217.241.049.526.07.869.075l1.577.017c.344.003.63-.013.868-.054.252-.043.47-.113.65-.207.191-.105.344-.243.452-.408.098-.152.171-.33.218-.53a3.37 3.37 0 00.077-.61 24.347 24.347 0 00.015-1.374 3.348 3.348 0 00-.065-.612zm-2.203 2.683l-1.577-.017a6.65 6.65 0 01-.557-.024 1 1 0 01-.296-.062.212.212 0 01-.09-.062.496.496 0 01-.065-.185 2.72 2.72 0 01-.034-.42c-.001-.185-.003-.407 0-.666.003-.26.008-.482.014-.67.005-.167.017-.306.04-.416a.509.509 0 01.067-.178.217.217 0 01.094-.065 1.1 1.1 0 01.298-.056c.15-.012.339-.017.56-.014l1.576.017c.222.002.41.01.56.026a1 1 0 01.295.063.21.21 0 01.089.064c.027.039.05.103.066.183.02.11.03.25.034.418a30.866 30.866 0 01-.014 1.334c-.007.17-.022.31-.044.419a.53.53 0 01-.067.179.218.218 0 01-.098.065 1.022 1.022 0 01-.292.056 6.819 6.819 0 01-.559.01zm12.493-.408a1.022 1.022 0 01-.032.27.181.181 0 01-.047.092.264.264 0 01-.122.06 1.349 1.349 0 01-.342.03l-1.223-.013a1.35 1.35 0 01-.258-.023c-.018-.004-.02-.01-.029-.015 0-.002-.025-.034-.042-.14a2.627 2.627 0 01-.026-.45l.005-.51-1.195-.013-.006.51c-.002.284.01.517.04.717.036.235.116.432.239.59.13.164.31.285.532.35.193.06.431.09.729.095l1.22.013c.294.003.538-.021.746-.072.232-.055.427-.152.576-.285.156-.137.269-.316.336-.526.06-.187.092-.408.094-.658l.036-3.305-1.197-.013zm9.639-1.361l.005-.721 3.67.038.01-1.111-4.863-.048-.053 4.863 4.863.053.014-1.111-3.67-.04.01-.812 3.492.039.014-1.111zm15.965-.957a1.205 1.205 0 00-.3-.375 1.452 1.452 0 00-.452-.252 2.71 2.71 0 00-.575-.135 5.736 5.736 0 00-.728-.05l-1.228-.013a4.858 4.858 0 00-.867.056 2.038 2.038 0 00-.648.208c-.191.104-.343.24-.454.405-.1.15-.173.33-.221.532a3.349 3.349 0 00-.074.61 24.48 24.48 0 00-.017.687c-.004.25 0 .477.002.683.004.224.023.43.064.613.04.202.111.38.207.534.106.168.255.31.447.42.173.095.39.17.64.217.236.046.53.07.868.075l1.226.012c.283.003.52-.006.73-.03.227-.027.416-.068.582-.127.18-.063.335-.15.459-.254a1.26 1.26 0 00.308-.385 1.51 1.51 0 00.152-.477c.026-.156.04-.332.043-.523l.003-.336-1.196-.013-.003.335a2.94 2.94 0 01-.021.34.599.599 0 01-.045.179.192.192 0 01-.054.07.426.426 0 01-.137.058 1.484 1.484 0 01-.31.044c-.131.008-.295.01-.499.01l-1.227-.013a7.656 7.656 0 01-.556-.024 1.088 1.088 0 01-.296-.064c-.065-.027-.085-.055-.089-.063a.421.421 0 01-.066-.184 2.426 2.426 0 01-.035-.42 31.142 31.142 0 01.014-1.334c.005-.17.02-.31.042-.417a.509.509 0 01.067-.18.215.215 0 01.093-.064 1.14 1.14 0 01.298-.056c.151-.011.34-.016.56-.014l1.226.014c.25.003.46.013.62.033a.709.709 0 01.293.082c.03.018.065.047.091.12.022.06.05.18.047.399l-.005.338 1.196.014.003-.338a3.141 3.141 0 00-.03-.493 1.485 1.485 0 00-.148-.454zm12.497-.568l-5.387-.058-.01 1.112 2.097.024-.043 3.752 1.198.014.038-3.757 2.097.024zM34.364 32.563c-2.323 0-5.86-.208-5.86-.208-.37-.022-.496-.285-.277-.585 0 0 2.194-3.022 3.786-4.915.786-.931 1.898-2.163 1.898-2.163a.598.598 0 01.905 0s1.11 1.233 1.897 2.163c1.593 1.893 3.788 4.915 3.788 4.915.218.3.094.563-.276.585 0 0-3.54.208-5.861.208z"/><path fill="#111" d="M68.728 29.826c-.013-3.366-8.164-6.257-19.908-7.573-.703-.03-1.07.488-1.08.986-.02.397.255.886.754.967.092.016.173.034.278.05 9.462.989 15.905 2.93 15.916 5.17.01 2.185-6.092 4.098-15.16 5.13-2.369-3.87-5.26-8.025-8.56-12.22a139.65 139.65 0 00-4.686-5.643C44.322 7.75 51.409 2.317 53.457 3.92c1.585 1.24-.221 6.483-4.267 13.364-.127.223-.231.875.27 1.215.472.32 1.11.143 1.389-.306.04-.07.112-.175.153-.244 4.986-8.715 7.004-15.58 4.61-17.454-2.925-2.288-11.52 3.55-20.864 13.644v-.003l-.385.414c-.128-.14-.256-.276-.384-.414v.003C24.635 4.044 16.039-1.794 13.115.495c-2.394 1.874-.377 8.739 4.612 17.454.039.07.112.175.152.244.278.449.915.626 1.39.306.5-.34.396-.992.27-1.215C15.491 10.402 13.686 5.16 15.27 3.92c2.05-1.603 9.135 3.83 17.176 12.773a139.249 139.249 0 00-4.685 5.644c-3.302 4.195-6.193 8.35-8.562 12.22-9.067-1.033-15.17-2.946-15.158-5.131.01-2.24 6.452-4.181 15.915-5.17.105-.016.185-.034.278-.05.499-.081.773-.57.753-.967-.01-.498-.376-1.016-1.079-.986C8.163 23.57.014 26.46 0 29.826c-.014 3.152 7.11 5.906 17.646 7.353-4.936 8.657-6.915 15.462-4.531 17.327 2.58 2.02 9.581-2.291 17.612-10.271.268-.245.434-.892-.052-1.367a1.004 1.004 0 00-1.26-.083c-.15.11-.294.253-.4.353-6.263 6.285-11.392 9.768-13.083 8.445-1.645-1.284.358-6.791 4.727-14.038 4.087.44 8.588.689 13.32.708h.198l.152.002h.221l.197-.001v-.001c4.73-.02 9.234-.268 13.32-.708 4.369 7.246 6.371 12.754 4.727 14.038-1.691 1.323-6.82-2.16-13.083-8.445-.106-.1-.25-.243-.4-.353a1.004 1.004 0 00-1.26.083c-.486.475-.32 1.122-.052 1.367 8.032 7.98 15.032 12.29 17.613 10.27 2.383-1.865.404-8.67-4.532-17.326 10.537-1.447 17.662-4.2 17.648-7.353zM34.473 35.36h-.219a144.608 144.608 0 01-11.926-.494c2.176-3.373 4.782-7.028 7.715-10.752a152.575 152.575 0 013.936-4.796v.004c.128-.15.257-.303.385-.451.129.148.256.3.385.45v-.003a154.625 154.625 0 013.937 4.796c2.933 3.723 5.538 7.38 7.714 10.752-3.66.31-7.69.487-11.927.494z"/></svg>