<svg xmlns="http://www.w3.org/2000/svg" id="svg42" width="190.919" height="70.001" version="1.1" viewBox="0 0 50.514 18.521"><g id="text6" fill="#294172" stroke-width=".422" aria-label="COREOS" style="line-height:125%;font-variant-ligatures:normal;font-variant-position:normal;font-variant-caps:normal;font-variant-numeric:normal;font-variant-alternates:normal;font-feature-settings:normal;text-indent:0;text-decoration-line:none;text-decoration-style:solid;text-decoration-color:#000;text-transform:none;text-orientation:mixed;white-space:normal;shape-padding:0;isolation:auto" color="#000" color-rendering="auto" dominant-baseline="auto" font-family="Montserrat" font-size="6.398" font-weight="600" image-rendering="auto" letter-spacing="0" shape-rendering="auto" text-decoration="none" text-rendering="auto" word-spacing="0"><path id="path931" d="M24.18 17.225c.736 0 1.363-.262 1.778-.748l-.537-.512c-.326.358-.73.531-1.197.531-.927 0-1.6-.653-1.6-1.574s.673-1.574 1.6-1.574c.468 0 .87.173 1.197.525l.537-.506c-.415-.486-1.042-.748-1.772-.748-1.376 0-2.4.966-2.4 2.303s1.024 2.303 2.394 2.303z" style="line-height:125%;font-variant-ligatures:normal;font-variant-position:normal;font-variant-caps:normal;font-variant-numeric:normal;font-variant-alternates:normal;font-feature-settings:normal;text-indent:0;text-decoration-line:none;text-decoration-style:solid;text-decoration-color:#000;text-transform:none;text-orientation:mixed;white-space:normal;shape-padding:0;isolation:auto"/><path id="path933" d="M28.755 17.225c1.388 0 2.412-.972 2.412-2.303 0-1.33-1.024-2.303-2.412-2.303-1.389 0-2.413.978-2.413 2.303 0 1.324 1.024 2.303 2.413 2.303zm0-.729c-.903 0-1.574-.66-1.574-1.574 0-.915.671-1.574 1.574-1.574.902 0 1.574.659 1.574 1.574s-.672 1.574-1.574 1.574z" style="line-height:125%;font-variant-ligatures:normal;font-variant-position:normal;font-variant-caps:normal;font-variant-numeric:normal;font-variant-alternates:normal;font-feature-settings:normal;text-indent:0;text-decoration-line:none;text-decoration-style:solid;text-decoration-color:#000;text-transform:none;text-orientation:mixed;white-space:normal;shape-padding:0;isolation:auto"/><path id="path935" d="M35.876 17.161l-1.03-1.471c.608-.237.953-.736.953-1.414 0-.992-.73-1.593-1.907-1.593H32.05v4.478h.832v-1.305h1.01c.058 0 .116 0 .173-.006l.915 1.311zm-.915-2.885c0 .563-.378.895-1.107.895h-.972v-1.785h.972c.73 0 1.107.327 1.107.89z" style="line-height:125%;font-variant-ligatures:normal;font-variant-position:normal;font-variant-caps:normal;font-variant-numeric:normal;font-variant-alternates:normal;font-feature-settings:normal;text-indent:0;text-decoration-line:none;text-decoration-style:solid;text-decoration-color:#000;text-transform:none;text-orientation:mixed;white-space:normal;shape-padding:0;isolation:auto"/><path id="path937" d="M37.559 16.464v-1.235h2.162v-.685H37.56V13.38h2.438v-.697h-3.27v4.478h3.36v-.697z" style="line-height:125%;font-variant-ligatures:normal;font-variant-position:normal;font-variant-caps:normal;font-variant-numeric:normal;font-variant-alternates:normal;font-feature-settings:normal;text-indent:0;text-decoration-line:none;text-decoration-style:solid;text-decoration-color:#000;text-transform:none;text-orientation:mixed;white-space:normal;shape-padding:0;isolation:auto"/><path id="path939" d="M43.106 17.225c1.389 0 2.412-.972 2.412-2.303 0-1.33-1.023-2.303-2.412-2.303-1.388 0-2.412.978-2.412 2.303 0 1.324 1.024 2.303 2.412 2.303zm0-.729c-.902 0-1.574-.66-1.574-1.574 0-.915.672-1.574 1.574-1.574s1.574.659 1.574 1.574-.672 1.574-1.574 1.574z" style="line-height:125%;font-variant-ligatures:normal;font-variant-position:normal;font-variant-caps:normal;font-variant-numeric:normal;font-variant-alternates:normal;font-feature-settings:normal;text-indent:0;text-decoration-line:none;text-decoration-style:solid;text-decoration-color:#000;text-transform:none;text-orientation:mixed;white-space:normal;shape-padding:0;isolation:auto"/><path id="path941" d="M47.79 17.225c1.228 0 1.81-.614 1.81-1.33 0-1.645-2.655-1.024-2.655-1.978 0-.339.282-.607.973-.607.39 0 .832.115 1.235.351l.262-.646c-.39-.256-.953-.396-1.49-.396-1.23 0-1.805.614-1.805 1.337 0 1.663 2.662 1.03 2.662 1.996 0 .333-.295.582-.992.582-.55 0-1.12-.204-1.478-.492l-.288.646c.37.32 1.068.537 1.766.537z" style="line-height:125%;font-variant-ligatures:normal;font-variant-position:normal;font-variant-caps:normal;font-variant-numeric:normal;font-variant-alternates:normal;font-feature-settings:normal;text-indent:0;text-decoration-line:none;text-decoration-style:solid;text-decoration-color:#000;text-transform:none;text-orientation:mixed;white-space:normal;shape-padding:0;isolation:auto"/></g><path id="path12" fill="#3c6eb4" stroke-width=".181" d="M33.648 10.62v.09c0 .006-.004.01-.011.011-.006 0-.01-.004-.012-.011v-.144c0-.008.005-.012.011-.012h.003c.006 0 .01.004.013.013l.051.115.034-.079.021-.045c.003-.003.005-.004.008-.004h.003c.007 0 .01.004.011.012v.144c0 .007-.005.011-.011.011-.008-.001-.011-.005-.011-.01v-.091a5.302 5.302 0 01-.044.097.013.013 0 01-.01.004c-.006 0-.011-.006-.016-.02l-.036-.081m-.153-.067h.105c.008.001.011.005.011.011v.002c0 .006-.004.01-.013.01h-.039v.134c0 .006-.003.01-.01.011-.007 0-.011-.004-.012-.011v-.134h-.04c-.008-.001-.012-.005-.012-.012.003-.007.005-.01.01-.01"/><path id="path14" fill="#3c6eb4" stroke-width=".422" d="M25.036 9.986h-1.323a.541.541 0 00.561.5c.218 0 .407-.09.557-.235a.135.135 0 01.103-.039c.05 0 .102.026.137.069.02.03.034.064.034.098a.2.2 0 01-.06.138 1.11 1.11 0 01-.784.32.978.978 0 01-.98-.98c0-.544.424-.98.967-.98.54 0 .942.42.942.972 0 .08-.072.137-.154.137zm-.788-.758c-.287 0-.484.188-.526.462h1.053a.525.525 0 00-.527-.462z"/><path id="path16" fill="#3c6eb4" stroke-width=".422" d="M28.816 10.84a.978.978 0 01-.98-.981c0-.544.436-.98.98-.98s.98.436.98.98-.436.98-.98.98zm0-1.59c-.342 0-.565.275-.565.609 0 .334.223.608.565.608.343 0 .566-.274.566-.608 0-.334-.223-.608-.566-.608z"/><path id="path18" fill="#3c6eb4" stroke-width=".422" d="M31.215 8.877c-.287 0-.477.085-.645.299l-.016-.1a.21.21 0 00-.418.027v1.509a.21.21 0 00.42 0v-.81c0-.368.32-.552.659-.552a.186.186 0 00.184-.188.183.183 0 00-.184-.185z"/><path id="path20" fill="#3c6eb4" stroke-width=".422" d="M33.428 9.857c.005-.527-.372-.98-.98-.98a.981.981 0 00-.985.98c0 .544.428.98.946.98.259 0 .491-.133.595-.272l.051.13a.192.192 0 00.373-.067v-.503zm-.98.608c-.343 0-.566-.274-.566-.608 0-.334.223-.608.566-.608.342 0 .565.274.565.608 0 .334-.223.608-.565.608z"/><path id="path22" fill="#3c6eb4" stroke-width=".422" d="M27.5 8.102a.207.207 0 00-.209-.206c-.116 0-.21.09-.21.206v1.105c-.107-.197-.338-.33-.612-.33-.557 0-.93.42-.93.98 0 .562.386.981.93.981.242 0 .453-.1.579-.274l.046.118a.21.21 0 00.407-.07v-2.51zm-.98 2.364c-.342 0-.56-.274-.56-.608 0-.334.218-.608.56-.608.343 0 .561.26.561.608 0 .346-.218.608-.56.608z"/><path id="path24" fill="#3c6eb4" stroke-width=".422" d="M23.134 7.91a.787.787 0 00-.902.778v.246h-.258a.172.172 0 00-.171.171c0 .095.077.19.171.19h.257v1.318a.21.21 0 00.42 0V9.295h.284c.094 0 .171-.095.171-.19a.172.172 0 00-.171-.171h-.284v-.246c0-.202.165-.394.367-.394.018 0 .036.002.054.004.115.017.222-.035.239-.15a.21.21 0 00-.177-.238z"/><path id="path32" fill="#3c6eb4" stroke-width=".42" d="M9.26-.007C4.155-.007 0 4.147 0 9.253s4.154 9.26 9.26 9.26 9.26-4.154 9.26-9.26-4.154-9.26-9.26-9.26z"/><path id="path34" fill="#db3279" stroke-width=".42" d="M9.302.818c-1.475 0-2.725 2.359-3.177 5.637a19.87 19.87 0 00-.18 2.691 19.879 19.879 0 00.14 2.372c.69.09 1.43.15 2.201.18a27.335 27.335 0 002.031 0 24.32 24.32 0 002.43-.211c2.88-.405 4.883-1.3 4.883-2.34 0-4.6-3.729-8.329-8.328-8.329z"/><path id="path36" fill="#fff" stroke-width=".42" d="M12.746 6.79A4.153 4.153 0 009.3 4.966c-.413 0-.78.632-1.016 1.614a9.796 9.796 0 00-.213 1.322 13.056 13.056 0 000 2.457 13.054 13.054 0 002.457 0c.854-.081 1.592-.245 2.114-.462.516-.213.821-.479.821-.766 0-.868-.265-1.674-.718-2.34z"/></svg>