<svg width="609.392" height="160" viewBox="0 0 161.235 42.333" xmlns="http://www.w3.org/2000/svg"><path d="M58.705 31.75c3.568 0 6.52-1.287 8.449-3.655l-3.04-2.807c-1.374 1.61-3.099 2.428-5.146 2.428-3.83 0-6.548-2.69-6.548-6.55s2.719-6.548 6.548-6.548c2.047 0 3.772.819 5.146 2.397l3.04-2.807c-1.93-2.338-4.881-3.625-8.419-3.625-6.374 0-11.11 4.415-11.11 10.584S52.36 31.75 58.705 31.75m26.166-8.157c0-5.058-3.566-8.156-8.186-8.156-4.795 0-8.39 3.391-8.39 8.097 0 4.678 3.538 8.099 8.976 8.099 2.835 0 5.028-.877 6.49-2.544l-2.427-2.63c-1.083 1.023-2.281 1.52-3.947 1.52-2.397 0-4.064-1.199-4.503-3.158h11.9c.029-.38.088-.878.088-1.228m-8.157-4.707c2.047 0 3.538 1.286 3.86 3.275h-7.748c.322-2.018 1.812-3.275 3.888-3.275m20.757-3.45c-2.134 0-3.976.731-5.204 2.076V15.67h-4.356v15.729h4.56v-7.776c0-2.895 1.58-4.24 3.772-4.24 2.017 0 3.187 1.17 3.187 3.713V31.4h4.56v-9.005c0-4.794-2.806-6.957-6.52-6.957m19.56 11.986c-.498.38-1.17.585-1.842.585-1.229 0-1.96-.731-1.96-2.076V19.53h3.919v-3.508h-3.918v-3.83h-4.561v3.83h-2.427v3.508h2.427v6.462c0 3.741 2.164 5.642 5.877 5.642 1.403 0 2.777-.322 3.712-.994zm14.033 4.327c6.431 0 11.197-4.473 11.197-10.583s-4.766-10.584-11.197-10.584c-6.462 0-11.197 4.503-11.197 10.584s4.735 10.583 11.197 10.583m0-4.034c-3.655 0-6.403-2.66-6.403-6.55 0-3.887 2.748-6.548 6.403-6.548s6.403 2.66 6.403 6.549c0 3.888-2.749 6.549-6.403 6.549m21.488 4.034c5.847 0 8.683-2.924 8.683-6.344 0-7.514-11.899-4.912-11.899-8.683 0-1.286 1.082-2.339 3.889-2.339 1.811 0 3.77.527 5.671 1.608l1.461-3.596c-1.9-1.198-4.53-1.813-7.104-1.813-5.818 0-8.624 2.895-8.624 6.374 0 7.6 11.9 4.97 11.9 8.8 0 1.256-1.141 2.192-3.948 2.192-2.456 0-5.028-.877-6.753-2.134l-1.608 3.567c1.813 1.403 5.087 2.368 8.332 2.368" aria-label="CentOS" style="font-weight:700;font-size:29.9666px;line-height:1.25;font-family:Montserrat;-inkscape-font-specification:&quot;Montserrat Bold&quot;;fill:#a14f8c;fill-opacity:1;stroke-width:.749167"/><g transform="matrix(1.0529 0 0 1.05289 -387.492 265.985)"><circle style="fill:#a14f8c;fill-opacity:1;stroke:none;stroke-width:1.32292;stroke-linecap:round;stroke-miterlimit:4;stroke-dasharray:none;stroke-opacity:1;paint-order:fill markers stroke;stop-color:#000" cx="435.079" cy="-124.144" transform="rotate(-15)" r="20.103"/><path style="fill:#fff;fill-opacity:1;stroke-width:7.93746;stroke-linecap:round;paint-order:fill markers stroke;stop-color:#000" d="m384.257-249.617-3.875 3.875h-5.479v5.48l-3.875 3.875 3.875 3.874v5.48h5.48l3.874 3.875 3.875-3.875h5.48v-5.48l3.874-3.874-3.875-3.875-5.48-5.48zm1.176 3.875v4.18l-1.176 1.176-1.176-1.176v-4.18zm-6.959 1.908 2.956 2.957v1.662h-1.663l-2.956-2.956zm-3.571 6.27h4.18l1.176 1.177-1.176 1.176h-4.18zm14.434 0h4.18v2.353h-4.18l-1.176-1.176zm-9.503 3.937h1.663v1.663l-2.956 2.956-1.663-1.663zm7.184 0h1.663l2.956 2.956-1.663 1.663-2.956-2.956zm-2.76 1.143 1.175 1.176v4.18h-2.352v-4.18z" transform="translate(-53.772 39.325)scale(1.15)"/><path style="fill:#efa724;fill-opacity:1;stroke-width:8.59212;stroke-linecap:round;paint-order:fill markers stroke;stop-color:#000" d="m385.433-239.09-1.176 1.04-1.176-1.04v1.526h-1.526l1.039 1.177-1.04 1.176h1.527v1.526l1.176-1.04 1.176 1.04v-1.526h1.527l-1.04-1.176 1.04-1.177h-1.527z" transform="translate(-53.772 39.325)scale(1.15)"/><path style="fill:#efa724;fill-opacity:1;stroke-width:6.14231;stroke-linecap:round;paint-order:fill markers stroke;stop-color:#000" d="m388.135-245.738 1.905 1.905-2.956 2.956v1.663h1.663l2.956-2.956 1.911 1.911-.003-5.483z" transform="translate(-53.772 39.325)scale(1.15)"/></g></svg>