<svg xmlns="http://www.w3.org/2000/svg" width="200" height="54.167"><defs><linearGradient id="a" x1="-365.57" x2="-391.74" y1="149.66" y2="506.04" gradientTransform="translate(39.602 11.919) scale(.0945)" gradientUnits="userSpaceOnUse"><stop offset="0" stop-color="#00aeef"/><stop offset="1" stop-color="#88e1b8"/></linearGradient><linearGradient id="b" x1="-253.14" x2="-117.38" y1="113.59" y2="475.63" gradientTransform="translate(39.602 11.919) scale(.0945)" gradientUnits="userSpaceOnUse"><stop offset="0" stop-color="#fdb814"/><stop offset=".283" stop-color="#feef84"/><stop offset=".659" stop-color="#f2f4f8"/><stop offset="1" stop-color="#f0f2f4"/></linearGradient><linearGradient id="c" x1="-275.13" x2="-286.38" y1="49.902" y2="35.104" gradientTransform="translate(39.602 11.919) scale(.0945)" gradientUnits="userSpaceOnUse"><stop offset="0" stop-color="#a4e0f9"/><stop offset="1" stop-color="#9eddf9"/></linearGradient><linearGradient id="d" x1="-321.73" x2="-239.71" y1="75.409" y2="104.4" gradientTransform="translate(39.602 11.919) scale(.0945)" gradientUnits="userSpaceOnUse"><stop offset="0" stop-color="#37c0ef"/><stop offset="1" stop-color="#88e1b8"/></linearGradient><linearGradient id="e" x1="-231.22" x2="-61.518" y1="54.903" y2="120.66" gradientTransform="translate(39.602 11.919) scale(.0945)" gradientUnits="userSpaceOnUse"><stop offset="0" stop-color="#33bef2"/><stop offset="1" stop-color="#88e1b8"/></linearGradient><linearGradient id="f" x1="-353.55" x2="-276.48" y1="124.2" y2="133.39" gradientTransform="translate(39.602 11.919) scale(.0945)" gradientUnits="userSpaceOnUse"><stop offset="0" stop-color="#a3dff9"/><stop offset="1" stop-color="#84d4f7"/></linearGradient><linearGradient id="g" x1="-246.07" x2="-350.52" y1="397.85" y2="493.7" gradientTransform="translate(39.602 11.919) scale(.0945)" gradientUnits="userSpaceOnUse"><stop offset="0" stop-color="#3dc4d9" stop-opacity=".529"/><stop offset=".487" stop-color="#7bdacc" stop-opacity=".743"/><stop offset="1" stop-color="#a6e6c9"/></linearGradient><linearGradient id="h" x1="-243.24" x2="-247.8" y1="548.46" y2="593.51" gradientTransform="translate(39.602 11.919) scale(.0945)" gradientUnits="userSpaceOnUse"><stop offset="0" stop-color="#d2d4d6"/><stop offset="1" stop-color="#f6f6f7" stop-opacity=".667"/></linearGradient><linearGradient id="i" x1="-191.98" x2="-198.34" y1="542.62" y2="477.2" gradientTransform="translate(39.602 11.919) scale(.0945)" gradientUnits="userSpaceOnUse"><stop offset="0" stop-color="#f5f6f7"/><stop offset="1" stop-color="#d2d4d6"/></linearGradient></defs><g stroke-width="1.034"><path fill="url(#a)" d="M4.559 21.03L-.003 60.78l19.458-4.833z" transform="translate(.004 -11.606) scale(.96716)"/><path fill="url(#b)" d="M22.863 63.932L4.56 21.03l15.551 1.46 9.923 25.678z" transform="translate(.004 -11.606) scale(.96716)"/><path fill="url(#c)" d="M13.602 16.635L4.558 21.03 15.148 12z" transform="translate(.004 -11.606) scale(.96716)"/><path fill="url(#d)" d="M13.602 16.635L4.558 21.03l15.552 1.46z" transform="translate(.004 -11.606) scale(.96716)"/><path fill="#0070c5" d="M13.162 4.482L35.03 12l-15.575-1.856z"/><path fill="url(#e)" d="M13.602 16.635l22.614 7.774L15.15 12z" transform="translate(.004 -11.606) scale(.96716)"/><path fill="url(#f)" d="M4.559 21.03l14.884 34.885-5.702-34.024z" transform="translate(.004 -11.606) scale(.96716)"/><path fill="url(#g)" d="M15.83 47.45L-.002 60.777l22.866 3.154z" transform="translate(.004 -11.606) scale(.96716)"/><path fill="url(#h)" d="M22.863 63.932l-6.678 4.074-16.189-7.227z" transform="translate(.004 -11.606) scale(.96716)"/><path fill="url(#i)" d="M19.456 55.946L-.003 60.779l22.866 3.153z" transform="translate(.004 -11.606) scale(.96716)"/></g><path fill="#2d3237" stroke-width="1.034" d="M59.925 37.332q-1.029 1.653-2.105 2.51-1.06.842-2.478 1.279-1.42.436-3.337.436-4.847 0-7.155-2.79-2.291-2.806-2.291-8.45 0-5.628 2.276-8.433 2.293-2.807 7.047-2.807 1.886 0 3.367.468 1.482.468 2.495 1.293 1.028.812 1.87 2.293l-2.369 1.559q-.687-1.154-1.388-1.747-.701-.607-1.683-.95-.982-.359-2.292-.359-3.243 0-4.77 2.167-1.513 2.15-1.513 6.517 0 4.302 1.497 6.5Q48.593 39 51.913 39q1.84 0 3.196-.718 1.357-.732 2.432-2.51zm3.975 3.772V17.892h2.681v23.212zm10.056-7.856q0 3.243 1.106 4.63 1.107 1.372 3.554 1.372 1.092 0 1.918-.452.826-.467 1.59-1.497l2.214 1.372q-.935 1.402-2.276 2.166-1.341.749-3.632.749-3.648 0-5.456-2.12-1.793-2.12-1.793-6.408 0-4.49 1.746-6.625 1.762-2.15 5.3-2.15 3.18 0 4.77 1.839 1.59 1.824 1.59 5.627v1.497zm8.013-2.104q-.031-2.199-.936-3.415-.888-1.215-2.9-1.215-1.917 0-2.883 1.106-.951 1.091-1.263 3.524zm16.164 9.96v-2.041q-1.248 1.09-2.51 1.808-1.263.716-2.853.716-2.339 0-3.617-1.418-1.262-1.434-1.262-3.663 0-1.683.654-2.79.67-1.123 1.918-1.763 1.262-.655 3.648-.935l4.022-.358v-.795q0-1.886-1.06-2.573-1.045-.686-2.9-.686-1.653 0-2.557.577-.888.577-1.278 1.248l-2.198-1.342q.749-1.356 2.276-2.072 1.543-.733 3.82-.733 3.522 0 5.05 1.278 1.529 1.278 1.529 4.427v11.115zm0-8.293l-2.62.25q-2.665.234-3.756 1.044-1.092.795-1.092 2.339 0 1.465.733 2.104.733.638 2.199.638.607 0 1.199-.217.593-.234 1.17-.561.577-.343 1.107-.764.545-.437 1.06-.842zm16.693-5.41q-.436-.186-1.248-.186-1.199 0-2.322.56-1.107.546-2.588 2.027v11.302h-2.68V24.752h2.68v2.65q1.122-1.138 2.354-2.011 1.248-.889 2.76-.889 1.013 0 1.62.328zm12.612 13.703V19.53h2.884v18.956h9.758v2.62zm19.13-20.5q0 .936-.42 1.279-.421.327-1.341.327-.983 0-1.357-.42-.373-.422-.373-1.186 0-.826.405-1.2.405-.39 1.325-.39.95 0 1.356.375.406.358.406 1.215zm-3.102 20.5V24.752h2.681v16.352zm18.258 0V31.47q0-2.338-.234-3.118-.234-.78-.764-1.122-.53-.358-1.543-.358-1.03 0-2.402.78-1.371.779-2.65 1.9v11.552h-2.68V24.752h2.68v2.432q1.139-1.138 2.65-2.012 1.513-.888 3.041-.888 2.37 0 3.476 1.356 1.107 1.34 1.107 4.553v10.911zm18.018 0v-2.431q-1.248 1.247-2.744 2.089-1.496.826-2.93.826-1.638 0-2.666-.608-1.014-.624-1.482-1.855-.451-1.248-.451-3.445V24.75h2.68v9.651q0 2.339.235 3.118.25.78.78 1.138.53.343 1.543.343 1.012 0 2.385-.78 1.371-.795 2.65-1.901V24.752h2.68v16.352zm16.906 0l-3.758-6.22-3.897 6.22h-3.04l5.426-8.075-5.363-8.277h3.29l3.771 6.204 3.867-6.204H200l-5.426 8.09L200 41.104z" aria-label="Clear Linux*"/></svg>