<svg xmlns="http://www.w3.org/2000/svg" width="177.812" height="49.94"><path fill="#932279" fill-rule="evenodd" d="M21.036 23.146l1.806 1.796-1.806 1.796H8.321v5.984l-7.754-7.78 7.754-7.65v5.854z" overflow="visible" style="marker:none"/><path fill="#efa724" fill-rule="evenodd" d="M26.793 21.035l-1.796 1.807-1.796-1.807V8.321h-5.984l7.78-7.754 7.65 7.754h-5.854z" overflow="visible" style="marker:none"/><path fill="#262577" fill-rule="evenodd" d="M28.904 26.793l-1.807-1.796 1.807-1.796h12.714v-5.984l7.754 7.78-7.754 7.65v-5.854z" overflow="visible" style="marker:none"/><path fill="#9ccd2a" stroke="#fff" stroke-width="1.104" d="M7.866 7.865h15.448v15.45H7.866z"/><path fill="#9ccd2a" fill-rule="evenodd" d="M23.146 28.903l1.796-1.806 1.796 1.806v12.715h5.984l-7.78 7.754-7.649-7.754h5.853z" overflow="visible" style="marker:none"/><path fill="#932279" stroke="#fff" stroke-width="1.104" d="M26.625 7.865h15.45v15.45h-15.45z"/><path fill="#efa724" stroke="#fff" stroke-width="1.104" d="M26.625 26.625h15.45v15.448h-15.45z"/><path fill="#262577" stroke="#fff" stroke-width="1.104" d="M7.866 26.625h15.448v15.448H7.866z"/><path fill="none" stroke="#fff" stroke-width="1.104" d="M.78 24.97l10.926-10.925L22.63 24.97 11.706 35.894zm13.266-13.266L24.97.78l10.924 10.924L24.97 22.628zM27.31 24.97l10.926-10.924L49.16 24.97 38.236 35.894zM14.046 38.234L24.97 27.31l10.924 10.924L24.97 49.16z"/><path d="M76.586 36.76h-10.09a10.65 10.65 0 01-3.036-.446c-1.937-.615-3.472-2.027-4.603-4.237-1.023-2.005-1.535-4.34-1.535-7.005 0-2.575.457-4.853 1.371-6.835 1.002-2.187 2.427-3.68 4.277-4.476a11.098 11.098 0 014.408-.923h9.141v4.58h-9.5c-1.546 0-2.667.876-3.363 2.63-.544 1.367-.816 3.156-.816 5.365 0 1.87.348 3.452 1.044 4.75.806 1.527 1.938 2.29 3.396 2.29l9.304-.034v4.34m16.802.102H85.42c-1.937 0-3.624-.865-5.06-2.597-1.415-1.754-2.123-3.77-2.123-6.048 0-2.484.773-4.625 2.318-6.425 1.567-1.822 3.31-2.734 5.224-2.734h7.574v3.657h-5.55c-.696 0-1.295.068-1.796.205a3.1 3.1 0 00-1.338.717c-.762.684-1.143 1.607-1.143 2.768h9.795v3.691H83.56c0 .547.054 1.014.163 1.401.13.365.381.74.751 1.128.37.364.805.615 1.306.752.522.114 1.153.17 1.894.17h5.713v3.315m18.617-.102h-4.538V25.106a1.55 1.55 0 00-.196-.786c-.13-.25-.315-.49-.555-.718a2.193 2.193 0 00-1.5-.58h-4.44V36.76h-4.54V19.057h8.685c1.545 0 2.666.091 3.362.274 1.09.273 1.96.877 2.612 1.81a6.27 6.27 0 011.11 3.59v12.028m13.034-14.01h-4.407v8.03c0 .73.24 1.332.718 1.811.544.478 1.262.717 2.155.717h1.338v3.452h-4.21c-1.264 0-2.34-.479-3.234-1.436-.522-.57-.86-1.196-1.012-1.88-.152-.683-.228-1.49-.228-2.425v-8.27h-2.873v-3.69h2.873v-6.22h4.473v6.22h4.407v3.69m26.642 2.016c0 4.648-1.23 7.974-3.689 9.98-2.002 1.616-4.919 2.425-8.75 2.425-4.244 0-7.378-.934-9.402-2.802-2.22-2.05-3.33-5.343-3.33-9.876 0-3.714.99-6.607 2.97-8.68 2.155-2.256 5.377-3.383 9.664-3.383 4.724 0 8.054 1.082 9.99 3.246 1.698 1.914 2.547 4.944 2.547 9.09m-5.81-.137c0-2.346-.534-4.214-1.6-5.604-1.198-1.549-2.97-2.324-5.322-2.324-2.308 0-4.049.832-5.224 2.495-.98 1.39-1.47 3.2-1.47 5.433 0 2.575.393 4.477 1.176 5.707 1.088 1.71 3.102 2.563 6.04 2.563 2.481 0 4.222-.83 5.224-2.494.783-1.299 1.175-3.224 1.175-5.776m31.944 4.716c0 2.096-.664 3.862-1.99 5.297-1.329 1.435-3.016 2.153-5.06 2.153L154.6 36.76v-4.306h13.32c.892 0 1.643-.217 2.253-.65.696-.5 1.044-1.184 1.044-2.05 0-2.027-1.37-3.04-4.113-3.04h-6.726c-1.937 0-3.634-.628-5.093-1.88-1.458-1.254-2.187-2.848-2.187-4.785 0-2.14.707-3.873 2.122-5.194 1.436-1.344 3.32-2.016 5.648-2.016h15.443v4.1h-13.615c-.61 0-1.23.274-1.86.82-.61.525-.915 1.151-.915 1.88 0 .82.294 1.515.882 2.085.61.546 1.338.82 2.187.82h7.411c2.307 0 4.114.626 5.42 1.88 1.327 1.23 1.991 2.87 1.991 4.92" font-family="Denmark" font-size="72.672" font-weight="200" style="line-height:125%;-inkscape-font-specification:'Denmark Ultra-Light';text-align:start"/></svg>