<svg xmlns="http://www.w3.org/2000/svg" viewBox="0 0 240 79"><g stroke-width=".802"><g fill="#262577" xml:space="default"><path d="M95.118 56.302H81.01q-2.146 0-4.246-.597-4.064-1.24-6.438-5.693-2.146-4.04-2.146-9.412 0-5.188 1.917-9.183 2.1-4.407 5.982-6.014 3.013-1.24 6.164-1.24h12.784v6.152H81.74q-3.242 0-4.703 3.536-1.141 2.754-1.141 7.208 0 3.765 1.46 6.382 1.69 3.076 4.75 3.076l13.013-.046v5.831zM119.153 56.476h-11.14c-2.71 0-5.07-1.163-7.078-3.49-1.979-2.357-2.968-5.065-2.968-8.126 0-3.337 1.08-6.214 3.242-8.632 2.191-2.449 4.627-3.673 7.305-3.673h10.594v4.913h-7.763c-.974 0-1.81.091-2.51.275-.67.153-1.295.475-1.873.964-1.065.919-1.598 2.293-1.598 3.854h13.698v4.958H105.41c0 .735.076 1.228.228 1.748.183.49.533.995 1.05 1.515.518.49 1.127.827 1.827 1.01.73.154 1.613.23 2.648.23h7.99zM145.727 56.302h-6.347V40.646q0-.597-.274-1.056-.274-.505-.776-.964-.913-.78-2.1-.78h-6.21v18.457h-6.347V32.52h12.145q3.242 0 4.703.368 2.283.55 3.653 2.433 1.553 2.204 1.553 4.82zM164.917 37.544h-6.164v10.79c0 .979.334 1.79 1.004 2.433.761.643 1.766.964 3.014.964h1.872v4.637h-5.89c-1.766 0-3.705-.643-4.953-1.928-.73-.765-1.202-1.607-1.415-2.525-.213-.919-.32-2.005-.32-3.26v-11.11h-4.018v-4.96h4.018V24.23h6.687v8.357h6.164zM202.752 40.236q0 9.366-5.16 13.407-4.2 3.26-12.236 3.26-8.904 0-13.15-3.765-4.657-4.132-4.657-13.269 0-7.484 4.155-11.662 4.52-4.545 13.515-4.545 9.908 0 13.972 4.361 3.561 3.857 3.561 12.213zm-8.127-.184q0-4.729-2.238-7.53-2.51-3.121-7.442-3.121-4.84 0-7.306 3.351-2.054 2.801-2.054 7.3 0 5.189 1.644 7.668 2.283 3.443 8.447 3.443 5.205 0 7.305-3.351 1.644-2.617 1.644-7.76zM240.018 46.402q0 4.224-2.785 7.117-2.786 2.892-7.078 2.892l-22.6-.046V50.58h18.629q1.872 0 3.15-.872 1.461-1.01 1.461-2.755 0-4.086-5.753-4.086h-9.406q-4.064 0-7.123-2.526-3.059-2.525-3.059-6.428 0-4.315 2.968-6.978 3.014-2.71 7.9-2.71h21.596v5.51h-19.04q-1.279 0-2.603 1.102-1.279 1.056-1.279 2.526 0 1.652 1.233 2.8 1.279 1.102 3.06 1.102h10.364q4.84 0 7.58 2.525 2.784 2.48 2.784 6.612z" xml:space="default"/></g><path fill="#932279" stroke="#fff" d="M-14.207-40.99H-.121v14.086h-14.086z" color="#000" transform="scale(-1.25238 -1.2402) rotate(-45 -6.338 -28.846)" xml:space="default"/><path fill="#efa724" stroke="#fff" d="M-41.199 17.554h14.024v14.024h-14.024z" color="#000" transform="scale(-1.2391 -1.2536) rotate(45 24.81 16.224)" xml:space="default"/><path fill="#9ccd2a" stroke="#fff" d="M-14.075-57.963H.011v14.086h-14.086z" color="#000" transform="scale(-1.25238 -1.2402) rotate(-45 -6.338 -28.846)" xml:space="default"/><path fill="#262577" stroke="#fff" d="M-58.169 17.604h14.024v14.024h-14.024z" color="#000" transform="scale(-1.2391 -1.2536) rotate(45 24.81 16.224)" xml:space="default"/><path fill="#fce94f" d="M8.952 20.07H25.73v16.793H8.952z" color="#000" xml:space="default"/><path fill="#efa724" d="M30.703 41.973H47.36v16.872H30.703z" color="#000" xml:space="default"/><path fill="#932279" d="M30.77 20.185h16.712v16.788H30.77z" color="#000" xml:space="default"/><path fill="#9ccd2a" stroke="#fff" d="M25.385 2.753h13.999v13.918H25.385z" color="#000" transform="matrix(1.2429 0 0 1.2498 -23.22 16.036)" xml:space="default"/><path fill="none" stroke="#fff" d="M43.385 20.753h13.914v14H43.385zM43.435 2.834h13.95v13.918h-13.95z" color="#000" transform="matrix(1.2429 0 0 1.2498 -23.22 16.036)" xml:space="default"/><path fill="#262577" stroke="#fff" d="M25.386 20.753h13.999v13.999H25.386z" color="#000" transform="matrix(1.2429 0 0 1.2498 -23.22 16.036)" xml:space="default"/><path fill="none" stroke="#fff" d="M-14.207-40.99H-.121v14.086h-14.086z" color="#000" transform="scale(-1.25238 -1.2402) rotate(-45 -6.338 -28.846)" xml:space="default"/><path fill="none" stroke="#fff" d="M-41.198 17.554h14.024v14.024h-14.024z" color="#000" transform="scale(-1.2391 -1.2536) rotate(45 24.81 16.224)" xml:space="default"/><path fill="none" stroke="#fff" d="M-14.075-57.963H.011v14.086h-14.086z" color="#000" transform="scale(-1.25238 -1.2402) rotate(-45 -6.338 -28.846)" xml:space="default"/><path fill="none" stroke="#fff" d="M-58.169 17.604h14.024v14.024h-14.024z" color="#000" transform="scale(-1.2391 -1.2536) rotate(45 24.81 16.224)" xml:space="default"/></g></svg>