<svg xmlns="http://www.w3.org/2000/svg" viewBox="0 0 240 80"><defs><linearGradient id="a" x1="-365.57" x2="-391.74" y1="149.66" y2="506.04" gradientUnits="userSpaceOnUse"><stop offset="0" stop-color="#00aeef"/><stop offset="1" stop-color="#88e1b8"/></linearGradient><linearGradient id="b" x1="-253.14" x2="-117.38" y1="113.59" y2="475.63" gradientUnits="userSpaceOnUse"><stop offset="0" stop-color="#fdb814"/><stop offset=".283" stop-color="#feef84"/><stop offset=".659" stop-color="#f2f4f8"/><stop offset="1" stop-color="#f0f2f4"/></linearGradient><linearGradient id="c" x1="-275.13" x2="-286.38" y1="49.902" y2="35.104" gradientUnits="userSpaceOnUse"><stop offset="0" stop-color="#a4e0f9"/><stop offset="1" stop-color="#9eddf9"/></linearGradient><linearGradient id="d" x1="-321.73" x2="-239.71" y1="75.409" y2="104.4" gradientUnits="userSpaceOnUse"><stop offset="0" stop-color="#37c0ef"/><stop offset="1" stop-color="#88e1b8"/></linearGradient><linearGradient id="e" x1="-231.22" x2="-61.518" y1="54.903" y2="120.66" gradientUnits="userSpaceOnUse"><stop offset="0" stop-color="#33bef2"/><stop offset="1" stop-color="#88e1b8"/></linearGradient><linearGradient id="f" x1="-353.55" x2="-276.48" y1="124.2" y2="133.39" gradientUnits="userSpaceOnUse"><stop offset="0" stop-color="#a3dff9"/><stop offset="1" stop-color="#84d4f7"/></linearGradient><linearGradient id="g" x1="-246.07" x2="-350.52" y1="397.85" y2="493.7" gradientUnits="userSpaceOnUse"><stop offset="0" stop-color="#3dc4d9" stop-opacity=".529"/><stop offset=".487" stop-color="#7bdacc" stop-opacity=".743"/><stop offset="1" stop-color="#a6e6c9"/></linearGradient><linearGradient id="h" x1="-243.24" x2="-247.8" y1="548.46" y2="593.51" gradientUnits="userSpaceOnUse"><stop offset="0" stop-color="#d2d4d6"/><stop offset="1" stop-color="#f6f6f7" stop-opacity=".667"/></linearGradient><linearGradient id="i" x1="-191.98" x2="-198.34" y1="542.62" y2="477.2" gradientUnits="userSpaceOnUse"><stop offset="0" stop-color="#f5f6f7"/><stop offset="1" stop-color="#d2d4d6"/></linearGradient></defs><g stroke-width="10.583"><path fill="url(#a)" d="M-370.83 96.416l-48.271 420.62 205.91-51.145z" transform="matrix(.0945 0 0 .0945 39.602 11.919)"/><path fill="url(#b)" d="M-177.13 550.4l-193.7-453.99 164.57 15.445 105 271.73z" transform="matrix(.0945 0 0 .0945 39.602 11.919)"/><path fill="url(#c)" d="M-275.13 49.902l-95.705 46.515L-258.765.862z" transform="matrix(.0945 0 0 .0945 39.602 11.919)"/><path fill="url(#d)" d="M-275.13 49.902l-95.705 46.515 164.57 15.445z" transform="matrix(.0945 0 0 .0945 39.602 11.919)"/><path fill="#0070c5" d="M13.605 16.634l22.611 7.774-16.104-1.919z"/><path fill="url(#e)" d="M-275.13 49.902l239.3 82.265L-258.76.857z" transform="matrix(.0945 0 0 .0945 39.602 11.919)"/><path fill="url(#f)" d="M-370.83 96.416l157.51 369.15-60.338-360.04z" transform="matrix(.0945 0 0 .0945 39.602 11.919)"/><path fill="url(#g)" d="M-251.55 375.98L-419.1 517.03l241.97 33.369z" transform="matrix(.0945 0 0 .0945 39.602 11.919)"/><path fill="url(#h)" d="M-177.13 550.4l-70.668 43.111-171.31-76.479z" transform="matrix(.0945 0 0 .0945 39.602 11.919)"/><path fill="url(#i)" d="M-213.19 465.89l-205.91 51.145 241.97 33.369z" transform="matrix(.0945 0 0 .0945 39.602 11.919)"/></g><g fill="#2d3237" stroke-width=".462" aria-label="Clear Linux*"><path d="M61.956 50.6q-1.064 1.709-2.176 2.595-1.096.87-2.563 1.322-1.467.451-3.45.451-5.012 0-7.398-2.885Q44 49.182 44 43.347q0-5.82 2.354-8.72 2.37-2.902 7.286-2.902 1.95 0 3.481.484 1.532.483 2.58 1.337 1.063.839 1.934 2.37l-2.45 1.612q-.71-1.193-1.435-1.806-.725-.628-1.74-.983-1.016-.37-2.37-.37-3.353 0-4.933 2.24-1.563 2.224-1.563 6.738 0 4.448 1.547 6.721 1.548 2.257 4.981 2.257 1.902 0 3.304-.742 1.403-.757 2.515-2.595zM66.066 54.5V30.499h2.772V54.5zM76.463 46.377q0 3.353 1.144 4.787 1.145 1.419 3.675 1.419 1.129 0 1.983-.468.854-.483 1.644-1.547l2.289 1.418q-.967 1.45-2.353 2.24-1.387.774-3.756.774-3.772 0-5.641-2.192-1.854-2.192-1.854-6.625 0-4.642 1.805-6.85 1.822-2.224 5.48-2.224 3.289 0 4.933 1.902 1.644 1.886 1.644 5.818v1.548zm8.285-2.176q-.032-2.273-.967-3.53-.919-1.257-2.998-1.257-1.983 0-2.982 1.144-.983 1.128-1.306 3.643zM101.461 54.5v-2.111q-1.29 1.128-2.595 1.87-1.306.74-2.95.74-2.418 0-3.74-1.466-1.305-1.483-1.305-3.788 0-1.74.677-2.885.693-1.16 1.983-1.822 1.305-.677 3.772-.967l4.158-.37v-.822q0-1.95-1.096-2.66-1.08-.71-2.998-.71-1.709 0-2.644.597-.918.597-1.321 1.29l-2.273-1.387q.774-1.402 2.353-2.143 1.596-.758 3.95-.758 3.642 0 5.222 1.322 1.58 1.321 1.58 4.577V54.5zm0-8.575l-2.708.258q-2.756.242-3.884 1.08-1.129.822-1.129 2.418 0 1.515.758 2.176.757.66 2.273.66.628 0 1.24-.225.613-.242 1.21-.58.596-.355 1.144-.79.564-.452 1.096-.87zM118.721 40.332q-.451-.193-1.29-.193-1.24 0-2.401.58-1.145.564-2.676 2.095V54.5h-2.772V37.592h2.772v2.74q1.16-1.176 2.434-2.079 1.29-.919 2.853-.919 1.048 0 1.676.339zM131.761 54.5V32.192h2.982v19.6h10.09V54.5zM151.541 33.304q0 .967-.435 1.322-.435.338-1.386.338-1.016 0-1.403-.435-.386-.435-.386-1.225 0-.854.419-1.241.419-.403 1.37-.403.983 0 1.402.387.42.37.42 1.257zM148.333 54.5V37.592h2.773V54.5zM167.211 54.5v-9.961q0-2.418-.242-3.224-.241-.806-.79-1.16-.548-.371-1.595-.371-1.064 0-2.483.806-1.418.806-2.74 1.966V54.5h-2.772V37.592h2.772v2.515q1.177-1.177 2.74-2.08 1.564-.918 3.144-.918 2.45 0 3.594 1.402 1.144 1.386 1.144 4.707V54.5zM185.841 54.5v-2.514q-1.29 1.289-2.837 2.16-1.547.854-3.03.854-1.693 0-2.756-.629-1.048-.645-1.532-1.918-.467-1.29-.467-3.562v-11.3h2.772v9.978q0 2.418.242 3.224.258.806.806 1.177.548.354 1.596.354 1.047 0 2.466-.806 1.418-.822 2.74-1.966v-11.96h2.772V54.5zM203.321 54.5l-3.885-6.431-4.03 6.431h-3.142l5.609-8.35-5.545-8.558h3.401l3.9 6.415 3.998-6.415h3.16l-5.61 8.365 5.61 8.543z"/></g></svg>