<?xml version="1.0" encoding="UTF-8"?>
<svg width="50.514mm" height="18.521mm" version="1.1" viewBox="0 0 50.514 18.521" xmlns="http://www.w3.org/2000/svg" xmlns:cc="http://creativecommons.org/ns#" xmlns:dc="http://purl.org/dc/elements/1.1/" xmlns:rdf="http://www.w3.org/1999/02/22-rdf-syntax-ns#"><metadata><rdf:RDF><cc:Work rdf:about=""><dc:format>image/svg+xml</dc:format><dc:type rdf:resource="http://purl.org/dc/dcmitype/StillImage"/><dc:title/></cc:Work></rdf:RDF></metadata><g transform="translate(-85.112 -100.07)"><g transform="matrix(.15371 0 0 .15371 130.97 10.449)" fill="#294172" stroke-width=".9041"><g transform="matrix(1.3079 0 0 1.3079 -182.93 -192.85)" fill="#294172" stroke-width=".69126"><text x="18.729454" y="678.60718" color="#000000" color-rendering="auto" dominant-baseline="auto" fill="#294172" font-family="Montserrat" font-size="31.827px" image-rendering="auto" letter-spacing="0px" shape-rendering="auto" stroke-width="2.0987" text-rendering="auto" word-spacing="0px" style="font-feature-settings:normal;font-variant-alternates:normal;font-variant-caps:normal;font-variant-ligatures:normal;font-variant-numeric:normal;font-variant-position:normal;isolation:auto;line-height:125%;shape-padding:0;text-decoration-color:#000000;text-decoration-line:none;text-decoration-style:solid;text-indent:0;text-orientation:mixed;text-transform:none;white-space:normal" xml:space="preserve"><tspan x="18.729454" y="678.60718" color="#000000" color-rendering="auto" dominant-baseline="auto" fill="#294172" font-family="Montserrat" font-size="31.827px" font-weight="600" image-rendering="auto" letter-spacing="0px" shape-rendering="auto" stroke-width="2.0987" text-rendering="auto" word-spacing="0px" style="font-feature-settings:normal;font-variant-alternates:normal;font-variant-caps:normal;font-variant-ligatures:normal;font-variant-numeric:normal;font-variant-position:normal;isolation:auto;line-height:125%;shape-padding:0;text-decoration-color:#000000;text-decoration-line:none;text-decoration-style:solid;text-indent:0;text-orientation:mixed;text-transform:none;white-space:normal">COREOS</tspan></text></g></g><g transform="matrix(.31395 0 0 .31395 176.42 -34.06)" fill="#3c6eb4" stroke-width=".57606"><g fill="#3c6eb4" stroke-width=".57606"><path d="m-183.66 461.06v0.28832c0 0.0193-0.012 0.031-0.035 0.0351-0.02 0-0.032-0.0123-0.037-0.0368v-0.45718c0-0.0265 0.014-0.0397 0.034-0.0397h0.01c0.02 0 0.033 0.0141 0.04 0.0422l0.1642 0.36703c0-8e-3 0.038-0.0922 0.1081-0.25148l0.067-0.14488c0.01-9e-3 0.017-0.0129 0.026-0.0129h0.01c0.02 0 0.031 0.0132 0.034 0.0397v0.45718c0 0.0246-0.017 0.0368-0.037 0.0368-0.023-4e-3 -0.035-0.0157-0.035-0.0351v-0.28868c-0.089 0.2008-0.1351 0.30442-0.1391 0.31086-0.01 9e-3 -0.019 0.0129-0.029 0.0129-0.021 0-0.038-0.0212-0.052-0.0637l-0.1159-0.25971m-0.4869-0.21178h0.3349c0.023 4e-3 0.034 0.016 0.034 0.0351v5e-3c0 0.0195-0.013 0.0308-0.04 0.0336h-0.1245v0.42605c0 0.0193-0.012 0.031-0.036 0.0351-0.02 0-0.032-0.0123-0.036-0.0368v-0.42427h-0.1274c-0.025-5e-3 -0.037-0.0177-0.037-0.0386 0.01-0.0236 0.016-0.0354 0.034-0.0354"/><g stroke-width="1.3439"><path d="m-211.09 459.04h-4.2146c0.068 0.91363 0.8047 1.5957 1.7867 1.5957 0.6956 0 1.2958-0.28644 1.7731-0.75007 0.096-0.0958 0.2047-0.12305 0.3274-0.12305 0.1637 0 0.3274 0.082 0.4364 0.21842 0.068 0.0955 0.1092 0.20462 0.1092 0.31359 0 0.15009-0.068 0.31366-0.191 0.43653-0.5729 0.61365-1.5413 1.0229-2.4962 1.0229-1.7321 0-3.1233-1.3912-3.1233-3.1234 0-1.7321 1.3503-3.1233 3.0825-3.1233 1.7186 0 3.0006 1.3366 3.0006 3.096 2e-4 0.25929-0.2317 0.43671-0.4908 0.43671zm-2.5098-2.4143c-0.9138 0-1.5412 0.60011-1.6775 1.4728h3.3552c-0.1228-0.83171-0.7775-1.4728-1.6777-1.4728z"/><path d="m-199.05 461.76c-1.7322 0-3.1233-1.3912-3.1233-3.1234 0-1.7321 1.3911-3.1233 3.1233-3.1233 1.7323 0 3.1234 1.3912 3.1234 3.1233 1e-4 1.7323-1.391 3.1234-3.1234 3.1234zm0-5.0603c-1.0911 0-1.8004 0.87306-1.8004 1.9368 0 1.0637 0.7093 1.9367 1.8004 1.9367 1.0912 0 1.8006-0.873 1.8006-1.9367 0-1.0637-0.7094-1.9368-1.8006-1.9368z"/><path d="m-191.41 455.51c-0.9151 0-1.5204 0.27068-2.0548 0.95008l-0.049-0.316c-0.042-0.3299-0.3229-0.58463-0.6636-0.58463-0.3697 0-0.6694 0.29933-0.6694 0.66915v2e-3 4.8038c0 0.36826 0.3 0.66837 0.6683 0.66837s0.6684-0.30017 0.6684-0.66837v-2.5778c0-1.1729 1.0229-1.7596 2.1004-1.7596 0.3274 0 0.5864-0.27278 0.5864-0.60016s-0.259-0.58644-0.5864-0.58644z"/><path d="m-184.36 458.63c0.014-1.6776-1.1867-3.1233-3.1235-3.1233-1.7322 0-3.1371 1.3912-3.1371 3.1233 0 1.7323 1.364 3.1234 3.0144 3.1234 0.8237 0 1.565-0.42401 1.8958-0.86695l0.1628 0.41333c0.087 0.23221 0.3114 0.39751 0.5741 0.39751 0.3386 0 0.6131-0.27427 0.6135-0.61262v-1.602zm-3.1235 1.9368c-1.0912 0-1.8004-0.873-1.8004-1.9367 0-1.0637 0.7092-1.9368 1.8004-1.9368s1.8005 0.87306 1.8005 1.9368c0 1.0637-0.7093 1.9367-1.8005 1.9367z"/><path d="m-203.24 453.04c0-0.36814-0.3-0.65464-0.6682-0.65464s-0.6685 0.2865-0.6685 0.65464v3.5191c-0.3408-0.62738-1.0773-1.0502-1.9503-1.0502-1.7731 0-2.9597 1.3366-2.9597 3.1233 0 1.7869 1.2275 3.1234 2.9597 3.1234 0.7726 0 1.4425-0.31887 1.8438-0.87318l0.1484 0.37635c0.092 0.25845 0.3384 0.4433 0.628 0.4433 0.3666 0 0.6669-0.29843 0.6669-0.66651v-3e-3 -7.9928h-1e-4zm-3.1234 7.529c-1.0911 0-1.7867-0.873-1.7867-1.9367 0-1.0637 0.6956-1.9368 1.7867-1.9368 1.0912 0 1.7867 0.83201 1.7867 1.9368 0 1.1045-0.6955 1.9367-1.7867 1.9367z"/><path d="m-217.15 452.43c-0.1219-0.018-0.2462-0.0272-0.3696-0.0272-1.3812 0-2.505 1.1238-2.505 2.5051v0.7825h-0.8185c-0.3 0-0.5456 0.24556-0.5456 0.54549 0 0.30023 0.2456 0.6028 0.5456 0.6028h0.8184v4.1984c0 0.36826 0.3001 0.66837 0.6683 0.66837 0.3684 0 0.6684-0.30017 0.6684-0.66837v-4.1984h0.9049c0.3 0 0.5455-0.30257 0.5455-0.6028 0-0.29993-0.2454-0.54549-0.5455-0.54549h-0.9045v-0.7825c0-0.64403 0.524-1.2547 1.168-1.2547 0.058 0 0.1164 4e-3 0.1738 0.0128 0.3653 0.0541 0.7051-0.11136 0.7592-0.47675 0.054-0.3652-0.1982-0.70505-0.5634-0.75923z"/></g></g></g><g transform="matrix(.17935 0 0 .17935 53.343 -205.98)" stroke-width="2.3418"><path d="m228.77 1706.4c-28.475 0-51.636 23.162-51.636 51.632 0 28.472 23.161 51.633 51.636 51.633 28.466 0 51.629-23.161 51.629-51.633 0-28.47-23.163-51.632-51.629-51.632z" fill="#3c6eb4"/><path d="m229 1711c-8.2222 0-15.196 13.152-17.714 31.432-0.0804 0.588-0.15842 1.1832-0.2274 1.7821-0.34396 2.8768-0.57707 5.8683-0.69363 8.9477-0.0557 1.4092-0.0833 2.8335-0.0833 4.276 0 1.441 0.0276 2.8682 0.0833 4.2745 0.11656 3.0789 0.34967 6.0723 0.69363 8.9491 3.8554 0.499 7.9776 0.8377 12.277 0.9985 1.8587 0.069 3.745 0.1109 5.6646 0.1109 1.9139 0 3.8059-0.042 5.6589-0.1109 4.305-0.1608 8.4244-0.4995 12.283-0.9985 0.42436-0.054 0.84206-0.1137 1.265-0.1751 16.058-2.255 27.229-7.2464 27.229-13.048-4e-4 -25.648-20.793-46.437-46.436-46.437z" fill="#db3279"/><path d="m248.2 1744.3c-0.46575-0.6794-0.96528-1.3302-1.4976-1.9553-4.2607-5.0224-10.608-8.2136-17.709-8.2136-2.3021 0-4.352 3.5238-5.6646 8.9957-0.5214 2.1817-0.92625 4.6713-1.187 7.373-0.20552 2.1651-0.31637 4.4677-0.31637 6.8502s0.11085 4.6855 0.31637 6.8487c2.1665 0.2055 4.4658 0.3159 6.8516 0.3159 2.383 0 4.6822-0.1104 6.8487-0.3159 4.7626-0.452 8.8739-1.3678 11.786-2.5742 2.8763-1.1899 4.5785-2.6713 4.5785-4.2745-4e-4 -4.8374-1.4776-9.3302-4.0071-13.05z" fill="#fff"/></g></g></svg>
