<svg xmlns="http://www.w3.org/2000/svg" width="1640.893" height="452.84" viewBox="0 0 434.153 119.814"><path fill="#294172" d="M162.42 106.576c-3.852-.456-7.659-1.902-10.677-4.056-3.866-2.758-6.71-7.145-8.158-12.584-.843-3.164-.96-9.413-.242-12.889.97-4.698 2.579-7.893 5.563-11.05 5.701-6.032 15.966-8.222 26.275-5.607 2.147.545 5.244 1.771 6.211 2.46.24.172.06 1.072-.734 3.644-.58 1.879-1.088 3.449-1.128 3.49-.04.04-1.036-.406-2.211-.993-2.957-1.474-6.33-2.144-10.93-2.171-5.5-.033-8.26.914-11.156 3.828-1.681 1.692-3.13 4.372-3.836 7.097-.685 2.64-.615 7.741.143 10.442 1.553 5.537 5.172 9.243 10.35 10.603 3.825 1.004 10.049.363 15.537-1.598 1.406-.503 2.58-.887 2.611-.854.03.034.5 1.49 1.043 3.236.543 1.746 1.04 3.315 1.106 3.485.144.378-4.513 1.92-8.125 2.69-4.65.992-8.152 1.24-11.642.828zm50.8.017c-5.378-.69-9.692-2.794-13.108-6.394-1.957-2.062-2.471-2.786-3.663-5.16-4.85-9.664-2.943-23.053 4.237-29.741 5.64-5.256 13.726-7.181 22.06-5.255 10.988 2.54 17.729 12.942 16.43 25.352-1.002 9.563-5.884 16.51-13.838 19.692-3.375 1.35-8.43 1.978-12.117 1.505zm8.352-7.971c3.32-1.025 6.182-3.51 7.75-6.726 1.162-2.384 1.639-4.408 1.805-7.67.527-10.355-5.42-17.386-14.732-17.416-4.353-.014-7.198 1.017-9.974 3.613-3.218 3.01-4.787 7.595-4.497 13.142.305 5.865 2.391 10.222 6.254 13.066 3.57 2.629 8.81 3.407 13.393 1.991zm31.6-15.474V60.24l10.517.105c10.36.103 10.556.115 13.098.8 6.404 1.724 9.598 5.036 10.312 10.69.555 4.395-.699 8.433-3.482 11.22-1.382 1.382-5.296 3.685-6.266 3.685-.201 0-.366.062-.366.137 0 .076 2.56 4.364 5.689 9.53 3.128 5.165 5.688 9.45 5.688 9.52 0 .07-2.057.128-4.57.128h-4.572L268.7 88.328h-7.59v17.727h-7.937zm16.007-2.486c5.41-.377 7.963-1.427 9.157-3.767.453-.889.536-1.453.46-3.136-.083-1.814-.187-2.17-.898-3.068-1.013-1.28-3.187-2.374-5.412-2.725-.945-.15-3.892-.272-6.548-.273l-4.829-.002v6.438c0 3.541.08 6.518.177 6.615.242.242 3.765.205 7.893-.082zm30.824 2.507V60.283h29.898v7.408h-21.696v10.583h19.315v7.409h-19.315v12.965h21.696v7.408h-29.898z"/><path fill="#3c6eb4" d="M205.76 13.615c-1.237 0-2.241.927-2.241 2.241v11.9c-1.16-2.087-3.632-3.555-6.646-3.555-6.027 0-10.045 4.559-10.045 10.586 0 6.104 4.173 10.663 10.045 10.663 2.628 0 4.946-1.082 6.26-3.013l.54 1.313c.31.85 1.16 1.468 2.164 1.468a2.242 2.242 0 002.24-2.24V15.856c0-1.313-1.004-2.24-2.318-2.24zm-46.209 0c-4.713 0-8.5 3.864-8.5 8.5v2.704h-2.78a1.88 1.88 0 00-1.855 1.855c0 1.004.85 2.009 1.854 2.009h2.782v14.295a2.242 2.242 0 002.24 2.24c1.314 0 2.319-1.004 2.319-2.24V28.683h3.013c1.082 0 1.932-1.005 1.932-2.01 0-1.004-.85-1.854-1.932-1.854h-3.013v-2.704c0-2.164 1.777-4.25 3.94-4.25.232 0 .387 0 .619.077 1.236.155 2.395-.386 2.55-1.622.231-1.237-.696-2.396-1.932-2.55-.387-.077-.85-.155-1.237-.155zm13.368 10.586c-5.95 0-10.509 4.714-10.509 10.586 0 5.95 4.714 10.663 10.586 10.663 3.246 0 6.568-1.39 8.5-3.477a3.19 3.19 0 00.695-1.468c0-.386-.154-.773-.386-1.082-.386-.463-.927-.772-1.545-.772-.387 0-.773.077-1.082.386-1.623 1.623-3.632 2.627-6.027 2.627-3.323 0-5.795-2.395-6.027-5.486h14.295c.85 0 1.7-.54 1.7-1.468 0-5.95-4.404-10.509-10.2-10.509zm49.452 0c-5.95 0-10.663 4.714-10.663 10.586 0 5.95 4.714 10.663 10.663 10.663 5.873 0 10.586-4.713 10.586-10.663a10.553 10.553 0 00-10.586-10.586zm25.885 0c-3.09 0-5.177.927-6.954 3.245l-.232-1.081c-.154-1.16-1.081-2.01-2.24-2.01-1.237 0-2.241 1.005-2.241 2.319v16.303a2.242 2.242 0 002.24 2.241c1.237 0 2.319-1.004 2.319-2.24v-8.732c0-4.018 3.4-6.027 7.109-6.027 1.081 0 2.009-.927 2.009-2.01a1.995 1.995 0 00-2.01-2.008zm13.368 0c-5.95 0-10.663 4.714-10.663 10.586 0 5.95 4.636 10.663 10.2 10.663 2.858 0 5.331-1.468 6.413-2.936l.618 1.391c.232.773 1.004 1.314 1.932 1.314a2.078 2.078 0 002.086-2.087v-8.345c0-5.64-4.018-10.586-10.586-10.586zm-88.706 3.786c3.014 0 5.255 2.164 5.641 5.023H167.2c.464-2.936 2.55-5.023 5.718-5.023zm24.573.232c3.708 0 6.027 2.86 6.027 6.568 0 3.786-2.319 6.568-6.027 6.568-3.71 0-6.105-2.936-6.105-6.568 0-3.554 2.396-6.568 6.105-6.568zm24.88 0c3.631 0 6.104 3.014 6.104 6.568 0 3.632-2.473 6.568-6.104 6.568-3.71 0-6.182-2.936-6.182-6.568 0-3.554 2.473-6.568 6.182-6.568zm39.253 0c3.709 0 6.104 3.014 6.104 6.568 0 3.632-2.395 6.568-6.104 6.568s-6.104-2.936-6.104-6.568c0-3.554 2.395-6.568 6.104-6.568z"/><g stroke-width="1.29"><path fill="#3c6eb4" d="M60.223 0C27.013 0 0 26.875 0 59.907c0 33.036 27.012 59.907 60.223 59.907 33.2 0 60.212-26.873 60.212-59.907C120.435 26.873 93.42 0 60.223 0z"/><path fill="#db3279" d="M60.223 5.497c-9.684 0-17.897 15.41-20.863 36.83a129.148 129.148 0 00-1.085 12.572c-.066 1.65-.098 3.32-.098 5.01 0 1.688.032 3.36.098 5.008.137 3.608.412 7.115.817 10.486 4.54.585 9.396.982 14.46 1.17 2.189.081 4.41.13 6.672.13 2.254 0 4.482-.05 6.665-.13 5.07-.188 9.922-.585 14.466-1.17.5-.064.992-.133 1.49-.205 18.913-2.642 32.07-8.491 32.07-15.29 0-30.052-24.49-54.41-54.692-54.41z"/><path fill="#fff" d="M82.843 44.618a27.631 27.631 0 00-1.764-2.29c-5.018-5.885-12.493-9.625-20.857-9.625-2.711 0-5.126 4.13-6.672 10.54-.614 2.557-1.09 5.474-1.398 8.64a84.862 84.862 0 00-.372 8.026c0 2.792.13 5.49.372 8.025 2.552.24 5.26.37 8.07.37 2.807 0 5.515-.13 8.066-.37 5.61-.53 10.452-1.603 13.882-3.016 3.388-1.394 5.393-3.13 5.393-5.009 0-5.668-1.74-10.932-4.72-15.29z"/></g><path fill="#db3279" d="M360.721 106.596c-4.113-.58-8.126-2.189-10.841-4.35-5.6-4.457-8.442-10.869-8.453-19.07-.008-5.539.91-9.212 3.373-13.495 1.363-2.37 4.782-5.8 7.197-7.219 5.518-3.242 13.308-4.03 19.814-2.002 8.596 2.678 14.122 9.89 14.95 19.515 1.104 12.837-5.458 23.158-16.505 25.96-2.738.694-7.131.999-9.536.66zm8.514-7.976c4.37-1.344 7.593-5.026 9.002-10.285.64-2.388.648-7.959.016-10.32-1.465-5.466-5.037-9.257-10.116-10.732-1.872-.544-6.194-.616-8.194-.137-6.55 1.569-10.459 7.313-10.459 15.368 0 8.914 4.957 15.509 12.538 16.68 1.884.29 5.278.02 7.213-.574zm40.734 7.964a37.7 37.7 0 01-4.101-.749c-1.884-.476-5.857-1.905-6.56-2.36-.494-.318 1.749-7.277 2.29-7.108.223.07 1.596.546 3.051 1.058 3.888 1.368 6.38 1.814 10.186 1.823 6.463.016 10.607-1.918 11.23-5.24.25-1.329-.242-2.575-1.443-3.66-1.419-1.282-2.295-1.687-8.067-3.728-2.765-.979-5.901-2.18-6.97-2.672-2.574-1.183-5.116-3.027-6.383-4.63-3.349-4.236-3.083-10.71.605-14.731 2.036-2.22 5.164-3.82 9.278-4.743 2.284-.513 9.003-.584 11.54-.122 2.43.442 7.937 2.193 7.937 2.524 0 .152-.425 1.77-.945 3.597l-.945 3.32-2.958-.982c-6.236-2.07-13.229-1.878-16.603.457-1.939 1.342-2.677 4.057-1.59 5.842 1.087 1.781 2.628 2.575 9.944 5.123 8.79 3.06 11.981 5.18 13.82 9.182.834 1.819 1.128 5.367.612 7.418-1.63 6.487-8.072 10.145-18.499 10.504-1.838.063-4.281.008-5.43-.124z"/></svg>