<svg version="1.1" viewBox="0 0 240 79" xmlns="http://www.w3.org/2000/svg">
<g transform="matrix(1.2429 0 0 1.2498 -23.22 16.036)" stroke-width=".80237">
<g transform="matrix(.69485 0 0 .69485 507.98 -1545.3)" fill="#262577" stroke-width=".80237" xml:space="default">
<path id="path4186" d="m-594.04 2270.3h-16.337q-2.4849 0-4.9169-0.6873-4.7054-1.4275-7.4546-6.5558-2.4849-4.6526-2.4849-10.838 0-5.9742 2.2205-10.574 2.432-5.0754 6.9259-6.9259 3.4894-1.4274 7.1374-1.4274h14.803v7.0845h-15.385q-3.7537 0-5.4456 4.0709-1.3217 3.1722-1.3217 8.3005 0 4.3353 1.6918 7.3489 1.9562 3.5422 5.4984 3.5422l15.068-0.053v6.7144z" xml:space="default"/>
<path id="path4188" d="m-566.21 2270.5h-12.9c-3.1369 0-5.8685-1.3394-8.1948-4.0181-2.291-2.7139-3.4365-5.8332-3.4365-9.3579 0-3.8419 1.2512-7.155 3.7537-9.9394 2.5377-2.8197 5.3574-4.2296 8.4591-4.2296h12.266v5.657h-8.9878c-1.1279 0-2.0972 0.1057-2.9078 0.3172-0.77542 0.1763-1.498 0.5464-2.1676 1.1103-1.2336 1.0574-1.8504 2.6397-1.8504 4.4372h15.861v5.7099h-15.808c0 0.8459 0.0881 1.4137 0.26435 2.0129 0.21148 0.5639 0.61681 1.1455 1.216 1.7447 0.59919 0.5639 1.3041 0.9516 2.1148 1.1631 0.84591 0.1762 1.868 0.2643 3.0664 0.2643h9.2522z" xml:space="default"/>
<path id="path4190" d="m-535.44 2270.3h-7.3488v-18.028q0-0.6873-0.31722-1.216-0.31722-0.5816-0.89878-1.1103-1.0574-0.8987-2.432-0.8987h-7.1902v21.254h-7.3489v-27.386h14.063q3.7537 0 5.4456 0.423 2.6435 0.6344 4.2296 2.802 1.7976 2.5378 1.7976 5.5513z" xml:space="default"/>
<path id="path4192" d="m-513.22 2248.7h-7.1374v12.424c0 1.1279 0.38771 2.0619 1.1631 2.8021 0.88116 0.7402 2.0443 1.1103 3.4894 1.1103h2.1676v5.3398h-6.8202c-2.0443 0-4.289-0.7402-5.7341-2.2205-0.84591-0.8812-1.3922-1.8505-1.639-2.9079-0.24673-1.0573-0.37009-2.3086-0.37009-3.7537v-12.794h-4.6525v-5.7099h4.6525v-9.6222h7.7431v9.6222h7.1374z" xml:space="default"/>
<path id="path4194" d="m-469.41 2251.8q0 10.785-5.9742 15.438-4.864 3.7537-14.169 3.7537-10.31 0-15.226-4.3353-5.3927-4.7582-5.3927-15.279 0-8.6177 4.8111-13.429 5.2341-5.2341 15.649-5.2341 11.473 0 16.178 5.0226 4.1238 4.4411 4.1238 14.063zm-9.4108-0.2115q0-5.4455-2.5906-8.6706-2.9078-3.5951-8.6177-3.5951-5.6042 0-8.4591 3.8595-2.3791 3.225-2.3791 8.4062 0 5.9743 1.9033 8.8292 2.6435 3.9652 9.7808 3.9652 6.0271 0 8.4591-3.8594 1.9033-3.0136 1.9033-8.935z" xml:space="default"/>
<path id="path4196" d="m-426.26 2258.9q0 4.864-3.225 8.1948-3.225 3.3307-8.1948 3.3307l-26.17-0.053v-6.6616h21.571q2.1676 0 3.648-1.0045 1.6918-1.1631 1.6918-3.1722 0-4.7053-6.6616-4.7053h-10.891q-4.7054 0-8.2476-2.9079-3.5422-2.9078-3.5422-7.4017 0-4.9697 3.4365-8.0361 3.4894-3.1193 9.1464-3.1193h25.007v6.3443h-22.047q-1.4804 0-3.0136 1.2689-1.4804 1.216-1.4804 2.9078 0 1.9033 1.4275 3.225 1.4803 1.2689 3.5422 1.2689h12.001q5.6042 0 8.7763 2.9078 3.225 2.855 3.225 7.6132z" xml:space="default"/>
</g>
<rect transform="matrix(-.7125 .70168 -.7125 -.70168 0 0)" x="-14.207" y="-40.99" width="14.086" height="14.086" color="#000000" color-rendering="auto" fill="#932279" image-rendering="auto" shape-rendering="auto" stroke="#fff" stroke-width=".80242" xml:space="default"/>
<rect transform="matrix(-.70495 -.70926 .70495 -.70926 0 0)" x="-41.199" y="17.554" width="14.024" height="14.024" color="#000000" color-rendering="auto" fill="#efa724" image-rendering="auto" shape-rendering="auto" stroke="#fff" stroke-width=".80238" xml:space="default"/>
<rect transform="matrix(-.7125 .70168 -.7125 -.70168 0 0)" x="-14.075" y="-57.963" width="14.086" height="14.086" color="#000000" color-rendering="auto" fill="#9ccd2a" image-rendering="auto" shape-rendering="auto" stroke="#fff" stroke-width=".80242" xml:space="default"/>
<rect transform="matrix(-.70495 -.70926 .70495 -.70926 0 0)" x="-58.169" y="17.604" width="14.024" height="14.024" color="#000000" color-rendering="auto" fill="#262577" image-rendering="auto" shape-rendering="auto" stroke="#fff" stroke-width=".80238" xml:space="default"/>
<rect x="25.885" y="3.2272" width="13.499" height="13.437" color="#000000" color-rendering="auto" fill="#fce94f" image-rendering="auto" shape-rendering="auto" xml:space="default"/>
<rect x="43.385" y="20.753" width="13.401" height="13.5" color="#000000" color-rendering="auto" fill="#efa724" image-rendering="auto" shape-rendering="auto" xml:space="default"/>
<rect x="43.439" y="3.3204" width="13.446" height="13.432" color="#000000" color-rendering="auto" fill="#932279" image-rendering="auto" shape-rendering="auto" xml:space="default"/>
<rect x="25.385" y="2.7526" width="13.999" height="13.918" color="#000000" color-rendering="auto" fill="#9ccd2a" image-rendering="auto" shape-rendering="auto" stroke="#fff" stroke-width=".80237" xml:space="default"/>
<rect x="43.385" y="20.753" width="13.914" height="14" color="#000000" color-rendering="auto" fill="none" image-rendering="auto" shape-rendering="auto" stroke="#fff" stroke-width=".80237" xml:space="default"/>
<rect x="43.435" y="2.8343" width="13.95" height="13.918" color="#000000" color-rendering="auto" fill="none" image-rendering="auto" shape-rendering="auto" stroke="#fff" stroke-width=".80237" xml:space="default"/>
<rect x="25.386" y="20.753" width="13.999" height="13.999" color="#000000" color-rendering="auto" fill="#262577" image-rendering="auto" shape-rendering="auto" stroke="#fff" stroke-width=".80237" xml:space="default"/>
<rect transform="matrix(-.7125 .70168 -.7125 -.70168 0 0)" x="-14.207" y="-40.99" width="14.086" height="14.086" color="#000000" color-rendering="auto" fill="none" image-rendering="auto" shape-rendering="auto" stroke="#fff" stroke-width=".80242" xml:space="default"/>
<rect transform="matrix(-.70495 -.70926 .70495 -.70926 0 0)" x="-41.198" y="17.554" width="14.024" height="14.024" color="#000000" color-rendering="auto" fill="none" image-rendering="auto" shape-rendering="auto" stroke="#fff" stroke-width=".80238" xml:space="default"/>
<rect transform="matrix(-.7125 .70168 -.7125 -.70168 0 0)" x="-14.075" y="-57.963" width="14.086" height="14.086" color="#000000" color-rendering="auto" fill="none" image-rendering="auto" shape-rendering="auto" stroke="#fff" stroke-width=".80242" xml:space="default"/>
<rect transform="matrix(-.70495 -.70926 .70495 -.70926 0 0)" x="-58.169" y="17.604" width="14.024" height="14.024" color="#000000" color-rendering="auto" fill="none" image-rendering="auto" shape-rendering="auto" stroke="#fff" stroke-width=".80238" xml:space="default"/>
</g>
</svg>
