<?xml version="1.0" encoding="UTF-8"?>
<svg version="1.1" xmlns="http://www.w3.org/2000/svg" width="305" height="80">
<path d="M0 0 C9.27867231 6.41964851 15.74696077 15.12491893 18.49609375 26.15625 C20.47720566 39.21541627 17.48467492 50.01722694 9.87890625 60.6796875 C4.45467387 67.54494403 -3.48993928 72.87659363 -12.12109375 74.6796875 C-25.76586077 75.81284398 -37.26163753 75.20380584 -48.2421875 66.375 C-55.29181432 60.01421406 -61.48501448 52.33895927 -62.2980957 42.54833984 C-62.68022989 28.31346076 -62.04878947 17.68250234 -52.12109375 6.6796875 C-38.44931572 -7.19064333 -16.82829873 -10.47507361 0 0 Z " fill="#A2518D" transform="translate(62.12109375,5.3203125)"/>
<path d="M0 0 C3.1628454 1.216479 4.28846224 2.35336624 6.5 5.0625 C10.20254995 9.00485241 14.42267062 8.8037471 19.5859375 8.9921875 C20.38257813 8.99476562 21.17921875 8.99734375 22 9 C21.979375 9.7734375 21.95875 10.546875 21.9375 11.34375 C22.0608096 17.57088484 22.50050304 21.27650739 27.0625 25.75 C28.34983188 26.86312353 29.65450437 27.95793049 31 29 C29.61144176 32.1661811 28.75685611 33.1984848 25.9375 35.5 C21.99514759 39.20254995 22.1962529 43.42267062 22.0078125 48.5859375 C22.00523438 49.38257813 22.00265625 50.17921875 22 51 C21.2265625 50.979375 20.453125 50.95875 19.65625 50.9375 C13.42911516 51.0608096 9.72349261 51.50050304 5.25 56.0625 C4.13687647 57.34983188 3.04206951 58.65450437 2 60 C-1.76690636 58.26142784 -4.21232537 56.09741625 -7 53 C-7 52.34 -7 51.68 -7 51 C-11.29 51 -15.58 51 -20 51 C-20 46.71 -20 42.42 -20 38 C-21.32 37.34 -22.64 36.68 -24 36 C-25.70496537 34.37253306 -27.37897032 32.71108689 -29 31 C-27.44396229 27.18063472 -25.04395069 24.73955562 -22 22 C-21.34 22 -20.68 22 -20 22 C-20 17.71 -20 13.42 -20 9 C-15.71 9 -11.42 9 -7 9 C-6.34 7.68 -5.68 6.36 -5 5 C-3.37253306 3.29503463 -1.71108689 1.62102968 0 0 Z " fill="#FBF7F8" transform="translate(39,10)"/>
<path d="M0 0 C4.21020662 3.57780933 6.88528957 7.53791887 8 13 C8.47433073 18.88170107 8.0197555 23.82786558 5 29 C0.51584727 34.25523719 -5.18050397 37.3235795 -12.00390625 38.28125 C-18.81671964 38.60122558 -24.48659252 36.43464159 -29.8125 32.25 C-34.45124024 27.9289817 -36.13022444 23.33284184 -36.4375 17.0625 C-36.1860571 10.15829701 -33.71482974 5.3126453 -28.6875 0.625 C-19.92186359 -6.23830681 -9.23275756 -5.26483332 0 0 Z M-22 8 C-25.45792127 11.74069521 -25.52112273 14.66630679 -25.33984375 19.58984375 C-24.83220706 23.18997979 -23.83502944 24.73197645 -21 27 C-16.67762353 29.02523496 -13.8125605 29.22645129 -9.1875 27.9375 C-5.70097393 25.81823906 -4.43296476 24.79314201 -3 21 C-2.47397366 16.26576298 -2.56703186 13.97417832 -4.5 9.625 C-7.28465886 6.70110819 -9.00533275 5.77128649 -12.90625 5.05078125 C-16.51262942 4.96331309 -18.94412929 6.202429 -22 8 Z " fill="#A14F8C" transform="translate(262,23)"/>
<path d="M0 0 C-0.4979837 3.73487777 -0.87491756 5.81237635 -3 9 C-3.94875 8.67 -4.8975 8.34 -5.875 8 C-10.55447256 6.6355542 -15.16823759 6.82500659 -20 7 C-20 8.32 -20 9.64 -20 11 C-18.90300781 11.30292969 -17.80601562 11.60585938 -16.67578125 11.91796875 C-15.2211065 12.34029368 -13.76669283 12.76351863 -12.3125 13.1875 C-11.59126953 13.38408203 -10.87003906 13.58066406 -10.12695312 13.78320312 C-5.26797826 15.22536461 -2.17723501 16.84373327 1 21 C2.15403 25.58744846 1.63741199 29.75173486 -0.5 33.9375 C-5.59420723 38.14022097 -11.06577238 39.5398748 -17.62109375 39.2890625 C-21.87937843 38.77163546 -26.1570241 37.94691407 -30 36 C-31.37109375 34.09375 -31.37109375 34.09375 -32 32 C-30.625 28.75 -30.625 28.75 -29 26 C-28.47792969 26.2165625 -27.95585937 26.433125 -27.41796875 26.65625 C-21.156843 29.02473189 -15.652163 29.33571664 -9 29 C-8.89040218 27.03514042 -8.89040218 27.03514042 -10 25 C-13.29188834 23.77493653 -16.5126243 22.91876545 -19.921875 22.109375 C-25.43219622 20.63050203 -27.85822327 18.81617325 -31 14 C-32.01899319 10.29274188 -31.2969801 6.87114163 -30.0625 3.25 C-21.73237603 -5.83740797 -10.39136218 -3.64456962 0 0 Z " fill="#A14F8C" transform="translate(304,22)"/>
<path d="M0 0 C3 2.0625 3 2.0625 5 4 C5 4.66 5 5.32 5 6 C3.04072937 7.7143618 1.04119788 9.38405168 -1 11 C-1.556875 10.71125 -2.11375 10.4225 -2.6875 10.125 C-3.450625 9.75375 -4.21375 9.3825 -5 9 C-5.763125 8.608125 -6.52625 8.21625 -7.3125 7.8125 C-10.93329028 6.71784247 -13.35115769 7.07120377 -17 8 C-19.3181362 9.89111111 -20.66914015 11.33828031 -22 14 C-22.55263967 20.41945393 -22.55263967 20.41945393 -20 26 C-16.40248283 28.00630765 -13.9520897 29.03733685 -9.8125 28.875 C-6.96621952 27.98949052 -5.21922184 26.96315778 -3 25 C-0.04590299 26.37154504 2.44008376 27.98863724 5 30 C3.71079768 34.01085165 1.27009228 35.32610671 -2.27734375 37.18359375 C-8.46163221 40.11446969 -14.7924274 39.66915962 -21.125 37.4375 C-27.40292798 34.69452839 -30.73567695 30.91344007 -33.4375 24.6875 C-34.6402108 16.80306254 -33.67758641 10.49664779 -29 4 C-20.87249646 -4.12750354 -9.98666217 -5.04656489 0 0 Z " fill="#A14F8C" transform="translate(123,22)"/>
<path d="M0 0 C5.26491901 5.76633987 4.89666264 12.39475478 4.75 19.8125 C4.74097656 20.68712891 4.73195312 21.56175781 4.72265625 22.46289062 C4.6992957 24.60038064 4.66343247 26.73772786 4.625 28.875 C0.995 28.875 -2.635 28.875 -6.375 28.875 C-6.705 21.615 -7.035 14.355 -7.375 6.875 C-10.015 7.205 -12.655 7.535 -15.375 7.875 C-16.52154482 10.16808963 -16.57229117 11.67409656 -16.69140625 14.2265625 C-16.73330078 15.07734375 -16.77519531 15.928125 -16.81835938 16.8046875 C-16.85767578 17.69414063 -16.89699219 18.58359375 -16.9375 19.5 C-16.98068359 20.3971875 -17.02386719 21.294375 -17.06835938 22.21875 C-17.17456715 24.43731239 -17.27529959 26.65613565 -17.375 28.875 C-21.005 28.875 -24.635 28.875 -28.375 28.875 C-28.375 18.645 -28.375 8.415 -28.375 -2.125 C-24.04166667 -2.125 -19.70833333 -2.125 -15.375 -2.125 C-14.818125 -2.310625 -14.26125 -2.49625 -13.6875 -2.6875 C-8.32068145 -3.70284405 -4.50759668 -2.83811643 0 0 Z " fill="#A14F8C" transform="translate(193.375,31.125)"/>
<path d="M0 0 C5.37555804 4.54854911 5.37555804 4.54854911 6.68359375 8.47265625 C6.68359375 11.44265625 6.68359375 14.41265625 6.68359375 17.47265625 C-3.71140625 17.96765625 -3.71140625 17.96765625 -14.31640625 18.47265625 C-10.60064874 20.94982792 -8.71653887 20.77611367 -4.31640625 20.47265625 C-1.48262493 19.57517355 -1.48262493 19.57517355 0.68359375 18.47265625 C2.00359375 20.12265625 3.32359375 21.77265625 4.68359375 23.47265625 C4.18359375 25.28515625 4.18359375 25.28515625 2.68359375 27.47265625 C-3.45395393 30.65102916 -8.59131277 31.13136219 -15.31640625 29.47265625 C-19.65792145 27.22150022 -22.79230852 24.6794858 -25.31640625 20.47265625 C-26.59057291 15.83852955 -26.57574827 12.33712964 -25.19140625 7.72265625 C-22.47670172 3.0171684 -20.12139918 0.2363071 -15.06640625 -1.90234375 C-9.49291591 -2.83125881 -4.87613463 -3.21512419 0 0 Z M-13.31640625 6.47265625 C-13.97640625 7.79265625 -14.63640625 9.11265625 -15.31640625 10.47265625 C-11.35640625 10.47265625 -7.39640625 10.47265625 -3.31640625 10.47265625 C-3.97640625 9.15265625 -4.63640625 7.83265625 -5.31640625 6.47265625 C-7.95640625 6.47265625 -10.59640625 6.47265625 -13.31640625 6.47265625 Z " fill="#A14F8C" transform="translate(154.31640625,30.52734375)"/>
<path d="M0 0 C3.3 0 6.6 0 10 0 C10.33 2.31 10.66 4.62 11 7 C12.98 7 14.96 7 17 7 C17 9.97 17 12.94 17 16 C14.69 16 12.38 16 10 16 C10.33 20.29 10.66 24.58 11 29 C12.98 29 14.96 29 17 29 C18.76462683 32.08809695 19 33.23312136 19 37 C14.53276974 39.37321608 10.77155997 39.35917163 6 38 C3.23898854 36.17890734 1.47899452 34.95798903 0 32 C-0.07181821 29.28239892 -0.09299506 26.59140612 -0.0625 23.875 C-0.05798828 23.12089844 -0.05347656 22.36679687 -0.04882812 21.58984375 C-0.03703499 19.72652873 -0.01909942 17.86325445 0 16 C-1.65 16 -3.3 16 -5 16 C-5 13.36 -5 10.72 -5 8 C-3.68 7.67 -2.36 7.34 -1 7 C-0.67 4.69 -0.34 2.38 0 0 Z " fill="#A14F8C" transform="translate(205,22)"/>
<path d="M0 0 C3.63 0 7.26 0 11 0 C11 3.63 11 7.26 11 11 C8.525 10.01 8.525 10.01 6 9 C5.2575 9.825 4.515 10.65 3.75 11.5 C1 14 1 14 -3 14 C-2.5206753 9.68607774 -1.2542015 7.83430453 2 5 C1.34 3.35 0.68 1.7 0 0 Z " fill="#EFA825" transform="translate(50,19)"/>
<path d="M0 0 C0.66 0 1.32 0 2 0 C2 0.99 2 1.98 2 3 C2.99 3.33 3.98 3.66 5 4 C4.01 5.485 4.01 5.485 3 7 C3.66 7 4.32 7 5 7 C5 7.66 5 8.32 5 9 C4.01 9 3.02 9 2 9 C1.67 9.99 1.34 10.98 1 12 C0.01 11.34 -0.98 10.68 -2 10 C-2 10.66 -2 11.32 -2 12 C-2.66 12 -3.32 12 -4 12 C-4 11.01 -4 10.02 -4 9 C-4.99 9 -5.98 9 -7 9 C-7 8.34 -7 7.68 -7 7 C-6.34 7 -5.68 7 -5 7 C-5 6.34 -5 5.68 -5 5 C-5.66 5 -6.32 5 -7 5 C-7 4.34 -7 3.68 -7 3 C-5.68 3 -4.36 3 -3 3 C-2.67 2.34 -2.34 1.68 -2 1 C-1.34 1.33 -0.68 1.66 0 2 C0 1.34 0 0.68 0 0 Z " fill="#F1B546" transform="translate(41,34)"/>
<path d="M0 0 C3.63 0 7.26 0 11 0 C12 4 12 4 11 6 C7.37 6 3.74 6 0 6 C0 4.02 0 2.04 0 0 Z " fill="#B06C9F" transform="translate(18,37)"/>
<path d="M0 0 C1.98 0 3.96 0 6 0 C6 3.63 6 7.26 6 11 C2 12 2 12 0 11 C0 7.37 0 3.74 0 0 Z " fill="#B06C9F" transform="translate(37,18)"/>
<path d="M0 0 C0 3.3 0 6.6 0 10 C-1.98 10 -3.96 10 -6 10 C-6 6.7 -6 3.4 -6 0 C-4 -1 -4 -1 0 0 Z " fill="#AC659A" transform="translate(43,51)"/>
<path d="M0 0 C3.3 0 6.6 0 10 0 C10 1.98 10 3.96 10 6 C6.7 6 3.4 6 0 6 C-1 2 -1 2 0 0 Z " fill="#AC6499" transform="translate(51,37)"/>
<path d="M0 0 C2.1875 -0.375 2.1875 -0.375 5 0 C6.99022836 1.83961648 8.38989899 3.79186148 10 6 C9.34 7.32 8.68 8.64 8 10 C4.63362603 8.5572683 2.33497429 6.83532593 0 4 C0 2.68 0 1.36 0 0 Z " fill="#A75A93" transform="translate(46,46)"/>
<path d="M0 0 C0.375 2.1875 0.375 2.1875 0 5 C-1.83961648 6.99022836 -3.79186148 8.38989899 -6 10 C-7.32 9.34 -8.64 8.68 -10 8 C-7.80926025 2.88827391 -5.76796198 0 0 0 Z " fill="#A65992" transform="translate(34,46)"/>
<path d="M0 0 C0.66 0 1.32 0 2 0 C7 5.23809524 7 5.23809524 7 10 C2.59885603 9.49701212 0.28804981 7.91227269 -3 5 C-1.125 1.125 -1.125 1.125 0 0 Z " fill="#A65992" transform="translate(26,23)"/>
</svg>
