<svg xmlns="http://www.w3.org/2000/svg" viewBox="0 0 240 80"><path fill="#a80030" d="M21.621 15c-.728.061-1.454.097-2.17.188l.316.044c.526-.192 1.294-.105 1.854-.232zm-3.18.333c-1.184.072-2.827.689-2.32.127-1.931.862-5.36 2.073-7.286 3.878l-.06-.406c-.882 1.06-3.846 3.162-4.082 4.535l-.236.055c-.458.777-.756 1.657-1.12 2.456-.6 1.023-.88.394-.794.555C1.363 28.926.775 30.937.27 32.587c.36.54.008 3.248.144 5.415C-.179 48.71 7.928 59.105 16.79 61.505c1.3.466 3.23.45 4.874.495-1.938-.555-2.189-.294-4.077-.952-1.362-.642-1.66-1.374-2.626-2.212l.382.675c-1.892-.67-1.1-.829-2.64-1.316l.409-.533c-.614-.047-1.625-1.032-1.901-1.58l-.672.027c-.806-.993-1.236-1.712-1.204-2.268l-.216.387c-.246-.422-2.967-3.73-1.556-2.96-.262-.24-.61-.39-.988-1.078l.287-.327c-.678-.874-1.25-1.994-1.206-2.367.362.489.614.58.863.665-1.715-4.256-1.812-.235-3.11-4.332l.274-.022c-.21-.319-.34-.662-.508-1l.12-1.191c-1.234-1.426-.345-6.07-.166-8.615.123-1.035 1.03-2.138 1.72-3.866l-.42-.073c.804-1.4 4.588-5.628 6.341-5.411.85-1.067-.17-.004-.336-.272 1.866-1.93 2.452-1.364 3.71-1.711 1.357-.806-1.164.314-.52-.308 2.347-.599 1.662-1.362 4.723-1.666.323.183-.75.284-1.018.522 1.954-.957 6.186-.739 8.936.53 3.188 1.492 6.772 5.898 6.914 10.042l.162.043c-.082 1.648.252 3.555-.327 5.305l.39-.83c.048 1.26-.367 1.871-.741 2.953l-.674.335c-.551 1.071.054.68-.34 1.531-.861.765-2.61 2.392-3.17 2.541-.408-.008.278-.482.367-.667-1.151.79-.924 1.186-2.685 1.667l-.051-.115c-4.342 2.043-10.373-2.005-10.294-7.528-.046.35-.132.263-.228.404-.224-2.841 1.312-5.695 3.904-6.862 2.534-1.254 5.506-.74 7.32.954-.996-1.306-2.98-2.692-5.332-2.564-2.304.038-4.461 1.502-5.18 3.092-1.18.743-1.318 2.865-1.832 3.254-.693 5.087 1.302 7.283 4.676 9.869.53.357.149.413.22.685-1.121-.524-2.147-1.317-2.991-2.287.448.655.931 1.292 1.556 1.792-1.057-.357-2.47-2.56-2.88-2.65 1.821 3.262 7.39 5.72 10.306 4.5-1.35.05-3.064.028-4.58-.532-.638-.328-1.503-1.007-1.348-1.133 3.98 1.486 8.09 1.124 11.534-1.635.876-.683 1.833-1.844 2.11-1.86-.416.627.072.302-.248.855.871-1.408-.38-.573.902-2.431l.472.652c-.177-1.17 1.452-2.589 1.287-4.437.373-.565.415.61.019 1.909.55-1.442.146-1.674.287-2.865.152.4.353.826.456 1.248-.359-1.394.366-2.347.547-3.157-.179-.079-.554.615-.64-1.03.012-.716.2-.375.271-.551-.14-.081-.508-.629-.732-1.68.161-.248.434.64.655.676-.142-.836-.387-1.473-.397-2.114-.646-1.35-.23.18-.752-.58-.688-2.144.57-.498.655-1.472 1.042 1.51 1.635 3.85 1.909 4.818a19.717 19.717 0 0 0-.956-3.433c.317.134-.51-2.431.412-.733-.984-3.62-4.21-7.002-7.179-8.589.363.332.82.749.657.815-1.477-.879-1.218-.948-1.43-1.319-1.2-.49-1.28.04-2.075.001-2.267-1.203-2.704-1.075-4.79-1.828l.094.444c-1.501-.5-1.75.19-3.372.002-.099-.077.518-.28 1.028-.353-1.45.19-1.384-.287-2.804.053.35-.246.721-.41 1.095-.618zm1.172.273c.416.074.899.131.83.23.456-.1.558-.19-.83-.23zm.83.23l-.29.062.27-.026zM1.28 25.064c.122 1.122-.844 1.56.214.818.568-1.279-.221-.353-.214-.818zM.417 28.63c-.674.862-.31 1.045-.382 1.631.245-.748.289-1.197.382-1.631zm27.755 5.207c-.096.002-.22.247-.282.514.145.076.26.99.4.424.048-.701-.022-.94-.118-.938zm8.516 2.362l-.114.288a13.847 13.847 0 0 1-1.358 4.331 13.65 13.65 0 0 0 1.472-4.619zm-9.02.526c-.105.516-.384.962-.648 1.433-1.456.917-.138-.544-.001-1.1-1.565 1.971-.216 1.181-.273 1.732.465-.64.803-1.34.922-2.065zm-3.175 3.008c-.632.155-1.277.158-1.926.1-.779.01.147.4 1.164.556.282-.22.535-.44.762-.656zm-9.829.102c.172.63.525 1.174.851 1.726l-.24-.707c-.27-.3-.43-.66-.61-1.02zm-.598 1.066l-.11.546c.512.696.919 1.45 1.572 1.991-.47-.917-.819-1.295-1.462-2.537z"/><path d="M91.43 19.686c-3.212 1.484-5.191 1.73-7.315 1.929 1.927.79 1.927 4.054 1.927 14.68v12.157c0 3.658 0 5.731-.594 7.312 2.027.791 4.546 1.235 7.562 1.235 1.928 0 7.513 0 10.526-6.176 1.434-2.867 1.927-6.723 1.927-9.64 0-1.778-.198-5.68-1.63-8.153-1.383-2.32-3.608-3.508-5.98-3.508-4.745 0-6.127 3.952-6.868 5.979 0-2.52.05-11.318.444-15.816zm-27.662.1c-1.778.842-3.311 1.386-6.672 1.681 1.334 1.434 1.333 2.173 1.333 8.695-.938-.295-2.123-.641-4.15-.641-8.846 0-10.28 7.712-10.28 13.447 0 13.936 7.414 13.936 8.5 13.936 3.065 0 5.042-1.68 5.882-4.596l.097 4.396c.94-.05 1.879-.148 3.41-.148.545 0 .99 0 1.386.05.396 0 .79.048 1.235.098-.79-1.581-1.383-5.139-1.383-12.851 0-7.512 0-20.211.642-24.067zm82.442 9.391c-1.237.64-2.52 1.283-6.524 1.481.541.494 1.038.94 1.283 2.869.448 3.161.25 16.505.15 19.224-.098 2.766-.296 3.162-.642 3.953.987-.148 1.778-.195 2.965-.195 1.482 0 2.52.097 3.36.195-.494-1.73-.494-2.32-.542-8.647 0-7.313-.002-9.193.392-10.922.346-1.68 1.287-3.756 4.104-3.756 2.869 0 3.114 2.273 3.212 3.112.15 1.185.15 4.548.15 6.87V48.7c0 1.335-.1 5.142-.248 6.276-.098.842-.2 1.09-.396 1.732.94-.148 1.582-.248 2.769-.248 2.024 0 2.667.15 3.756.248-.691-1.434-.692-3.213-.742-4.894v-14.88c-.05-2.964-.098-7.462-6.276-7.462-4.944 0-6.179 3.41-6.77 4.944zm-31.74.048c-1.878.89-3.015 1.185-7.067 1.581.692.494 1.136.79 1.383 2.669.346 2.47.296 14.234.098 18.634-.148 3.21-.346 3.655-.84 4.595a27.43 27.43 0 0 1 3.804-.246c1.434 0 2.127.098 3.117.246-1.09-2.026-1.039-3.853-.942-20.907 0-3.31.052-4.4.446-6.572zm-38.775.248c-10.08 0-10.08 11.17-10.08 13.54C65.614 53.047 70.11 57 77.67 57c3.359 0 4.994-.492 5.883-.742-.049-1.779.197-2.916.496-4.447-1.04.644-2.374 1.485-5.34 1.485-7.71 0-7.81-7.022-7.81-9.443h13.15l.096-2.913c0-5.783-1.137-11.468-8.452-11.468zm51.536.048c-4.891 0-7.755 1.483-9.189 2.225.594 1.087 1.088 2.023 1.531 4.151 1.93-1.68 4.45-2.57 7.019-2.57 4.104 0 4.103 2.719 4.103 6.572-.94-.048-1.73-.146-3.066-.146-6.279.001-10.43 2.42-10.43 9.045 0 3.115.94 6.227 3.708 7.562 1.235.544 2.472.544 2.869.544 4.548 0 6.078-3.361 7.018-5.437-.05 2.175 0 3.506.148 5.237.89-.05 1.778-.148 3.262-.148.84 0 1.631.098 2.47.148-.543-.84-.838-1.335-.989-3.262-.098-1.877-.1-3.755-.1-6.375l.052-10.083c0-3.757-.991-7.464-8.405-7.464zm-52.03 3.164c3.856 0 4.15 4.25 4.052 7.76h-8.45c.05-4.102.89-7.76 4.398-7.76zm-20.28.346c1.681 0 2.621.496 3.362.89l.048 3.214c-.048.05-.048 8.006-.148 10.083-.098 1.679-.247 5.287-3.806 5.287-3.657 0-4.546-4.202-4.843-6.029a25.84 25.84 0 0 1-.346-4.447c0-2.374.149-8.998 5.733-8.998zm40.805.992c3.757 0 4.498 5.189 4.498 9.043 0 4.596-.84 10.774-6.573 10.774-.791 0-1.778-.151-2.42-.298-.1-1.78-.1-4.844-.1-8.402 0-4.251.444-6.472.791-7.562 1.037-3.508 3.36-3.556 3.804-3.556zm32.444 8.695h2.62c-.097 3.114-.147 5.289-.989 7.018-1.038 2.225-2.766 2.866-4.052 2.866-2.968 0-3.608-2.47-3.608-4.89 0-4.646 4.153-4.994 6.029-4.994z"/><path fill="#a80030" d="M115.38 22.231l-4.094 4.091-4.092-4.091 4.092-4.091 4.093 4.091"/></svg>