<svg version="1.1" viewBox="0 0 240 80" xmlns="http://www.w3.org/2000/svg" xmlns:cc="http://creativecommons.org/ns#" xmlns:dc="http://purl.org/dc/elements/1.1/" xmlns:rdf="http://www.w3.org/1999/02/22-rdf-syntax-ns#">
<metadata>
<rdf:RDF>
<cc:Work rdf:about="">
<dc:format>image/svg+xml</dc:format>
<dc:type rdf:resource="http://purl.org/dc/dcmitype/StillImage"/>
<dc:title/>
</cc:Work>
</rdf:RDF>
</metadata>
<path id="path824" d="m59.622 15c-0.72864 0.06098-1.4537 0.09711-2.1693 0.18833l0.31557 0.04377c0.52589-0.19232 1.294-0.10544 1.8537-0.2321zm-3.1802 0.33288c-1.1837 0.07193-2.8271 0.6891-2.32 0.12724-1.9311 0.86207-5.3609 2.0725-7.2857 3.8775l-0.06007-0.40515c-0.88188 1.0586-3.846 3.1617-4.0821 4.5341l-0.23616 0.05497c-0.45814 0.77712-0.75598 1.6574-1.1198 2.4564-0.59991 1.0231-0.8795 0.39427-0.79402 0.5548-1.1805 2.3934-1.7681 4.4038-2.2742 6.0539 0.36068 0.53945 0.0085 3.2479 0.14455 5.4156-0.59209 10.708 7.5147 21.103 16.376 23.503 1.2988 0.46543 3.2302 0.44887 4.8731 0.49474-1.9378-0.55456-2.1882-0.29353-4.077-0.95181-1.3619-0.64212-1.6601-1.3745-2.6254-2.2121l0.38174 0.67492c-1.892-0.66974-1.1-0.82892-2.6396-1.3162l0.40821-0.5324c-0.61346-0.0469-1.6243-1.0321-1.9006-1.5799l-0.67186 0.02646c-0.80578-0.99342-1.2361-1.7119-1.2043-2.2681l-0.21581 0.38683c-0.24549-0.42166-2.9669-3.7306-1.5555-2.9603-0.26217-0.23871-0.61058-0.38955-0.98846-1.077l0.28707-0.32779c-0.67809-0.87406-1.2501-1.9936-1.2063-2.3668 0.36224 0.48889 0.61411 0.58082 0.86324 0.66474-1.7153-4.2551-1.8116-0.23431-3.1099-4.3315l0.27384-0.02239c-0.21005-0.31846-0.3391-0.66139-0.50797-0.99965l0.12012-1.191c-1.2342-1.426-0.3447-6.0691-0.16593-8.6151 0.12248-1.0351 1.0298-2.1374 1.7194-3.8663l-0.41941-0.07227c0.8037-1.401 4.5876-5.6284 6.341-5.4116 0.84904-1.0664-0.16967-4e-3 -0.33593-0.2718 1.8654-1.93 2.4518-1.3636 3.7105-1.7112 1.3567-0.80526-1.1644 0.31437-0.5212-0.30743 2.347-0.59886 1.6624-1.3626 4.7234-1.6664 0.32315 0.18346-0.74904 0.28403-1.018 0.52222 1.9545-0.95693 6.1859-0.73877 8.9358 0.53036 3.1882 1.4912 6.7723 5.8972 6.9141 10.042l0.16186 0.04276c-0.08132 1.648 0.25229 3.5545-0.32677 5.3047l0.3909-0.82965c0.0469 1.2592-0.36736 1.8711-0.74211 2.9532l-0.6739 0.33492c-0.55091 1.0706 0.05455 0.67991-0.34 1.531-0.86103 0.76461-2.6092 2.3918-3.169 2.5409-0.40915-0.0088 0.27682-0.48277 0.36647-0.66779-1.1513 0.79014-0.92427 1.1864-2.6854 1.6674l-0.0509-0.11503c-4.3416 2.0431-10.373-2.0053-10.294-7.5279-0.04587 0.35025-0.13212 0.26341-0.22803 0.40414-0.22412-2.8411 1.3125-5.6952 3.9039-6.8622 2.5346-1.254 5.506-0.73955 7.3203 0.95384-0.99654-1.3061-2.981-2.6915-5.3322-2.5633-2.3042 0.03752-4.4612 1.5014-5.1805 3.0916-1.18 0.74272-1.3174 2.8646-1.8313 3.2535-0.69268 5.087 1.3018 7.2836 4.6756 9.8693 0.52954 0.35754 0.149 0.41303 0.21988 0.6851-1.1206-0.52433-2.1465-1.3174-2.9908-2.2874 0.44824 0.65515 0.93156 1.2923 1.5565 1.7927-1.0575-0.35702-2.4696-2.5601-2.8809-2.6498 1.8216 3.2617 7.3898 5.7196 10.307 4.4995-1.3499 0.05003-3.0642 0.02789-4.5799-0.5324-0.63848-0.32784-1.5036-1.0064-1.3488-1.133 3.9799 1.486 8.0906 1.1249 11.534-1.6349 0.87667-0.68278 1.8335-1.8432 2.1103-1.8588-0.41644 0.62649 0.07163 0.30108-0.24839 0.85408 0.87145-1.4078-0.37972-0.57336 0.90193-2.4309l0.47234 0.6515c-0.17721-1.1696 1.4525-2.5882 1.2867-4.4363 0.3737-0.56499 0.41546 0.60882 0.01934 1.9087 0.54987-1.4422 0.14634-1.6742 0.28707-2.8646 0.15167 0.40028 0.35338 0.82534 0.45605 1.248-0.35859-1.3942 0.36632-2.3473 0.54665-3.1578-0.17825-0.07818-0.55379 0.61577-0.64031-1.0302 0.01303-0.71509 0.2004-0.37456 0.2718-0.55072-0.13968-0.08079-0.50833-0.62839-0.73192-1.6797 0.16105-0.24757 0.43357 0.63997 0.65456 0.67594-0.14229-0.83549-0.38659-1.4727-0.39701-2.1143-0.64629-1.3499-0.22899 0.18069-0.75228-0.57923-0.68799-2.1442 0.5701-0.49838 0.65558-1.472 1.0414 1.5089 1.6351 3.8492 1.9087 4.8181-0.20848-1.1816-0.54465-2.3261-0.95588-3.4336 0.31741 0.13395-0.51025-2.431 0.41228-0.73294-0.98456-3.6198-4.2105-7.0021-7.1788-8.5887 0.36224 0.33201 0.82025 0.74871 0.6566 0.81438-1.4771-0.87823-1.2176-0.94718-1.4292-1.3183-1.2014-0.48941-1.2808 0.04011-2.0757 9.94e-4 -2.2672-1.2029-2.7042-1.0757-4.7906-1.8283l0.09467 0.44384c-1.5016-0.50036-1.75 0.18967-3.3726 2e-3 -0.09839-0.07652 0.51879-0.27952 1.0282-0.35324-1.4497 0.191-1.3835-0.28619-2.8035 0.05295 0.34973-0.24549 0.72114-0.40943 1.0943-0.61791zm1.1717 0.27282c0.41592 0.07401 0.89897 0.13153 0.82965 0.23108 0.45657-0.10059 0.55884-0.19147-0.82965-0.23108zm0.82965 0.23108-0.29012 0.06107 0.27078-0.02545zm-19.162 9.2259c0.12144 1.1227-0.84427 1.5596 0.21378 0.81845 0.56811-1.279-0.22107-0.35354-0.21378-0.81845zm-0.86324 3.567c-0.67392 0.86207-0.31086 1.0455-0.38174 1.6318 0.24444-0.74897 0.28845-1.1977 0.38174-1.6318zm27.755 5.207c-0.09635 0.0024-0.2197 0.24696-0.28198 0.51408 0.14489 0.07611 0.25986 0.98948 0.40006 0.4245 0.04743-0.70128-0.02172-0.94105-0.11808-0.93858zm8.5164 2.3627-0.11401 0.28809c-0.20952 1.4896-0.66374 2.9634-1.358 4.3305 0.76721-1.4422 1.262-3.02 1.472-4.6186zm-9.0203 0.52528c-0.10476 0.51599-0.38368 0.96214-0.64845 1.4333-1.4557 0.9168-0.13757-0.54431-9.94e-4 -1.1004-1.5647 1.9717-0.21548 1.1817-0.27282 1.7326 0.46544-0.64056 0.80293-1.341 0.92229-2.0655zm-3.1751 3.0081c-0.63222 0.1548-1.2766 0.15866-1.926 0.09976-0.77868 0.01037 0.14668 0.39995 1.1635 0.55683 0.28197-0.21995 0.53522-0.44082 0.76246-0.65659zm-9.8286 0.10179c0.172 0.63118 0.52423 1.174 0.85103 1.7265l-0.24024-0.70749c-0.27103-0.30021-0.43045-0.66041-0.61079-1.019zm-0.59857 1.0668-0.10994 0.54564c0.51234 0.69581 0.91869 1.4491 1.5718 1.9912-0.47013-0.9168-0.81866-1.2953-1.4618-2.5368z" fill="#a80030"/>
<path id="path848" d="m129.43 19.686c-3.2115 1.4836-5.1905 1.7306-7.3141 1.929 1.9273 0.78928 1.927 4.0538 1.927 14.68v12.157c0 3.6584-6.9e-4 5.7313-0.59371 7.312 2.0265 0.79141 4.5456 1.2353 7.562 1.2353 1.9273 0 7.5122-1.1e-5 10.526-6.1766 1.4335-2.867 1.927-6.7228 1.927-9.6389 0-1.7791-0.19871-5.6812-1.6311-8.1536-1.3823-2.3209-3.6077-3.5081-5.9787-3.5081-4.7453 0-6.128 3.9522-6.8683 5.9787 0-2.5204 0.0491-11.318 0.44372-15.816zm-27.661 0.09999c-1.778 0.84154-3.3116 1.3857-6.6724 1.6811 1.3343 1.4335 1.3332 2.173 1.3332 8.6952-0.93753-0.29544-2.1232-0.64162-4.1497-0.64162-8.8463 0.001067-10.281 7.7119-10.281 13.447 0 13.936 7.4146 13.936 8.5015 13.936 3.0643 0 5.0414-1.6805 5.8808-4.5955l0.09791 4.3955c0.93967-0.05013 1.8785-0.1479 3.4102-0.1479 0.54397 0 0.98855-1.28e-4 1.3853 0.05002 0.39571 0 0.79056 0.04778 1.2353 0.09791-0.79034-1.5807-1.3832-5.1386-1.3832-12.851 0-7.512-4.7e-4 -20.211 0.64162-24.067zm82.442 9.391c-1.2372 0.63995-2.5206 1.2828-6.5245 1.4811 0.54183 0.49383 1.0379 0.93908 1.2832 2.8685 0.44796 3.1614 0.25024 16.505 0.14998 19.224-0.0981 2.7667-0.29604 3.1625-0.64162 3.9539 0.9866-0.14824 1.7773-0.19582 2.9644-0.19582 1.4826 0 2.5208 0.0977 3.3602 0.19582-0.49383-1.7311-0.49364-2.3203-0.54164-8.6473 0-7.3136-2e-3 -9.1932 0.39165-10.922 0.34664-1.6809 1.287-3.756 4.1039-3.756 2.8691 0 3.1142 2.2729 3.2123 3.1123 0.15039 1.185 0.14999 4.5473 0.14999 6.8703v5.3371c0 1.3354-0.0996 5.1418-0.2479 6.2766-0.0981 0.84154-0.19955 1.089-0.3958 1.7311 0.93966-0.14719 1.5814-0.2479 2.7686-0.2479 2.0244 0 2.667 0.14977 3.756 0.2479-0.69115-1.4335-0.69148-3.2125-0.74161-4.8934v-14.88c-0.0501-2.9641-0.0979-7.462-6.2766-7.462-4.9436 0-6.1784 3.4096-6.7704 4.9434zm-31.741 0.04791c-1.8772 0.88954-3.0142 1.1854-7.0662 1.5811 0.69222 0.49383 1.1358 0.78923 1.3832 2.6686 0.34557 2.4713 0.29629 14.234 0.0979 18.634-0.14826 3.2104-0.34569 3.6558-0.83952 4.5955 1.1348-0.14719 2.2253-0.24581 3.8039-0.24581 1.4335 0 2.1266 0.09759 3.1164 0.24581-1.089-2.0265-1.0387-3.8531-0.9416-20.907 0-3.3096 0.0522-4.3998 0.4458-6.5724zm-38.774 0.2479c-10.081 0-10.081 11.171-10.081 13.541 0 10.032 4.4954 13.986 12.057 13.986 3.3587 0 4.9934-0.49203 5.8829-0.74161-0.0491-1.7791 0.19716-2.916 0.4958-4.4476-1.0399 0.64422-2.3741 1.4853-5.3392 1.4853-7.7104 0-7.8098-7.0219-7.8098-9.4431h13.149l0.0958-2.9123c0-5.7831-1.1368-11.468-8.4515-11.468zm51.536 0.04791c-4.8914 0-7.7554 1.4836-9.1889 2.2248 0.59409 1.0879 1.0874 2.0239 1.5311 4.1518 1.9295-1.6809 4.4499-2.5706 7.0182-2.5706 4.1042 0 4.1039 2.7189 4.1039 6.5724-0.93967-0.048-1.7311-0.14582-3.0664-0.14582-6.279 0.0011-10.43 2.4206-10.43 9.0452 0 3.1144 0.9392 6.2266 3.7081 7.562 1.2351 0.54396 2.4718 0.54372 2.8685 0.5437 4.5479 0 6.0786-3.3615 7.0182-5.4371-0.0501 2.1748-3.5e-4 3.5061 0.14791 5.2371 0.88953-0.05013 1.7786-0.1479 3.2623-0.1479 0.83941 0 1.6312 0.09781 2.4707 0.1479-0.54396-0.83941-0.83913-1.3349-0.98951-3.2623-0.0981-1.8772-0.1-3.755-0.1-6.3745l0.0521-10.083c0-3.7576-0.99178-7.464-8.4056-7.464zm-52.03 3.1644c3.8557 0 4.1499 4.2497 4.0518 7.7599h-8.4494c0.0501-4.1021 0.88958-7.7599 4.3976-7.7599zm-20.28 0.34581c1.6809 0 2.621 0.49595 3.3623 0.88952l0.04791 3.2144c-0.048 0.05013-0.04871 8.006-0.14791 10.083-0.09813 1.6788-0.24783 5.2871-3.806 5.2871-3.6573 0-4.5469-4.2017-4.8434-6.0287-0.34558-2.0265-0.34581-3.7085-0.34581-4.4476 0-2.3732 0.14826-8.9973 5.7329-8.9973zm40.805 0.9916c3.7565 0 4.4976 5.1895 4.4976 9.0431 0 4.5959-0.83952 10.774-6.5724 10.774-0.79141 0-1.7786-0.15071-2.4207-0.2979-0.0992-1.7791-0.1-4.8433-0.1-8.4015 0-4.2514 0.4439-6.4719 0.79161-7.562 1.0367-3.508 3.3602-3.556 3.8039-3.556zm32.444 8.6952h2.6206c-0.0981 3.1144-0.14798 5.2893-0.98952 7.0182-1.0378 2.2249-2.7666 2.8665-4.0518 2.8665-2.9683 0-3.6081-2.4702-3.6081-4.8913 0-4.645 4.1526-4.9934 6.0287-4.9934z"/>
<path id="path860" d="m153.38 22.231-4.0936 4.0914-4.0914-4.0914 4.0914-4.0914 4.0936 4.0914" fill="#A80030"/>
</svg>
