<svg xmlns="http://www.w3.org/2000/svg" viewBox="0 0 240 80"><g stroke-width="3.983"><g fill="#3c6eb4"><path d="M151.647 55.203v1.16c0 .077-.047.124-.14.14h-.01c-.08 0-.129-.05-.147-.148v-1.838c.011-.106.056-.16.135-.16h.022c.08 0 .132.057.16.17l.66 1.476c.008-.034.152-.37.433-1.011l.27-.582a.145.145 0 0 1 .107-.052h.022c.078 0 .123.053.135.16v1.837c-.018.099-.067.148-.147.148h-.01c-.094-.016-.14-.063-.14-.141v-1.16a57.054 57.054 0 0 1-.56 1.25c-.04.034-.078.05-.115.05-.085 0-.154-.084-.209-.255l-.466-1.044m-1.956-.851h1.345c.091.017.137.064.137.14v.022c0 .08-.053.124-.16.136h-.5v1.712c0 .078-.048.125-.144.14h-.007c-.08 0-.128-.048-.147-.147V54.65h-.511c-.1-.02-.149-.071-.149-.156.022-.095.067-.142.136-.142M41.415 47.091h-16.94c.275 3.672 3.235 6.414 7.182 6.414 2.796 0 5.208-1.152 7.126-3.015.384-.385.823-.494 1.316-.494.658 0 1.316.33 1.754.877.275.384.44.823.44 1.26 0 .604-.275 1.261-.769 1.755C39.222 56.355 35.33 58 31.492 58a12.516 12.516 0 0 1-12.554-12.554c0-6.962 5.428-12.553 12.39-12.553 6.907 0 12.06 5.372 12.06 12.443 0 1.042-.931 1.755-1.973 1.755zm-10.087-9.703c-3.673 0-6.195 2.412-6.743 5.919H38.07c-.493-3.343-3.124-5.92-6.743-5.92zM89.819 58a12.516 12.516 0 0 1-12.553-12.554 12.516 12.516 0 0 1 12.553-12.553 12.516 12.516 0 0 1 12.554 12.553C102.373 52.41 96.782 58 89.819 58zm0-20.338c-4.385 0-7.236 3.509-7.236 7.784 0 4.276 2.85 7.784 7.236 7.784 4.386 0 7.237-3.508 7.237-7.784 0-4.275-2.851-7.784-7.237-7.784zM120.5 32.893c-3.678 0-6.111 1.088-8.26 3.819l-.197-1.27a2.689 2.689 0 0 0-5.358.34v19.313a2.69 2.69 0 0 0 2.686 2.686 2.69 2.69 0 0 0 2.686-2.686v-10.36c0-4.715 4.112-7.073 8.443-7.073 1.315 0 2.356-1.096 2.356-2.412a2.339 2.339 0 0 0-2.356-2.357zM148.84 45.447c.056-6.743-4.77-12.554-12.554-12.554-6.962 0-12.608 5.592-12.608 12.554 0 6.962 5.482 12.553 12.115 12.553 3.311 0 6.29-1.704 7.62-3.484l.654 1.661a2.466 2.466 0 0 0 4.773-.864v-6.44zm-12.554 7.784c-4.385 0-7.236-3.509-7.236-7.784 0-4.276 2.85-7.785 7.236-7.785 4.386 0 7.237 3.51 7.237 7.785s-2.851 7.784-7.237 7.784zM72.955 22.97c0-1.479-1.206-2.63-2.686-2.63s-2.687 1.151-2.687 2.63v14.145c-1.37-2.522-4.33-4.221-7.839-4.221-7.126 0-11.895 5.372-11.895 12.553 0 7.182 4.933 12.554 11.895 12.554 3.106 0 5.798-1.282 7.41-3.51l.597 1.513a2.68 2.68 0 0 0 5.205-.897V22.97zM60.4 53.233c-4.385 0-7.181-3.508-7.181-7.784 0-4.275 2.795-7.784 7.18-7.784 4.387 0 7.182 3.344 7.182 7.784 0 4.44-2.795 7.784-7.181 7.784zM17.036 20.5c-.49-.072-.99-.109-1.485-.109-5.552 0-10.068 4.517-10.068 10.069v3.145h-3.29A2.2 2.2 0 0 0 0 35.797c0 1.207.987 2.423 2.193 2.423h3.29v16.874a2.69 2.69 0 0 0 2.685 2.686 2.69 2.69 0 0 0 2.687-2.686V38.22h3.637c1.206 0 2.192-1.216 2.192-2.423a2.2 2.2 0 0 0-2.192-2.192h-3.635V30.46c0-2.589 2.105-5.043 4.694-5.043.233 0 .468.017.698.051 1.469.217 2.834-.447 3.052-1.916a2.688 2.688 0 0 0-2.265-3.051z"/></g><path fill="#3c6eb4" d="M175.584 31.339v1.159c0 .077-.046.124-.14.14h-.01c-.08 0-.129-.049-.147-.147v-1.838c.011-.106.056-.16.135-.16h.022c.08 0 .132.057.16.17l.66 1.475c.008-.033.152-.37.433-1.01l.27-.583a.145.145 0 0 1 .107-.051h.022c.078 0 .123.053.135.16v1.837c-.018.098-.067.148-.147.148h-.01c-.094-.017-.14-.064-.14-.141v-1.16a57.054 57.054 0 0 1-.56 1.249c-.04.034-.078.052-.115.052-.085 0-.154-.086-.209-.256l-.466-1.044m-1.956-.851h1.345c.091.017.137.064.137.14v.022c0 .079-.053.124-.16.135h-.5v1.713c0 .077-.048.124-.144.14h-.007c-.08 0-.128-.049-.147-.147v-1.706h-.511c-.1-.019-.149-.07-.149-.155.022-.095.067-.142.136-.142"/><path fill="#294172" d="M177.704 19.04c0-8.307-6.734-15.041-15.04-15.041-8.303 0-15.034 6.728-15.04 15.03v-.001 11.639a3.419 3.419 0 0 0 3.42 3.41h11.626c8.303-.002 15.034-6.734 15.034-15.038z"/><path fill="#3c6eb4" d="M167.078 7.565a7.059 7.059 0 0 0-7.059 7.059v3.741h-3.725c-3.9 0-7.06 3.145-7.06 7.043a7.059 7.059 0 1 0 14.119 0V21.651h3.725c3.899 0 7.06-3.128 7.06-7.027a7.059 7.059 0 0 0-7.06-7.059zm-7.058 17.85a3.726 3.726 0 0 1-3.726 3.72c-2.058 0-3.74-1.67-3.74-3.727 0-2.058 1.682-3.757 3.74-3.757h3.2c.29 0 .526.235.526.526v3.237zm7.058-7.05H163.878a.526.526 0 0 1-.526-.526v-3.221a3.726 3.726 0 0 1 3.726-3.72c2.058 0 3.741 1.668 3.741 3.726a3.752 3.752 0 0 1-3.741 3.74z"/><path fill="#fff" d="M160.02 18.364v-3.742a7.059 7.059 0 0 1 7.06-7.058 5.6 5.6 0 0 1 1.56.21c.797.209 1.45.863 1.45 1.624 0 .92-.668 1.59-1.667 1.59-.475 0-.647-.092-1.344-.092a3.726 3.726 0 0 0-3.725 3.72v3.221c0 .29.235.527.526.527h2.448c.912 0 1.648.729 1.648 1.643a1.64 1.64 0 0 1-1.648 1.643h-2.974V25.407a7.059 7.059 0 0 1-7.059 7.058 5.615 5.615 0 0 1-1.56-.21c-.797-.208-1.45-.863-1.45-1.624 0-.92.668-1.59 1.666-1.59.476 0 .648.092 1.344.092a3.726 3.726 0 0 0 3.726-3.72v-3.237a.526.526 0 0 0-.526-.526h-2.448a1.64 1.64 0 0 1-1.649-1.642c0-.92.745-1.644 1.666-1.644h2.957z"/></g></svg>