<svg version="1.1" viewBox="0 0 240 80" xmlns="http://www.w3.org/2000/svg">
<g transform="matrix(.25107 0 0 .25107 5.893 -21.107)" stroke-width="3.983">
<g fill="#3c6eb4">
<path id="path4724" d="m704 303.94v4.6156c0 0.30924-0.18707 0.49631-0.5612 0.56121h-0.0401c-0.31687 0-0.51158-0.19661-0.58411-0.58984v-7.3186c0.0458-0.42376 0.22524-0.63564 0.5383-0.63565h0.0859c0.31687 1e-5 0.52875 0.22525 0.63565 0.67574l2.6285 5.8755c0.0344-0.13362 0.61083-1.4756 1.7294-4.0258l1.0766-2.3193c0.12979-0.13743 0.27105-0.20615 0.42377-0.20616h0.0859c0.31304 1e-5 0.49248 0.21189 0.5383 0.63565v7.3186c-0.0725 0.39323-0.26725 0.58984-0.58412 0.58984h-0.0401c-0.37415-0.0649-0.56122-0.25197-0.56121-0.56121v-4.6214c-1.4202 3.2145-2.1628 4.8733-2.2276 4.9764-0.15653 0.13744-0.30924 0.20616-0.45813 0.20616-0.33596 0-0.61275-0.33978-0.83036-1.0193l-1.8554-4.1575m-7.7939-3.3902h5.3601c0.36268 0.0687 0.54402 0.2558 0.54402 0.56121v0.0859c0 0.31306-0.21189 0.49249-0.63565 0.5383h-1.9929v6.8204c0 0.30924-0.19089 0.49631-0.57266 0.56121h-0.0286c-0.31688 0-0.51158-0.19661-0.58411-0.58984v-6.7918h-2.0387c-0.39323-0.0763-0.58985-0.28251-0.58985-0.61847 0.084-0.37795 0.26343-0.56693 0.53831-0.56694"/>
<path id="path17" d="m264.95 271.63h-67.469c1.0919 14.626 12.882 25.545 28.602 25.545 11.135 0 20.744-4.5855 28.385-12.007 1.5295-1.5342 3.2758-1.9699 5.2399-1.9699 2.6204 0 5.2418 1.3126 6.9871 3.4964 1.0929 1.5285 1.7482 3.2758 1.7482 5.0202 0 2.4026-1.0929 5.0211-3.0589 6.9881-9.171 9.8234-24.673 16.375-39.959 16.375-27.729 0-49.999-22.27-49.999-50.001 0-27.728 21.616-49.999 49.345-49.999 27.512 0 48.036 21.397 48.036 49.562 2e-3 4.1508-3.7095 6.991-7.8574 6.991zm-40.178-38.648c-14.629 0-24.672 9.6066-26.855 23.576h53.711c-1.9651-13.314-12.446-23.576-26.857-23.576z" stroke-width="3.983"/>
<path id="path19" d="m457.74 315.08c-27.729 0-49.998-22.27-49.998-50.001 0-27.728 22.269-49.999 49.998-49.999 27.732 0 50.001 22.271 50.001 49.999 9.5e-4 27.731-22.268 50.001-50.001 50.001zm0-81.007c-17.466 0-28.822 13.976-28.822 31.005s11.356 31.004 28.822 31.004c17.468 0 28.825-13.975 28.825-31.004s-11.357-31.005-28.825-31.005z" stroke-width="3.983"/>
<path id="path21" d="m579.94 215.08c-14.65 0-24.34 4.3331-32.895 15.209l-0.78967-5.0585c-0.66398-5.2811-5.1689-9.359-10.623-9.359-5.9173 0-10.716 4.7918-10.716 10.712v0.024 76.901c0 5.8952 4.8023 10.699 10.699 10.699 5.8952 0 10.699-4.8052 10.699-10.699v-41.266c0-18.777 16.375-28.167 33.625-28.167 5.2408 0 9.3869-4.3667 9.3869-9.6076 0-5.2408-4.146-9.3878-9.3869-9.3878z" stroke-width="3.983"/>
<path id="path23" d="m692.82 265.08c0.21972-26.855-18.997-49.999-50.002-49.999-27.73 0-50.22 22.271-50.22 49.999 0 27.731 21.835 50.001 48.256 50.001 13.186 0 25.053-6.7876 30.347-13.878l2.607 6.6168c1.399 3.7171 4.9846 6.3635 9.1902 6.3635 5.4203 0 9.8148-4.3907 9.8215-9.8071v-25.646zm-50.002 31.005c-17.469 0-28.822-13.975-28.822-31.004s11.353-31.005 28.822-31.005c17.467 0 28.822 13.976 28.822 31.005s-11.355 31.004-28.822 31.004z" stroke-width="3.983"/>
<path id="path25" d="m390.57 175.56c0-5.8933-4.8023-10.48-10.697-10.48-5.8952 0-10.701 4.5864-10.701 10.48v56.335c-5.4567-10.043-17.247-16.812-31.222-16.812-28.384 0-47.38 21.397-47.38 49.999 0 28.605 19.651 50.001 47.38 50.001 12.369 0 23.093-5.1046 29.516-13.978l2.3757 6.0248c1.4719 4.1374 5.4174 7.0965 10.054 7.0965 5.8684 0 10.676-4.7774 10.676-10.67v-0.0461-127.95h-9.6e-4zm-50.001 120.53c-17.466 0-28.602-13.975-28.602-31.004s11.135-31.005 28.602-31.005c17.469 0 28.603 13.319 28.603 31.005 0 17.682-11.134 31.004-28.603 31.004z" stroke-width="3.983"/>
<path id="path27" d="m167.85 165.72c-1.9516-0.28881-3.9407-0.43466-5.9163-0.43466-22.111 0-40.101 17.991-40.101 40.103v12.526h-13.102c-4.8033 0-8.7354 3.9311-8.7354 8.7325 0 4.8062 3.9321 9.6498 8.7354 9.6498h13.101v67.209c0 5.8952 4.8043 10.699 10.698 10.699 5.8971 0 10.7-4.8052 10.7-10.699v-67.209h14.486c4.8023 0 8.7325-4.8436 8.7325-9.6498 0-4.8014-3.9292-8.7325-8.7325-8.7325h-14.479v-12.526c0-10.31 8.3871-20.086 18.697-20.086 0.9288 0 1.8643 0.0691 2.7816 0.20438 5.8482 0.86548 11.288-1.7828 12.155-7.6319 0.86356-5.8463-3.1731-11.287-9.0203-12.154z" stroke-width="3.983"/>
</g>
<path id="path5239" d="m799.34 208.89v4.6156c0 0.30924-0.18707 0.49631-0.5612 0.56121h-0.0401c-0.31687 0-0.51158-0.19661-0.58411-0.58984v-7.3186c0.0458-0.42376 0.22524-0.63564 0.5383-0.63565h0.0859c0.31687 1e-5 0.52875 0.22525 0.63565 0.67574l2.6285 5.8755c0.0344-0.13362 0.61083-1.4756 1.7294-4.0258l1.0766-2.3193c0.12979-0.13743 0.27105-0.20615 0.42377-0.20616h0.0859c0.31304 1e-5 0.49248 0.21189 0.5383 0.63565v7.3186c-0.0725 0.39323-0.26725 0.58984-0.58412 0.58984h-0.0401c-0.37415-0.0649-0.56122-0.25197-0.56121-0.56121v-4.6214c-1.4202 3.2145-2.1628 4.8733-2.2276 4.9764-0.15653 0.13744-0.30924 0.20616-0.45813 0.20616-0.33596 0-0.61275-0.33978-0.83036-1.0193l-1.8554-4.1575m-7.7939-3.3902h5.3601c0.36268 0.0687 0.54402 0.2558 0.54402 0.56121v0.0859c0 0.31306-0.21189 0.49249-0.63565 0.5383h-1.9929v6.8204c0 0.30924-0.19089 0.49631-0.57266 0.56121h-0.0286c-0.31688 0-0.51158-0.19661-0.58411-0.58984v-6.7918h-2.0387c-0.39323-0.0763-0.58985-0.28251-0.58985-0.61847 0.084-0.37795 0.26343-0.56693 0.53831-0.56694" fill="#3c6eb4"/>
<path id="path35" d="m807.78 159.9c0-33.084-26.819-59.904-59.903-59.904-33.069 0-59.877 26.798-59.901 59.862l-2e-3 -2e-3v46.356l2e-3 2e-3c0.0182 7.5072 6.1063 13.585 13.618 13.585 0.0211 0 0.0422-2e-3 0.0643-2e-3l4e-3 2e-3h46.238c33.074-0.0134 59.88-26.824 59.88-59.898z" fill="#294172" stroke-width="3.983"/>
<path id="path39" d="m765.46 114.2c-15.528 0-28.115 12.587-28.115 28.115v0.0202 14.881h-14.834-5e-3c-15.529 0-28.115 12.525-28.115 28.051 0 15.528 12.586 28.116 28.115 28.116 15.527 0 28.115-12.589 28.115-28.116v-0.0182-14.944h14.833 6e-3c15.527 0 28.115-12.462 28.115-27.99 0-15.528-12.588-28.115-28.115-28.115zm-28.114 71.092c-0.0134 8.1836-6.6532 14.816-14.839 14.816-8.1952 0-14.9-6.6446-14.9-14.84 0-8.1961 6.705-14.964 14.9-14.964 8e-3 0 0.0144 2e-3 0.0201 2e-3h12.714c4e-3 0 7e-3 -2e-3 0.01-2e-3 1.1572 0 2.0965 0.93649 2.0965 2.0936 0 9.6e-4 -9.6e-4 3e-3 -9.6e-4 5e-3v12.89h-9.6e-4zm28.113-28.077h-0.0144-12.723-6e-3c-1.1591 0-2.0956-0.9384-2.0956-2.0956v-12.83c0.0144-8.1865 6.6523-14.816 14.838-14.816 8.1961 0 14.902 6.6436 14.902 14.841 2e-3 8.1952-6.705 14.9-14.901 14.9z" fill="#3c6eb4" stroke-width="3.983"/>
<path id="path41" d="m737.35 157.21v-14.881-0.0202c0-15.528 12.587-28.115 28.115-28.115 2.3566 0 4.0299 0.26387 6.2119 0.83573 3.1788 0.83286 5.7762 3.4379 5.7772 6.4709 9.6e-4 3.6653-2.6598 6.3299-6.636 6.3299-1.895 0-2.5792-0.3627-5.3541-0.3627-8.1856 0-14.823 6.6292-14.838 14.816v12.83c0 1.1572 0.93648 2.0956 2.0956 2.0956h6e-3 9.7438c3.6317 0 6.563 2.9054 6.5659 6.5458 0 3.6432-2.9351 6.5429-6.5659 6.5429h-11.845v14.944 0.0202c0 15.526-12.588 28.114-28.115 28.114-2.3556 0-4.0299-0.26578-6.2109-0.83573-3.1788-0.8319-5.7772-3.4389-5.7782-6.4709 0-3.6653 2.6598-6.3308 6.6369-6.3308 1.8931 0 2.5792 0.36366 5.3521 0.36366 8.1856 0 14.825-6.6302 14.84-14.816v-12.894c0-1.1552-0.93936-2.0917-2.0965-2.0917h-6e-3l-9.7428-2e-3c-3.6317 0-6.5669-2.8977-6.5669-6.539-2e-3 -3.6644 2.9649-6.5496 6.636-6.5496h11.775z" fill="#fff" stroke-width="3.983"/>
</g>
</svg>
