<svg xmlns="http://www.w3.org/2000/svg" viewBox="0 0 135.48 38.1"><path fill="#51a2da" d="M19.43 0C8.7 0 .03 8.52 0 19.04v14.74a4.37 4.37 0 0 0 4.41 4.32h15.02c10.72 0 19.4-8.52 19.4-19.04S30.14.02 19.41.02Z"/><path fill="#294172" d="M53.4 7.69c-4.1 0-6.74 3.06-6.77 5.92v16.6c0 2.04 3.17 2.04 3.17 0V19.13h3.25c.77 0 1.42-.54 1.42-1.41s-.7-1.4-1.42-1.4H49.8v-2.54c0-1.64 1.3-3 3.93-2.97.9.01 1.23.23 1.56.43 1.82 1.18 3.57-1.55 1.67-2.6a6.5 6.5 0 0 0-3.57-.95m34.7.3c-.98-.06-1.71.9-1.56 1.82v7.07c-3.13-2.58-8.23-2.4-11.12.45a8.1 8.1 0 0 0-1.36 10.38c1.57 2.41 4.42 4.13 7.37 4a8.4 8.4 0 0 0 5.11-1.96c-.14.91.58 1.88 1.57 1.82.98.04 1.74-.9 1.6-1.82-.03-6.8 0-13.6-.03-20.39-.05-.76-.79-1.4-1.57-1.37zm12.24 6.92c-4.78 0-8.65 3.76-8.65 8.41s3.87 8.42 8.65 8.42a8.54 8.54 0 0 0 8.66-8.42 8.54 8.54 0 0 0-8.66-8.41m28.26.07c-2.16 0-3.71.63-4.85 1.43-1.72 1.2.13 3.73 1.85 2.52.79-.55 1.37-.84 3-.84 2.04.04 3.67.79 3.67 2.28-1.09.68-5.83 1.24-8.38 2.66-2.54 1.42-2.4 3.21-2.4 4.37 0 2.56 2.74 4.28 5.11 4.28s3.39-.5 5.71-2.05v.44c-.07 2.14 3.25 2.14 3.17 0v-9.16c.01-3.8-2.77-5.87-6.87-5.93zm-15.75.03c-1.38 0-1.6 1.12-1.6 1.56V30.1c-.04.87.7 1.6 1.62 1.6s1.66-.73 1.62-1.6c0 0 .03-5.03 0-8.25a3.66 3.66 0 0 1 3.58-3.91c.69 0 1.24.38 1.79.36.8-.03 1.47-.57 1.47-1.5-.02-1.51-1.91-1.73-3.3-1.7-1.4.03-2.58.45-3.6 1.05 0 0-.2-1.13-1.58-1.13m-48.67.04a8 8 0 0 0-3.5.57 8 8 0 0 0-5.2 7.62c-.01 3.73 2.65 8.54 8.17 8.57 3.71.03 5.57-1.33 6.57-2.26a1.53 1.53 0 0 0 .1-2.21 1.6 1.6 0 0 0-2.26-.04c-.75.7-1.85 1.72-4.97 1.38a5 5 0 0 1-3.26-2.03l10.23-4.27a1.53 1.53 0 0 0 .81-2c-1.37-2.65-3.53-5.1-6.69-5.33m36.17 3a5.34 5.34 0 0 1 5.41 5.27c0 2.91-2.42 5.27-5.41 5.27s-5.42-2.36-5.41-5.27 2.42-5.26 5.4-5.26m-19.1.08a5.3 5.3 0 0 1 5.31 5.17 5.3 5.3 0 0 1-5.3 5.18 5.27 5.27 0 0 1-5.29-4.78 5.24 5.24 0 0 1 4.74-5.55zm-17.85.08c1.54 0 3 .78 3.73 2.04l-8.52 3.56c-.6-2.22 1.89-4.84 3.25-5.33a5 5 0 0 1 1.54-.27m69 5.21c0 1.01.02 1.3-.01 2.3 0 1.22-.78 1.78-1.6 2.24a10 10 0 0 1-3.4.9c-1.1.05-2.57-.2-2.64-1.48 0-.77.38-1.25 1-1.79 1.49-1.09 3.5-1.45 6.65-2.17"/><path fill="#fff" d="M23.37 7.84A6.1 6.1 0 0 0 17.3 13l-.04.64v12a3.8 3.8 0 0 1-3.94 3.87 3.9 3.9 0 0 1-3.97-3.87c.04-2.36 1.96-3.86 4.2-3.93h.02l2.28-.02v-3.16l-2.28.01a7.3 7.3 0 0 0-7.45 7.1 7.15 7.15 0 0 0 7.2 7.04 7.2 7.2 0 0 0 7.16-6.42c.04-1.22.02-2.82.02-2.82V21.7l2.83-.02c2.18.02 2.16-3.21-.03-3.17l-2.8.02q.02-2.43 0-4.87c0-1.41 1.36-2.66 2.87-2.66s3.1.74 3.1 2.66l-.01.53a1.6 1.6 0 0 0 1.36 1.87c.91.13 1.75-.52 1.84-1.42q.06-.52.05-.98c0-3.38-3.08-5.83-6.34-5.83z"/></svg>