<svg height="57.610523mm" viewBox="0 0 200.92399 57.610523" width="200.924mm" xmlns="http://www.w3.org/2000/svg"><g fill="#51a2da" stroke-width=".923861" transform="matrix(1.1694334 0 0 1.1694334 367.52462 7.172251)"><path d="m-289.64163-6.1330993c-13.59905 0-24.62032 11.0174513-24.62917 24.6134503h-.005v19.06505h.005c.007 3.086633 2.50744 5.585119 5.59563 5.585119h.0263.005 19.01254c13.60061-.0087 24.6187-11.029727 24.6187-24.629173 0-13.6052151-11.02396-24.6344463-24.62919-24.6344463zm4.99198 10.1361923c4.13635 0 8.04175 3.1694212 8.04175 7.537847 0 .405143-.002.810788-.0683 1.270274-.11451 1.162279-1.17415 1.995812-2.33064 1.831968-1.15647-.165785-1.94093-1.260607-1.72697-2.409357.0196-.131138.0263-.339019.0263-.692885 0-2.4767964-2.02547-3.4329965-3.94215-3.4329965-1.91551 0-3.64361 1.6107477-3.64818 3.4329965.0331 2.107861 0 4.200632 0 6.304265l3.5537-.02685c2.77554-.05751 2.80667 4.126089.0315 4.104851l-3.5852.02685c-.009 1.695407.0139 1.387536.005 2.241424 0 0 .0305 2.070874-.0315 3.642939-.42905 4.617052-4.3588 8.309432-9.08109 8.309432-5.00525 0-9.13359-4.094994-9.13359-9.112563.15037-5.161786 4.27044-9.218529 9.4538-9.170336l2.88705-.02148v4.099602l-2.88705.02685h-.021c-2.8488.08419-5.28654 2.014661-5.33319 5.065451 0 2.779783 2.24647 5.007747 5.03398 5.007747 2.78288 0 5.00773-2.026874 5.00773-5.002481.0317-4.934728-.022-10.38585-.005-15.511361.002-.287984.0156-.516965.0473-.834607.46992-3.7948136 3.86435-6.6874934 7.7058-6.6874934z"/><g stroke-width=".293594" transform="matrix(1.0927383 0 0 1.0927383 -343.03209 -122.92202)"><path d="m96.729167 125.3578c-3.595373 1.38954-6.03555 4.80292-6.045574 9.01632-.0105 4.41352 3.082522 10.10943 9.487987 10.15149 4.30838.0283 6.46291-1.58283 7.62603-2.6768.77153-.68369.8255-1.87009.11854-2.61974-.70838-.75106-1.89761-.76906-2.6268-.0385-.86818.81562-2.14666 2.02425-5.772524 1.62173-1.555755-.17216-3.227339-1.43528-3.785318-2.40173l11.879842-5.05073c.9084-.40358 1.32573-1.45803.94121-2.37421-2.12076-4.1731-5.88103-7.92444-11.823393-5.62783zm7.456683 5.48995-9.885684 4.22249c-.705852-2.63428 2.187448-5.73353 3.76568-6.31024 2.366314-.86468 4.977204.10837 6.120004 2.08775z" fill-rule="evenodd"/><path d="m142.75841 124.51519a10.043481 9.9623653 0 0 0 -10.04462 9.9635 10.043481 9.9623653 0 0 0 10.04462 9.96093 10.043481 9.9623653 0 0 0 10.04204-9.96093 10.043481 9.9623653 0 0 0 -10.04204-9.9635zm0 3.73185a6.2822799 6.2315417 0 0 1 6.28239 6.23165 6.2822799 6.2315417 0 0 1 -6.28239 6.23165 6.2822799 6.2315417 0 0 1 -6.2824-6.23165 6.2822799 6.2315417 0 0 1 6.2824-6.23165z" stroke-linecap="round" stroke-linejoin="round" stroke-width="8.72408"/><path d="m157.27615 124.6433c-1.59548 0-1.86142 1.31669-1.85308 1.84776v15.98997c-.0436 1.03365.81202 1.89464 1.88299 1.89464 1.07096 0 1.92667-.86099 1.88297-1.89464 0 0 .0284-5.94671 0-9.75342s3.06985-4.63179 4.14789-4.63179c.80054 0 1.44015.44589 2.0745.42206.94151-.0354 1.71459-.6668 1.71459-1.77397-.0283-1.78855-2.22269-2.04245-3.84053-2.00941-1.61785.0331-2.9842.52982-4.16721 1.2363 0 0-.24663-1.3275-1.84212-1.3275z"/><path d="m60.088341 141.88715c-1.393394 0-2.398273.42786-3.13079.97048-1.110459.82303.08453 2.54386 1.19499 1.72083.505399-.37438.881229-.57413 1.9358-.57413 1.312636.0273 2.368475.53812 2.368475 1.55443-.703746.461-3.763534.84205-5.406566 1.8093-1.643032.96724-1.555977 2.18804-1.555977 2.98017 0 1.73757 1.769154 2.90976 3.301505 2.90976 1.532352 0 2.182891-.33275 3.682046-1.39626v.30438c-.04845 1.45961 2.09629 1.45961 2.047845 0v-6.23787c.0066-2.58701-1.787667-4.00169-4.437328-4.04109zm2.439505 5.75572c-.000512.68595.0092.8837-.009 1.56941-.004.8235-.503683 1.20524-1.026925 1.52032-.523236.31508-1.586095.59147-2.201906.62167-.710308.0243-1.65271-.1418-1.702203-1.01389.000512-.5264.246817-.85289.65127-1.21646.957742-.74385 2.255423-.99358 4.288768-1.48105z" transform="matrix(1.7992734 0 0 1.7380239 67.446745 -121.99926)"/><path d="m128.56291 116.32562c-1.15198-.0687-2.00005 1.07152-1.82333 2.15483v8.36367c-3.63641-3.04884-9.55863-2.83682-12.91558.5392-3.39481 3.02498-4.03972 8.51062-1.57068 12.28835 1.81366 2.85198 5.13136 4.88571 8.55043 4.72423 2.14993-.0196 4.2827-.9455 5.93583-2.31651-.16962 1.08236.66623 2.22553 1.82333 2.15604 1.13581.0506 2.01523-1.07045 1.84088-2.15482-.0197-8.04418.0197-16.08885-.0197-24.13274-.0591-.90718-.92676-1.65309-1.83241-1.62225zm-7.9771 12.01866c3.28298-.0857 6.21551 2.86987 6.15377 6.12271.069 3.25587-2.87355 6.20634-6.15377 6.12273-3.11889.0827-5.97784-2.55935-6.1372-5.65665-.33212-3.1928 2.28898-6.30485 5.49957-6.55826.21182-.0207.42464-.0306.63763-.0306z"/><path d="m-2.5312666 143.62929v11.47421c-.003 1.4145 2.12023294 1.4145 2.11718234 0v-7.65727h2.17764506c.5092674 0 .9446445-.37386.9446445-.9741s-.4664127-.9648-.9446445-.9648h-2.17764176v-1.76487c0-1.1293.8711995-2.06801 2.62476896-2.04625.6099425.008.8261384.1567 1.048907.29442 1.2161282.81695 2.3869012-1.07509 1.1131122-1.79886-.7812122-.48483-1.5111158-.65571-2.3819993-.65571-2.74449516 0-4.5059235 2.11423-4.5219745 4.09323z" transform="matrix(1.7361841 0 0 1.7118711 84.821887 -122.89238)"/></g></g></svg>