<?xml version="1.0" encoding="UTF-8"?>
<svg version="1.1" xmlns="http://www.w3.org/2000/svg" width="501" height="146">
<path d="M0 0 C2.46981539 1.9251129 4.82252792 3.9197964 7.1484375 6.015625 C7.78265625 6.56863281 8.416875 7.12164063 9.0703125 7.69140625 C22.33239145 19.98523607 29.17994368 38.30874716 30.4296875 55.99609375 C31.14147026 76.16654438 24.95549568 95.13562569 11.1484375 110.015625 C10.63152344 110.62277344 10.11460938 111.22992188 9.58203125 111.85546875 C-1.39521846 123.98821843 -19.22539239 132.30115967 -35.42909241 133.21806335 C-39.76993021 133.33776896 -44.11089823 133.3474579 -48.453125 133.3515625 C-50.06017166 133.35800069 -51.66721718 133.36472979 -53.27426147 133.37173462 C-56.62785562 133.38365337 -59.98134713 133.38742065 -63.33496094 133.38623047 C-67.61987834 133.38602667 -71.90413706 133.41341502 -76.18889809 133.44777489 C-79.50215655 133.47006056 -82.81525627 133.47406764 -86.128582 133.47301102 C-87.70815696 133.47536114 -89.28773668 133.48415134 -90.86723709 133.49967575 C-93.07813619 133.51938717 -95.28761058 133.513481 -97.49853516 133.50146484 C-98.75268219 133.50431488 -100.00682922 133.50716492 -101.29898071 133.51010132 C-106.23139175 132.8235695 -109.91479959 131.3325183 -113.16067028 127.44957733 C-115.81355528 123.27001476 -116.35260509 119.70727292 -116.35327148 114.72607422 C-116.35867447 114.03392319 -116.36407745 113.34177216 -116.36964417 112.62864685 C-116.38206659 110.3587557 -116.36567514 108.09015028 -116.34765625 105.8203125 C-116.3478115 104.22478164 -116.34930471 102.6292504 -116.35206604 101.03372192 C-116.3534475 97.69320958 -116.34094324 94.35312783 -116.31811523 91.01269531 C-116.28986986 86.76647425 -116.29243343 82.52097538 -116.30520535 78.27470207 C-116.31222295 74.97832262 -116.30430238 71.68210479 -116.29194832 68.385746 C-116.28748273 66.82232411 -116.28705338 65.25888453 -116.29101372 63.69546127 C-116.30802726 51.06005096 -115.13460141 39.09841342 -109.1015625 27.765625 C-108.57550415 26.75133423 -108.57550415 26.75133423 -108.03881836 25.71655273 C-105.1763464 20.33722437 -101.96355588 15.5309269 -97.8515625 11.015625 C-97.17480469 10.25894531 -96.49804688 9.50226562 -95.80078125 8.72265625 C-70.86041026 -17.72388279 -29.44121354 -20.48785819 0 0 Z M-43.1640625 22.078125 C-50.28907819 29.86593284 -51.57392521 37.56573469 -51.453125 47.84765625 C-51.46113129 49.04243088 -51.46913757 50.23720551 -51.47738647 51.46818542 C-51.50032719 55.25518417 -51.4910306 59.04109872 -51.4765625 62.828125 C-51.47271332 66.63279901 -51.47613885 70.43700209 -51.49716187 74.24162292 C-51.50924235 76.60106077 -51.50659658 78.96063144 -51.48745728 81.32002258 C-51.49294083 82.92275276 -51.49294083 82.92275276 -51.49853516 84.55786133 C-51.49455719 85.49366531 -51.49057922 86.4294693 -51.48648071 87.39363098 C-51.92173154 90.51957452 -53.15216279 92.38950171 -54.8515625 95.015625 C-54.8515625 95.675625 -54.8515625 96.335625 -54.8515625 97.015625 C-60.1139965 99.40764045 -64.73394998 100.38073061 -70.4765625 99.390625 C-74.79674849 97.63054922 -77.74336491 95.23202018 -79.8515625 91.015625 C-80.37539568 85.76011829 -80.47154092 81.35096314 -78.2265625 76.515625 C-72.16870926 70.13893738 -65.20403291 70.37500429 -56.8515625 70.015625 C-56.8515625 66.055625 -56.8515625 62.095625 -56.8515625 58.015625 C-71.37200515 58.26750875 -71.37200515 58.26750875 -83.6015625 65.453125 C-84.7153125 66.7215625 -84.7153125 66.7215625 -85.8515625 68.015625 C-86.5528125 68.7375 -87.2540625 69.459375 -87.9765625 70.203125 C-92.16780547 76.48998946 -93.53920116 83.19125654 -92.41015625 90.640625 C-90.46592759 98.90699581 -85.762611 104.18233545 -78.8515625 109.015625 C-72.63830255 112.16437877 -66.12703865 113.20925162 -59.375 111.32421875 C-50.98488909 108.29516058 -44.60385143 103.69406829 -40.71875 95.4921875 C-38.6686265 87.27322391 -39.49306735 78.42316346 -39.8515625 70.015625 C-38.95953125 70.06203125 -38.0675 70.1084375 -37.1484375 70.15625 C-35.97796875 70.19234375 -34.8075 70.2284375 -33.6015625 70.265625 C-32.44140625 70.31203125 -31.28125 70.3584375 -30.0859375 70.40625 C-26.7843046 70.28131656 -26.7843046 70.28131656 -24.4296875 68.1953125 C-22.54612285 66.04225646 -22.54612285 66.04225646 -22.8515625 62.890625 C-23.54791729 59.98542384 -23.54791729 59.98542384 -25.5234375 58.84375 C-28.48840874 57.7890958 -30.96186257 57.82237065 -34.1015625 57.890625 C-35.71804687 57.91769531 -35.71804687 57.91769531 -37.3671875 57.9453125 C-38.18703125 57.96851563 -39.006875 57.99171875 -39.8515625 58.015625 C-39.77009152 54.80629845 -39.65730504 51.59879061 -39.5390625 48.390625 C-39.51650391 47.48699219 -39.49394531 46.58335938 -39.47070312 45.65234375 C-39.26005709 40.40534246 -38.76269308 36.55698871 -35.8515625 32.015625 C-32.87837558 29.59302825 -29.57691698 29.65357999 -25.81640625 29.765625 C-22.85395504 30.14255716 -21.11181048 31.08776643 -18.8515625 33.015625 C-17.19816036 35.9287621 -16.84551169 37.71913515 -16.9140625 41.078125 C-17.05187692 44.01096653 -17.05187692 44.01096653 -15.7265625 46.390625 C-13.8764094 48.27962335 -13.8764094 48.27962335 -10.8515625 48.515625 C-7.85263228 48.26648927 -7.85263228 48.26648927 -5.9765625 46.515625 C-3.80121066 41.68150979 -4.37298531 36.88265762 -5.9140625 31.953125 C-8.40391278 26.01489053 -12.71817932 22.17928855 -18.2890625 19.140625 C-27.67908894 16.17535349 -34.72617053 16.82434321 -43.1640625 22.078125 Z " fill="#50A1DA" transform="translate(115.8515625,12.984375)"/>
<path d="M0 0 C3.5 0.5 3.5 0.5 5.19448853 2.04211426 C6.99763015 5.436888 6.9190987 8.57552396 6.88818359 12.32617188 C6.89344055 13.11037003 6.89869751 13.89456818 6.90411377 14.70252991 C6.91730402 17.2914733 6.90857934 19.87980049 6.8984375 22.46875 C6.90045852 24.26949176 6.90337019 26.07023272 6.90713501 27.87097168 C6.91155703 31.64371539 6.90513124 35.41624592 6.89111328 39.18896484 C6.87402143 44.024635 6.88386327 48.85980563 6.90183067 53.69545746 C6.9126718 57.41351077 6.90922066 61.13144568 6.9014473 64.84950256 C6.8994462 66.63249267 6.9019014 68.41549352 6.90888596 70.19847107 C6.9165059 72.69054638 6.90488909 75.18181303 6.88818359 77.67382812 C6.89425629 78.41057266 6.90032898 79.1473172 6.90658569 79.90638733 C6.85524027 84.041375 6.49706339 86.54709129 3.5 89.5 C1.625 90.4375 1.625 90.4375 -0.5 90.5 C-3.29844381 89.1007781 -5.28791383 87.71208617 -7.5 85.5 C-8.03109375 85.77714844 -8.5621875 86.05429688 -9.109375 86.33984375 C-10.16898437 86.88318359 -10.16898437 86.88318359 -11.25 87.4375 C-11.94609375 87.79714844 -12.6421875 88.15679687 -13.359375 88.52734375 C-20.58338859 91.80978788 -29.36742982 91.61168177 -36.75 88.9375 C-45.09389566 85.11321449 -51.398209 78.69013351 -55.5 70.5 C-58.54166093 61.85159081 -58.2204547 52.65800479 -54.4375 44.3125 C-49.20914944 34.88948424 -42.1476594 29.73833934 -31.9375 26.75 C-22.93338692 25.82650122 -15.5642381 27.38728099 -7.5 31.5 C-7.48541748 30.70303711 -7.47083496 29.90607422 -7.45581055 29.08496094 C-7.38132525 25.47281876 -7.28466488 21.86160026 -7.1875 18.25 C-7.16494141 16.99574219 -7.14238281 15.74148437 -7.11914062 14.44921875 C-7.08369141 13.24394531 -7.04824219 12.03867187 -7.01171875 10.796875 C-6.98553467 9.68666992 -6.95935059 8.57646484 -6.93237305 7.43261719 C-6.21156723 2.54367341 -4.93535433 0.70505062 0 0 Z M-40.3125 46.5 C-44.44074497 52.1615931 -45.52842368 56.51091663 -44.5 63.5 C-41.99501865 69.56578128 -37.95568735 73.58017369 -32.25 76.75 C-27.4840674 78.0497998 -22.96791918 78.52866757 -18.31640625 76.58984375 C-12.96380901 73.44304273 -8.50617308 69.51851925 -6.5 63.5 C-5.96634352 57.53741509 -5.92818823 52.5228603 -9.5 47.5 C-14.41654846 42.56296592 -18.08146741 39.39899397 -25.25 39.1875 C-31.85414161 39.27401714 -35.9370072 41.48853441 -40.3125 46.5 Z " fill="#50A1DA" transform="translate(324.5,35.5)"/>
<path d="M0 0 C5.2088318 4.1176536 9.59951664 9.63762724 11.81640625 15.93359375 C11.98556597 19.43138031 11.08301869 20.6677017 8.9375 23.4375 C6.45369056 25.01346111 3.81222044 26.0975288 1.09375 27.20703125 C0.32824829 27.53289719 -0.43725342 27.85876312 -1.22595215 28.19450378 C-2.84007474 28.87817779 -4.45740176 29.55432921 -6.07763672 30.22338867 C-8.56028513 31.24908493 -11.03250527 32.29713937 -13.50390625 33.34960938 C-15.07496379 34.01173995 -16.64656101 34.67259175 -18.21875 35.33203125 C-18.95943726 35.64445267 -19.70012451 35.95687408 -20.46325684 36.27876282 C-23.47997362 37.51971281 -25.76755309 38.4375 -29.0625 38.4375 C-24.35535837 43.54811092 -21.1483182 45.4855155 -14.25 45.8125 C-7.72391361 45.69561487 -3.35895379 42.96846919 1.9375 39.4375 C5.5 39.625 5.5 39.625 8.9375 40.4375 C10.9375 43.4375 10.9375 43.4375 10.9375 46.3125 C9.3502066 51.27279189 6.18106672 53.0843075 1.94921875 55.63671875 C-6.69003625 59.88920178 -17.99181417 60.14606164 -27.19921875 57.5546875 C-34.82501695 54.02790181 -40.848698 48.28740103 -44.28125 40.59375 C-47.62017255 31.37832377 -48.10961808 21.96195138 -44.4375 12.75 C-40.10106812 4.0926235 -34.12536401 -1.16756863 -25.0625 -4.5625 C-15.50486186 -6.84644093 -8.06067582 -5.48250205 0 0 Z M-29.8125 14.125 C-33.14676327 18.09225807 -34.24645998 21.35991767 -35.0625 26.4375 C-34.4025 26.7675 -33.7425 27.0975 -33.0625 27.4375 C-30.92306387 26.68184474 -28.82134602 25.81861741 -26.7421875 24.91015625 C-26.12352814 24.64238876 -25.50486877 24.37462128 -24.86746216 24.09873962 C-22.88754074 23.23978636 -20.9125647 22.3700546 -18.9375 21.5 C-17.59796732 20.91660295 -16.25812713 20.33391141 -14.91796875 19.75195312 C-11.62920181 18.32197878 -8.34478567 16.88229914 -5.0625 15.4375 C-5.0625 14.4475 -5.0625 13.4575 -5.0625 12.4375 C-13.42282569 5.14901093 -22.32743544 6.30110536 -29.8125 14.125 Z " fill="#50A1DA" transform="translate(250.0625,67.5625)"/>
<path d="M0 0 C8.55994366 5.19763303 13.90327183 11.73983259 16.8828125 21.33203125 C18.77385949 31.16173094 17.18518521 40.59308425 11.58203125 48.89453125 C6.29017559 55.37544759 0.13071 58.76502375 -7.72265625 61.3828125 C-19.39734871 62.30889344 -28.66373491 60.61678588 -37.90234375 53.2109375 C-44.50545892 46.57948278 -47.29724984 38.65785199 -48.03515625 29.5078125 C-47.74765302 20.86580362 -44.44353097 12.83223285 -38.72265625 6.3828125 C-27.79169146 -2.93072498 -13.50628503 -6.42728373 0 0 Z M-27.84765625 14.19140625 C-32.63666781 19.46929608 -35.25653538 23.93244124 -35.03515625 31.265625 C-34.25693081 36.53810236 -31.726137 40.79287104 -27.72265625 44.2578125 C-21.64292124 48.56429146 -17.12434255 49.07134146 -9.72265625 48.3828125 C-3.92856842 46.34415197 -0.31204744 42.73949599 3.08984375 37.6953125 C5.19866038 31.81282402 5.26944944 25.95049219 2.83984375 20.1328125 C-0.45398 14.37446105 -5.96547955 11.23503075 -12.16015625 9.3203125 C-18.03513415 9.42338229 -23.2669519 10.29275531 -27.84765625 14.19140625 Z " fill="#50A1DA" transform="translate(384.72265625,64.6171875)"/>
<path d="M0 0 C5.12219075 4.54012362 7.94156902 10.7326051 8.36523438 17.56420898 C8.38436644 19.35391598 8.37629806 21.14408047 8.34375 22.93359375 C8.34379028 23.88895523 8.34383057 24.84431671 8.34387207 25.82862854 C8.3385525 27.82779599 8.3211245 29.82696548 8.29199219 31.82592773 C8.24976922 34.89175678 8.25096258 37.95541065 8.2578125 41.02148438 C8.24733102 42.97136947 8.23439856 44.92124328 8.21875 46.87109375 C8.21854858 47.78668564 8.21834717 48.70227753 8.21813965 49.64561462 C8.20222778 50.4940242 8.18631592 51.34243378 8.16992188 52.21655273 C8.16150269 52.96138412 8.1530835 53.70621552 8.14440918 54.47361755 C7.63741579 56.99809078 6.78397194 57.89526308 4.75 59.4375 C1.53505943 59.83936757 -0.3881629 60.01205806 -3.125 58.1875 C-4.25 56.4375 -4.25 56.4375 -4.25 52.4375 C-4.99765625 52.85902344 -5.7453125 53.28054687 -6.515625 53.71484375 C-7.50046875 54.26269531 -8.4853125 54.81054688 -9.5 55.375 C-10.47453125 55.92027344 -11.4490625 56.46554688 -12.453125 57.02734375 C-18.60335265 60.12822668 -25.87716431 60.67833884 -32.53515625 58.7890625 C-37.47067087 56.56380157 -41.94679253 53.43899068 -44.25 48.4375 C-45.19183092 42.21417105 -45.21843971 36.5978655 -42.625 30.8125 C-37.95979208 26.14729208 -32.95434264 23.70359261 -26.6875 21.875 C-25.9965625 21.66593018 -25.305625 21.45686035 -24.59375 21.24145508 C-18.21148773 19.34653799 -11.76478905 17.80962167 -5.25 16.4375 C-5.58 14.7875 -5.91 13.1375 -6.25 11.4375 C-10.56569645 9.80365413 -14.20151998 9.14133169 -18.8125 9.125 C-19.90691406 9.10824219 -21.00132812 9.09148437 -22.12890625 9.07421875 C-25.58823676 9.47686923 -27.38861228 10.52165736 -30.25 12.4375 C-32.8125 12.9375 -32.8125 12.9375 -35.25 12.4375 C-37.625 10.25 -37.625 10.25 -39.25 7.4375 C-39.3340754 3.99040841 -38.60654902 2.81633333 -36.25 0.3125 C-24.49988354 -7.03132279 -12.06507977 -5.80051912 0 0 Z M-29.25 36.4375 C-31.49740192 38.70513365 -31.49740192 38.70513365 -32.25 41.4375 C-31.91390749 44.19441443 -31.91390749 44.19441443 -30.25 46.4375 C-26.49955263 48.93779824 -22.88360697 48.591442 -18.59375 47.9765625 C-13.55795944 46.81833067 -9.66709692 44.64203238 -5.75 41.3125 C-3.54089982 37.07839132 -3.92269478 33.11978301 -4.25 28.4375 C-12.63444097 28.4375 -22.1680118 32.02796018 -29.25 36.4375 Z " fill="#50A1DA" transform="translate(492.25,66.5625)"/>
<path d="M0 0 C2.1875 2.75 2.1875 2.75 2.3125 5.875 C1.04547789 9.1129454 0.32416831 10.26879552 -2.8125 11.75 C-5.70150605 11.46814575 -8.05597003 10.66884332 -10.8125 9.75 C-16.03846788 9.35558733 -19.40416842 9.84450873 -23.8125 12.75 C-27.83726111 17.19111571 -27.52248826 23.03976887 -27.8125 28.75 C-26.83667969 28.72679687 -25.86085937 28.70359375 -24.85546875 28.6796875 C-23.58316406 28.66164062 -22.31085938 28.64359375 -21 28.625 C-19.73542969 28.60179687 -18.47085938 28.57859375 -17.16796875 28.5546875 C-13.8125 28.75 -13.8125 28.75 -10.8125 30.75 C-10.5 34.25 -10.5 34.25 -10.8125 37.75 C-12.8125 39.75 -12.8125 39.75 -16.2890625 39.9453125 C-17.67200968 39.93201493 -19.05488654 39.90816232 -20.4375 39.875 C-21.14390625 39.86597656 -21.8503125 39.85695312 -22.578125 39.84765625 C-24.32306098 39.82407603 -26.06782295 39.78820461 -27.8125 39.75 C-27.80583817 40.30710159 -27.79917633 40.86420319 -27.79231262 41.43818665 C-27.72601434 47.2291589 -27.6807225 53.02002361 -27.64770508 58.8112793 C-27.63260556 60.97343321 -27.61212429 63.13555643 -27.58618164 65.29760742 C-27.54984983 68.402909 -27.53278538 71.50780614 -27.51953125 74.61328125 C-27.50404739 75.58211746 -27.48856354 76.55095367 -27.47261047 77.54914856 C-27.47227058 78.90020943 -27.47227058 78.90020943 -27.47192383 80.27856445 C-27.46526199 81.07132278 -27.45860016 81.86408112 -27.45173645 82.68086243 C-27.90826015 85.29922657 -28.7018641 86.17422785 -30.8125 87.75 C-33.85142134 88.12986517 -35.867847 88.37668449 -38.4747467 86.64726257 C-40.47851955 83.80542078 -40.20140192 81.46935697 -40.21655273 78.01879883 C-40.22341599 77.33870758 -40.23027924 76.65861633 -40.23735046 75.95791626 C-40.25566363 73.70740923 -40.25177251 71.45759691 -40.24609375 69.20703125 C-40.25065574 67.63864414 -40.25596136 66.07025903 -40.26197815 64.50187683 C-40.27091982 61.21072283 -40.268477 57.91981129 -40.25854492 54.62866211 C-40.24709538 50.42657792 -40.26719863 46.2253391 -40.29646206 42.02336597 C-40.31488687 38.78123209 -40.31451848 35.53929802 -40.30882454 32.29712486 C-40.30867187 30.74908964 -40.31467136 29.2010404 -40.32711601 27.65305519 C-40.39211215 18.23637899 -40.33362592 10.90929677 -33.84765625 3.5078125 C-24.481692 -4.24460939 -10.81351551 -7.83221918 0 0 Z " fill="#50A1DA" transform="translate(210.8125,38.25)"/>
<path d="M0 0 C0.680625 0.53625 1.36125 1.0725 2.0625 1.625 C2.701875 2.07875 3.34125 2.5325 4 3 C5.69271945 2.4025696 7.35380887 1.71573527 9 1 C16.00543881 -0.3343693 21.54561723 -0.22719139 28 3 C28.93398863 6.23303757 29.43296911 8.12942282 27.90625 11.19921875 C26 13 26 13 23.07421875 13.25 C21.95660156 13.1675 20.83898437 13.085 19.6875 13 C14.20561727 12.72150033 14.20561727 12.72150033 9.3125 14.8125 C4.70269125 19.1731299 4.09575578 22.6778482 3.84228516 28.82470703 C3.82094817 30.3023613 3.80340564 31.78007379 3.7890625 33.2578125 C3.76101729 34.86850015 3.73235303 36.47917713 3.703125 38.08984375 C3.66174138 40.61572226 3.62482996 43.141396 3.59863281 45.66748047 C3.57108829 48.1146687 3.5252508 50.56096599 3.4765625 53.0078125 C3.47330963 53.76409943 3.47005676 54.52038635 3.46670532 55.29959106 C3.34456691 60.49273835 3.34456691 60.49273835 1.65771484 62.97607422 C-0.96462968 64.59582576 -3.00013828 64.37498271 -6 64 C-7.66323853 62.82763672 -7.66323853 62.82763672 -9 61 C-9.38095093 58.45751953 -9.38095093 58.45751953 -9.38818359 55.3828125 C-9.39764008 54.23151855 -9.40709656 53.08022461 -9.4168396 51.89404297 C-9.41076691 50.65025879 -9.40469421 49.40647461 -9.3984375 48.125 C-9.40130768 46.84898926 -9.40417786 45.57297852 -9.40713501 44.25830078 C-9.40917835 41.55795884 -9.40513392 38.85842919 -9.39111328 36.15820312 C-9.37402089 32.6978077 -9.38386307 29.23811029 -9.40183067 25.77774048 C-9.41528016 22.47680194 -9.40586244 19.17594764 -9.3984375 15.875 C-9.40451019 14.63121582 -9.41058289 13.38743164 -9.4168396 12.10595703 C-9.40265488 10.37901611 -9.40265488 10.37901611 -9.38818359 8.6171875 C-9.38579681 7.60253418 -9.38341003 6.58788086 -9.38095093 5.54248047 C-9 3 -9 3 -7.65933228 1.17236328 C-5.06170655 -0.66292979 -3.09033697 -0.37840861 0 0 Z " fill="#50A1DA" transform="translate(419,62)"/>
</svg>
