<svg xmlns="http://www.w3.org/2000/svg" width="269.701" height="65"><path d="M260.788 51.762l-5.372-7.011h3.309l3.703 4.948 3.706-4.948h3.194l-5.315 6.984 5.688 7.409h-3.342l-3.958-5.313-4.016 5.316h-3.194zm-17.247 1.556c0 2.234 1.359 3.648 3.591 3.648a4.054 4.054 0 003.535-1.865v-10.35h2.827v14.393h-2.825V57.7a5.883 5.883 0 01-4.325 1.727c-3.309 0-5.601-2.32-5.601-5.628V44.75h2.8zm-18.7-8.567h2.828v1.44a5.878 5.878 0 014.325-1.723c3.309 0 5.598 2.32 5.598 5.628v9.048h-2.787v-8.575c0-2.235-1.36-3.649-3.591-3.649a4.048 4.048 0 00-3.535 1.865v10.35h-2.838zm-6.435-4.073a1.759 1.759 0 011.75-1.75 1.754 1.754 0 010 3.504 1.762 1.762 0 01-1.75-1.754zm3.173 18.466h-2.828V44.75h2.828zM201.75 39.35h2.971v17.164h11.392v2.629H201.75zm-15.891 5.174c3.958 0 6.957 3.279 6.957 7.52v.816H181.45a4.85 4.85 0 004.864 4.127 5.582 5.582 0 003.645-1.254l1.811 1.784a8.496 8.496 0 01-5.57 1.903c-4.242 0-7.55-3.262-7.55-7.463 0-4.154 3.14-7.433 7.21-7.433zm-4.383 6.22h8.54c-.397-2.204-2.121-3.846-4.215-3.846-2.204 0-3.901 1.585-4.325 3.847zm-15.296 4.666a7.403 7.403 0 004.693 1.81c2.262 0 3.45-.989 3.45-2.15 0-1.017-.707-1.612-2.32-1.838l-2.601-.367c-2.828-.397-4.296-1.753-4.296-3.986 0-2.631 2.32-4.35 5.625-4.35a9.875 9.875 0 015.797 1.838l-1.441 1.865c-1.387-.932-2.828-1.498-4.554-1.498-1.667 0-2.882.734-2.882 1.952 0 1.074.677 1.556 2.374 1.808l2.601.37c2.912.424 4.35 1.808 4.35 4.013 0 2.602-2.601 4.524-6.022 4.524-2.403 0-4.665-.707-6.307-2.12zm-6.644-14.733a1.762 1.762 0 011.753-1.75 1.754 1.754 0 010 3.504 1.762 1.762 0 01-1.753-1.754zm3.167 18.466h-2.828V44.75h2.828zM149.189 44.75h2.827v1.78a4.622 4.622 0 013.93-2.09 4.103 4.103 0 011.47.225v2.545a4.992 4.992 0 00-1.697-.312c-1.498 0-2.911.736-3.703 2.601v9.644h-2.827zm-17.136 0h2.797v1.36a6.797 6.797 0 014.413-1.583c4.1 0 7.264 3.279 7.264 7.408 0 4.13-3.164 7.436-7.34 7.436a7.131 7.131 0 01-4.299-1.414V65h-2.827zm2.827 3.931v6.56a5.361 5.361 0 003.989 1.667c2.8 0 4.893-2.148 4.893-4.948 0-2.855-2.147-4.975-4.893-4.975-1.67 0-3.054.62-3.989 1.696zm-13.515-3.931h2.828v1.78a4.622 4.622 0 013.931-2.09 4.124 4.124 0 011.47.225v2.545a5.005 5.005 0 00-1.696-.312c-1.498 0-2.911.736-3.705 2.601v9.644h-2.828zm-9.624-.226c3.958 0 6.957 3.279 6.957 7.52v.816h-11.356a4.856 4.856 0 004.864 4.127 5.576 5.576 0 003.646-1.254l1.81 1.784a8.49 8.49 0 01-5.57 1.903c-4.242 0-7.55-3.262-7.55-7.463 0-4.154 3.14-7.433 7.199-7.433zm-4.383 6.22h8.54c-.394-2.204-2.12-3.846-4.212-3.846-2.196 0-3.893 1.585-4.317 3.847zm-10.986-3.618h-3.053V44.75h3.053v-3.676l2.797-.68v4.35h4.242v2.376h-4.242v7.798c0 1.47.596 2.009 2.12 2.009a5.5 5.5 0 002.067-.34v2.374a9.668 9.668 0 01-2.686.424c-2.8 0-4.298-1.327-4.298-3.806zM79.01 44.75h2.825v1.44a5.883 5.883 0 014.325-1.723c3.309 0 5.6 2.32 5.6 5.628v9.048h-2.8v-8.575c0-2.235-1.359-3.649-3.591-3.649a4.054 4.054 0 00-3.534 1.865v10.35h-2.828zm-17.39-5.4h14.592v2.6H64.59v5.94h7.635v2.545h-7.635v6.114h11.735v2.602H61.62z"/><path fill="#e00" d="M34.528 22.566c3.401 0 8.322-.702 8.322-4.747a3.806 3.806 0 00-.084-.93L40.741 8.09c-.468-1.936-.879-2.814-4.277-4.513C33.819 2.227 28.074 0 26.372 0c-1.582 0-2.053 2.05-3.929 2.05-1.816 0-3.164-1.523-4.864-1.523-1.63 0-2.694 1.112-3.515 3.399 0 0-2.286 6.449-2.58 7.384a1.748 1.748 0 00-.065.527c0 2.507 9.877 10.729 23.11 10.729m8.849-3.105c.47 2.227.47 2.46.47 2.754 0 3.806-4.28 5.919-9.904 5.919C21.206 28.13 10.08 20.69 10.08 15.769a5.016 5.016 0 01.41-1.993C5.92 14.007 0 14.828 0 20.043 0 28.6 20.28 39.15 36.336 39.15c12.31 0 15.416-5.568 15.416-9.964 0-3.458-2.991-7.384-8.382-9.728"/><path d="M43.37 19.458c.47 2.227.47 2.46.47 2.754 0 3.806-4.28 5.919-9.904 5.919-12.73 0-23.855-7.441-23.855-12.362a5.016 5.016 0 01.41-1.993l.996-2.463a1.748 1.748 0 00-.068.524c0 2.507 9.877 10.729 23.11 10.729 3.4 0 8.321-.702 8.321-4.747a3.806 3.806 0 00-.084-.93zM157.481 25.094c0 3.233 1.944 4.804 5.49 4.804a14.167 14.167 0 003.232-.457v-3.746a6.753 6.753 0 01-2.088.315c-1.46 0-2.001-.456-2.001-1.83v-5.747h4.23v-3.86h-4.23V9.679l-4.622 1v3.894h-3.067v3.86h3.059zm-14.41.087c0-1 1.004-1.487 2.518-1.487a11.723 11.723 0 012.746.343v1.943a5.848 5.848 0 01-2.882.715c-1.484 0-2.373-.57-2.373-1.514m1.414 4.774c1.63 0 2.947-.342 4.176-1.172v.917h4.573v-9.695c0-3.687-2.485-5.71-6.631-5.71-2.317 0-4.606.544-7.07 1.659l1.66 3.404c1.772-.745 3.262-1.202 4.575-1.202 1.903 0 2.887.742 2.887 2.26v.741a13.466 13.466 0 00-3.43-.43c-3.891 0-6.235 1.632-6.235 4.55 0 2.658 2.115 4.686 5.49 4.686m-25.133-.255h4.918v-7.844h8.235V29.7h4.919V9.684h-4.908v7.692h-8.235V9.684h-4.918zm-18.73-7.585c0-2.175 1.716-3.834 3.975-3.834a4.682 4.682 0 013.203 1.175v5.277a4.448 4.448 0 01-3.203 1.201c-2.229 0-3.974-1.658-3.974-3.83m7.234 7.577h4.576V8.684l-4.622 1v5.69a7.694 7.694 0 00-3.86-1c-4.402 0-7.863 3.401-7.863 7.749a7.68 7.68 0 007.71 7.783 6.83 6.83 0 004.06-1.313zm-20.986-11.61c1.457 0 2.686.944 3.173 2.401h-6.31c.456-1.514 1.601-2.4 3.145-2.4m-7.813 4.07c0 4.404 3.602 7.835 8.232 7.835 2.545 0 4.404-.688 6.321-2.289l-3.061-2.719c-.715.745-1.773 1.145-3.029 1.145a3.912 3.912 0 01-3.72-2.4h10.78v-1.143c0-4.804-3.23-8.262-7.634-8.262a7.767 7.767 0 00-7.884 7.833m-7.982-8.263c1.631 0 2.544 1.028 2.544 2.26 0 1.231-.916 2.259-2.544 2.259h-4.861v-4.519zM61.305 29.7h4.918v-7.292h3.744l3.777 7.292h5.489l-4.405-8.007a6.055 6.055 0 003.774-5.633c0-3.603-2.83-6.376-7.069-6.376h-10.22z"/></svg>