<svg xmlns="http://www.w3.org/2000/svg" viewBox="0 0 240 80"><g stroke-width="1.48" transform="translate(-47.107 -256.49) scale(.67586)"><path fill="#fff" d="M163.69 466.45c-1.97-.452-4.058-.737-6.171-.737-3.615 0-6.903.625-9.328 1.638a.819.819 0 0 0-.457.728c0 .117.029.234.073.334.286.83-.184 1.73-2.532 2.247-3.48.765-5.678 4.356-6.934 5.549-1.477 1.402-5.646 2.261-5.019 1.427.49-.652 2.367-2.691 3.509-4.894 1.02-1.97 1.93-2.529 3.182-4.408.367-.548 1.791-2.485 2.206-4.018.465-1.492.308-3.37.487-4.14.256-1.115 1.307-3.532 1.386-4.895.046-.774-3.223 1.101-4.773 1.101-1.55 0-3.06-.93-4.445-.997-1.715-.078-2.817 1.324-4.368 1.079-.885-.142-1.631-.923-3.18-.98-2.204-.08-4.897 1.225-9.956 1.062-4.974-.162-9.57-6.288-10.198-7.262-.735-1.142-1.632-1.142-2.61-.244-.98.897-2.187.192-2.53-.411-.653-1.14-2.397-4.478-5.1-5.178-3.738-.968-5.63 2.069-5.384 4.487.249 2.453 1.834 3.14 2.57 4.446.734 1.304 1.11 2.145 2.491 2.721.98.412 1.344 1.014 1.053 1.82-.256.699-1.275.858-1.945.892-1.424.068-2.422-.318-3.15-.784-.847-.54-1.535-1.29-2.274-2.562-.855-1.404-2.201-2.016-3.77-2.016-.748 0-1.447.197-2.069.517-2.458 1.282-5.384 2.037-8.535 2.037l-3.553.003c6.813 20.208 25.92 34.76 48.429 34.76 17.979 0 33.788-9.284 42.895-23.322"/><path fill="#100f0d" d="M171.38 463.39v-.818h.544c.276 0 .574.062.574.388 0 .403-.3.43-.64.43zm0 .338h.46l.696 1.142h.448l-.753-1.162c.391-.048.686-.252.686-.721 0-.525-.309-.752-.93-.752h-1.005v2.635h.398v-1.142"/><path fill="#100f0d" d="M171.85 461.43a2.126 2.126 0 0 0-2.127 2.127c0 1.172.952 2.12 2.127 2.12a2.12 2.12 0 0 0 2.123-2.12 2.126 2.126 0 0 0-2.123-2.127zm2.582 2.126a2.584 2.584 0 0 1-5.166 0 2.584 2.584 0 0 1 5.166 0M163.69 466.46c-1.97-.455-4.058-.737-6.171-.737-3.615 0-6.903.626-9.328 1.634a.825.825 0 0 0-.457.73c0 .116.029.236.073.333.286.831-.184 1.733-2.532 2.248-3.48.765-5.678 4.354-6.934 5.549-1.477 1.401-5.646 2.263-5.019 1.428.49-.653 2.367-2.692 3.509-4.895 1.02-1.967 1.93-2.529 3.182-4.407.367-.551 1.791-2.487 2.206-4.017.465-1.495.308-3.37.487-4.144.256-1.111 1.307-3.53 1.386-4.893.046-.77-3.223 1.1-4.773 1.1-1.55 0-3.06-.926-4.445-.994-1.715-.082-2.817 1.322-4.368 1.077-.885-.143-1.631-.92-3.18-.98-2.204-.08-4.897 1.225-9.956 1.063-4.974-.16-9.57-6.287-10.198-7.262-.735-1.143-1.632-1.143-2.61-.243-.98.894-2.187.19-2.53-.412-.653-1.142-2.397-4.48-5.1-5.18-3.738-.968-5.63 2.07-5.384 4.486.249 2.453 1.834 3.141 2.57 4.446.734 1.305 1.11 2.15 2.491 2.727.98.406 1.344 1.012 1.053 1.816-.256.7-1.275.86-1.945.893-1.424.067-2.422-.319-3.15-.786-.847-.538-1.535-1.288-2.274-2.56-.855-1.405-2.201-2.015-3.77-2.015-.748 0-1.447.197-2.069.517-2.458 1.278-5.384 2.037-8.535 2.037h-3.553a51.017 51.017 0 0 1-2.667-16.333c0-28.22 22.876-51.095 51.095-51.095 28.22 0 51.094 22.875 51.094 51.095 0 10.24-3.011 19.776-8.199 27.775M197.94 441.91c0-4.686-.097-8.133-.287-11.25h7.665l.328 6.65h.25c1.723-4.93 5.805-7.44 9.584-7.44.864 0 1.368.032 2.075.19v8.34a12.948 12.948 0 0 0-2.666-.252c-4.217 0-7.144 2.682-7.934 6.695-.15.78-.23 1.716-.23 2.67v18.153h-8.856l.071-23.756M243.63 444.38c.04-3.244-1.371-8.53-7.3-8.53-5.45 0-7.714 4.944-8.111 8.53zm-15.394 6.166c.234 6.343 5.144 9.119 10.812 9.119 4.07 0 6.984-.638 9.66-1.622l1.31 6.089c-2.994 1.272-7.153 2.22-12.234 2.22-11.367 0-18.025-7.018-18.025-17.745 0-9.66 5.86-18.804 17.12-18.804 11.382 0 15.087 9.361 15.087 17.025 0 1.644-.146 2.965-.315 3.781l-23.416-.063M290.1 417.18l-8.847-2.495v19.745h-.146c-1.565-2.586-5.017-4.56-9.809-4.56-8.417 0-15.747 6.966-15.694 18.695 0 10.76 6.621 17.887 14.98 17.887 5.053 0 9.275-2.407 11.366-6.328h.158l.397 5.543h7.887c-.163-2.38-.292-6.235-.292-9.817zm-8.847 33.308c0 .928-.065 1.791-.268 2.583-.892 3.83-4.024 6.299-7.643 6.299-5.573 0-8.763-4.699-8.763-11.13 0-6.495 3.161-11.522 8.863-11.522 3.98 0 6.829 2.805 7.612 6.215.15.717.2 1.601.2 2.31v5.244M313.51 429.83c-2.666 0-5.054.769-7.06 2.007-2.083 1.22-3.778 3.103-4.786 5.053h-.14v-16.383l-3.466-1.024v46.184h3.466v-21.424c0-1.424.108-2.41.47-3.451 1.498-4.358 5.605-7.934 10.568-7.934 7.172 0 9.655 5.751 9.655 12.06v20.75h3.463v-21.133c0-13.049-8.849-14.705-12.17-14.705M353.31 446.94c-7.629-.22-17.702.936-17.702 9.347 0 5.034 3.323 7.297 6.973 7.297 5.838 0 9.157-3.614 10.366-7.023a6.8 6.8 0 0 0 .363-2.099zm3.463 10.403c0 2.77.112 5.638.511 8.322h-3.192l-.508-5.02h-.166c-1.696 2.699-5.6 5.816-11.169 5.816-7.049 0-10.329-4.957-10.329-9.629 0-8.086 7.138-12.957 21.39-12.808v-.936c0-3.465-.673-10.38-8.96-10.324-3.066 0-6.26.82-8.795 2.61l-1.103-2.52c3.2-2.17 7.11-3.027 10.278-3.027 10.11 0 12.044 7.589 12.044 13.848v13.667M370.57 422.91v7.72h9.986v2.81h-9.986v22.771c0 4.455 1.383 7.247 5.146 7.247 1.806 0 3.083-.238 3.981-.55l.42 2.684c-1.132.474-2.72.843-4.836.843-2.556 0-4.676-.806-6.045-2.485-1.586-1.841-2.129-4.782-2.129-8.356V433.44h-5.912v-2.81h5.912v-6.442l3.463-1.278M384.93 463.46v-.818h.543c.274 0 .574.062.574.386 0 .405-.3.432-.64.432zm0 .34h.46l.695 1.14h.448l-.751-1.163c.391-.048.686-.252.686-.722 0-.523-.312-.75-.932-.75h-1.006v2.635h.4v-1.14"/><path fill="#100f0d" d="M385.4 461.5a2.125 2.125 0 0 0-2.126 2.128 2.12 2.12 0 0 0 2.126 2.119 2.12 2.12 0 0 0 2.123-2.12c0-1.175-.95-2.127-2.123-2.127zm2.584 2.126a2.585 2.585 0 0 1-2.584 2.582 2.586 2.586 0 0 1-2.582-2.582 2.584 2.584 0 0 1 5.166 0M132.05 461.77c.262.254.716 1.12.16 2.212-.31.58-.643.987-1.24 1.465-.72.577-2.125 1.241-4.051.02-1.035-.657-1.1-.878-2.53-.694-1.021.135-1.428-.896-1.06-1.755.367-.855 1.877-1.547 3.753-.447.844.496 2.16 1.545 3.314.616.477-.383.763-.637 1.426-1.406a.166.166 0 0 1 .228-.011"/><path fill="#cd1e25" d="M149.63 425.09c-.506 1.697-1.224 3.868-4.418 5.507-.465.239-.643-.152-.429-.519 1.208-2.053 1.422-2.567 1.773-3.377.492-1.184.748-2.87-.228-6.383-1.921-6.916-5.93-16.158-8.844-19.157-2.812-2.893-7.908-3.707-12.512-2.527-1.696.435-5.015 2.161-11.168.775-10.651-2.398-12.228 2.934-12.838 5.256-.613 2.325-2.08 8.927-2.08 8.927-.49 2.69-1.13 7.365 15.406 10.516 7.705 1.466 8.096 3.458 8.436 4.89.612 2.566 1.59 4.035 2.69 4.769 1.1.736 0 1.343-1.221 1.468-3.281.34-15.407-3.138-22.581-7.214-5.87-3.587-5.968-6.817-4.624-9.557-8.865-.959-15.52.831-16.725 5.029-2.07 7.202 15.835 19.506 36.225 25.68 21.399 6.479 43.407 1.956 45.854-11.494 1.11-6.11-4.037-10.63-12.717-12.588zm-26.61-22.923l-.026.002c-.092 0-.165-.071-.165-.155 0-.063.038-.115.093-.14 1.144-.605 2.851-1.086 4.805-1.285a17.9 17.9 0 0 1 2.002-.094c3.275.074 5.896 1.376 5.858 2.907-.039 1.532-2.724 2.713-6 2.64a11.625 11.625 0 0 1-2.912-.425.226.226 0 0 1-.174-.214c0-.103.074-.19.177-.216 2.043-.473 3.422-1.244 3.325-1.976-.128-.967-2.801-1.494-5.97-1.176-.347.036-.685.08-1.013.132zm-6.2 9.752c-5.902.427-6.514 1.064-7.62 2.243-1.559 1.659-3.613-2.154-3.613-2.154-1.232-.26-2.725-2.248-1.92-4.102.794-1.834 2.26-1.285 2.72-.714.56.695 1.753 1.834 3.302 1.793 1.549-.042 3.336-.366 5.829-.366 2.525 0 4.224.943 4.32 1.753.081.691-.206 1.344-3.018 1.547"/></g></svg>