<svg version="1.1" viewBox="0 0 240 80" xmlns="http://www.w3.org/2000/svg" xmlns:cc="http://creativecommons.org/ns#" xmlns:dc="http://purl.org/dc/elements/1.1/" xmlns:rdf="http://www.w3.org/1999/02/22-rdf-syntax-ns#">
<metadata>
<rdf:RDF>
<cc:Work rdf:about="">
<dc:format>image/svg+xml</dc:format>
<dc:type rdf:resource="http://purl.org/dc/dcmitype/StillImage"/>
<dc:title/>
</cc:Work>
</rdf:RDF>
</metadata>
<g id="redhat-logo" transform="matrix(.67586 0 0 .67586 -34.668 -256.49)" stroke-width="1.4796">
<desc>The Red Hat logo in full color</desc>
<title>Red Hat Logo (Full color)</title>
<path id="path14410" d="m163.69 466.45c-1.9694-0.4517-4.0578-0.73674-6.1714-0.73674-3.6141 0-6.9028 0.62507-9.3273 1.6373-0.2673 0.13126-0.45768 0.41056-0.45768 0.7288 0 0.11669 0.0291 0.23411 0.0734 0.33371 0.28626 0.83003-0.18447 1.7303-2.5322 2.2472-3.4801 0.76427-5.678 4.3557-6.9338 5.5486-1.4772 1.4025-5.6463 2.2616-5.019 1.4269 0.49089-0.65196 2.3667-2.691 3.5086-4.8938 1.0207-1.9691 1.9296-2.5286 3.1822-4.4082 0.36692-0.54822 1.7913-2.4844 2.2063-4.0173 0.46497-1.4924 0.3078-3.3704 0.48652-4.1407 0.25621-1.115 1.307-3.5314 1.3861-4.895 0.0458-0.77343-3.2224 1.1015-4.7727 1.1015-1.5496 0-3.0604-0.9306-4.4455-0.99708-1.7148-0.0784-2.8162 1.3242-4.3678 1.0787-0.88468-0.14236-1.6312-0.92307-3.179-0.98065-2.2048-0.08-4.8976 1.2261-9.9563 1.0632-4.9747-0.16261-9.5712-6.2884-10.198-7.2627-0.73544-1.142-1.6328-1.142-2.6112-0.24391-0.98 0.8974-2.1858 0.192-2.5296-0.41121-0.6526-1.1403-2.3971-4.4772-5.1001-5.1779-3.7373-0.96761-5.6295 2.0691-5.3838 4.4871 0.24925 2.4528 1.8346 3.1411 2.5701 4.4459 0.73382 1.3045 1.1093 2.145 2.4916 2.7216 0.97903 0.4112 1.3438 1.0138 1.0527 1.8195-0.25622 0.69876-1.2754 0.85853-1.9453 0.89173-1.4234 0.068-2.4214-0.3176-3.1496-0.78322-0.84711-0.54094-1.5351-1.29-2.2738-2.5622-0.85562-1.4042-2.2016-2.0162-3.7705-2.0162-0.74751 0-1.4472 0.19734-2.0688 0.51745-2.4579 1.2812-5.3844 2.0365-8.5353 2.0365l-3.5529 3e-3c6.8135 20.208 25.921 34.761 48.429 34.761 17.979 0 33.788-9.2844 42.895-23.323" fill="#fff"/>
<path id="path14412" d="m171.38 463.39v-0.81804h0.54418c0.27613 0 0.57413 0.0624 0.57413 0.38781 0 0.40335-0.29962 0.43023-0.64053 0.43023zm0 0.33841h0.46077l0.6956 1.1416h0.44781l-0.75309-1.1619c0.39112-0.0477 0.68588-0.25209 0.68588-0.72152 0-0.52474-0.30853-0.75156-0.93044-0.75156h-1.0049v2.635h0.39841v-1.1416" fill="#100f0d"/>
<path id="path14414" d="m171.85 461.43c-1.175 0-2.1265 0.95238-2.1265 2.1272 0 1.172 0.95149 2.1194 2.1265 2.1194 1.1718 0 2.1232-0.94737 2.1232-2.1194 0-1.1748-0.9515-2.1272-2.1232-2.1272zm2.5824 2.1257c0 1.4238-1.1572 2.5818-2.5824 2.5818-1.426 0-2.584-1.158-2.584-2.5818 0-1.4251 1.158-2.5825 2.584-2.5825 1.4252 0 2.5824 1.1574 2.5824 2.5825" fill="#100f0d"/>
<path id="path14416" d="m163.69 466.46c-1.9694-0.45518-4.0578-0.73706-6.1714-0.73706-3.6141 0-6.9028 0.62604-9.3273 1.6341-0.2673 0.13442-0.45768 0.41218-0.45768 0.73042 0 0.11507 0.0291 0.23565 0.0734 0.33209 0.28626 0.83165-0.18447 1.7338-2.5322 2.2488-3.4801 0.76419-5.678 4.3541-6.9338 5.5486-1.4772 1.401-5.6463 2.2633-5.019 1.4285 0.49089-0.65358 2.3667-2.6925 3.5086-4.8951 1.0207-1.9678 1.9296-2.529 3.1822-4.407 0.36692-0.55138 1.7913-2.4876 2.2063-4.0173 0.46497-1.4955 0.3078-3.3704 0.48652-4.1438 0.25621-1.1115 1.307-3.5298 1.3861-4.8934 0.0458-0.76994-3.2224 1.0998-4.7727 1.0998-1.5496 0-3.0604-0.92558-4.4455-0.9936-1.7148-0.0819-2.8162 1.3222-4.3678 1.0768-0.88468-0.14236-1.6312-0.92048-3.179-0.97903-2.2048-0.0816-4.8976 1.2245-9.9563 1.062-4.9747-0.16042-9.5712-6.2872-10.198-7.2615-0.73544-1.1435-1.6328-1.1435-2.6112-0.24359-0.98 0.89392-2.1858 0.19014-2.5296-0.41153-0.6526-1.142-2.3971-4.4804-5.1001-5.1794-3.7373-0.96923-5.6295 2.0691-5.3838 4.4855 0.24925 2.4528 1.8346 3.1411 2.5701 4.4459 0.73382 1.3045 1.1093 2.1491 2.4916 2.7264 0.97903 0.40643 1.3438 1.0122 1.0527 1.8164-0.25622 0.7003-1.2754 0.86007-1.9453 0.89327-1.4234 0.0664-2.4214-0.31922-3.1496-0.78638-0.84711-0.53778-1.5351-1.2875-2.2738-2.5606-0.85562-1.4042-2.2016-2.0146-3.7705-2.0146-0.74751 0-1.4472 0.19766-2.0688 0.51745-2.4579 1.278-5.3844 2.0365-8.5353 2.0365h-3.5529c-1.7293-5.1275-2.6666-10.62-2.6666-16.333 0-28.22 22.876-51.095 51.095-51.095 28.22 0 51.094 22.875 51.094 51.095 0 10.241-3.0116 19.776-8.199 27.775" fill="#100f0d"/>
<path id="path14418" d="m197.94 441.91c0-4.6863-0.0972-8.1329-0.28666-11.25h7.6646l0.32796 6.6494h0.25104c1.7224-4.9286 5.8045-7.4402 9.583-7.4402 0.86404 0 1.3677 0.0332 2.0755 0.19135v8.3386c-0.8276-0.16293-1.6018-0.25152-2.6666-0.25152-4.2173 0-7.1439 2.6824-7.9342 6.695-0.149 0.77974-0.22917 1.7161-0.22917 2.6698v18.154h-8.8566l0.0713-23.756" fill="#100f0d"/>
<path id="path14420" d="m243.63 444.38c0.0405-3.2442-1.371-8.5298-7.2994-8.5298-5.4498 0-7.7148 4.944-8.1116 8.5298zm-15.394 6.1664c0.23403 6.3422 5.1437 9.1182 10.812 9.1182 4.07 0 6.9836-0.63738 9.6599-1.6211l1.3094 6.0885c-2.9938 1.2722-7.152 2.2206-12.233 2.2206-11.367 0-18.025-7.0191-18.025-17.746 0-9.6601 5.8604-18.804 17.12-18.804 11.382 0 15.087 9.3618 15.087 17.025 0 1.6446-0.14657 2.9652-0.31501 3.7816l-23.416-0.0632" fill="#100f0d"/>
<path id="path14422" d="m290.1 417.18-8.8469-2.4949v19.745h-0.14576c-1.5653-2.5862-5.0174-4.56-9.8089-4.56-8.4177 0-15.747 6.9657-15.694 18.695 0 10.76 6.6208 17.887 14.98 17.887 5.0522 0 9.2744-2.4069 11.366-6.3277h0.15791l0.39679 5.5423h7.8865c-0.16276-2.3794-0.29152-6.2348-0.29152-9.8171zm-8.8469 33.308c0 0.92809-0.0656 1.7913-0.26803 2.5825-0.89157 3.8309-4.0238 6.2992-7.6435 6.2992-5.5729 0-8.7627-4.6984-8.7627-11.13 0-6.495 3.1614-11.522 8.8631-11.522 3.9801 0 6.8289 2.8058 7.612 6.2154 0.15062 0.71649 0.1992 1.6009 0.1992 2.3095v5.2449" fill="#100f0d"/>
<path id="path14424" d="m313.51 429.83c-2.6658 0-5.0539 0.76864-7.0605 2.007-2.0828 1.2194-3.7776 3.1034-4.7858 5.0535h-0.1401v-16.383l-3.4659-1.0244v46.184h3.4659v-21.424c0-1.4238 0.10852-2.4106 0.4713-3.4514 1.4973-4.3573 5.6037-7.9336 10.567-7.9336 7.1722 0 9.655 5.751 9.655 12.06v20.749h3.4634v-21.132c0-13.049-8.8493-14.705-12.17-14.705" fill="#100f0d"/>
<path id="path14426" d="m353.31 446.94c-7.629-0.2205-17.702 0.93603-17.702 9.3473 0 5.0336 3.3234 7.2969 6.973 7.2969 5.8377 0 9.157-3.614 10.366-7.0232 0.25184-0.74816 0.36278-1.4997 0.36278-2.0988zm3.4634 10.403c0 2.7694 0.11175 5.6384 0.51097 8.3215h-3.1922l-0.50854-5.0201h-0.1652c-1.6965 2.6992-5.6004 5.8168-11.169 5.8168-7.0492 0-10.329-4.9568-10.329-9.6291 0-8.0864 7.1374-12.957 21.39-12.808v-0.93627c0-3.4653-0.67374-10.379-8.961-10.324-3.0658 0-6.2596 0.81926-8.7942 2.61l-1.1029-2.5198c3.2003-2.17 7.1091-3.0272 10.278-3.0272 10.109 0 12.044 7.5889 12.044 13.848v13.667" fill="#100f0d"/>
<path id="path14428" d="m370.57 422.91v7.7195h9.9862v2.8105h-9.9862v22.771c0 4.4553 1.3831 7.2466 5.1462 7.2466 1.8058 0 3.0828-0.23726 3.9809-0.54879l0.41946 2.6827c-1.1313 0.47445-2.7201 0.84299-4.8352 0.84299-2.5565 0-4.6765-0.80509-6.045-2.4844-1.5864-1.8413-2.1289-4.7818-2.1289-8.3562v-22.154h-5.9122v-2.8105h5.9122v-6.4417l3.4626-1.2778" fill="#100f0d"/>
<path id="path14430" d="m384.93 463.46v-0.81796h0.54256c0.27451 0 0.57494 0.0616 0.57494 0.38619 0 0.40489-0.30043 0.43177-0.64054 0.43177zm0 0.34003h0.46077l0.69398 1.14h0.44862l-0.75148-1.1634c0.39113-0.0478 0.68589-0.25176 0.68589-0.72152 0-0.5232-0.31177-0.75002-0.93206-0.75002h-1.0058v2.635h0.40003v-1.14" fill="#100f0d"/>
<path id="path14432" d="m385.4 461.5c-1.1766 0-2.1257 0.95246-2.1257 2.1276 0 1.1717 0.94907 2.119 2.1257 2.119 1.1726 0 2.1232-0.94736 2.1232-2.119 0-1.1752-0.95068-2.1276-2.1232-2.1276zm2.584 2.1257c0 1.4238-1.158 2.5818-2.584 2.5818-1.4228 0-2.5824-1.1581-2.5824-2.5818 0-1.425 1.1596-2.5821 2.5824-2.5821 1.426 0 2.584 1.1571 2.584 2.5821" fill="#100f0d"/>
<path id="path14434" d="m132.05 461.77c0.26196 0.25427 0.71585 1.1198 0.16074 2.2123-0.31006 0.58046-0.64378 0.98697-1.2416 1.4649-0.71868 0.57729-2.1241 1.2412-4.0505 0.0202-1.035-0.65762-1.0992-0.87877-2.529-0.69398-1.0218 0.13443-1.4282-0.89651-1.0613-1.7556 0.36756-0.8544 1.8774-1.5468 3.7532-0.44635 0.84452 0.49567 2.1611 1.5443 3.3141 0.6156 0.47696-0.38311 0.76322-0.63738 1.4259-1.4058 0.031-0.0316 0.0727-0.0512 0.11953-0.0512 0.0418 0 0.0798 0.0164 0.10883 0.0398" fill="#100f0d"/>
<path id="path14436" d="m149.63 425.09c-0.50611 1.6973-1.2235 3.8675-4.4184 5.507-0.46498 0.23889-0.64273-0.15183-0.42854-0.51874 1.2083-2.0536 1.4218-2.567 1.7729-3.3768 0.49186-1.1847 0.74808-2.8707-0.22771-6.3835-1.9217-6.9156-5.9311-16.158-8.8444-19.157-2.8121-2.8934-7.9074-3.7072-12.512-2.5265-1.6961 0.43485-5.0147 2.1605-11.168 0.77496-10.651-2.3986-12.228 2.9338-12.838 5.2555-0.61309 2.3249-2.0798 8.927-2.0798 8.927-0.48968 2.6901-1.1292 7.365 15.406 10.516 7.7049 1.4665 8.0956 3.4578 8.4363 4.8903 0.61203 2.5654 1.5895 4.0347 2.6903 4.7686 1.0998 0.73577 0 1.3431-1.2216 1.4681-3.2812 0.34002-15.407-3.1382-22.581-7.214-5.8703-3.5873-5.9677-6.8168-4.624-9.5571-8.8655-0.95878-15.52 0.83165-16.725 5.0288-2.0703 7.2028 15.835 19.506 36.225 25.681 21.399 6.4783 43.407 1.9555 45.854-11.495 1.1094-6.1101-4.0368-10.63-12.717-12.588zm-26.61-22.923c-8e-3 0-0.0174 2e-3 -0.0263 2e-3 -0.0918 0-0.16512-0.0713-0.16512-0.15467 0-0.0632 0.038-0.1158 0.0934-0.1409 1.1441-0.6041 2.851-1.0851 4.8048-1.2843 0.58621-0.0599 1.1594-0.0915 1.7108-0.0947 0.0971 0 0.19354 0 0.2916 8.1e-4 3.2748 0.0737 5.8963 1.3758 5.8583 2.9063-0.0395 1.5321-2.7245 2.7136-6.0006 2.6407-1.0597-0.0251-2.0545-0.17815-2.9117-0.42514-0.10025-0.0267-0.17394-0.11256-0.17394-0.21459s0.0737-0.1903 0.1771-0.2154c2.0428-0.47292 3.4216-1.2446 3.3246-1.9759-0.12811-0.96769-2.801-1.494-5.97-1.1766-0.34699 0.0364-0.68483 0.081-1.0128 0.132zm-6.1999 9.7522c-5.9019 0.42676-6.5146 1.064-7.6202 2.2423-1.5588 1.6592-3.6124-2.154-3.6124-2.154-1.2321-0.25994-2.7257-2.2472-1.9201-4.1016 0.794-1.8342 2.2601-1.2851 2.7204-0.71423 0.55826 0.6956 1.7524 1.8342 3.3008 1.7929 1.549-0.0413 3.3366-0.36602 5.8291-0.36602 2.5255 0 4.2245 0.94339 4.3194 1.7532 0.082 0.69155-0.20495 1.3442-3.0171 1.5475" fill="#cd1e25"/>
</g>
</svg>
