<svg xmlns="http://www.w3.org/2000/svg" viewBox="0 0 268.04 20.64"><g id="Layer_2" data-name="Layer 2"><g id="Layer_1-2" data-name="Layer 1"><path d="M2.4,15.05A4.16,4.16,0,0,1,.64,13.66,3.51,3.51,0,0,1,0,11.56H2.44A2.2,2.2,0,0,0,3.15,13a2.5,2.5,0,0,0,1.77.58,2.72,2.72,0,0,0,1.84-.57,1.85,1.85,0,0,0,.66-1.47A1.61,1.61,0,0,0,7,10.44a2.73,2.73,0,0,0-1-.68A16.41,16.41,0,0,0,4.3,9.24a15.41,15.41,0,0,1-2.21-.73A3.66,3.66,0,0,1,.64,7.36,3.32,3.32,0,0,1,0,5.28a3.7,3.7,0,0,1,.6-2.1A3.83,3.83,0,0,1,2.32,1.8a6.09,6.09,0,0,1,2.5-.48,5.22,5.22,0,0,1,3.31,1A3.72,3.72,0,0,1,9.56,5.1H7a1.82,1.82,0,0,0-.72-1.3,2.66,2.66,0,0,0-1.74-.54,2.49,2.49,0,0,0-1.6.5A1.74,1.74,0,0,0,2.36,5.2a1.45,1.45,0,0,0,.39,1,2.8,2.8,0,0,0,1,.65,16.46,16.46,0,0,0,1.64.52,17.12,17.12,0,0,1,2.25.76A3.71,3.71,0,0,1,9.11,9.35a3.35,3.35,0,0,1,.61,2.11,3.79,3.79,0,0,1-.57,2A4.07,4.07,0,0,1,7.49,15a5.47,5.47,0,0,1-2.57.57A6.19,6.19,0,0,1,2.4,15.05Z"/><path d="M14.68,1.5v8.86a3.17,3.17,0,0,0,.83,2.38,3.19,3.19,0,0,0,2.31.8,3.23,3.23,0,0,0,2.33-.8A3.17,3.17,0,0,0,21,10.36V1.5h2.28v8.82a5.36,5.36,0,0,1-.74,2.88,4.56,4.56,0,0,1-2,1.76,6.35,6.35,0,0,1-2.74.58A6.27,6.27,0,0,1,15.07,15a4.48,4.48,0,0,1-2-1.76,5.45,5.45,0,0,1-.72-2.88V1.5Z"/><path d="M28.28,15.05a4.16,4.16,0,0,1-1.76-1.39,3.51,3.51,0,0,1-.64-2.1h2.44A2.2,2.2,0,0,0,29,13a2.5,2.5,0,0,0,1.77.58,2.72,2.72,0,0,0,1.84-.57,1.85,1.85,0,0,0,.66-1.47,1.61,1.61,0,0,0-.41-1.14,2.73,2.73,0,0,0-1-.68,16.41,16.41,0,0,0-1.69-.52A15.41,15.41,0,0,1,28,8.51a3.66,3.66,0,0,1-1.45-1.15,3.32,3.32,0,0,1-.6-2.08,3.7,3.7,0,0,1,.6-2.1A3.83,3.83,0,0,1,28.2,1.8a6.09,6.09,0,0,1,2.5-.48,5.22,5.22,0,0,1,3.31,1A3.72,3.72,0,0,1,35.44,5.1H32.92a1.82,1.82,0,0,0-.72-1.3,2.66,2.66,0,0,0-1.74-.54,2.49,2.49,0,0,0-1.6.5,1.74,1.74,0,0,0-.62,1.44,1.45,1.45,0,0,0,.39,1,2.8,2.8,0,0,0,1,.65,16.46,16.46,0,0,0,1.64.52,17.12,17.12,0,0,1,2.25.76A3.71,3.71,0,0,1,35,9.35a3.35,3.35,0,0,1,.61,2.11,3.79,3.79,0,0,1-.57,2A4.07,4.07,0,0,1,33.37,15a5.47,5.47,0,0,1-2.57.57A6.19,6.19,0,0,1,28.28,15.05Z"/><path d="M40.58,3.34V7.42h4.8V9.28h-4.8v4.26H46V15.4H38.3V1.48H46V3.34Z"/><path d="M56.26,13.56H61V15.4H54V1.5h2.28Z"/><path d="M63,2.5a1.42,1.42,0,0,1-.42-1A1.43,1.43,0,0,1,64,0a1.39,1.39,0,0,1,1,.42,1.42,1.42,0,0,1,.42,1,1.42,1.42,0,0,1-.42,1,1.39,1.39,0,0,1-1,.42A1.42,1.42,0,0,1,63,2.5Zm2.16,1.88v11H62.86v-11Z"/><path d="M76,4.74a3.88,3.88,0,0,1,1.61,1.6,5.24,5.24,0,0,1,.58,2.56v6.5H76V9.24A3.21,3.21,0,0,0,75.22,7a3,3,0,0,0-4,0,3.17,3.17,0,0,0-.75,2.27V15.4H68.14v-11h2.28V5.64a3.75,3.75,0,0,1,1.43-1.06A4.6,4.6,0,0,1,73.7,4.2,4.94,4.94,0,0,1,76,4.74Z"/><path d="M91.1,4.38v11H88.82V14.1a3.72,3.72,0,0,1-1.41,1.07,4.48,4.48,0,0,1-1.85.39A4.94,4.94,0,0,1,83.23,15a3.84,3.84,0,0,1-1.62-1.6A5.13,5.13,0,0,1,81,10.86V4.38h2.26v6.14A3.21,3.21,0,0,0,84,12.79a2.62,2.62,0,0,0,2,.79,2.66,2.66,0,0,0,2-.79,3.17,3.17,0,0,0,.75-2.27V4.38Z"/><path d="M98.82,9.82l3.56,5.58H99.8l-2.38-3.74L95.18,15.4H92.8L96.36,10,92.8,4.38h2.58l2.38,3.74L100,4.38h2.38Z"/><path d="M111.56,3.34V7.42h4.8V9.28h-4.8v4.26H117V15.4h-7.68V1.48H117V3.34Z"/><path d="M127.65,4.74a3.88,3.88,0,0,1,1.61,1.6,5.35,5.35,0,0,1,.58,2.56v6.5h-2.26V9.24A3.21,3.21,0,0,0,126.84,7a3,3,0,0,0-4,0A3.17,3.17,0,0,0,122,9.24V15.4h-2.28v-11H122V5.64a3.75,3.75,0,0,1,1.43-1.06,4.6,4.6,0,0,1,1.85-.38A5,5,0,0,1,127.65,4.74Z"/><path d="M135.4,6.24v6.1a1.15,1.15,0,0,0,.29.89,1.43,1.43,0,0,0,1,.27h1.4v1.9h-1.8a3.45,3.45,0,0,1-2.36-.72,3,3,0,0,1-.82-2.34V6.24h-1.3V4.38h1.3V1.64h2.3V4.38h2.68V6.24Z"/><path d="M150.2,10.74h-8.42a3,3,0,0,0,1,2.12,3.09,3.09,0,0,0,2.16.8,2.67,2.67,0,0,0,2.6-1.54H150a5.05,5.05,0,0,1-1.81,2.49,5.31,5.31,0,0,1-3.25,1,5.64,5.64,0,0,1-2.83-.71,5,5,0,0,1-2-2,6,6,0,0,1-.71-3,6.25,6.25,0,0,1,.69-3,4.83,4.83,0,0,1,1.94-2,5.73,5.73,0,0,1,2.87-.7,5.67,5.67,0,0,1,2.78.68,4.85,4.85,0,0,1,1.9,1.91,5.78,5.78,0,0,1,.68,2.83A7.55,7.55,0,0,1,150.2,10.74ZM147.9,8.9a2.64,2.64,0,0,0-.9-2,3.22,3.22,0,0,0-2.18-.76,2.92,2.92,0,0,0-2,.75,3.11,3.11,0,0,0-1,2Z"/><path d="M156.13,4.67a4,4,0,0,1,2-.47V6.56h-.58a2.78,2.78,0,0,0-2,.68,3.25,3.25,0,0,0-.69,2.36v5.8h-2.28v-11h2.28V6A3.49,3.49,0,0,1,156.13,4.67Z"/><path d="M164.06,4.72a4.77,4.77,0,0,1,2.26-.52,5,5,0,0,1,4.5,2.7,6.19,6.19,0,0,1,.68,2.94,6.37,6.37,0,0,1-.68,3,5.2,5.2,0,0,1-1.87,2,4.92,4.92,0,0,1-2.63.73,4.77,4.77,0,0,1-2.24-.51,4.87,4.87,0,0,1-1.6-1.27v6.84H160.2V4.38h2.28V6A4.54,4.54,0,0,1,164.06,4.72Zm4.65,3.15a3.26,3.26,0,0,0-2.89-1.69,3.24,3.24,0,0,0-1.63.44A3.19,3.19,0,0,0,163,7.9a3.92,3.92,0,0,0-.47,2,4,4,0,0,0,.47,2,3.15,3.15,0,0,0,1.24,1.29,3.24,3.24,0,0,0,3.28,0,3.41,3.41,0,0,0,1.24-1.31,4.13,4.13,0,0,0,.47-2A4,4,0,0,0,168.71,7.87Z"/><path d="M177.37,4.67a4,4,0,0,1,2-.47V6.56h-.58a2.78,2.78,0,0,0-2,.68A3.25,3.25,0,0,0,176,9.6v5.8h-2.28v-11H176V6A3.49,3.49,0,0,1,177.37,4.67Z"/><path d="M181.56,2.5a1.42,1.42,0,0,1-.42-1,1.42,1.42,0,0,1,.42-1,1.47,1.47,0,0,1,2.06,0,1.42,1.42,0,0,1,.42,1,1.42,1.42,0,0,1-.42,1,1.47,1.47,0,0,1-2.06,0Zm2.16,1.88v11h-2.28v-11Z"/><path d="M188.39,15.11a4,4,0,0,1-1.63-1.28,3.13,3.13,0,0,1-.64-1.81h2.36a1.59,1.59,0,0,0,.67,1.17,2.43,2.43,0,0,0,1.53.47,2.57,2.57,0,0,0,1.49-.37,1.12,1.12,0,0,0,.53-.95,1,1,0,0,0-.59-.92,11.4,11.4,0,0,0-1.87-.66,19.28,19.28,0,0,1-2-.66,3.51,3.51,0,0,1-1.35-1,2.57,2.57,0,0,1-.57-1.74,2.69,2.69,0,0,1,.52-1.61,3.38,3.38,0,0,1,1.49-1.15,5.54,5.54,0,0,1,2.23-.42,4.64,4.64,0,0,1,3,1,3.46,3.46,0,0,1,1.23,2.59h-2.28a1.62,1.62,0,0,0-.6-1.18,2.27,2.27,0,0,0-1.46-.44,2.34,2.34,0,0,0-1.38.34,1.06,1.06,0,0,0-.48.9,1,1,0,0,0,.32.74,2.17,2.17,0,0,0,.78.47c.3.11.76.26,1.36.43a14.64,14.64,0,0,1,2,.65,3.71,3.71,0,0,1,1.33,1,2.62,2.62,0,0,1,.58,1.7,2.88,2.88,0,0,1-.52,1.68A3.51,3.51,0,0,1,193,15.16a5.51,5.51,0,0,1-2.23.42A5.57,5.57,0,0,1,188.39,15.11Z"/><path d="M207.42,10.74H199a3,3,0,0,0,1,2.12,3.09,3.09,0,0,0,2.16.8,2.67,2.67,0,0,0,2.6-1.54h2.46a5.05,5.05,0,0,1-1.81,2.49,5.31,5.31,0,0,1-3.25,1,5.64,5.64,0,0,1-2.83-.71,5,5,0,0,1-2-2,6,6,0,0,1-.71-3,6.25,6.25,0,0,1,.69-3,4.83,4.83,0,0,1,1.94-2,5.73,5.73,0,0,1,2.87-.7,5.67,5.67,0,0,1,2.78.68,4.85,4.85,0,0,1,1.9,1.91,5.78,5.78,0,0,1,.68,2.83A7.55,7.55,0,0,1,207.42,10.74Zm-2.3-1.84a2.64,2.64,0,0,0-.9-2A3.22,3.22,0,0,0,202,6.12a2.92,2.92,0,0,0-2,.75,3.11,3.11,0,0,0-1,2Z"/><path d="M229.58,1.5V15.4H227.3V5.88l-4.24,9.52h-1.58l-4.26-9.52V15.4h-2.28V1.5h2.46l4.88,10.9,4.86-10.9Z"/><path d="M232.7,2.5a1.42,1.42,0,0,1-.42-1,1.42,1.42,0,0,1,.42-1,1.47,1.47,0,0,1,2.06,0,1.42,1.42,0,0,1,.42,1,1.42,1.42,0,0,1-.42,1,1.47,1.47,0,0,1-2.06,0Zm2.16,1.88v11h-2.28v-11Z"/><path d="M237.79,6.89a4.89,4.89,0,0,1,1.91-2,5.47,5.47,0,0,1,2.8-.7,5.54,5.54,0,0,1,3.31,1,4.71,4.71,0,0,1,1.77,2.71h-2.46a2.6,2.6,0,0,0-1-1.28,2.83,2.83,0,0,0-1.66-.46,2.75,2.75,0,0,0-2.23,1,4.15,4.15,0,0,0-.83,2.77,4.19,4.19,0,0,0,.83,2.78,2.73,2.73,0,0,0,2.23,1,2.53,2.53,0,0,0,2.62-1.74h2.46a4.92,4.92,0,0,1-1.8,2.67,5.33,5.33,0,0,1-3.28,1,5.47,5.47,0,0,1-2.8-.71,4.91,4.91,0,0,1-1.91-2,6.25,6.25,0,0,1-.69-3A6.25,6.25,0,0,1,237.79,6.89Z"/><path d="M253.47,4.67a4,4,0,0,1,2-.47V6.56h-.58a2.78,2.78,0,0,0-2,.68,3.25,3.25,0,0,0-.69,2.36v5.8h-2.28v-11h2.28V6A3.49,3.49,0,0,1,253.47,4.67Z"/><path d="M259.5,14.87a5.08,5.08,0,0,1-2-2,6,6,0,0,1-.73-3,5.86,5.86,0,0,1,.75-3,5.09,5.09,0,0,1,2-2,6.21,6.21,0,0,1,5.73,0,5.09,5.09,0,0,1,2,2,5.86,5.86,0,0,1,.75,3,5.87,5.87,0,0,1-.76,3,5.26,5.26,0,0,1-2.07,2,6,6,0,0,1-2.89.71A5.65,5.65,0,0,1,259.5,14.87ZM264,13.18a3.1,3.1,0,0,0,1.25-1.26,4,4,0,0,0,.49-2,4.2,4.2,0,0,0-.46-2A3.19,3.19,0,0,0,264,6.6a3.36,3.36,0,0,0-1.64-.42,3.27,3.27,0,0,0-1.63.42,3.08,3.08,0,0,0-1.2,1.25,4.32,4.32,0,0,0-.43,2,3.85,3.85,0,0,0,.91,2.75,3,3,0,0,0,2.29,1A3.36,3.36,0,0,0,264,13.18Z"/></g></g></svg>