<svg xmlns="http://www.w3.org/2000/svg" width="270.765" height="29.032" fill="#fff"><path fill="#35b9ab" d="M143.508 0v26.583h2.465l.261-1.868h.114c1.605 1.457 3.507 2.317 5.187 2.317 4.144 0 7.84-3.623 7.84-9.82 0-5.6-2.499-9.22-7.203-9.22-2.016 0-4.033 1.083-5.676 2.54l.074-3.286V0zm20.637 0v22.926c0 2.651.935 4.106 3.25 4.106.821 0 1.343-.11 1.754-.297l-.41-2.316c-.336.074-.485.074-.672.074-.448 0-.86-.373-.86-1.344V0zm103.522 0v6.985l.148 3.097c-1.605-1.306-2.983-2.09-5.074-2.09-4.144 0-7.879 3.657-7.879 9.555 0 6.048 2.95 9.485 7.504 9.485 2.128 0 4.07-1.193 5.489-2.574h.113l.258 2.125h2.539V0zM72.002 2.094v2.613h7.39v21.876h3.137V4.707h7.395V2.094zm49.138 5.898c-2.166 0-4.069 1.342-5.637 3.06h-.11l-.261-2.614h-2.54v18.144h3.06v-13.14c1.68-1.867 3.21-2.801 4.554-2.801 2.315 0 3.399 1.458 3.399 4.855v11.087h3.062V13.442c1.68-1.867 3.136-2.801 4.555-2.801 2.278 0 3.36 1.458 3.36 4.855v11.087h3.062V15.086c0-4.63-1.794-7.094-5.527-7.094-2.203 0-4.07 1.42-5.973 3.473-.747-2.165-2.241-3.473-5.004-3.473zm59.353 0c-4.144 0-8.14 3.62-8.14 9.555 0 5.936 3.845 9.485 8.699 9.485 2.464 0 4.404-.86 5.972-1.867l-1.082-2.016c-1.344.859-2.798 1.418-4.515 1.418-3.473 0-5.823-2.463-6.047-6.309h12.242c.075-.448.113-1.119.113-1.754 0-5.19-2.613-8.512-7.242-8.512zm45.427 0c-4.144 0-8.137 3.62-8.137 9.555 0 5.936 3.846 9.485 8.7 9.485 2.463 0 4.404-.86 5.972-1.867l-1.082-2.016c-1.344.859-2.802 1.418-4.52 1.418-3.472 0-5.823-2.463-6.047-6.309h12.247c.075-.448.11-1.119.11-1.754 0-5.19-2.614-8.512-7.243-8.512zm18.524 0c-4.144 0-8.141 3.62-8.141 9.555 0 5.936 3.846 9.485 8.7 9.485 2.463 0 4.404-.86 5.972-1.867l-1.082-2.016c-1.344.859-2.802 1.418-4.52 1.418-3.472 0-5.822-2.463-6.046-6.309h12.246c.075-.448.113-1.119.113-1.754 0-5.19-2.613-8.512-7.242-8.512zm-152.457.446v11.5c0 4.63 1.717 7.094 5.562 7.094 2.502 0 4.293-1.307 5.973-3.285h.113l.262 2.836h2.54V8.438h-3.063v12.883c-1.718 2.128-3.024 3.059-4.891 3.059-2.39 0-3.399-1.455-3.399-4.852V8.438zm98.284 0l5.043 18.145h3.582l2.539-9.708c.485-1.717.859-3.432 1.27-5.261h.148c.448 1.829.786 3.509 1.234 5.226l2.614 9.743h3.73l4.856-18.145h-2.914l-2.649 10.492c-.373 1.718-.71 3.36-1.121 5.04h-.148c-.411-1.68-.822-3.322-1.27-5.04l-2.836-10.492h-2.988L198.56 18.93c-.448 1.68-.82 3.36-1.23 5.04h-.15c-.335-1.68-.674-3.322-1.085-5.04l-2.688-10.492zm-9.704 1.98c2.838 0 4.48 1.978 4.48 5.637h-9.707c.374-3.584 2.688-5.637 5.227-5.637zm45.427 0c2.838 0 4.48 1.978 4.48 5.637h-9.707c.374-3.584 2.688-5.637 5.227-5.637zm18.524 0c2.837 0 4.48 1.978 4.48 5.637h-9.707c.374-3.584 2.688-5.637 5.227-5.637zm-93.092.149c3.435 0 4.777 2.689 4.777 6.683 0 4.48-2.205 7.208-5.191 7.208-1.195 0-2.836-.525-4.442-1.907v-9.519c1.718-1.605 3.325-2.464 4.856-2.464zm111.835 0c1.493 0 2.875.525 4.406 1.906v9.48c-1.493 1.68-2.949 2.505-4.629 2.505-3.173 0-5.004-2.615-5.004-6.946 0-4.144 2.315-6.945 5.227-6.945zM46.073.995c-2.75 0-5.423.794-7.803 2.151-2.316 1.32-4.334 3.108-6.131 5.063a43.743 43.743 0 00-2.049 2.404 69.36 69.36 0 00-1.837 2.435c-.304.418-.606.838-.909 1.258-.603.838-1.217 1.677-1.92 2.437a53.718 53.718 0 01-2 2.05c-1.707 1.659-3.528 3.235-5.54 4.514-1.59 1.011-3.451 1.975-5.383 1.975-5.18 0-9.822-4.107-9.822-10.357 0-6.25 4.464-9.643 9.822-9.643 3.104 0 5.85 1.324 8.512 3.616l-1.425 1.466 3.486.88 3.485.881-.98-3.459-.98-3.458-1.559 1.604c-2.725-2.437-6.11-4.388-10.36-4.388-6.966 0-12.68 5-12.68 12.68 0 7.321 5.714 12.678 12.144 12.678 2.66 0 5.236-.793 7.52-2.137 2.047-1.208 3.834-2.8 5.475-4.508a73.403 73.403 0 001.626-1.76c.693-.77 1.343-1.533 1.923-2.407l.765-1.151c.47-.706.903-1.406 1.406-2.093a48.408 48.408 0 012.942-3.67c1.753-1.962 3.74-3.788 6.08-5.027 1.856-.983 3.91-1.534 6.014-1.534 7.322 0 11.429 5.09 11.429 11.607 0 6.072-3.929 11.073-10.715 11.073-3.879 0-7.28-1.052-10.862-4.15l1.66-2.018-3.546-.589-3.547-.59 1.263 3.366 1.263 3.367 1.41-1.715c3.473 3.124 7.258 5.186 12.18 5.186 8.214 0 13.572-6.25 13.572-14.108 0-8.215-5.536-13.93-13.929-13.93"/></svg>