<?xml version="1.0" encoding="UTF-8" standalone="no"?>
<svg
   xmlns:dc="http://purl.org/dc/elements/1.1/"
   xmlns:cc="http://creativecommons.org/ns#"
   xmlns:rdf="http://www.w3.org/1999/02/22-rdf-syntax-ns#"
   xmlns:svg="http://www.w3.org/2000/svg"
   xmlns="http://www.w3.org/2000/svg"
   xmlns:sodipodi="http://sodipodi.sourceforge.net/DTD/sodipodi-0.dtd"
   xmlns:inkscape="http://www.inkscape.org/namespaces/inkscape"
   style="fill:#ffffff"
   width="288"
   height="44"
   preserveAspectRatio="xMidYMid meet"
   viewBox="0 0 288 44"
   version="1.1"
   id="svg6"
   sodipodi:docname="os-tumbleweed.svg"
   inkscape:version="0.92.2 5c3e80d, 2017-08-06">
  <metadata
     id="metadata12">
    <rdf:RDF>
      <cc:Work
         rdf:about="">
        <dc:format>image/svg+xml</dc:format>
        <dc:type
           rdf:resource="http://purl.org/dc/dcmitype/StillImage" />
        <dc:title></dc:title>
      </cc:Work>
    </rdf:RDF>
  </metadata>
  <defs
     id="defs10" />
  <sodipodi:namedview
     pagecolor="#ffffff"
     bordercolor="#666666"
     borderopacity="1"
     objecttolerance="10"
     gridtolerance="10"
     guidetolerance="10"
     inkscape:pageopacity="0"
     inkscape:pageshadow="2"
     inkscape:window-width="877"
     inkscape:window-height="692"
     id="namedview8"
     showgrid="false"
     inkscape:zoom="1.3368056"
     inkscape:cx="144"
     inkscape:cy="22"
     inkscape:window-x="771"
     inkscape:window-y="95"
     inkscape:window-maximized="0"
     inkscape:current-layer="svg6" />
  <path
     d="m 54.073256,7.962876 c -2.749699,0 -5.422962,0.79462 -7.803653,2.151455 -2.315536,1.318834 -4.333484,3.108081 -6.130905,5.062331 a 43.742686,43.742684 0 0 0 -2.048649,2.403862 69.359544,69.359544 0 0 0 -1.837515,2.435063 c -0.303854,0.418611 -0.605824,0.838422 -0.908424,1.258633 -0.603315,0.838221 -1.217283,1.677043 -1.919585,2.436462 a 53.71778,53.71778 0 0 1 -2.001036,2.050454 c -1.706578,1.658442 -3.527807,3.234883 -5.539489,4.513916 -1.590679,1.011226 -3.451375,1.974851 -5.382869,1.974851 -5.179254,0 -9.822228,-4.106706 -9.822228,-10.357267 0,-6.249962 4.464424,-9.64305 9.822228,-9.64305 3.104296,0 5.848981,1.324435 8.512224,3.616094 l -1.425283,1.466038 3.485832,0.881023 3.485206,0.880622 -0.979841,-3.458889 -0.979844,-3.458889 -1.559352,1.604441 C 28.315437,11.342963 24.929215,9.392113 20.679684,9.392113 13.714284,9.392113 8,14.392242 8,22.07124 c 0,7.321789 5.714284,12.678328 12.144028,12.678328 2.660108,0 5.235641,-0.792421 7.519224,-2.137056 2.047395,-1.207031 3.834789,-2.799072 5.475587,-4.507116 0.553825,-0.575815 1.091987,-1.16643 1.626388,-1.759645 0.69228,-0.76982 1.342585,-1.53364 1.922722,-2.407663 l 0.764954,-1.151429 c 0.469246,-0.706019 0.902781,-1.405837 1.40586,-2.092454 0.92659,-1.265633 1.897659,-2.499865 2.942658,-3.669495 1.752941,-1.962851 3.738937,-3.789098 6.078907,-5.02813 1.856312,-0.983025 3.910595,-1.53364 6.014376,-1.53364 7.322505,0 11.429195,5.089532 11.429195,11.6075 0,6.071957 -3.928768,11.072086 -10.714987,11.072086 -3.878646,0 -7.279276,-1.051827 -10.861591,-4.149107 l 1.659593,-2.018052 -3.545975,-0.589415 -3.546604,-0.589616 1.262393,3.366087 1.263646,3.366087 1.410245,-1.714044 C 45.722042,33.938347 49.506716,36 54.430357,36 62.64437,36 68.00155,29.749438 68.00155,21.892036 c 0,-8.214813 -5.535107,-13.92916 -13.928296,-13.92916"
     id="path2"
     style="fill:#35b9ab;fill-opacity:1" />
  <path
     d="m 151.50761,6.968 v 26.582719 h 2.46491 l 0.26173,-1.867237 h 0.11328 c 1.60538,1.456038 3.50759,2.316466 5.18763,2.316466 4.14411,0 7.84005,-3.623073 7.84005,-9.820565 0,-5.600145 -2.49919,-9.218989 -7.20331,-9.218989 -2.01605,0 -4.03322,1.08309 -5.67593,2.539128 l 0.0742,-3.285241 V 6.968 Z m 20.63725,0 v 22.926374 c 0,2.650735 0.93536,4.105574 3.25009,4.105574 0.82135,0 1.34327,-0.110203 1.75395,-0.296883 l -0.41016,-2.316466 c -0.33601,0.07466 -0.48523,0.07422 -0.6719,0.07422 -0.44801,0 -0.8594,-0.373094 -0.8594,-1.343785 V 6.968 Z m 103.52221,0 v 6.984555 l 0.14841,3.097737 c -1.60538,-1.306701 -2.98364,-2.089898 -5.07435,-2.089898 -4.14411,0 -7.87913,3.656115 -7.87913,9.554933 0,6.048157 2.94932,9.484621 7.50412,9.484621 2.12805,0 4.0697,-1.192916 5.48842,-2.574284 h 0.1132 l 0.25783,2.125055 h 2.53912 V 6.968 Z M 80.00186,9.061804 v 2.613349 h 7.390815 v 21.875566 h 3.136801 V 11.675153 h 7.394723 V 9.061804 Z m 49.13799,5.89859 c -2.16539,0 -4.06883,1.341295 -5.63687,3.058673 h -0.10938 l -0.26172,-2.613349 h -2.53913 v 18.145001 h 3.05868 V 20.409753 c 1.68004,-1.866714 3.21077,-2.800853 4.5548,-2.800853 2.31473,0 3.39853,1.458173 3.39853,4.855594 v 11.086225 h 3.06257 V 20.409753 c 1.68005,-1.866714 3.13611,-2.800853 4.55481,-2.800853 2.27739,0 3.35946,1.458173 3.35946,4.855594 v 11.086225 h 3.06258 V 22.054328 c 0,-4.629453 -1.79406,-7.093934 -5.52748,-7.093934 -2.20273,0 -4.06877,1.419359 -5.97282,3.472746 -0.74668,-2.165389 -2.24129,-3.472746 -5.00403,-3.472746 z m 59.35309,0 c -4.1441,0 -8.14083,3.618781 -8.14083,9.554933 0,5.936154 3.84598,9.484621 8.69944,9.484621 2.46406,0 4.40478,-0.85921 5.97282,-1.867236 l -1.08207,-2.015676 c -1.34403,0.858688 -2.79836,1.418005 -4.51574,1.418005 -3.47209,0 -5.82302,-2.463324 -6.04703,-6.308757 h 12.2425 c 0.0746,-0.448012 0.1132,-1.119269 0.1132,-1.753952 0,-5.189467 -2.61291,-8.511938 -7.24237,-8.511938 z m 45.42696,0 c -4.14411,0 -8.13693,3.618781 -8.13693,9.554933 0,5.936154 3.84598,9.484621 8.69944,9.484621 2.46406,0 4.40477,-0.85921 5.97282,-1.867236 l -1.08207,-2.015676 c -1.34404,0.858688 -2.80228,1.418005 -4.51964,1.418005 -3.47209,0 -5.82303,-2.463324 -6.04704,-6.308757 h 12.24642 c 0.0746,-0.448012 0.1094,-1.119269 0.1094,-1.753952 0,-5.189467 -2.6129,-8.511938 -7.24236,-8.511938 z m 18.52391,0 c -4.1441,0 -8.14083,3.618781 -8.14083,9.554933 0,5.936154 3.84598,9.484621 8.69945,9.484621 2.46406,0 4.40477,-0.85921 5.97281,-1.867236 l -1.08206,-2.015676 c -1.34404,0.858688 -2.80228,1.418005 -4.51966,1.418005 -3.47209,0 -5.82301,-2.463324 -6.04702,-6.308757 h 12.2464 c 0.0746,-0.448012 0.1132,-1.119269 0.1132,-1.753952 0,-5.189467 -2.61291,-8.511938 -7.24237,-8.511938 z M 99.986752,15.405718 v 11.500297 c 0,4.629454 1.717208,7.093933 5.562648,7.093933 2.50139,0 4.29276,-1.306523 5.97281,-3.285241 h 0.11328 l 0.26173,2.836012 h 2.53912 V 15.405718 h -3.06258 v 12.883145 c -1.71737,2.128055 -3.02403,3.058673 -4.89075,3.058673 -2.38939,0 -3.39852,-1.454268 -3.39852,-4.851688 v -11.09013 z m 98.283788,0 5.04311,18.145001 h 3.58211 l 2.53912,-9.707283 c 0.48536,-1.717378 0.85891,-3.432475 1.26958,-5.261855 h 0.1484 c 0.44801,1.82938 0.7864,3.50932 1.23441,5.226698 l 2.61335,9.74244 h 3.73056 l 4.85558,-18.145001 h -2.91413 l -2.64849,10.492459 c -0.37335,1.717376 -0.71046,3.359149 -1.12113,5.039192 h -0.1484 c -0.41068,-1.680043 -0.82157,-3.321816 -1.26958,-5.039192 l -2.83599,-10.492459 h -2.98838 l -2.80085,10.492459 c -0.44801,1.680043 -0.81982,3.359149 -1.23049,5.039192 h -0.14841 c -0.336,-1.680043 -0.67527,-3.321816 -1.08596,-5.039192 l -2.68761,-10.492459 z m -9.70338,1.98052 c 2.83741,0 4.48058,1.978103 4.48058,5.636865 h -9.70727 c 0.37334,-3.584093 2.68796,-5.636865 5.22669,-5.636865 z m 45.42696,0 c 2.83741,0 4.48059,1.978103 4.48059,5.636865 h -9.70729 c 0.37335,-3.584093 2.68797,-5.636865 5.2267,-5.636865 z m 18.52392,0 c 2.83741,0 4.48057,1.978103 4.48057,5.636865 h -9.70727 c 0.37333,-3.584093 2.68797,-5.636865 5.2267,-5.636865 z m -93.09225,0.148442 c 3.43475,0 4.77746,2.688996 4.77746,6.683766 0,4.480115 -2.20479,7.207218 -5.19154,7.207218 -1.19469,0 -2.83614,-0.524932 -4.44152,-1.906299 v -9.519778 c 1.71738,-1.605375 3.32489,-2.464908 4.8556,-2.464907 z m 111.83491,0 c 1.49338,0 2.87566,0.52493 4.40637,1.906299 v 9.480714 c -1.49337,1.680041 -2.94899,2.503971 -4.62903,2.503971 -3.17341,0 -5.00403,-2.614714 -5.00403,-6.945494 0,-4.144107 2.31462,-6.94549 5.22669,-6.94549 z"
     id="path4"
     style="fill:#35b9ab;fill-opacity:1" />
</svg>
