<svg xmlns="http://www.w3.org/2000/svg" viewBox="0 0 240 80"><g stroke-width="3.395"><path fill="#231f20" d="M128.95 31.414v15.667c0 3.99 1.933 6.216 5.798 6.216a33.74 33.74 0 0 0 3.058-.137c1.004-.091 1.856-.228 2.556-.411V31.415h4.565V55.58c-1.37.487-2.952.837-4.748 1.05a40.353 40.353 0 0 1-5.432.366c-3.408 0-5.994-1.085-7.76-2.79-1.764-1.705-2.647-4.293-2.647-7.765V31.414h4.61m-70.714 0v15.667c0 3.99 1.932 6.216 5.797 6.216a33.74 33.74 0 0 0 3.058-.137c1.005-.092 1.857-.229 2.557-.411V31.414h4.564v24.167c-1.37.487-2.952.837-4.747 1.05a40.353 40.353 0 0 1-5.432.366c-3.408 0-5.995-1.085-7.76-2.79-1.765-1.705-2.647-4.294-2.647-7.765V31.414h4.61m51.997-8.084l-4.115.746-.01 24.915c0 4.78 2.588 7.915 8.278 7.915 1.4 0 4.115-.38 5.728-.654l-.544-3.225c-.031.126-3.631.492-5.552.387-1.92-.106-3.654-1.672-3.821-3.28l.009-15.065h9.484V31.41h-9.484l.028-8.08zM31.23 19l-4.613.746V55.58c2.708.944 5.584 1.42 8.627 1.42.521 0 1.026-.019 1.51-.056v-.01c8.998.044 13.655-7.09 12.45-15.37-.946-5.839-5.792-10.77-11.464-10.77-2.252 0-4.048.61-5.387 1.096-.408.155-.777.314-1.123.48V19zm6.464 15.498c5.062.25 7.09 4.704 7.247 9.084.215 5.989-3.964 10.212-9.605 9.713-1.302-.115-2.676-.162-4.106-.497V36.313a7.289 7.289 0 0 1 2.035-1.226c1.065-.396 2.545-.682 4.429-.59zM85.03 56.354h-4.61V32.419c1.4-.487 2.952-.838 4.656-1.05a38.37 38.37 0 0 1 5.34-.366c6.817 0 10.225 3.395 10.225 10.186v15.165h-4.565V40.549c0-3.897-1.886-5.846-5.66-5.846-1.004 0-1.978.045-2.921.137-.944.091-1.765.213-2.465.365v21.148M4.61 31.414v15.667c0 3.989 1.932 6.215 5.796 6.215a33.74 33.74 0 0 0 3.059-.137c1.004-.091 1.856-.228 2.556-.41V31.413h4.565V55.58c-1.37.487-2.952.838-4.748 1.05a40.353 40.353 0 0 1-5.432.366c-3.408 0-5.994-1.084-7.76-2.79C.884 52.502 0 49.914 0 46.443V31.414h4.61"/><path fill="#f47421" d="M169.376 31.078c0 5.368-4.352 9.72-9.72 9.72-5.37 0-9.721-4.352-9.721-9.72 0-5.37 4.352-9.721 9.72-9.721 5.369 0 9.721 4.352 9.721 9.72"/><path fill="#fff" d="M162.312 26.477a1.297 1.297 0 1 0 1.297-2.247 1.297 1.297 0 0 0-1.297 2.247zm-2.657 8.392c-.57 0-1.111-.127-1.597-.353l-.901 1.616a5.615 5.615 0 0 0 4.004.379 1.819 1.819 0 0 1 .888-1.287 1.818 1.818 0 0 1 1.556-.126 5.62 5.62 0 0 0 1.675-3.657l-1.85-.027a3.79 3.79 0 0 1-3.775 3.455zm0-7.583a3.79 3.79 0 0 1 3.776 3.455l1.85-.027a5.62 5.62 0 0 0-1.676-3.657 1.818 1.818 0 0 1-1.556-.126 1.818 1.818 0 0 1-.887-1.286 5.639 5.639 0 0 0-4.005.378l.902 1.616a3.776 3.776 0 0 1 1.596-.352zm-3.79 3.792c0-1.283.637-2.416 1.611-3.102l-.949-1.59a5.647 5.647 0 0 0-2.331 3.278c.41.335.672.843.672 1.414 0 .57-.262 1.079-.672 1.413a5.647 5.647 0 0 0 2.331 3.278l.95-1.59a3.785 3.785 0 0 1-1.613-3.101zm6.447 4.6a1.297 1.297 0 1 0 1.296 2.247 1.297 1.297 0 0 0-1.296-2.247zm-9.267-5.898a1.298 1.298 0 1 0 0 2.595 1.298 1.298 0 0 0 0-2.595"/></g></svg>