<svg version="1.1" viewBox="0 0 240 80" xmlns="http://www.w3.org/2000/svg" xmlns:cc="http://creativecommons.org/ns#" xmlns:dc="http://purl.org/dc/elements/1.1/" xmlns:rdf="http://www.w3.org/1999/02/22-rdf-syntax-ns#">
<metadata>
<rdf:RDF>
<cc:Work rdf:about="">
<dc:format>image/svg+xml</dc:format>
<dc:type rdf:resource="http://purl.org/dc/dcmitype/StillImage"/>
<dc:title/>
</cc:Work>
</rdf:RDF>
</metadata>
<g transform="matrix(.29457 0 0 .29457 33.318 17.38)" stroke-width="3.3947">
<path id="text" d="m450.26 47.644v53.186c-4e-5 13.542 6.56 21.1 19.68 21.1 3.5124 0 6.9732-0.15506 10.382-0.46519 3.409-0.31013 6.3016-0.77527 8.6777-1.3956v-72.425h15.496v82.039c-4.6489 1.654-10.021 2.8428-16.116 3.5664-6.0951 0.82704-12.242 1.2405-18.44 1.2405-11.57 0-20.351-3.6808-26.343-9.4699-5.9918-5.789-8.9877-14.576-8.9877-26.361v-51.016h15.651m-240.06 0v53.186c-4e-5 13.542 6.56 21.1 19.68 21.1 3.5124 0 6.9731-0.15506 10.382-0.46519 3.409-0.31013 6.3016-0.77527 8.6777-1.3956v-72.425h15.496v82.039c-4.6489 1.654-10.021 2.8428-16.116 3.5664-6.0951 0.82704-12.242 1.2405-18.44 1.2405-11.57 0-20.351-3.6808-26.343-9.4699-5.9918-5.789-8.9877-14.576-8.9877-26.361v-51.016h15.651m176.52-27.443-13.972 2.5336-0.0312 84.579c8e-5 16.23 8.7832 26.869 28.101 26.869 4.7521-4e-5 13.968-1.2905 19.443-2.2208l-1.8442-10.948c-0.1077 0.43061-12.328 1.6703-18.849 1.3137-6.5205-0.35663-12.404-5.6741-12.972-11.135l0.0312-51.141h32.196v-12.418h-32.196l0.0937-27.432zm-268.2-14.701-15.66 2.5336v121.65c9.1942 3.2046 18.958 4.817 29.289 4.817 1.7684 0 3.4805-0.0612 5.1264-0.18767v-0.0312c30.546 0.14717 46.355-24.072 42.266-52.178-3.2134-19.824-19.667-36.565-38.921-36.565-7.6446 0-13.741 2.0682-18.286 3.7222-1.3856 0.52381-2.6395 1.0635-3.8135 1.6265v-45.386h-5e-5zm21.943 52.612c17.186 0.84712 24.071 15.971 24.605 30.841 0.72995 20.329-13.459 34.667-32.607 32.973-4.421-0.39114-9.0859-0.55193-13.941-1.6891v-55.963c2.0452-1.7448 4.3517-3.1369 6.9081-4.1601 3.6158-1.3439 8.641-2.317 15.035-2.0019zm160.7 74.196h-15.651v-81.253c4.7521-1.6539 10.021-2.8427 15.806-3.5664 5.8884-0.82692 11.932-1.2404 18.13-1.2405 23.141 8e-5 34.711 11.526 34.711 34.579v51.481h-15.496v-53.652c-8e-5 -13.232-6.4051-19.848-19.215-19.848-3.4092 7e-5 -6.715 0.15507-9.9174 0.46518-3.2026 0.31014-5.9918 0.72372-8.3678 1.2405v71.794m-273.01-84.664v53.186c-4e-5 13.542 6.56 21.1 19.68 21.1 3.5124 0 6.9731-0.15506 10.382-0.46519 3.409-0.31013 6.3016-0.77527 8.6777-1.3956v-72.425h15.496v82.039c-4.6489 1.654-10.021 2.8428-16.116 3.5664-6.0951 0.82704-12.242 1.2405-18.44 1.2405-11.57 0-20.351-3.6808-26.343-9.4699-5.9918-5.789-8.9877-14.576-8.9877-26.361v-51.016h15.651" fill="#231f20"/>
<g id="logo" transform="matrix(.73333 0 0 .73333 517.83 9.8337)" stroke-width="3.3947">
<path id="roundel" d="m95 50c0 24.852-20.148 45-45.001 45-24.853 0-44.999-20.148-44.999-45 0-24.854 20.147-45 44.999-45 24.853 0 45.001 20.147 45.001 45" fill="#f47421"/>
<path id="circle-of-friends" d="m62.296 28.701c2.8734 1.6594 6.5466 0.67512 8.2048-2.1974 1.6591-2.8737 0.67569-6.5466-2.198-8.2056-2.8731-1.6585-6.546-0.67454-8.2051 2.1991-1.6585 2.8725-0.67455 6.5454 2.1982 8.2039zm-12.296 38.849c-2.6419 0-5.1455-0.58737-7.3928-1.6328l-4.1746 7.4809c3.487 1.7266 7.4128 2.7022 11.567 2.7022 2.4162 0 4.7524-0.33482 6.9726-0.94961 0.39282-2.413 1.8256-4.6369 4.1099-5.956 2.2802-1.3165 4.9192-1.4469 7.2035-0.58362 4.4424-4.3682 7.3331-10.311 7.7539-16.93l-8.5624-0.12469c-0.78798 8.965-8.309 15.993-17.478 15.993zm0-35.1c9.1685 0 16.69 7.0297 17.478 15.994l8.5624-0.12498c-0.42141-6.6179-3.3121-12.561-7.7551-16.929-2.284 0.86273-4.9227 0.73198-7.2032-0.58478-2.284-1.3185-3.7165-3.5421-4.1093-5.9554-2.2199-0.61422-4.5561-0.94932-6.9723-0.94932-4.1546 0-8.0801 0.9753-11.567 2.7025l4.1743 7.48c2.247-1.0454 4.7507-1.6328 7.3926-1.6328zm-17.55 17.55c0-5.9375 2.9507-11.182 7.4624-14.357l-4.3922-7.3579c-5.2575 3.513-9.1688 8.8828-10.793 15.173 1.8978 1.5468 3.1104 3.9024 3.1104 6.5431 0 2.6404-1.2128 4.996-3.1106 6.5425 1.6242 6.2903 5.5355 11.66 10.793 15.173l4.3925-7.3582c-4.5117-3.1753-7.4624-8.4195-7.4624-14.358zm29.846 21.298c-2.8737 1.6591-3.8576 5.3317-2.1988 8.2042 1.6591 2.8737 5.3317 3.8582 8.2054 2.1991 2.8728-1.6588 3.857-5.3317 2.198-8.2051-1.6585-2.8722-5.3317-3.8568-8.2045-2.1983zm-42.896-27.306c-3.3188 0-6.008 2.6889-6.008 6.0077 0 3.3179 2.6892 6.0071 6.008 6.0071 3.3176 0 6.0071-2.6892 6.0071-6.0071 0-3.3187-2.6895-6.0077-6.0071-6.0077" fill="#fff"/>
</g>
</g>
</svg>
