<svg xmlns="http://www.w3.org/2000/svg" width="283.464" height="63.659"><path d="M33.931 61.479c-1.725.432-3.999.889-6.826 1.374-2.83.483-6.102.726-9.817.726-3.23 0-5.952-.472-8.159-1.413-2.209-.941-3.986-2.274-5.332-3.998-1.348-1.724-2.316-3.757-2.908-6.101C.295 49.726 0 47.128 0 44.272V20.683h7.513v21.973c0 5.117.808 8.779 2.424 10.986 1.616 2.211 4.334 3.314 8.159 3.314.809 0 1.642-.029 2.505-.083a55.36 55.36 0 002.425-.202 92.775 92.775 0 002.059-.242c.619-.08 1.064-.173 1.334-.283V20.683h7.514v40.796zM52.267 22.54c.915-.592 2.304-1.211 4.161-1.857 1.857-.646 3.999-.969 6.422-.969 3.016 0 5.696.539 8.039 1.615 2.342 1.078 4.322 2.584 5.938 4.523 1.614 1.939 2.839 4.256 3.675 6.947.834 2.695 1.253 5.656 1.253 8.888 0 3.392-.5 6.45-1.494 9.168-.999 2.72-2.412 5.021-4.242 6.907-1.832 1.885-4.039 3.34-6.625 4.362-2.584 1.023-5.493 1.535-8.725 1.535-3.502 0-6.598-.244-9.289-.728-2.693-.485-4.902-.97-6.625-1.454V1.296L52.268.003V22.54zm0 33.606c.755.216 1.818.42 3.192.605 1.373.191 3.082.284 5.129.284 4.039 0 7.271-1.334 9.693-3.999 2.425-2.666 3.637-6.45 3.637-11.349 0-2.153-.216-4.173-.646-6.062-.432-1.883-1.132-3.514-2.102-4.885-.969-1.375-2.222-2.451-3.756-3.232-1.534-.781-3.38-1.172-5.533-1.172-2.049 0-3.932.352-5.654 1.051-1.727.701-3.045 1.428-3.96 2.182zM123.679 61.479c-1.725.432-4 .889-6.826 1.374-2.827.483-6.1.726-9.816.726-3.23 0-5.95-.472-8.158-1.413-2.209-.941-3.986-2.274-5.331-3.998-1.348-1.724-2.315-3.757-2.909-6.101-.593-2.341-.889-4.939-.889-7.795V20.683h7.512v21.973c0 5.117.809 8.779 2.424 10.986 1.617 2.211 4.336 3.314 8.159 3.314.81 0 1.644-.029 2.505-.083a55.57 55.57 0 002.424-.202 92.34 92.34 0 002.061-.242c.618-.08 1.062-.173 1.331-.283V20.683h7.514v40.796zM134.503 21.896c1.723-.432 4.01-.889 6.867-1.375 2.852-.484 6.138-.727 9.854-.727 3.34 0 6.113.473 8.32 1.414 2.208.943 3.972 2.262 5.293 3.959 1.317 1.695 2.246 3.729 2.786 6.098.538 2.373.808 4.984.808 7.837V62.69h-7.513V40.717c0-2.584-.176-4.791-.525-6.624-.351-1.833-.929-3.313-1.737-4.442-.808-1.133-1.885-1.953-3.231-2.465-1.346-.514-3.018-.768-5.007-.768-.811 0-1.645.027-2.504.08a60.24 60.24 0 00-2.464.203c-.784.08-1.481.176-2.102.281-.62.109-1.063.189-1.333.242v35.464h-7.512zM185.798 20.683h15.914v6.301h-15.914v19.388c0 2.1.161 3.84.485 5.212.324 1.372.809 2.451 1.454 3.229a5.218 5.218 0 002.423 1.656c.97.324 2.1.487 3.392.487 2.314 0 4.147-.258 5.494-.771 1.345-.511 2.262-.874 2.748-1.09l1.614 6.141c-.755.378-2.088.863-3.999 1.453-1.912.593-4.078.889-6.502.889-2.856 0-5.212-.362-7.07-1.089-1.856-.729-3.351-1.817-4.482-3.273-1.131-1.453-1.925-3.243-2.382-5.372-.46-2.126-.688-4.59-.688-7.391V8.97l7.513-1.293zM242.588 61.479c-1.726.432-3.999.889-6.826 1.374-2.827.483-6.101.726-9.814.726-3.232 0-5.952-.472-8.161-1.413-2.209-.941-3.986-2.274-5.33-3.998-1.348-1.724-2.316-3.757-2.91-6.101-.592-2.341-.889-4.939-.889-7.795V20.683h7.515v21.973c0 5.117.808 8.779 2.424 10.986 1.614 2.211 4.334 3.314 8.159 3.314.807 0 1.641-.029 2.504-.083a55.338 55.338 0 002.422-.202 91.648 91.648 0 002.061-.242c.617-.08 1.063-.173 1.334-.283V20.683h7.513v40.796z"/><g transform="translate(-70.867 -73.051)"><circle cx="337.365" cy="90.017" r="16.966" fill="#e95420"/><path fill="#fff" d="M328.784 90.017a2.071 2.071 0 11-4.143 0 2.071 2.071 0 014.143 0zm11.79 10.075a2.07 2.07 0 103.586-2.073 2.07 2.07 0 00-2.828-.758 2.07 2.07 0 00-.758 2.831zm3.586-18.079a2.07 2.07 0 10-3.586-2.071 2.07 2.07 0 103.586 2.071zm-7.012 2.094a5.91 5.91 0 015.886 5.385l2.999-.046a8.88 8.88 0 00-2.614-5.749 2.906 2.906 0 01-2.509-.194 2.906 2.906 0 01-1.424-2.078 8.93 8.93 0 00-6.286.611l1.458 2.62a5.898 5.898 0 012.49-.549zm-5.91 5.91c0-2 .994-3.767 2.514-4.836l-1.539-2.573a8.92 8.92 0 00-3.673 5.137 2.913 2.913 0 010 4.543 8.925 8.925 0 003.673 5.138l1.539-2.573a5.905 5.905 0 01-2.514-4.836zm5.91 5.908a5.91 5.91 0 01-2.49-.548l-1.458 2.62c1.19.59 2.53.921 3.948.921.809 0 1.592-.107 2.338-.311a2.908 2.908 0 011.424-2.078 2.91 2.91 0 012.509-.193 8.878 8.878 0 002.614-5.75l-2.999-.047a5.907 5.907 0 01-5.886 5.386z"/></g></svg>