<svg xmlns="http://www.w3.org/2000/svg" viewBox="0 0 54.111 23.614"><g stroke-width=".657"><g stroke-width=".637" opacity=".5"><path fill="none" stroke="#fff" stroke-dasharray="1.433 1.433" stroke-width=".478" d="M1095.829 230.468c32.248-2.427 50.963 2.136 83.228-35.22" transform="matrix(.55375 0 0 .55401 -606.801 -103.726)"/><path fill="#fff" d="M50.174.53c-.376-.014-.947.281-1.46.792l-1.105 1.1-3.313-1.113-.646.667 2.498 1.9-.558.555c-.199.197-.361.403-.492.605l-1.505-.113-.367.373 1.497 1.109 1.094 1.494.37-.37-.112-1.52c.19-.124.383-.279.57-.464l.588-.585 1.917 2.518.667-.646L48.699 3.5l1.07-1.065c.685-.68 1-1.477.707-1.785a.423.423 0 0 0-.302-.121z"/></g><g stroke-width=".986" opacity=".5"><path fill="none" stroke="#fff" stroke-dasharray="2.218 2.218" stroke-width=".739" d="M1095.829 230.468c32.248-2.427 50.963 2.136 83.228-35.22" transform="matrix(.35791 0 0 .35784 -392.2 -58.46)"/><path fill="#fff" d="M32.438 8.88c-.244-.01-.612.182-.944.511l-.714.71-2.142-.718-.417.431 1.614 1.227-.36.359c-.129.127-.234.26-.318.39l-.973-.072-.237.24.967.717.708.965.238-.239-.072-.982c.123-.08.248-.18.368-.3l.38-.378 1.24 1.627.43-.418-.722-2.15.692-.689c.442-.44.646-.954.457-1.153a.273.273 0 0 0-.195-.078z"/></g><g stroke-width="1.021" opacity=".5"><path fill="none" stroke="#fff" stroke-dasharray="2.297 2.297" stroke-width=".766" d="M1095.829 230.468c32.248-2.427 50.963 2.136 83.228-35.22" transform="matrix(.34555 0 0 .34545 -356.11 -55.613)"/><path fill="#fff" d="M53.854 9.395c-.234-.009-.59.176-.91.494l-.69.686-2.067-.694-.404.416 1.56 1.184-.35.347a2.277 2.277 0 0 0-.306.377l-.939-.07-.23.232.935.691.683.932.23-.23-.07-.949c.12-.077.24-.173.356-.289l.367-.365 1.196 1.57.417-.402-.698-2.077.668-.664c.427-.425.624-.921.441-1.114a.264.264 0 0 0-.188-.075z"/></g></g></svg>